<svg xmlns="http://www.w3.org/2000/svg" width="692.333" height="760.252" viewBox="0 0 649.062 712.736"><g style="display:inline"><g style="display:inline;opacity:1"><path d="M419.84 584.573c-1.11 4.235-3.115 7.142-5.85 9.023-2.733 1.88-6.191 2.76-10.137 3.24-3.945.478-8.373.597-13.053.66s-9.607.027-14.585-.15c-4.979-.175-9.678-.662-13.95-1.444-4.27-.782-8.122-1.835-11.288-3.158-3.165-1.323-5.635-2.923-7.074-4.89-1.439-1.968-1.838-4.3-.941-7.08.896-2.779 2.647-4.652 5.058-5.712s5.478-1.298 8.97-1.047 7.402.982 11.607 1.607 8.715 1.101 13.557.957c4.842-.143 9.822-1.206 14.6-2.186 4.777-.98 9.356-1.805 13.205-1.762s6.938.923 8.725 2.848.05 13.33 1.156 9.094" style="color:#000;clip-rule:nonzero;display:inline;overflow:visible;opacity:1;isolation:auto;mix-blend-mode:normal;color-interpolation:sRGB;color-interpolation-filters:linearRGB;solid-color:#000;solid-opacity:1;fill:#f5c3d2;fill-opacity:1;fill-rule:nonzero;stroke:none;stroke-width:10;stroke-linecap:butt;stroke-linejoin:miter;stroke-miterlimit:4;stroke-dasharray:none;stroke-dashoffset:0;stroke-opacity:1;color-rendering:auto;image-rendering:auto;shape-rendering:auto;text-rendering:auto" transform="matrix(-.54617 .11528 .2457 .73176 597.763 -98.982)"/><path d="M411.667 570.505c-3.645-.32-7.912.035-12.443.673-5.179.73-10.69 1.783-16.256 1.964-5.566.18-10.757-.278-15.64-.874-4.885-.596-9.469-1.263-13.594-1.35-4.126-.089-7.779.412-10.667 1.77-2.888 1.357-5.006 3.55-6.114 6.605-1.107 3.054-.683 5.795.966 8.195s4.516 4.463 8.197 6.211 8.163 3.194 13.122 4.283 10.401 1.796 16.157 2.057c5.756.262 11.242.3 16.338.22 5.097-.08 9.799-.251 13.94-.875a34 34 0 0 0 4.471-.962c2.833-.826 3.606-5.67 1.067-4.353-2.352 1.219-5.13 1.888-8.234 2.279-3.784.476-8.035.605-12.53.676-4.496.071-9.23.04-14.014-.121-4.784-.162-9.297-.62-13.4-1.363-4.101-.743-7.798-1.746-10.836-3.01-3.037-1.264-5.405-2.797-6.784-4.68s-1.759-4.116-.894-6.78 2.549-4.465 4.863-5.49c2.315-1.023 5.253-1.264 8.6-1.039 3.349.226 7.097.91 11.134 1.495s8.371 1.037 13.029.899 9.454-1.15 14.045-2.094c4.592-.944 8.982-1.753 12.668-1.736q.691.002 1.348.044c1.122.07 2.17.205 3.1.477 1.074.314 2.955-2.604-.117-2.943-.499-.055-1.55.198-1.522-.178" style="color:#000;clip-rule:nonzero;display:inline;overflow:visible;opacity:1;isolation:auto;mix-blend-mode:normal;color-interpolation:sRGB;color-interpolation-filters:linearRGB;solid-color:#000;solid-opacity:1;fill:#554539;fill-opacity:1;fill-rule:nonzero;stroke:none;stroke-width:10;stroke-linecap:butt;stroke-linejoin:miter;stroke-miterlimit:4;stroke-dasharray:none;stroke-dashoffset:0;stroke-opacity:1;color-rendering:auto;image-rendering:auto;shape-rendering:auto;text-rendering:auto" transform="matrix(-.54617 .11528 .2457 .73176 597.763 -98.982)"/></g></g><g style="display:inline;opacity:1"><g style="display:inline;opacity:1"><path d="M767.3 387.327c11.123 7.965 31.777 11.3 44.73 15.545 12.954 4.245 18.15 9.36 22.13 13.373s5.944 7.144 4.718 9.527-5.543 3.994-14 4.811c-8.459.818-15.91.121-23.024-1.725s-13.807-4.867-21.706-8.603c-7.899-3.737-17.327-8.05-25.811-14.185-8.484-6.133-17.623-13.9-23.143-24.133-5.519-10.234-5.782-21.344-5.371-30.883s1.51-17.554 2.716-23.75c1.204-6.195 2.715-10.673 4.77-13.669 2.057-2.995 4.652-4.526 7.72-4.526s5.703 1.83 7.625 5.499 3.048 9.244 3.287 16.76-.672 17.08.34 27.198c1.011 10.118 3.895 20.795 15.018 28.76" style="color:#000;clip-rule:nonzero;display:inline;overflow:visible;opacity:1;isolation:auto;mix-blend-mode:normal;color-interpolation:sRGB;color-interpolation-filters:linearRGB;solid-color:#000;solid-opacity:1;fill:#554539;fill-opacity:1;fill-rule:nonzero;stroke:none;stroke-width:10;stroke-linecap:butt;stroke-linejoin:miter;stroke-miterlimit:4;stroke-dasharray:none;stroke-dashoffset:0;stroke-opacity:1;color-rendering:auto;image-rendering:auto;shape-rendering:auto;text-rendering:auto" transform="matrix(-.39 .34012 .74665 .90635 311.95 15.581)"/><path d="M760.817 387.615c8.354 7.229 23.405 11.344 36.929 14.854s21.763 7.51 26.414 11.295 7.043 6.961 6.893 9.28c-.151 2.32-3.073 3.852-9.995 4.538-6.922.685-13.124-.18-19.188-2.159s-12.013-5.066-19.623-8.647-16.945-7.618-24.99-13.216-15.823-12.654-20.902-21.246-6.013-17.8-5.992-25.918c.022-8.118.935-15.149 1.866-20.67.932-5.52 2.018-9.597 3.383-12.305 1.366-2.707 3.035-4.069 5.02-4.013 1.985.055 3.577 1.847 4.614 5.275 1.038 3.428 1.448 8.544 1.474 15.152.026 6.609-.436 14.761.913 23.275 1.35 8.514 4.83 17.275 13.184 24.505" style="color:#000;clip-rule:nonzero;display:inline;overflow:visible;opacity:1;isolation:auto;mix-blend-mode:normal;color-interpolation:sRGB;color-interpolation-filters:linearRGB;solid-color:#000;solid-opacity:1;fill:#e8b8c6;fill-opacity:1;fill-rule:nonzero;stroke:none;stroke-width:10;stroke-linecap:butt;stroke-linejoin:miter;stroke-miterlimit:4;stroke-dasharray:none;stroke-dashoffset:0;stroke-opacity:1;color-rendering:auto;image-rendering:auto;shape-rendering:auto;text-rendering:auto" transform="matrix(-.39 .34012 .74665 .90635 311.95 15.581)"/></g><g style="display:inline;opacity:1"><path d="M767.3 387.327c11.123 7.965 31.777 11.3 44.73 15.545 12.954 4.245 18.15 9.36 22.13 13.373s5.944 7.144 4.718 9.527-5.543 3.994-14 4.811c-8.459.818-15.91.121-23.024-1.725s-13.807-4.867-21.706-8.603c-7.899-3.737-17.327-8.05-25.811-14.185-8.484-6.133-17.623-13.9-23.143-24.133-5.519-10.234-5.782-21.344-5.371-30.883s1.51-17.554 2.716-23.75c1.204-6.195 2.715-10.673 4.77-13.669 2.057-2.995 4.652-4.526 7.72-4.526s5.703 1.83 7.625 5.499 3.048 9.244 3.287 16.76-.672 17.08.34 27.198c1.011 10.118 3.895 20.795 15.018 28.76" style="color:#000;clip-rule:nonzero;display:inline;overflow:visible;opacity:1;isolation:auto;mix-blend-mode:normal;color-interpolation:sRGB;color-interpolation-filters:linearRGB;solid-color:#000;solid-opacity:1;fill:#554539;fill-opacity:1;fill-rule:nonzero;stroke:none;stroke-width:10;stroke-linecap:butt;stroke-linejoin:miter;stroke-miterlimit:4;stroke-dasharray:none;stroke-dashoffset:0;stroke-opacity:1;color-rendering:auto;image-rendering:auto;shape-rendering:auto;text-rendering:auto" transform="matrix(-.07368 -.5122 -1.16656 .13447 628.607 828.923)"/><path d="M760.817 387.615c8.354 7.229 23.405 11.344 36.929 14.854s21.763 7.51 26.414 11.295 7.043 6.961 6.893 9.28c-.151 2.32-3.073 3.852-9.995 4.538-6.922.685-13.124-.18-19.188-2.159s-12.013-5.066-19.623-8.647-16.945-7.618-24.99-13.216-15.823-12.654-20.902-21.246-6.013-17.8-5.992-25.918c.022-8.118.935-15.149 1.866-20.67.932-5.52 2.018-9.597 3.383-12.305 1.366-2.707 3.035-4.069 5.02-4.013 1.985.055 3.577 1.847 4.614 5.275 1.038 3.428 1.448 8.544 1.474 15.152.026 6.609-.436 14.761.913 23.275 1.35 8.514 4.83 17.275 13.184 24.505" style="color:#000;clip-rule:nonzero;display:inline;overflow:visible;opacity:1;isolation:auto;mix-blend-mode:normal;color-interpolation:sRGB;color-interpolation-filters:linearRGB;solid-color:#000;solid-opacity:1;fill:#f5c3d2;fill-opacity:1;fill-rule:nonzero;stroke:none;stroke-width:10;stroke-linecap:butt;stroke-linejoin:miter;stroke-miterlimit:4;stroke-dasharray:none;stroke-dashoffset:0;stroke-opacity:1;color-rendering:auto;image-rendering:auto;shape-rendering:auto;text-rendering:auto" transform="matrix(-.07368 -.5122 -1.16656 .13447 628.607 828.923)"/></g><g style="opacity:1"><path d="M-626.547 402.353c2.228 10.863.345 21.826-3.867 31.425-4.213 9.6-10.552 17.861-17.721 24.3s-15.255 11.106-24.572 13.614c-9.317 2.507-20.95 4.469-31.639 1.984s-18.069-9.229-24.094-15.893-12.359-14.476-22.965-22.068-20.865-15.599-25.161-23.378c-4.297-7.78-7.008-15.67-7.816-23.39-.807-7.722.36-14.56 3.123-20.545s7.126-11.121 12.786-15.41 12.617-7.736 20.642-10.242 17.112-4.076 27.14-4.415c10.026-.34 20.065.594 29.76 2.875s19.056 5.92 27.478 11.023 15.893 11.692 21.605 19.629c5.711 7.936 13.074 19.628 15.301 30.49" style="color:#000;clip-rule:nonzero;display:inline;overflow:visible;opacity:1;isolation:auto;mix-blend-mode:normal;color-interpolation:sRGB;color-interpolation-filters:linearRGB;solid-color:#000;solid-opacity:1;fill:#f5c3d2;fill-opacity:1;fill-rule:nonzero;stroke:none;stroke-width:10;stroke-linecap:butt;stroke-linejoin:miter;stroke-miterlimit:4;stroke-dasharray:none;stroke-dashoffset:0;stroke-opacity:1;color-rendering:auto;image-rendering:auto;shape-rendering:auto;text-rendering:auto" transform="matrix(-.4102 .2166 .2513 .35355 47.037 96.955)"/><path d="M-784.214 457.34a8 8 0 0 0-1.556.335 5.6 5.6 0 0 0-1.635.827c-.451.342-.802.747-1.028 1.22a3.1 3.1 0 0 0-.274 1.62c.052.609.252 1.233.58 1.849.326.616.989 1.252 1.835 1.841.845.59 1.356 1.206 1.825 1.729.467.521 1.135.854 2.024.927.103.008.124-.305.035-.329-.781-.203-1.259-.72-1.719-1.11-.425-.467-.872-1.015-1.621-1.547s-1.473-1.093-1.777-1.639-.497-1.1-.555-1.642a2.7 2.7 0 0 1 .22-1.443c.194-.421.502-.784.901-1.087.4-.302.89-.545 1.458-.723a7 7 0 0 1 .907-.215q.48-.08 1.012-.102a8 8 0 0 1 2.1.2 6.7 6.7 0 0 1 1.939.772c.593.359 1.119.82 1.52 1.377.403.557.922 1.375 1.08 2.137.13.625.073 1.258-.133 1.834-.038.107.498.294.628-.012.243-.57.234-1.24.103-1.874-.179-.856-.69-1.769-1.137-2.4a5.7 5.7 0 0 0-1.689-1.553 7.1 7.1 0 0 0-2.143-.85 8.6 8.6 0 0 0-2.9-.143z" style="color:#000;clip-rule:nonzero;display:inline;overflow:visible;opacity:1;isolation:auto;mix-blend-mode:normal;color-interpolation:sRGB;color-interpolation-filters:linearRGB;solid-color:#000;solid-opacity:1;fill:#554539;fill-opacity:1;fill-rule:nonzero;stroke:none;stroke-width:10;stroke-linecap:butt;stroke-linejoin:miter;stroke-miterlimit:4;stroke-dasharray:none;stroke-dashoffset:0;stroke-opacity:1;color-rendering:auto;image-rendering:auto;shape-rendering:auto;text-rendering:auto" transform="matrix(-5.68167 3.00016 3.48084 4.89706 -5617.806 169.944)"/><path d="M-753.772 413.022c-.136-2.619 2.18-4.948 7.22-6.2 7.654-1.903 20.038 1.845 27.938 5.67 4.333 2.1 8.89 3.892 12.666 7.195 1.282 1.121 2.518 2.283 3.368 4.409-1.658.577-4.104-.922-5.872-2.13-6.968-4.766-14.695-8.09-22.677-9.127-6.716-.872-8.87-3.11-14.756-2.562-3.726.347-4.906 2.139-7.887 2.745" style="color:#000;clip-rule:nonzero;display:inline;overflow:visible;opacity:1;isolation:auto;mix-blend-mode:normal;color-interpolation:sRGB;color-interpolation-filters:linearRGB;solid-color:#000;solid-opacity:1;fill:#554539;fill-opacity:1;fill-rule:nonzero;stroke:none;stroke-width:10;stroke-linecap:butt;stroke-linejoin:miter;stroke-miterlimit:4;stroke-dasharray:none;stroke-dashoffset:0;stroke-opacity:1;color-rendering:auto;image-rendering:auto;shape-rendering:auto;text-rendering:auto" transform="matrix(-.4102 .2166 .2513 .35355 47.037 96.955)"/><path d="M-720.17 411.684c.285-2.325.87 3.903-.319 5.46-4.46 5.84-8.203 12.32-12.42 18.365-1.374 1.968-3.295.041-2.428-2.1.881-2.173 2.06-3.998 3.35-5.814 1.207-1.702 2.813-3.058 3.888-4.86 2.066-3.463 2.395-6.629 4.254-10.24.637-1.237 3.522.426 3.674-.808z" style="color:#000;clip-rule:nonzero;display:inline;overflow:visible;opacity:1;isolation:auto;mix-blend-mode:normal;color-interpolation:sRGB;color-interpolation-filters:linearRGB;solid-color:#000;solid-opacity:1;fill:#554539;fill-opacity:1;fill-rule:nonzero;stroke:none;stroke-width:10;stroke-linecap:butt;stroke-linejoin:miter;stroke-miterlimit:4;stroke-dasharray:none;stroke-dashoffset:0;stroke-opacity:1;color-rendering:auto;image-rendering:auto;shape-rendering:auto;text-rendering:auto" transform="matrix(-.4102 .2166 .2513 .35355 47.037 96.955)"/></g><path d="M568.673 644.959c-9.868 27.432-20.947 53.128-33.776 75.84s-26.964 42.726-42.2 59.747c-15.234 17.022-32.52 30.856-51.098 41.99-18.578 11.133-38.622 18.847-58.234 23.801-19.611 4.955-38.684 7.17-56.221 7.337s-33.594-1.683-48.416-5.308-28.476-9.085-41.39-16.376-25.168-16.548-36.58-26.887c-11.413-10.339-21.224-20.688-29.304-31.101-8.081-10.414-14.373-20.99-18.997-31.503s-7.579-20.964-8.994-31.22.237-9.664 1.268-19.708 3.304-20 6.582-29.934 7.466-19.918 13.219-29.372 12.909-18.513 20.515-27.945 15.678-19.24 22.212-30.926c6.534-11.684 11.015-24.847 12.16-40.1 1.144-15.251-1.203-32.653-5.3-50.657s-9.61-36.344-13.027-52.974-4.63-31.564-2.444-44.6c2.188-13.038 6.682-25.056 13.64-35.886 6.956-10.83 16.336-20.462 27.95-28.672 11.613-8.21 25.45-14.995 41.337-20.182 15.888-5.185 33.829-8.78 53.73-10.578 19.902-1.797 40.849-1.714 62.17.249 21.32 1.962 43.031 5.8 63.972 11.692 20.94 5.891 41.066 13.85 58.95 24.175 17.885 10.327 28.472 19.866 41.554 35.635 13.082 15.77 22.898 34.033 29.274 54.577s9.335 43.38 9.27 68c-.064 24.62-3.127 51.032-8.606 78.247-5.48 27.214-13.348 55.206-23.216 82.639" style="color:#000;clip-rule:nonzero;display:inline;overflow:visible;opacity:1;isolation:auto;mix-blend-mode:normal;color-interpolation:sRGB;color-interpolation-filters:linearRGB;solid-color:#000;solid-opacity:1;fill:#554539;fill-opacity:1;fill-rule:nonzero;stroke:none;stroke-width:1.78108335;stroke-linecap:butt;stroke-linejoin:miter;stroke-miterlimit:4;stroke-dasharray:none;stroke-dashoffset:0;stroke-opacity:1;color-rendering:auto;image-rendering:auto;shape-rendering:auto;text-rendering:auto" transform="translate(-60.177 -216.484)"/><path d="M529.604 717.42c-12.522 22.106-26.272 41.597-41.039 58.207-14.766 16.61-31.826 29.715-49.86 40.592-18.032 10.878-37.415 18.465-56.36 23.403-18.943 4.938-37.356 7.25-54.306 7.593-16.95.344-32.488-1.253-46.823-4.563-14.334-3.311-27.526-8.388-39.977-15.242-12.452-6.854-24.177-15.51-35.222-25.504-11.044-9.994-20.511-20.092-28.39-30.134s-14.028-20.265-18.554-30.438-7.428-20.298-8.821-30.24c-1.394-9.943.099-8.999 1.095-18.775s3.232-19.468 6.503-29.138 7.555-19.332 13.174-28.72c5.62-9.388 12.464-18.59 19.685-28.303s14.834-19.944 21.063-32.004 10.597-25.514 12.007-40.767-.261-32.343-3.582-49.865-8.033-35.26-11.088-51.455c-3.055-16.194-4.35-30.856-2.631-43.811 1.72-12.956 5.687-24.81 12.141-35.471 6.454-10.662 15.355-20.124 26.522-28.21s24.587-14.794 40.05-19.947 32.967-8.758 52.35-10.585c19.384-1.826 39.748-1.787 60.392.147 20.645 1.935 41.58 5.766 61.722 11.661s39.452 13.863 56.635 24.154 32.199 22.921 44.186 38.024c11.986 15.103 17.14 30.32 23.38 50.58 6.24 20.258 9.202 42.78 9.22 67.027s-2.884 50.221-8.162 76.92-11.865 54.706-21.669 81.367c-9.804 26.66-21.12 51.393-33.641 73.498" style="color:#000;clip-rule:nonzero;display:inline;overflow:visible;opacity:1;isolation:auto;mix-blend-mode:normal;color-interpolation:sRGB;color-interpolation-filters:linearRGB;solid-color:#000;solid-opacity:1;fill:#f5c3d2;fill-opacity:1;fill-rule:nonzero;stroke:none;stroke-width:1.78108335;stroke-linecap:butt;stroke-linejoin:miter;stroke-miterlimit:4;stroke-dasharray:none;stroke-dashoffset:0;stroke-opacity:1;color-rendering:auto;image-rendering:auto;shape-rendering:auto;text-rendering:auto" transform="translate(-60.177 -216.484)"/><g style="display:inline;opacity:1"><path d="M389.573 665.928c5.214.13 13.269 5.096 17.335 8.278s3.798 6.551 3.732 7.627c-.104 1.675-1.424 11.161-7.07 17.117-1.767 1.864-5.192 6.585-7.446 6.49-3.029-.128-5.818-8.563-6.426-10.995-1.06-4.243-.943-16.97-.91-20.058.028-2.704.785-8.459.785-8.459" style="fill:#2f0b44;fill-opacity:1;fill-rule:evenodd;stroke:none;stroke-width:1px;stroke-linecap:butt;stroke-linejoin:miter;stroke-opacity:1" transform="translate(-217.922 -235.44)scale(1.31897)"/><path d="M392.132 668.884c4.296.106 10.933 4.198 14.282 6.82 3.35 2.62 3.13 5.397 3.075 6.283-.085 1.38-1.173 9.196-5.824 14.103-1.456 1.536-4.278 5.426-6.135 5.347-2.496-.105-4.794-7.055-5.295-9.059-.874-3.496-.776-13.98-.75-16.526.023-2.227.647-6.968.647-6.968" style="fill:#e3c3f5;fill-opacity:1;fill-rule:evenodd;stroke:none;stroke-width:1px;stroke-linecap:butt;stroke-linejoin:miter;stroke-opacity:1" transform="translate(-217.922 -235.44)scale(1.31897)"/><path d="M394.375 667.862c3.375-.75 13.563-7.437 13.563-7.437l1.625.562s-.188 1 0 2.5c.187 1.5 0 1.875 0 1.875s-5.125 2.625-7.313 3.188c-2.187.562-4.625.687-4.625.687z" style="fill:#673681;fill-opacity:1;fill-rule:evenodd;stroke:none;stroke-width:1px;stroke-linecap:butt;stroke-linejoin:miter;stroke-opacity:1" transform="translate(-217.922 -235.44)scale(1.31897)"/></g></g><g style="display:inline"><g style="display:inline;opacity:1"><path d="M423.506 581.9c-.004 4.398-1.22 7.586-3.675 9.84s-6.178 3.595-11.246 4.563-11.515 1.617-18.866 2.123a330 330 0 0 1-23.71.744 215 215 0 0 1-22.44-1.282c-6.692-.738-12.46-1.67-17.238-2.847-4.777-1.176-8.608-2.627-11.427-4.609s-4.676-4.514-4.743-7.659c-.066-3.144 1.695-5.355 4.427-6.762s6.468-1.993 11.128-1.95 10.288.74 17.002 1.523 14.562 1.599 23.147 1.55 17.455-1.338 25.123-2.724c7.667-1.386 14.05-2.727 18.825-3.148s8.061.028 10.285 1.699c2.223 1.67 3.408 13.337 3.408 8.94" style="color:#000;clip-rule:nonzero;display:inline;overflow:visible;opacity:1;isolation:auto;mix-blend-mode:normal;color-interpolation:sRGB;color-interpolation-filters:linearRGB;solid-color:#000;solid-opacity:1;fill:#e8b8c6;fill-opacity:1;fill-rule:nonzero;stroke:none;stroke-width:10;stroke-linecap:butt;stroke-linejoin:miter;stroke-miterlimit:4;stroke-dasharray:none;stroke-dashoffset:0;stroke-opacity:1;color-rendering:auto;image-rendering:auto;shape-rendering:auto;text-rendering:auto" transform="matrix(.5049 -.23806 .24624 .73158 -230.265 231.103)"/><path d="M411.484 568.921c-4.29.139-9.86.985-16.748 2.05-7.872 1.218-17.472 2.632-27.203 2.777-9.73.144-18.627-.673-26.186-1.378s-13.863-1.22-19.092-.951c-5.23.268-9.43 1.288-12.484 3.139s-4.984 4.506-4.995 7.97 1.942 6.369 5.02 8.712 7.333 4.146 12.72 5.635c5.386 1.489 11.957 2.703 19.582 3.658a208 208 0 0 0 25.428 1.61c9.132.007 17.957-.396 25.571-1.008s13.994-1.366 18.904-2.522c1.869-.44 3.529-.952 5-1.55 2.972-1.206 2.38-6.123-.18-4.47-2.373 1.53-5.041 1.746-9.11 2.49-4.959.906-11.59 1.264-18.4 1.694-6.812.431-13.768 1.727-21.057 1.748s-14.224-.394-20.535-1.097c-6.312-.704-11.98-1.654-16.738-2.828s-8.627-2.598-11.397-4.463c-2.771-1.866-4.471-4.189-4.51-6.962-.037-2.774 1.593-4.641 4.168-5.707s7.344.016 11.773.33c4.429.315 10.408.568 16.58 1.264 6.173.695 10.867.507 18.618.063s16.024-2.156 23.644-3.835c7.62-1.68 13.935-3.004 18.65-3.42q.884-.08 1.702-.118c1.4-.065 2.658-.062 3.775.09 1.289.177 2.754-2.999-.735-2.938-.567.01-1.75.468-1.765.017" style="color:#000;clip-rule:nonzero;display:inline;overflow:visible;opacity:1;isolation:auto;mix-blend-mode:normal;color-interpolation:sRGB;color-interpolation-filters:linearRGB;solid-color:#000;solid-opacity:1;fill:#554539;fill-opacity:1;fill-rule:nonzero;stroke:none;stroke-width:10;stroke-linecap:butt;stroke-linejoin:miter;stroke-miterlimit:4;stroke-dasharray:none;stroke-dashoffset:0;stroke-opacity:1;color-rendering:auto;image-rendering:auto;shape-rendering:auto;text-rendering:auto" transform="matrix(.5049 -.23806 .24624 .73158 -230.265 231.103)"/></g><g style="display:inline;opacity:1"><path d="M389.573 665.928c5.214.13 13.269 5.096 17.335 8.278s3.798 6.551 3.732 7.627c-.104 1.675-1.424 11.161-7.07 17.117-1.767 1.864-5.192 6.585-7.446 6.49-3.029-.128-5.818-8.563-6.426-10.995-1.06-4.243-.943-16.97-.91-20.058.028-2.704.785-8.459.785-8.459" style="fill:#2f0b44;fill-opacity:1;fill-rule:evenodd;stroke:none;stroke-width:1px;stroke-linecap:butt;stroke-linejoin:miter;stroke-opacity:1" transform="rotate(62.418 576.438 378.61)scale(1.31897)"/><path d="M392.132 668.884c4.296.106 10.933 4.198 14.282 6.82 3.35 2.62 3.13 5.397 3.075 6.283-.085 1.38-1.173 9.196-5.824 14.103-1.456 1.536-4.278 5.426-6.135 5.347-2.496-.105-4.794-7.055-5.295-9.059-.874-3.496-.776-13.98-.75-16.526.023-2.227.647-6.968.647-6.968" style="fill:#e3c3f5;fill-opacity:1;fill-rule:evenodd;stroke:none;stroke-width:1px;stroke-linecap:butt;stroke-linejoin:miter;stroke-opacity:1" transform="rotate(62.418 576.438 378.61)scale(1.31897)"/><path d="M394.375 667.862c3.375-.75 13.563-7.437 13.563-7.437l1.625.562s-.188 1 0 2.5c.187 1.5 0 1.875 0 1.875s-5.125 2.625-7.313 3.188c-2.187.562-4.625.687-4.625.687z" style="fill:#673681;fill-opacity:1;fill-rule:evenodd;stroke:none;stroke-width:1px;stroke-linecap:butt;stroke-linejoin:miter;stroke-opacity:1" transform="rotate(62.418 576.438 378.61)scale(1.31897)"/></g></g><g style="display:inline" transform="translate(-60.177 -216.484)"><g style="fill:#e8b8c6;fill-opacity:1"><path d="m508.86 380.245-9.638 1.137-5.639.465c-1.798.148-3.308 1.167-4.34 2.545-1.034 1.377-1.425 3.176-1.498 5.102l-.41 10.901-1.003 11.003c-.18 1.982.51 3.64 1.583 4.786 1.072 1.147 2.59 1.706 4.297 1.568l5.69-.46 11.2-1.438a8.95 8.95 0 0 0 5.393-2.762 7.45 7.45 0 0 0 1.991-5.203l-.139-10.8-.323-10.762c-.057-1.916-1.085-3.53-2.406-4.624-1.32-1.094-3.02-1.651-4.757-1.458" style="color:#000;clip-rule:nonzero;display:inline;overflow:visible;opacity:1;isolation:auto;mix-blend-mode:normal;color-interpolation:sRGB;color-interpolation-filters:linearRGB;solid-color:#000;solid-opacity:1;fill:#e8b8c6;fill-opacity:1;fill-rule:nonzero;stroke:none;stroke-width:10;stroke-linecap:butt;stroke-linejoin:miter;stroke-miterlimit:4;stroke-dasharray:none;stroke-dashoffset:0;stroke-opacity:1;color-rendering:auto;image-rendering:auto;shape-rendering:auto;text-rendering:auto" transform="matrix(.85241 -.10422 .11426 .7775 44.961 282.188)"/><path d="m507.44 383.68-7.867.932-3.768.24c-1.431.09-2.672.947-3.554 2.079-.882 1.131-1.31 2.616-1.417 4.2l-.6 8.94-.979 9.004c-.175 1.608.315 2.987 1.162 3.927.846.94 2.084 1.366 3.503 1.274l3.87-.25 8.9-1.129c1.686-.214 3.223-1.061 4.322-2.237a6.44 6.44 0 0 0 1.759-4.269l.19-8.862.04-8.836c.007-1.574-.742-2.907-1.766-3.81-1.023-.901-2.376-1.37-3.796-1.202" style="color:#000;clip-rule:nonzero;display:inline;overflow:visible;opacity:1;isolation:auto;mix-blend-mode:normal;color-interpolation:sRGB;color-interpolation-filters:linearRGB;solid-color:#000;solid-opacity:1;fill:#e8b8c6;fill-opacity:1;fill-rule:nonzero;stroke:none;stroke-width:10;stroke-linecap:butt;stroke-linejoin:miter;stroke-miterlimit:4;stroke-dasharray:none;stroke-dashoffset:0;stroke-opacity:1;color-rendering:auto;image-rendering:auto;shape-rendering:auto;text-rendering:auto" transform="matrix(.85241 -.10422 .11426 .7775 44.961 282.188)"/><path d="M455.673 370.082c.27 3.462 2.403 6.594 5.434 9.414s7.218 5.32 12.067 7.368a67.3 67.3 0 0 0 15.858 4.464 61.8 61.8 0 0 0 16.67.27 62.3 62.3 0 0 0 14.748-3.626c4.289-1.636 7.892-3.576 10.73-5.73 2.84-2.152 4.938-4.537 6.263-7.199s1.874-5.608 1.394-8.783-1.97-6.272-4.267-9.117-5.388-5.434-9.017-7.59c-3.63-2.155-7.793-3.874-12.39-5.001-4.595-1.127-9.629-1.663-15.136-1.481s-11.002 1.058-16.22 2.507-10.135 3.48-14.233 5.96-7.467 5.339-9.433 8.565c-2.014 3.305-2.698 7.029-2.468 9.979" style="color:#000;clip-rule:nonzero;display:inline;overflow:visible;opacity:1;isolation:auto;mix-blend-mode:normal;color-interpolation:sRGB;color-interpolation-filters:linearRGB;solid-color:#000;solid-opacity:1;fill:#e8b8c6;fill-opacity:1;fill-rule:nonzero;stroke:none;stroke-width:10;stroke-linecap:butt;stroke-linejoin:miter;stroke-miterlimit:4;stroke-dasharray:none;stroke-dashoffset:0;stroke-opacity:1;color-rendering:auto;image-rendering:auto;shape-rendering:auto;text-rendering:auto" transform="matrix(.85241 -.10422 .11426 .7775 44.961 282.188)"/><path d="M467.332 369.304c.473 2.75 2.081 5.319 4.552 7.62 2.47 2.3 5.8 4.34 9.582 5.966s8.001 2.829 12.302 3.46c4.3.632 8.689.69 13.004.164 4.314-.527 8.168-1.57 11.512-2.903 3.343-1.333 6.164-2.954 8.378-4.763 2.213-1.81 3.824-3.813 4.774-5.996s1.241-4.55.746-7.058c-.494-2.507-1.736-4.916-3.568-7.114s-4.252-4.181-7.101-5.823-6.127-2.942-9.74-3.782c-3.612-.84-7.562-1.222-11.838-1.045a53 53 0 0 0-12.479 2.045c-3.984 1.151-7.729 2.74-10.892 4.667s-5.73 4.192-7.365 6.664c-1.636 2.473-2.34 5.148-1.867 7.898" style="color:#000;clip-rule:nonzero;display:inline;overflow:visible;opacity:1;isolation:auto;mix-blend-mode:normal;color-interpolation:sRGB;color-interpolation-filters:linearRGB;solid-color:#000;solid-opacity:1;fill:#e8b8c6;fill-opacity:1;fill-rule:nonzero;stroke:none;stroke-width:10;stroke-linecap:butt;stroke-linejoin:miter;stroke-miterlimit:4;stroke-dasharray:none;stroke-dashoffset:0;stroke-opacity:1;color-rendering:auto;image-rendering:auto;shape-rendering:auto;text-rendering:auto" transform="matrix(.85241 -.10422 .11426 .7775 44.961 282.188)"/><path d="M482.632 352.521c.689 1.97 2.188 3.72 4.262 5.198 2.074 1.477 4.715 2.684 7.58 3.609a47 47 0 0 0 8.955 1.916c3.012.345 5.958.385 8.718.08 2.76-.306 5.09-.926 7.062-1.79s3.585-1.972 4.856-3.275c1.272-1.304 2.202-2.805 2.743-4.469.54-1.663.689-3.49.322-5.422s-1.22-3.782-2.513-5.455-3.023-3.166-5.114-4.378c-2.09-1.211-4.542-2.14-7.266-2.692-2.723-.552-5.718-.726-8.875-.444a33.8 33.8 0 0 0-8.91 2.027c-2.731 1.034-5.173 2.392-7.15 3.966s-3.49 3.367-4.336 5.263-1.024 3.896-.334 5.866" style="color:#000;clip-rule:nonzero;display:inline;overflow:visible;opacity:1;isolation:auto;mix-blend-mode:normal;color-interpolation:sRGB;color-interpolation-filters:linearRGB;solid-color:#000;solid-opacity:1;fill:#e8b8c6;fill-opacity:1;fill-rule:nonzero;stroke:none;stroke-width:10;stroke-linecap:butt;stroke-linejoin:miter;stroke-miterlimit:4;stroke-dasharray:none;stroke-dashoffset:0;stroke-opacity:1;color-rendering:auto;image-rendering:auto;shape-rendering:auto;text-rendering:auto" transform="matrix(.85241 -.10422 .11426 .7775 44.961 282.188)"/></g><path d="M277.463 440c-.278 12.093 2.121 23.904 6.668 34.985s11.238 21.436 19.538 30.538 18.207 16.953 29.214 22.929c11.008 5.976 23.117 10.076 35.864 11.617 12.748 1.542 24.933.368 36.083-3.15 11.151-3.516 21.267-9.374 29.84-17.115s15.603-17.365 20.568-28.347 7.864-23.322 8.189-36.438c.324-13.115-1.955-25.754-6.344-37.285s-10.886-21.954-19.008-30.724-17.868-15.887-28.782-20.915-23-7.971-35.807-8.47a99.4 99.4 0 0 0-36.442 5.405c-11.313 3.922-21.616 9.79-30.355 17.18-8.739 7.388-15.912 16.301-20.965 26.378s-7.983 21.317-8.261 33.411" style="color:#000;clip-rule:nonzero;display:inline;overflow:visible;opacity:1;isolation:auto;mix-blend-mode:normal;color-interpolation:sRGB;color-interpolation-filters:linearRGB;solid-color:#000;solid-opacity:1;fill:#554539;fill-opacity:1;fill-rule:nonzero;stroke:none;stroke-width:1.63708401;stroke-linecap:butt;stroke-linejoin:miter;stroke-miterlimit:4;stroke-dasharray:none;stroke-dashoffset:0;stroke-opacity:1;color-rendering:auto;image-rendering:auto;shape-rendering:auto;text-rendering:auto"/><path d="M283.907 437.573c-.601 11.362 1.276 22.64 5.216 33.352s9.948 20.858 17.586 29.825 16.907 16.747 27.316 22.656c10.41 5.908 21.956 9.94 34.132 11.447 12.176 1.508 23.827.347 34.471-3.04 10.645-3.388 20.287-9 28.46-16.358 8.172-7.359 14.877-16.463 19.638-26.795s7.578-21.892 7.97-34.117c.391-12.226-1.678-23.949-5.738-34.614a86.6 86.6 0 0 0-17.679-28.37 86.6 86.6 0 0 0-26.847-19.403c-10.182-4.721-21.453-7.583-33.404-8.275-11.95-.693-23.454.836-34.04 4.14s-20.251 8.384-28.505 14.917c-8.254 6.534-15.094 14.522-20.024 23.707s-7.951 19.567-8.552 30.928" style="color:#000;clip-rule:nonzero;display:inline;overflow:visible;opacity:1;isolation:auto;mix-blend-mode:normal;color-interpolation:sRGB;color-interpolation-filters:linearRGB;solid-color:#000;solid-opacity:1;fill:#fff;fill-opacity:1;fill-rule:nonzero;stroke:none;stroke-width:1.63708401;stroke-linecap:butt;stroke-linejoin:miter;stroke-miterlimit:4;stroke-dasharray:none;stroke-dashoffset:0;stroke-opacity:1;color-rendering:auto;image-rendering:auto;shape-rendering:auto;text-rendering:auto"/><circle cx="-373.426" cy="423.089" r="25.219" style="color:#000;clip-rule:nonzero;display:inline;overflow:visible;opacity:1;isolation:auto;mix-blend-mode:normal;color-interpolation:sRGB;color-interpolation-filters:linearRGB;solid-color:#000;solid-opacity:1;fill:#554539;fill-opacity:1;fill-rule:nonzero;stroke:none;stroke-width:1.63708401;stroke-linecap:butt;stroke-linejoin:miter;stroke-miterlimit:4;stroke-dasharray:none;stroke-dashoffset:0;stroke-opacity:1;color-rendering:auto;image-rendering:auto;shape-rendering:auto;text-rendering:auto" transform="rotate(3.024)scale(-1 1)"/><circle cx="-384.588" cy="411.513" r="12.403" style="color:#000;clip-rule:nonzero;display:inline;overflow:visible;opacity:1;isolation:auto;mix-blend-mode:normal;color-interpolation:sRGB;color-interpolation-filters:linearRGB;solid-color:#000;solid-opacity:1;fill:#fff;fill-opacity:1;fill-rule:nonzero;stroke:none;stroke-width:1.63708401;stroke-linecap:butt;stroke-linejoin:miter;stroke-miterlimit:4;stroke-dasharray:none;stroke-dashoffset:0;stroke-opacity:1;color-rendering:auto;image-rendering:auto;shape-rendering:auto;text-rendering:auto" transform="rotate(3.024)scale(-1 1)"/><path d="M530.02 397.544c-1.336 8.893-.508 18.453 1.308 28.162s4.522 19.594 7.294 29.154 5.616 18.788 8.888 26.965c3.272 8.178 7.048 15.28 12.11 20.71 5.06 5.432 10.989 8.699 17.644 10.124 6.654 1.424 14.87 3.913 22.41 1.96 7.54-1.954 15.166-5.515 22.176-10.616a70.6 70.6 0 0 0 18.484-19.96 70.3 70.3 0 0 0 9.763-26.54c1.407-9.33.942-18.979-1.364-28.39-2.305-9.41-8.61-21.669-14.416-30.017s-13.279-15.879-22.075-21.978c-8.797-6.1-18.068-10.186-27.078-12.281s-17.758-2.194-25.538-.35c-7.78 1.845-14.586 5.636-19.72 11.218-5.135 5.581-8.549 12.946-9.885 21.839" style="color:#000;clip-rule:nonzero;display:inline;overflow:visible;opacity:1;isolation:auto;mix-blend-mode:normal;color-interpolation:sRGB;color-interpolation-filters:linearRGB;solid-color:#000;solid-opacity:1;fill:#554539;fill-opacity:1;fill-rule:nonzero;stroke:none;stroke-width:1.39764392;stroke-linecap:butt;stroke-linejoin:miter;stroke-miterlimit:4;stroke-dasharray:none;stroke-dashoffset:0;stroke-opacity:1;color-rendering:auto;image-rendering:auto;shape-rendering:auto;text-rendering:auto"/><path d="M534.088 398.989c-1.501 8.167-1.176 17.072.2 26.222 1.377 9.15 3.772 18.56 6.57 27.643 2.796 9.083 5.971 17.825 9.538 25.538 3.567 7.712 7.565 14.38 12.538 19.473 4.973 5.094 10.521 8.154 16.622 9.484s13.714 3.817 20.484 1.959 13.599-5.23 19.872-10.036c6.273-4.807 11.989-11.053 16.502-18.726a66.15 66.15 0 0 0 8.56-24.712c1.171-8.659.637-17.59-1.572-26.296-2.209-8.704-8.285-20.302-13.685-28.026s-12.31-14.7-20.402-20.363c-8.091-5.663-16.58-9.474-24.79-11.462-8.208-1.988-16.137-2.15-23.17-.544s-13.165 4.98-17.855 10-7.912 11.679-9.412 19.846" style="color:#000;clip-rule:nonzero;display:inline;overflow:visible;opacity:1;isolation:auto;mix-blend-mode:normal;color-interpolation:sRGB;color-interpolation-filters:linearRGB;solid-color:#000;solid-opacity:1;fill:#fff;fill-opacity:1;fill-rule:nonzero;stroke:none;stroke-width:1.39764392;stroke-linecap:butt;stroke-linejoin:miter;stroke-miterlimit:4;stroke-dasharray:none;stroke-dashoffset:0;stroke-opacity:1;color-rendering:auto;image-rendering:auto;shape-rendering:auto;text-rendering:auto"/><circle cx="-742.655" cy="123.812" r="19.372" style="color:#000;clip-rule:nonzero;display:inline;overflow:visible;opacity:1;isolation:auto;mix-blend-mode:normal;color-interpolation:sRGB;color-interpolation-filters:linearRGB;solid-color:#000;solid-opacity:1;fill:#554539;fill-opacity:1;fill-rule:nonzero;stroke:none;stroke-width:1.39764392;stroke-linecap:butt;stroke-linejoin:miter;stroke-miterlimit:4;stroke-dasharray:none;stroke-dashoffset:0;stroke-opacity:1;color-rendering:auto;image-rendering:auto;shape-rendering:auto;text-rendering:auto" transform="rotate(25.16)scale(-1 1)"/><circle cx="-747.867" cy="114.481" r="9.527" style="color:#000;clip-rule:nonzero;display:inline;overflow:visible;opacity:1;isolation:auto;mix-blend-mode:normal;color-interpolation:sRGB;color-interpolation-filters:linearRGB;solid-color:#000;solid-opacity:1;fill:#fff;fill-opacity:1;fill-rule:nonzero;stroke:none;stroke-width:1.39764392;stroke-linecap:butt;stroke-linejoin:miter;stroke-miterlimit:4;stroke-dasharray:none;stroke-dashoffset:0;stroke-opacity:1;color-rendering:auto;image-rendering:auto;shape-rendering:auto;text-rendering:auto" transform="rotate(25.16)scale(-1 1)"/><path d="m508.86 380.245-9.638 1.137-5.639.465c-1.798.148-3.308 1.167-4.34 2.545-1.034 1.377-1.425 3.176-1.498 5.102l-.41 10.901-1.003 11.003c-.18 1.982.51 3.64 1.583 4.786 1.072 1.147 2.59 1.706 4.297 1.568l5.69-.46 11.2-1.438a8.95 8.95 0 0 0 5.393-2.762 7.45 7.45 0 0 0 1.991-5.203l-.139-10.8-.323-10.762c-.057-1.916-1.085-3.53-2.406-4.624-1.32-1.094-3.02-1.651-4.757-1.458" style="color:#000;clip-rule:nonzero;display:inline;overflow:visible;opacity:1;isolation:auto;mix-blend-mode:normal;color-interpolation:sRGB;color-interpolation-filters:linearRGB;solid-color:#000;solid-opacity:1;fill:#2e3436;fill-opacity:1;fill-rule:nonzero;stroke:none;stroke-width:10;stroke-linecap:butt;stroke-linejoin:miter;stroke-miterlimit:4;stroke-dasharray:none;stroke-dashoffset:0;stroke-opacity:1;color-rendering:auto;image-rendering:auto;shape-rendering:auto;text-rendering:auto" transform="rotate(-7.635 2050.64 -400.805)scale(.81854)"/><path d="m507.44 383.68-7.867.932-3.768.24c-1.431.09-2.672.947-3.554 2.079-.882 1.131-1.31 2.616-1.417 4.2l-.6 8.94-.979 9.004c-.175 1.608.315 2.987 1.162 3.927.846.94 2.084 1.366 3.503 1.274l3.87-.25 8.9-1.129c1.686-.214 3.223-1.061 4.322-2.237a6.44 6.44 0 0 0 1.759-4.269l.19-8.862.04-8.836c.007-1.574-.742-2.907-1.766-3.81-1.023-.901-2.376-1.37-3.796-1.202" style="color:#000;clip-rule:nonzero;display:inline;overflow:visible;opacity:1;isolation:auto;mix-blend-mode:normal;color-interpolation:sRGB;color-interpolation-filters:linearRGB;solid-color:#000;solid-opacity:1;fill:#fff;fill-opacity:1;fill-rule:nonzero;stroke:none;stroke-width:10;stroke-linecap:butt;stroke-linejoin:miter;stroke-miterlimit:4;stroke-dasharray:none;stroke-dashoffset:0;stroke-opacity:1;color-rendering:auto;image-rendering:auto;shape-rendering:auto;text-rendering:auto" transform="rotate(-7.635 2050.64 -400.805)scale(.81854)"/><path d="M455.673 370.082c.27 3.462 2.403 6.594 5.434 9.414s7.218 5.32 12.067 7.368a67.3 67.3 0 0 0 15.858 4.464 61.8 61.8 0 0 0 16.67.27 62.3 62.3 0 0 0 14.748-3.626c4.289-1.636 7.892-3.576 10.73-5.73 2.84-2.152 4.938-4.537 6.263-7.199s1.874-5.608 1.394-8.783-1.97-6.272-4.267-9.117-5.388-5.434-9.017-7.59c-3.63-2.155-7.793-3.874-12.39-5.001-4.595-1.127-9.629-1.663-15.136-1.481s-11.002 1.058-16.22 2.507-10.135 3.48-14.233 5.96-7.467 5.339-9.433 8.565c-2.014 3.305-2.698 7.029-2.468 9.979" style="color:#000;clip-rule:nonzero;display:inline;overflow:visible;opacity:1;isolation:auto;mix-blend-mode:normal;color-interpolation:sRGB;color-interpolation-filters:linearRGB;solid-color:#000;solid-opacity:1;fill:#554539;fill-opacity:1;fill-rule:nonzero;stroke:none;stroke-width:10;stroke-linecap:butt;stroke-linejoin:miter;stroke-miterlimit:4;stroke-dasharray:none;stroke-dashoffset:0;stroke-opacity:1;color-rendering:auto;image-rendering:auto;shape-rendering:auto;text-rendering:auto" transform="rotate(-7.635 2050.64 -400.805)scale(.81854)"/><path d="M467.332 369.304c.473 2.75 2.081 5.319 4.552 7.62 2.47 2.3 5.8 4.34 9.582 5.966s8.001 2.829 12.302 3.46c4.3.632 8.689.69 13.004.164 4.314-.527 8.168-1.57 11.512-2.903 3.343-1.333 6.164-2.954 8.378-4.763 2.213-1.81 3.824-3.813 4.774-5.996s1.241-4.55.746-7.058c-.494-2.507-1.736-4.916-3.568-7.114s-4.252-4.181-7.101-5.823-6.127-2.942-9.74-3.782c-3.612-.84-7.562-1.222-11.838-1.045a53 53 0 0 0-12.479 2.045c-3.984 1.151-7.729 2.74-10.892 4.667s-5.73 4.192-7.365 6.664c-1.636 2.473-2.34 5.148-1.867 7.898" style="color:#000;clip-rule:nonzero;display:inline;overflow:visible;opacity:1;isolation:auto;mix-blend-mode:normal;color-interpolation:sRGB;color-interpolation-filters:linearRGB;solid-color:#000;solid-opacity:1;fill:#e1d0cb;fill-opacity:1;fill-rule:nonzero;stroke:none;stroke-width:10;stroke-linecap:butt;stroke-linejoin:miter;stroke-miterlimit:4;stroke-dasharray:none;stroke-dashoffset:0;stroke-opacity:1;color-rendering:auto;image-rendering:auto;shape-rendering:auto;text-rendering:auto" transform="rotate(-7.635 2050.64 -400.805)scale(.81854)"/><path d="M482.632 352.521c.689 1.97 2.188 3.72 4.262 5.198 2.074 1.477 4.715 2.684 7.58 3.609a47 47 0 0 0 8.955 1.916c3.012.345 5.958.385 8.718.08 2.76-.306 5.09-.926 7.062-1.79s3.585-1.972 4.856-3.275c1.272-1.304 2.202-2.805 2.743-4.469.54-1.663.689-3.49.322-5.422s-1.22-3.782-2.513-5.455-3.023-3.166-5.114-4.378c-2.09-1.211-4.542-2.14-7.266-2.692-2.723-.552-5.718-.726-8.875-.444a33.8 33.8 0 0 0-8.91 2.027c-2.731 1.034-5.173 2.392-7.15 3.966s-3.49 3.367-4.336 5.263-1.024 3.896-.334 5.866" style="color:#000;clip-rule:nonzero;display:inline;overflow:visible;opacity:1;isolation:auto;mix-blend-mode:normal;color-interpolation:sRGB;color-interpolation-filters:linearRGB;solid-color:#000;solid-opacity:1;fill:#554539;fill-opacity:1;fill-rule:nonzero;stroke:none;stroke-width:10;stroke-linecap:butt;stroke-linejoin:miter;stroke-miterlimit:4;stroke-dasharray:none;stroke-dashoffset:0;stroke-opacity:1;color-rendering:auto;image-rendering:auto;shape-rendering:auto;text-rendering:auto" transform="rotate(-7.635 2050.64 -400.805)scale(.81854)"/><g style="display:inline;opacity:1"><path d="M-626.573 401.696c2.247 11.35.367 22.39-3.843 32.038-4.21 9.649-10.55 17.905-17.72 24.344s-15.254 11.11-24.57 13.61c-9.318 2.501-20.95 4.473-31.646 1.829s-18.092-9.812-24.148-17.25c-6.056-7.44-12.443-16.568-23.097-25.36-10.654-8.793-20.952-17.788-25.3-26.873-4.35-9.086-7.116-18.361-7.98-27.522s.246-17.364 2.961-24.584 7.032-13.455 12.66-18.537 12.567-9.01 20.593-11.49c8.026-2.478 17.135-3.505 27.21-2.666 10.073.838 20.18 3.472 29.951 7.653s19.215 9.908 27.712 16.897 16.035 15.24 21.796 24.415c5.76 9.176 13.174 22.145 15.421 33.496" style="color:#000;clip-rule:nonzero;display:inline;overflow:visible;opacity:1;isolation:auto;mix-blend-mode:normal;color-interpolation:sRGB;color-interpolation-filters:linearRGB;solid-color:#000;solid-opacity:1;fill:#f5c3d2;fill-opacity:1;fill-rule:nonzero;stroke:none;stroke-width:10;stroke-linecap:butt;stroke-linejoin:miter;stroke-miterlimit:4;stroke-dasharray:none;stroke-dashoffset:0;stroke-opacity:1;color-rendering:auto;image-rendering:auto;shape-rendering:auto;text-rendering:auto" transform="rotate(-18.859 314.172 -1429.062)scale(.52917)"/><path d="M-784.271 455.904a5.5 5.5 0 0 0-1.56.262 4.5 4.5 0 0 0-1.63.935 3.9 3.9 0 0 0-1.018 1.475 4.35 4.35 0 0 0-.261 1.937 6.3 6.3 0 0 0 .592 2.157c.33.71.996 1.419 1.845 2.083.848.664 1.363 1.37 1.833 1.94.47.567 1.137.91 2.027.989.103.009.123-.313.034-.34-.781-.217-1.26-.775-1.723-1.214-.428-.524-.878-1.166-1.63-1.785-.753-.619-1.48-1.252-1.787-1.892a5.8 5.8 0 0 1-.567-1.938 3.8 3.8 0 0 1 .208-1.73c.191-.508.495-.949.893-1.307a3.85 3.85 0 0 1 1.454-.81q.427-.132.908-.182t1.016-.008a6.8 6.8 0 0 1 2.114.538 8.1 8.1 0 0 1 1.955 1.19 7.2 7.2 0 0 1 1.535 1.719c.406.646.928 1.559 1.088 2.358a3.53 3.53 0 0 1-.131 1.88c-.039.108.498.304.628-.002.243-.57.234-1.244.102-1.897-.18-.883-.695-1.871-1.144-2.587a7.9 7.9 0 0 0-1.703-1.899 8.8 8.8 0 0 0-2.16-1.296 7.4 7.4 0 0 0-2.34-.564 6 6 0 0 0-.578-.012" style="color:#000;clip-rule:nonzero;display:inline;overflow:visible;opacity:1;isolation:auto;mix-blend-mode:normal;color-interpolation:sRGB;color-interpolation-filters:linearRGB;solid-color:#000;solid-opacity:1;fill:#554539;fill-opacity:1;fill-rule:nonzero;stroke:none;stroke-width:10;stroke-linecap:butt;stroke-linejoin:miter;stroke-miterlimit:4;stroke-dasharray:none;stroke-dashoffset:0;stroke-opacity:1;color-rendering:auto;image-rendering:auto;shape-rendering:auto;text-rendering:auto" transform="rotate(-18.859 -11928.412 -15984.855)scale(7.32962)"/><path d="M-730.273 382.913c1.807-2.764 6.313-3.63 13.246-1.617 10.53 3.057 22.434 14.977 28.948 24.047 3.574 4.975 7.643 9.782 9.648 15.624.68 1.983 1.276 3.978.69 6.704-2.407-.494-4.188-3.623-5.38-6.013-4.7-9.42-11.386-17.865-20.096-24.139-7.328-5.278-8.205-8.972-15.615-12.257-4.69-2.08-7.441-1.02-11.44-2.35" style="color:#000;clip-rule:nonzero;display:inline;overflow:visible;opacity:1;isolation:auto;mix-blend-mode:normal;color-interpolation:sRGB;color-interpolation-filters:linearRGB;solid-color:#000;solid-opacity:1;fill:#554539;fill-opacity:1;fill-rule:nonzero;stroke:none;stroke-width:10;stroke-linecap:butt;stroke-linejoin:miter;stroke-miterlimit:4;stroke-dasharray:none;stroke-dashoffset:0;stroke-opacity:1;color-rendering:auto;image-rendering:auto;shape-rendering:auto;text-rendering:auto" transform="rotate(-18.859 314.172 -1429.062)scale(.52917)"/><path d="M-689.32 403.5c2.089-2.189-1.901 4.556-4.484 5.369-9.695 3.051-19.018 7.226-28.579 10.645-3.113 1.112-3.947-2.11-1.307-3.73 2.683-1.645 5.457-2.739 8.355-3.752 2.716-.95 5.644-1.286 8.277-2.424 5.061-2.187 7.834-5.206 12.759-7.68 1.689-.848 3.868 2.736 4.976 1.574z" style="color:#000;clip-rule:nonzero;display:inline;overflow:visible;opacity:1;isolation:auto;mix-blend-mode:normal;color-interpolation:sRGB;color-interpolation-filters:linearRGB;solid-color:#000;solid-opacity:1;fill:#554539;fill-opacity:1;fill-rule:nonzero;stroke:none;stroke-width:10;stroke-linecap:butt;stroke-linejoin:miter;stroke-miterlimit:4;stroke-dasharray:none;stroke-dashoffset:0;stroke-opacity:1;color-rendering:auto;image-rendering:auto;shape-rendering:auto;text-rendering:auto" transform="rotate(-18.859 314.172 -1429.062)scale(.52917)"/></g><path d="M328.725 157.053a101.6 101.6 0 0 0-29.192 4.586c-11.291 3.523-21.604 8.943-30.408 15.912s-16.099 15.49-21.357 25.287c-5.259 9.797-8.482 20.871-9.123 32.99-.642 12.12 1.36 24.15 5.564 35.576s10.61 22.248 18.758 31.813 18.035 17.864 29.138 24.166 23.419 10.603 36.407 12.21c12.987 1.609 25.415.37 36.77-3.243 11.354-3.614 21.637-9.6 30.355-17.45a86.5 86.5 0 0 0 12.328-13.783c-96.652 73.084-240.172-102.164-67.412-147.513q-2.339-.245-4.711-.381-3.586-.208-7.117-.17m211.998 4.832a46 46 0 0 0-6.133.95c-7.502 1.714-14.042 5.312-19.045 10.667s-8.44 12.458-10.041 21.17c-1.6 8.712-1.254 18.21.215 27.97 1.468 9.76 4.022 19.797 7.006 29.485s6.37 19.013 10.175 27.24 8.069 15.339 13.373 20.772c5.305 5.433 11.223 8.698 17.73 10.117 6.509 1.42 14.63 4.072 21.85 2.09 7.222-1.982 14.506-5.58 21.198-10.707a68 68 0 0 0 5.162-4.391c-18.962 4.068-36.25-2.571-55.955-14.541-15.026-9.127-51.384-84.338-5.535-120.822" style="opacity:1;fill:#f3f2f2;fill-opacity:1;stroke:none;stroke-width:5;stroke-linecap:round;stroke-miterlimit:4;stroke-dasharray:none;stroke-opacity:1" transform="translate(60.177 216.484)scale(.9375)"/></g><g style="display:inline;opacity:.07"><path d="M316.904 81.465c-7.111.205-14.142.613-21.049 1.264-20.675 1.948-39.348 5.795-55.841 11.29-16.493 5.497-30.808 12.653-42.72 21.278a118 118 0 0 0-9.015 7.215c-3.302 2.925 6.607 12.381 3.498 15.293-11.988 11.228-17.98 13.894-23.993 17.972-11.003 7.46-9.895 13.627-11.73 27.446-1.833 13.819-.453 29.458 2.805 46.732 3.26 17.274 8.286 36.195 11.828 54.885 3.543 18.69 5.325 36.919 3.82 53.19-1.503 16.27-6.162 30.62-12.806 43.484-6.644 12.863-14.764 23.776-22.467 34.136s-15.004 20.178-20.998 30.192-10.564 20.32-14.052 30.635c-3.489 10.315-5.874 20.652-6.936 31.08s-2.654 9.42-1.168 20.025 4.58 21.407 9.408 32.258 11.387 21.755 19.791 32.467 18.503 21.482 30.283 32.142 24.29 19.894 37.57 27.205c13.282 7.311 27.353 12.727 42.643 16.258 15.29 3.532 31.863 5.234 49.944 4.867 18.08-.366 37.72-2.832 57.927-8.1s40.883-13.36 60.118-24.962 37.432-25.581 53.183-43.299c15.752-17.718 30.418-38.507 43.774-62.086a467 467 0 0 0 10.834-20.314c-14.613 17.078-35.142 44.782-77.011 49.165-102.539 10.734-168.33 40.625-214.14-14.693s9.509-135.7 4.323-211.761c-4.905-71.932-49.232-188.698 92.177-255.264" style="display:inline;opacity:1;fill:#000;fill-opacity:1;stroke:none;stroke-width:5;stroke-linecap:round;stroke-miterlimit:4;stroke-dasharray:none;stroke-opacity:1" transform="scale(.9375)"/><path d="M114.39 99.932c-1.148.577-6.161 1.419-7.253 2.103-8.061 4.957-14.116 13.578-14.748 23.164-.743 10.222 4.235 20.06 11.039 27.397 5.175 5.93 12.874 8.46 19.922 11.386 5.45 2.065 10.413 5.143 15.367 8.23 5.06 2.9 10.648 5.425 16.527 5.677-1.045 2.972-1.18 6.193-1.535 9.304-.499 9.548-.326 19.144.959 28.627 42.647-6.797 10.192-56.955 10.96-58.874-3.397 2.865-17.399 9.046-43.756-5.941-20.066-11.41-24.921-32.792-7.483-51.073" style="opacity:1;fill:#000;fill-opacity:1;stroke:none;stroke-width:1.0804168;stroke-linecap:round;stroke-miterlimit:4;stroke-dasharray:none;stroke-opacity:1" transform="scale(.9375)"/></g><g style="display:inline"><g transform="matrix(1.31838 .18647 -.03945 1.31398 -213.028 -309.61)"><path d="M435.733 214.293c11.756-10.063 24.1-26.462 39.077-24.887 16.015 1.683 6.592 27.518 10.627 39.912 4.154 12.76-15.376 23.45-27.047 13.65-8.363-7.023-32.22-7.056-25.489-23.426.753-1.83 1.313-3.949 2.832-5.25m-36.189 5.758c-13.356-9.297-27.379-25.684-44.394-21.175-18.194 4.822 5.632 28.479-5.822 44.274-9.372 12.923 11.218 26.848 24.476 13.593 9.502-9.497 36.604-13.869 28.957-31.243-.855-1.943-1.491-4.248-3.217-5.45" style="display:inline;fill:#844d7b;fill-opacity:1;fill-rule:evenodd;stroke:none;stroke-width:1px;stroke-linecap:butt;stroke-linejoin:miter;stroke-opacity:1"/><path d="M471.586 191.438c-14.687 1.764-23.196 16.856-33.33 26.148-3.844 3.524-3.284 10.92 2.482 13.012 8.438 3.06 16.374 7.284 24.291 11.617 7.245 3.964 20.79-4.292 17.73-13.594-3.673-11.168 2.996-24.115-3.712-34.326-1.097-1.67-5.562-3.086-7.461-2.857m-112.559 8.925c-5.064.071-10.393 5.256-8.68 10.302 3.71 10.937 8.187 23.504.87 34.306-5.018 7.407 8.706 16.188 15.238 11.898 6.243-4.1 15.57-11.176 22.645-13.936 9.025-3.521 15.069-7.51 10.675-16.076-3.828-7.464-11.322-9.38-16.964-14.636-6.386-5.95-14.655-11.985-23.784-11.858" style="display:inline;fill:#d5a8e3;fill-opacity:1;fill-rule:evenodd;stroke:none;stroke-width:1px;stroke-linecap:butt;stroke-linejoin:miter;stroke-opacity:1"/><rect width="42.969" height="41.13" x="338.988" y="289.749" ry="16.249" style="color:#000;clip-rule:nonzero;display:inline;overflow:visible;opacity:1;isolation:auto;mix-blend-mode:normal;color-interpolation:sRGB;color-interpolation-filters:linearRGB;solid-color:#000;solid-opacity:1;fill:#844d7b;fill-opacity:1;fill-rule:nonzero;stroke:none;stroke-width:10;stroke-linecap:round;stroke-linejoin:miter;stroke-miterlimit:4;stroke-dasharray:none;stroke-dashoffset:0;stroke-opacity:1;color-rendering:auto;image-rendering:auto;shape-rendering:auto;text-rendering:auto" transform="rotate(-12.061)scale(1 .99998)skewX(.32)"/><path d="M423.549 208.793c-5.709 0-13.911 1.106-18.608 5.73-6.313 6.217-3.379 16.334.082 23.227 3.298 6.567 11.438 6.218 17.961 4.973 7.675-1.465 16.308-6.276 14.825-15.399-1.32-8.121-5.242-18.531-14.26-18.531" style="color:#000;clip-rule:nonzero;display:inline;overflow:visible;opacity:1;isolation:auto;mix-blend-mode:normal;color-interpolation:sRGB;color-interpolation-filters:linearRGB;solid-color:#000;solid-opacity:1;fill:#d5a8e3;fill-opacity:1;fill-rule:nonzero;stroke:none;stroke-width:10;stroke-linecap:round;stroke-linejoin:miter;stroke-miterlimit:4;stroke-dasharray:none;stroke-dashoffset:0;stroke-opacity:1;color-rendering:auto;image-rendering:auto;shape-rendering:auto;text-rendering:auto"/></g><path d="M267.379 21.959c-4.907.087-9.914 3.578-10.986 8.488-.57 4.03 1.44 7.808 2.3 11.645 2.703 9.4 4.802 19.324 3.028 29.094-.747 4.658-3.252 8.73-5.819 12.587-1.533 2.242-1.522 5.184-.365 7.586 2.303 5.427 7.413 9.234 12.8 11.282 2.695 1.037 5.811 1.251 8.522.191 11.225-5.552 21.995-12.367 34.221-15.559 4.422-1.259 9.106-2.483 12.7-5.488v-.012c-8.64.925-22.937 2.967-32.932 7.108-15.126 6.266-25.065-3.89-20.96-12.317s3.673-26.579-1.513-34.574c-3.278-5.054-6.197-13.647 2.406-19.722a21.6 21.6 0 0 0-3.402-.309m74.574 25.031c-3.036.709-5.938 1.888-8.45 3.778-2.156 1.783-3.942 4.015-4.843 6.693-1.317 3.387-.804 7.123-.82 10.67.52 5.113 2.288 10.025 4.22 14.758 1.905 5.073 6.621 8.57 11.725 9.988 5.408 1.696 11.155 1.117 16.72.885 5.354-.62 10.888-2.453 14.741-6.38 1.152-1.16 2.032-2.534 2.654-4.017-3.277 2.283-8.392 4.03-14.88 5.299-15.498 3.031-22.77-5.441-27.659-14.045-4.013-7.063-3.809-20.897 6.592-27.629m51.891 2.508c-4.277 3.97-8.48 8.026-13.002 11.711-.678.9.328 2.056.27 3.053 1.004 5.588 2.233 11.203 2.628 16.843 11.694 5.94 22.374 13.608 33.28 20.834 4.334 3.01 10.096 2.588 14.859.934 5.375-1.898 10.36-6.59 10.644-12.566-.01-1.787-.341-3.535-.709-5.28-3.322 8.447-11.462 14.263-18.421 10.57-7.294-3.87-12.378-13.904-24.143-15.738s-9.32-7.792-10.543-13.904c-.602-3.011.96-8.813 5.137-16.457" style="opacity:1;fill:#bd95c9;fill-opacity:1;stroke:none;stroke-width:1.0804168;stroke-linecap:round;stroke-miterlimit:4;stroke-dasharray:none;stroke-opacity:1" transform="scale(.9375)"/></g><g style="display:inline"><path d="M382.565 222.186c-.5-.534-1.028-1.043-1.499-1.602-1.652-1.963-2.875-3.774-4.26-5.982-2.155-3.437-3.939-6.547-5.606-10.284-.976-2.189-1.77-4.454-2.655-6.681-.711-2.468-1.556-4.901-2.134-7.404-2.626-11.359-2.83-23.317-1.016-34.816.54-3.418 1.391-6.78 2.086-10.17 3.003-9.665 3.587-12.519 7.78-21.926 1.723-3.863 3.743-7.587 5.614-11.38.254-.61 8.875 2.988 8.62 3.598-1.88 3.577-3.89 7.088-5.639 10.731-4.217 8.785-4.924 11.54-8.096 20.541-.78 3.135-1.73 6.233-2.341 9.405-2.026 10.517-1.96 21.87.22 32.357.486 2.333 1.208 4.611 1.812 6.917.741 2.11 1.413 4.246 2.225 6.33 2.313 5.943 5.327 11.593 8.453 17.139.228.252-3.336 3.48-3.564 3.227m66.304-15.316c7.703-10.243 16.449-24.632 23.055-39.872 4.908-11.753 6.15-16.006 8.907-27.681 1.873-7.939 3.49-15.773 4.6-22.907 1.185-7.603.978-8.773 1.168-14.952 0-.504 7.018-.045 7.013.46.103 6.913.384 8.393-.633 16.89-1.938 16.195-5.893 34.798-13.751 52.18-5.183 10.736-11.52 21.03-18.033 29.373-2.164 2.773-4.49 5.481-6.776 7.72-.53.52-1.106.98-1.653 1.456-.227.287-4.129-2.375-3.897-2.668m59.328 29.607c.463-.388.941-.759 1.389-1.165 2.21-2.009 3.786-3.675 5.888-5.96 3.433-3.73 6.996-7.753 10.094-11.746 1.976-2.546 3.809-5.2 5.713-7.8 7.8-11.136 14.596-23.038 18.995-35.95 2.73-8.015 2.73-9.52 4.272-17.646.994-10.177.773-5.204.741-14.915-.01-.524 7.399-.664 7.409-.14.424 10.561.456 5.151-.174 16.23-.506 3.107-.845 6.246-1.518 9.322-2.23 10.194-6.046 20.118-10.966 29.308-4.023 7.513-6.828 11.196-11.617 18.173-2.123 2.644-4.152 5.365-6.37 7.93-3.59 4.153-7.37 7.875-11.493 11.477-2.053 1.793-4.997 4.143-7.426 5.652-.597.37-1.254.635-1.881.952-.263.216-3.32-3.506-3.056-3.722" style="color:#000;clip-rule:nonzero;display:inline;overflow:visible;opacity:1;isolation:auto;mix-blend-mode:normal;color-interpolation:sRGB;color-interpolation-filters:linearRGB;solid-color:#000;solid-opacity:1;fill:#554539;fill-opacity:1;fill-rule:nonzero;stroke:none;stroke-width:2;stroke-linecap:butt;stroke-linejoin:miter;stroke-miterlimit:4;stroke-dasharray:none;stroke-dashoffset:0;stroke-opacity:1;color-rendering:auto;image-rendering:auto;shape-rendering:auto;text-rendering:auto" transform="matrix(-.8174 -.04318 -.04318 .8174 676.617 -8.32)"/><path d="M80.749 251.197c-5.21-1.218-9.863-4.202-14.056-7.43-1.942-1.494-3.844-3.048-5.64-4.715-1.946-1.807-3.714-3.797-5.57-5.695-1.716-2.101-3.564-4.101-5.148-6.303-6.239-8.674-10.212-18.772-10.463-29.545-.06-2.578.325-5.147.487-7.72.02-.518 7.338-.247 7.318.27-.172 2.206-.554 4.404-.518 6.616.157 9.548 3.965 18.47 9.465 26.124 1.485 2.065 3.196 3.957 4.794 5.936 1.687 1.817 3.32 3.686 5.062 5.452 4.838 4.903 10.148 9.648 16.38 12.698.305.15-1.806 4.462-2.111 4.312m25.612-28.205c-4.263-2.667-7.987-6.085-11.52-9.639-1.355-1.362-2.707-2.73-3.996-4.155-1.386-1.533-2.683-3.144-4.025-4.716-3.302-4.521-4.775-6.153-7.32-11.221-3.44-6.847-5.494-14.416-6.428-22.006-.362-2.941-.405-5.914-.607-8.87.342-12.095-.093-6.087 1.294-18.024.042-.559 7.935.038 7.893.597-1.306 11.216-.852 5.58-1.356 16.908.252 7.023.029 8.92 1.374 15.72 1.72 8.686 5.413 16.001 10.805 22.969 1.247 1.522 2.463 3.069 3.74 4.565 4.22 4.942 8.724 9.648 13.376 14.184.26.228-2.969 3.917-3.23 3.688m63.403-23.588c-1.996-8.221-4.177-16.394-6.077-24.64-4.153-19.898-5.017-40.304-6.09-60.547-.043-.698-9.91-.085-9.868.612.392 4.623.71 9.253 1.174 13.868 1.608 15.989 4.137 31.901 8.075 47.488 2.232 8.39 4.505 16.839 8.097 24.769.11.331 4.798-1.218 4.689-1.55" style="color:#000;clip-rule:nonzero;display:inline;overflow:visible;opacity:1;isolation:auto;mix-blend-mode:normal;color-interpolation:sRGB;color-interpolation-filters:linearRGB;solid-color:#000;solid-opacity:1;fill:#554539;fill-opacity:1;fill-rule:nonzero;stroke:none;stroke-width:2;stroke-linecap:butt;stroke-linejoin:miter;stroke-miterlimit:4;stroke-dasharray:none;stroke-dashoffset:0;stroke-opacity:1;color-rendering:auto;image-rendering:auto;shape-rendering:auto;text-rendering:auto" transform="rotate(17.364 227.32 2341.699)scale(-.81854 .81854)"/></g><g style="display:inline"><path d="M288.636 593.23c-2.32 2.427-4.548 3.787-6.837 4.252s-4.661.04-7.399-.987c-2.737-1.026-5.876-2.636-9.296-4.606a122 122 0 0 1-10.54-6.855 80.5 80.5 0 0 1-9.093-7.684c-2.57-2.524-4.679-4.916-6.236-7.147s-2.56-4.324-2.801-6.359c-.242-2.034.273-4.031 1.912-5.784s3.592-2.395 5.551-2.231c1.96.163 3.927 1.149 5.944 2.77 2.017 1.622 4.09 3.898 6.56 6.48s5.385 5.454 9.07 8.031c3.684 2.577 8.143 4.522 12.234 6.046 4.092 1.523 7.704 2.677 10.142 3.894s3.764 2.504 3.925 4.14c.162 1.637-5.455 8.468-3.136 6.04" style="color:#000;clip-rule:nonzero;display:inline;overflow:visible;opacity:1;isolation:auto;mix-blend-mode:normal;color-interpolation:sRGB;color-interpolation-filters:linearRGB;solid-color:#000;solid-opacity:1;fill:#f5c3d2;fill-opacity:1;fill-rule:nonzero;stroke:none;stroke-width:6.54213095;stroke-linecap:butt;stroke-linejoin:miter;stroke-miterlimit:4;stroke-dasharray:none;stroke-dashoffset:0;stroke-opacity:1;color-rendering:auto;image-rendering:auto;shape-rendering:auto;text-rendering:auto" transform="translate(-60.177 -216.484)"/><path d="M289.866 582.234c-2.086-1.242-5.111-2.442-8.75-3.913-4.159-1.681-9.053-3.774-13.295-6.659s-7.596-6.103-10.465-8.946c-2.87-2.843-5.33-5.286-7.775-6.96s-4.878-2.603-7.252-2.647c-2.374-.045-4.682.774-6.555 2.677-1.872 1.902-2.538 4.155-2.35 6.5.189 2.345 1.238 4.808 2.944 7.441s4.066 5.468 6.964 8.428a79.3 79.3 0 0 0 10.294 8.854 120 120 0 0 0 11.522 7.332c3.603 2.006 6.787 3.553 9.568 4.445 1.058.34 2.065.578 3.037.713 1.963.272 4.25-2.597 2.239-2.488-1.863.102-3.822-.321-6.013-1.147-2.67-1.005-5.72-2.573-9.026-4.482a118 118 0 0 1-10.168-6.627 77.5 77.5 0 0 1-8.776-7.426c-2.483-2.445-4.524-4.772-6.033-6.942s-2.484-4.209-2.722-6.177.256-3.888 1.831-5.56c1.576-1.674 3.454-2.273 5.343-2.092s3.79 1.159 5.745 2.743 3.968 3.79 6.362 6.28 5.212 5.245 8.757 7.727 7.823 4.372 11.771 5.862 7.464 2.631 9.86 3.826q.45.225.85.452c.684.39 1.27.777 1.712 1.207.51.496 2.896-.839 1.22-1.885-.273-.17-1.032-.299-.84-.536" style="color:#000;clip-rule:nonzero;display:inline;overflow:visible;opacity:1;isolation:auto;mix-blend-mode:normal;color-interpolation:sRGB;color-interpolation-filters:linearRGB;solid-color:#000;solid-opacity:1;fill:#554539;fill-opacity:1;fill-rule:nonzero;stroke:none;stroke-width:6.54213095;stroke-linecap:butt;stroke-linejoin:miter;stroke-miterlimit:4;stroke-dasharray:none;stroke-dashoffset:0;stroke-opacity:1;color-rendering:auto;image-rendering:auto;shape-rendering:auto;text-rendering:auto" transform="translate(-60.177 -216.484)"/><path d="M194.582 362.812c-1.55.207-3.224.133-4.535 1.536-1.748 1.87-2.299 4-2.041 6.17s1.33 4.404 2.99 6.783 3.91 4.93 6.65 7.623a86 86 0 0 0 9.7 8.195 130 130 0 0 0 11.242 7.313c3.647 2.1 6.996 3.82 9.916 4.914 2.615.98 4.296.892 6.502.623-18.183-10.05-47.668-32.653-40.29-43.163z" style="opacity:1;fill:#e8b8c6;fill-opacity:1;stroke:none;stroke-width:5;stroke-linecap:round;stroke-miterlimit:4;stroke-dasharray:none;stroke-opacity:1" transform="scale(.9375)"/></g><g style="display:inline"><path d="M195.294 546.97c-13.884.699-39.313 6.296-50.95 8.728s-24.653-.93-33.555 2.349c-8.901 3.28-6.873 18.836-12.574 23.072s-17.69 9.588-19.946 15.553 6.357 13.757 7.855 20.55c1.498 6.792-4.119 12.568.762 19.707 4.88 7.139 13.007 6.375 20.86 13.6 7.852 7.227 5.539 36.29 15.868 44.39 10.33 8.099 31.64-1.374 43.915 9.262s23.608 27.134 37.92 37.205 29.628.843 45.943 9.487 54.078 41.74 72.353 48.24 34.001-2.69 52.182 1.084 38.812 20.527 56.286 22.288 24.298-3.82 40.419-3.38c16.121.438 33.606 9.741 47.2 10.548s26.86-8.974 38.009-9.037 25.047 8.371 33.64 6.593c3.73-.772 7.533-2.386 10.132-5.73 3.388-4.36 5.333-10.758 8.536-12.875 5.661-3.74 12.764-7.21 15.046-12.953 2.281-5.744-.193-15.198-1.617-22.08-1.423-6.883 6.609-19.17 1.869-27.127s-11.672-12.196-19.321-21.145-14.139-26.676-25.195-34.584c-8.783-6.283-18.425-12.624-28.775-18.979-6.968 16.186-14.507 31.484-22.551 45.685-1.026 1.811-2.073 3.578-3.115 5.353-46.768 82.647-363.187-74.308-328.347-126.768 4.58-6.897 9.518-13.895 13.628-21.853 4.25-8.228 7.63-17.106 9.8-26.76-5.333-.467-10.57 4.263-14.923 4.258s-7.883-4.856-11.354-4.681" style="color:#000;clip-rule:nonzero;display:inline;overflow:visible;opacity:1;isolation:auto;mix-blend-mode:normal;color-interpolation:sRGB;color-interpolation-filters:linearRGB;solid-color:#000;solid-opacity:1;fill:#673681;fill-opacity:1;fill-rule:nonzero;stroke:none;stroke-width:10;stroke-linecap:round;stroke-linejoin:miter;stroke-miterlimit:4;stroke-dasharray:none;stroke-dashoffset:0;stroke-opacity:1;color-rendering:auto;image-rendering:auto;shape-rendering:auto;text-rendering:auto" transform="translate(-60.177 -216.484)"/><path d="M194.135 552.374c-16.65 2.42-46.417 11.93-63.888 9.627-6.984.205-19.282-2.889-21.141 6.6-1.591 8.54-5.543 17.73-14.211 21.052-3.942 3.01-14.503 6.112-10.284 12.719 4.842 7.67 9.775 17.14 5.446 26.199-.198 10.278 12.012 10.375 18.125 15.408 13.355 9.84 9.402 28.446 15.47 41.92 5.037 10.39 18.534 7.608 27.99 9.347 11.909.275 20.8 4.49 28.18 13.408 11.493 11.478 21.134 27.403 37.668 31.903 14.407 1.643 30.799-.713 42.729 9.524 18.216 11.968 52.08 43.916 75.345 45.984 17.777.204 36.733-5.989 53.505 2.824 18.824 7.695 37.619 23.28 59.177 17.298 16.608-4.146 35.258-2.024 51.803 4.601 14.397 4.695 28.007 6.933 42.395-1.947 12.285-5.745 26.235-3.204 38.222 1.908 7.062 2.541 17.088 1.927 19.756-5.466 3.09-8.562 13.455-13.53 18.59-18.224 8.785-8.03-2.488-23.049 2.05-34.236 2.478-8.676-.503-18.057-8.313-22.93-11.426-10.072-19.048-23.299-26.658-36.223-8.26-10.645-20.422-17.125-31.683-24.043-9.194 19.025-17.083 39.435-31.032 55.564-20.287 18.478-50.268 17.806-75.833 14.862-64.148-8.686-124.567-35.17-180.289-67.216-26.34-15.911-53-33.736-70.94-59.243-6.857-9.997-8.897-24.64-.082-34.129 7.291-10.647 13.872-21.967 17.803-34.319-6.29 3.121-13.548 1.529-18.7-2.882z" style="color:#000;clip-rule:nonzero;display:inline;overflow:visible;opacity:1;isolation:auto;mix-blend-mode:normal;color-interpolation:sRGB;color-interpolation-filters:linearRGB;solid-color:#000;solid-opacity:1;fill:#d4a3e2;fill-opacity:1;fill-rule:nonzero;stroke:none;stroke-width:10;stroke-linecap:round;stroke-linejoin:miter;stroke-miterlimit:4;stroke-dasharray:none;stroke-dashoffset:0;stroke-opacity:1;color-rendering:auto;image-rendering:auto;shape-rendering:auto;text-rendering:auto" transform="translate(-60.177 -216.484)"/><path d="M144.201 359.566c-2.326.063-9.119 1.458-29.756 5.83.378.306.62.508 1.022.833 8.866 7.149 22.87 17.292 34.79 25.324 2.634-4.158 5.33-8.703 6.71-11.36a141 141 0 0 0 1.79-3.59 933 933 0 0 0-12.839-16.54c-.102-.07-.205-.126-.307-.198-.277-.195-.604-.32-1.41-.299M66.85 369.625c-6.057 0-7.59.224-8.784.879-2.996 1.644-4.004 3.219-5.29 8.264-1.417 5.552-3.148 9.65-5.657 12.962 2.488 1.013 5.865 2.298 10.848 4.13 20.987 7.711 64.49 20.033 66.135 17.777.41-.564.659-1.238.798-1.932.419-2.081-.132-4.34-.132-4.34-23.894-16.89-42.515-29.084-56.93-37.732-.275 0-.73-.008-.988-.008m-18.795 64.88c-5.602-.01-10.155.193-13.862.55a183 183 0 0 1-.615 5.95c-.576 4.958.905 6.557 10.36 11.192 7.459 3.658 11.938 6.934 14.99 12.223 2.71-.243 6.49-.684 12.082-1.402 22.176-2.851 66.454-12.011 66.87-14.772.105-.69.012-1.402-.185-2.082-.59-2.04-2.12-3.789-2.12-3.789-42.092-5.73-69.854-7.835-87.52-7.87m88.314 33.099c-4.707-.117-17.79 7.34-66.984 34.578 1.25 2.24 2.728 3.781 4.54 4.843 3.39 1.987 9.111 3.058 21.118 3.955 5.21.39 11.528 1.253 14.037 1.918 4.55 1.208 7.825 2.568 11.684 5.526 2.514-9.247 5.496-16.82 17.117-31.979 14.22-18.549 5.265-15.417.767-18.14a4.8 4.8 0 0 0-1.328-.576 4.3 4.3 0 0 0-.95-.125m75.563 35.546c-4.358-.223-13.992 8.174-60 46.94 4.664 4.035 8.638 6.439 13.226 8.273 2.95 1.18 5.456 1.521 15.196 2.076 13.102.747 19.128 1.616 24.572 3.83.064-.495.113-.977.14-1.435.777-13.217.667-20.48 11.034-41.428 10.366-20.948 2.185-16.145-2.754-17.947a4.8 4.8 0 0 0-1.414-.309m107.26 50.586c-3.481.13-6.575 1.16-6.575 1.16-10.516 27.472-16.761 48.1-20.045 63.399 4.632.524 10.658.245 22.16-.729 11.891-1.006 19.326-.892 25.813.444-.047-.4-.069-.656-.12-1.078-2.444-20.475-13.14-62.035-17.724-62.952-1.146-.229-2.35-.287-3.51-.244m185.478.391c-2.151-.294.187 5.775 3.297 10.754 2.5 4.002 37.739 42.682 55.699 54.033 5.186 3.278 10.247 9.448 15.771 16.152 2.264-3.184 5.45-6.059 11.311-10.433 6.35-4.739 8.487-6.779 9.135-10.274-33.362-17.475-90.615-57.508-94.006-59.695-.501-.323-.9-.495-1.207-.537m-104.54 15.344c-3.92.04-3.992 14.662-1.452 71.86 5.344.715 10.166.16 16.552-1.216 6.7-1.444 9.11-1.665 18.405-1.681.347-.001.64.009.978.01-4.257-11.845-8.491-17.75-13.248-26.125-6.07-10.689-10.877-35.07-18.283-41.278-1.157-.97-2.136-1.578-2.951-1.57zm63.143.459c-3.252-.027-6.953 1.812-8.863 5.441-2.198 4.176 19.862 41.56 33.613 57.756 3.3 3.886 5.912 9.658 8.579 16.11 2.59-.204 5.035-.545 6.818-1.012 1.91-.501 6.035-2.15 9.168-3.666 4.95-2.395 8.264-3.635 12.058-4.178-23.026-22.862-53.916-65.287-56.486-68.371-1.146-1.375-2.935-2.064-4.887-2.08" style="opacity:1;fill:#bd95c9;fill-opacity:1;stroke:none;stroke-width:3.05588007;stroke-linecap:round;stroke-miterlimit:4;stroke-dasharray:none;stroke-opacity:1" transform="scale(.9375)"/></g></svg>