<svg xmlns="http://www.w3.org/2000/svg" width="523.026" height="550.023" viewBox="0 0 490.337 515.647"><g style="display:inline;opacity:1"><g style="opacity:1"><path d="M-626.547 402.353c2.228 10.863.345 21.826-3.867 31.425-4.213 9.6-10.552 17.861-17.721 24.3s-15.255 11.106-24.572 13.614c-9.317 2.507-20.95 4.469-31.639 1.984s-18.069-9.229-24.094-15.893-12.359-14.476-22.965-22.068-20.865-15.599-25.161-23.378c-4.297-7.78-7.008-15.67-7.816-23.39-.807-7.722.36-14.56 3.123-20.545s7.126-11.121 12.786-15.41 12.617-7.736 20.642-10.242 17.112-4.076 27.14-4.415c10.026-.34 20.065.594 29.76 2.875s19.056 5.92 27.478 11.023 15.893 11.692 21.605 19.629c5.711 7.936 13.074 19.628 15.301 30.49" style="color:#000;clip-rule:nonzero;display:inline;overflow:visible;opacity:1;isolation:auto;mix-blend-mode:normal;color-interpolation:sRGB;color-interpolation-filters:linearRGB;solid-color:#000;solid-opacity:1;fill:#96d6ff;fill-opacity:1;fill-rule:nonzero;stroke:none;stroke-width:10;stroke-linecap:butt;stroke-linejoin:miter;stroke-miterlimit:4;stroke-dasharray:none;stroke-dashoffset:0;stroke-opacity:1;color-rendering:auto;image-rendering:auto;shape-rendering:auto;text-rendering:auto" transform="matrix(-.3288 .17362 .20143 .28339 -66.425 53.115)"/><path d="M-784.214 457.34a8 8 0 0 0-1.556.335 5.6 5.6 0 0 0-1.635.827c-.451.342-.802.747-1.028 1.22a3.1 3.1 0 0 0-.274 1.62c.052.609.252 1.233.58 1.849.326.616.989 1.252 1.835 1.841.845.59 1.356 1.206 1.825 1.729.467.521 1.135.854 2.024.927.103.008.124-.305.035-.329-.781-.203-1.259-.72-1.719-1.11-.425-.467-.872-1.015-1.621-1.547s-1.473-1.093-1.777-1.639-.497-1.1-.555-1.642a2.7 2.7 0 0 1 .22-1.443c.194-.421.502-.784.901-1.087.4-.302.89-.545 1.458-.723a7 7 0 0 1 .907-.215q.48-.08 1.012-.102a8 8 0 0 1 2.1.2 6.7 6.7 0 0 1 1.939.772c.593.359 1.119.82 1.52 1.377.403.557.922 1.375 1.08 2.137.13.625.073 1.258-.133 1.834-.038.107.498.294.628-.012.243-.57.234-1.24.103-1.874-.179-.856-.69-1.769-1.137-2.4a5.7 5.7 0 0 0-1.689-1.553 7.1 7.1 0 0 0-2.143-.85 8.6 8.6 0 0 0-2.9-.143z" style="color:#000;clip-rule:nonzero;display:inline;overflow:visible;opacity:1;isolation:auto;mix-blend-mode:normal;color-interpolation:sRGB;color-interpolation-filters:linearRGB;solid-color:#000;solid-opacity:1;fill:#394655;fill-opacity:1;fill-rule:nonzero;stroke:none;stroke-width:10;stroke-linecap:butt;stroke-linejoin:miter;stroke-miterlimit:4;stroke-dasharray:none;stroke-dashoffset:0;stroke-opacity:1;color-rendering:auto;image-rendering:auto;shape-rendering:auto;text-rendering:auto" transform="matrix(-4.55414 2.40477 2.79007 3.92523 -4607.073 111.619)"/><path d="M-753.772 413.022c-.136-2.619 2.18-4.948 7.22-6.2 7.654-1.903 20.038 1.845 27.938 5.67 4.333 2.1 8.89 3.892 12.666 7.195 1.282 1.121 2.518 2.283 3.368 4.409-1.658.577-4.104-.922-5.872-2.13-6.968-4.766-14.695-8.09-22.677-9.127-6.716-.872-8.87-3.11-14.756-2.562-3.726.347-4.906 2.139-7.887 2.745" style="color:#000;clip-rule:nonzero;display:inline;overflow:visible;opacity:1;isolation:auto;mix-blend-mode:normal;color-interpolation:sRGB;color-interpolation-filters:linearRGB;solid-color:#000;solid-opacity:1;fill:#394655;fill-opacity:1;fill-rule:nonzero;stroke:none;stroke-width:10;stroke-linecap:butt;stroke-linejoin:miter;stroke-miterlimit:4;stroke-dasharray:none;stroke-dashoffset:0;stroke-opacity:1;color-rendering:auto;image-rendering:auto;shape-rendering:auto;text-rendering:auto" transform="matrix(-.3288 .17362 .20143 .28339 -66.425 53.115)"/><path d="M-720.17 411.684c.285-2.325.87 3.903-.319 5.46-4.46 5.84-8.203 12.32-12.42 18.365-1.374 1.968-3.295.041-2.428-2.1.881-2.173 2.06-3.998 3.35-5.814 1.207-1.702 2.813-3.058 3.888-4.86 2.066-3.463 2.395-6.629 4.254-10.24.637-1.237 3.522.426 3.674-.808z" style="color:#000;clip-rule:nonzero;display:inline;overflow:visible;opacity:1;isolation:auto;mix-blend-mode:normal;color-interpolation:sRGB;color-interpolation-filters:linearRGB;solid-color:#000;solid-opacity:1;fill:#394655;fill-opacity:1;fill-rule:nonzero;stroke:none;stroke-width:10;stroke-linecap:butt;stroke-linejoin:miter;stroke-miterlimit:4;stroke-dasharray:none;stroke-dashoffset:0;stroke-opacity:1;color-rendering:auto;image-rendering:auto;shape-rendering:auto;text-rendering:auto" transform="matrix(-.3288 .17362 .20143 .28339 -66.425 53.115)"/></g><g style="display:inline"><path d="M423.503 581.835c-.004 4.4-1.198 7.589-3.375 9.829s-5.331 3.551-9.146 4.443c-3.815.89-8.283 1.395-13.057 1.838s-9.851.79-14.95 1.1c-5.098.308-9.945.347-14.402.085-4.457-.26-8.524-.799-11.993-1.712s-6.337-2.213-8.356-4.092c-2.019-1.88-3.187-4.345-3.255-7.511-.067-3.166.999-5.486 2.926-7.084s4.712-2.464 8.1-2.847 7.372-.283 11.77-.16 9.21.234 14.332-.122c5.12-.357 10.271-1.474 15.16-2.541 4.888-1.068 9.504-2.052 13.438-2.272s7.178.324 9.398 2.046c2.221 1.723 3.415 4.6 3.41 9" style="color:#000;clip-rule:nonzero;display:inline;overflow:visible;opacity:1;isolation:auto;mix-blend-mode:normal;color-interpolation:sRGB;color-interpolation-filters:linearRGB;solid-color:#000;solid-opacity:1;fill:#e1d6b9;fill-opacity:1;fill-rule:nonzero;stroke:none;stroke-width:10;stroke-linecap:butt;stroke-linejoin:miter;stroke-miterlimit:4;stroke-dasharray:none;stroke-dashoffset:0;stroke-opacity:1;color-rendering:auto;image-rendering:auto;shape-rendering:auto;text-rendering:auto" transform="matrix(-.6972 .2229 .41767 .92199 403.371 -331.345)"/><path d="M411.914 568.549c-3.75-.027-8.087.54-12.762 1.287-5.342.854-11.107 1.92-17.01 2.326-5.902.406-11.41.383-16.447.414s-9.604.16-13.508.86c-3.903.698-7.135 1.967-9.408 3.968s-3.585 4.717-3.652 8.176 1.218 6.307 3.543 8.58 5.688 3.98 9.762 5.25c4.073 1.27 8.852 2.12 14.056 2.598 5.205.479 10.834.561 16.703.222 5.87-.338 11.472-.786 16.606-1.35 5.134-.562 9.793-1.223 13.707-2.343a27.6 27.6 0 0 0 4.127-1.52c2.545-1.193 2.05-6.172-.1-4.54-1.991 1.511-4.56 2.503-7.57 3.207-3.669.857-7.967 1.341-12.559 1.767s-9.475.76-14.379 1.057c-4.903.297-9.565.335-13.851.084s-8.199-.769-11.535-1.647-6.096-2.13-8.037-3.937c-1.942-1.808-3.066-4.178-3.131-7.223s.96-5.277 2.814-6.814 4.531-2.37 7.79-2.739c3.257-.368 7.092-.272 11.322-.154s8.857.226 13.783-.117c4.925-.343 9.88-1.417 14.582-2.443s9.14-1.973 12.924-2.184q.71-.04 1.388-.045c1.16-.007 2.25.044 3.25.236 1.153.222 2.316-2.861-.838-2.927-.511-.011-1.034-.045-1.57-.05" style="color:#000;clip-rule:nonzero;display:inline;overflow:visible;opacity:1;isolation:auto;mix-blend-mode:normal;color-interpolation:sRGB;color-interpolation-filters:linearRGB;solid-color:#000;solid-opacity:1;fill:#394655;fill-opacity:1;fill-rule:nonzero;stroke:none;stroke-width:10;stroke-linecap:butt;stroke-linejoin:miter;stroke-miterlimit:4;stroke-dasharray:none;stroke-dashoffset:0;stroke-opacity:1;color-rendering:auto;image-rendering:auto;shape-rendering:auto;text-rendering:auto" transform="matrix(-.6972 .2229 .41767 .92199 403.371 -331.345)"/></g><g style="display:inline;opacity:1"><path d="M767.3 387.327c11.123 7.965 31.777 11.3 44.73 15.545 12.954 4.245 18.15 9.36 22.13 13.373s5.944 7.144 4.718 9.527-5.543 3.994-14 4.811c-8.459.818-15.91.121-23.024-1.725s-13.807-4.867-21.706-8.603c-7.899-3.737-17.327-8.05-25.811-14.185-8.484-6.133-17.623-13.9-23.143-24.133-5.519-10.234-5.782-21.344-5.371-30.883s1.51-17.554 2.716-23.75c1.204-6.195 2.715-10.673 4.77-13.669 2.057-2.995 4.652-4.526 7.72-4.526s5.703 1.83 7.625 5.499 3.048 9.244 3.287 16.76-.672 17.08.34 27.198c1.011 10.118 3.895 20.795 15.018 28.76" style="color:#000;clip-rule:nonzero;display:inline;overflow:visible;opacity:1;isolation:auto;mix-blend-mode:normal;color-interpolation:sRGB;color-interpolation-filters:linearRGB;solid-color:#000;solid-opacity:1;fill:#394655;fill-opacity:1;fill-rule:nonzero;stroke:none;stroke-width:10;stroke-linecap:butt;stroke-linejoin:miter;stroke-miterlimit:4;stroke-dasharray:none;stroke-dashoffset:0;stroke-opacity:1;color-rendering:auto;image-rendering:auto;shape-rendering:auto;text-rendering:auto" transform="matrix(-.11933 .60316 1.3606 .30916 -70.669 -185.188)"/><path d="M760.817 387.615c8.354 7.229 23.405 11.344 36.929 14.854s21.763 7.51 26.414 11.295 7.043 6.961 6.893 9.28c-.151 2.32-3.073 3.852-9.995 4.538-6.922.685-13.124-.18-19.188-2.159s-12.013-5.066-19.623-8.647-16.945-7.618-24.99-13.216-15.823-12.654-20.902-21.246-6.013-17.8-5.992-25.918c.022-8.118.935-15.149 1.866-20.67.932-5.52 2.018-9.597 3.383-12.305 1.366-2.707 3.035-4.069 5.02-4.013 1.985.055 3.577 1.847 4.614 5.275 1.038 3.428 1.448 8.544 1.474 15.152.026 6.609-.436 14.761.913 23.275 1.35 8.514 4.83 17.275 13.184 24.505" style="color:#000;clip-rule:nonzero;display:inline;overflow:visible;opacity:1;isolation:auto;mix-blend-mode:normal;color-interpolation:sRGB;color-interpolation-filters:linearRGB;solid-color:#000;solid-opacity:1;fill:#e1d6b9;fill-opacity:1;fill-rule:nonzero;stroke:none;stroke-width:10;stroke-linecap:butt;stroke-linejoin:miter;stroke-miterlimit:4;stroke-dasharray:none;stroke-dashoffset:0;stroke-opacity:1;color-rendering:auto;image-rendering:auto;shape-rendering:auto;text-rendering:auto" transform="matrix(-.11933 .60316 1.3606 .30916 -70.669 -185.188)"/></g><path d="M367.218 281.211q1.904 0 3.812.051c42.778 1.126 90.704 5.695 122.104 40.55 32.84 36.451 50.863 87.739 42.477 134.74-3.706 20.768-10.981 49.473-17.742 62.406-7.114 13.609-19.805 12.64-20.033 14.6-.958 8.234 28.658.035 45.921 17.563 14.064 14.28 18.472 40.719 18.813 59.65.082 4.562-.028 9.279-.378 14.043-14.49 35.534-47.687 57.08-104.82 72.237-16.353 4.338-32.983 6.841-49.342 8.013-33.947-1.396-67.795-6.133-100.138-17.267-32.656-11.242-56.145-40.9-74.773-73.885-29.475-52.193-35.755-116.165-27.316-176.468 7.06-50.45 11.658-86.98 52.224-116.772 32.346-23.755 69.85-39.476 109.191-39.46" style="color:#000;clip-rule:nonzero;display:inline;overflow:visible;opacity:1;isolation:auto;mix-blend-mode:normal;color-interpolation:sRGB;color-interpolation-filters:linearRGB;solid-color:#000;solid-opacity:1;fill:#394655;fill-opacity:1;fill-rule:nonzero;stroke:none;stroke-width:1.4276253;stroke-linecap:butt;stroke-linejoin:miter;stroke-miterlimit:4;stroke-dasharray:none;stroke-dashoffset:0;stroke-opacity:1;color-rendering:auto;image-rendering:auto;shape-rendering:auto;text-rendering:auto" transform="translate(-159.493 -229.71)"/><path d="M367.427 286.882c42.992.29 91.454 4.58 122.979 39.778 29.315 32.73 43.708 77.17 40.48 119.644-1.851 24.335-4.254 46.895-15.339 68.525-7.406 14.45-25.662 16.948-25.75 21.457-.06 3.038 12.816 2.291 36.46 9.339 18.235 5.435 21.087 15.45 27.965 34.848 3.544 9.995 3.636 21.403 3.863 32.075.1 4.623-.16 9.286-.717 13.93-15.761 31.817-48.31 51.693-101.985 65.933-19.904 5.28-40.222 7.85-59.956 8.597-23.42-1.578-46.676-5.157-69.3-11.417-36.53-10.108-65.446-39.433-86.515-75.756-29.608-51.043-36.19-113.605-29.37-173.225 5.795-50.671 11.03-86.899 51.98-115.99 31.477-22.362 67.208-37.995 105.205-37.738" style="color:#000;clip-rule:nonzero;display:inline;overflow:visible;opacity:1;isolation:auto;mix-blend-mode:normal;color-interpolation:sRGB;color-interpolation-filters:linearRGB;solid-color:#000;solid-opacity:1;fill:#96d6ff;fill-opacity:1;fill-rule:nonzero;stroke:none;stroke-width:1.4276253;stroke-linecap:butt;stroke-linejoin:miter;stroke-miterlimit:4;stroke-dasharray:none;stroke-dashoffset:0;stroke-opacity:1;color-rendering:auto;image-rendering:auto;shape-rendering:auto;text-rendering:auto" transform="translate(-159.493 -229.71)"/><path d="M550.045 566.155c-8.015-17.952-33.296-29.55-59.908-26.35-36.434 4.379-107.008 29.172-108.838 27.452 32.96-15.327 80.7-26.255 112.654-35.453 11.18-3.219 19.355-9.695 24.104-20.914 0 0-4.42 9.992-4.751 10.241s-7.79 5.966-7.79 5.966-6.794 3.48-7.291 3.73c-.497.248-4.806 3.397-4.806 3.397s2.154 1.574 2.983 1.823c.828.248 2.983 1.657 4.64 1.823s7.126.662 11.933 1.408 15.08 3.232 17.484 4.392c2.403 1.16 7.623 4.06 7.872 4.475.249.414 11.714 18.01 11.714 18.01" style="opacity:1;fill:#394655;fill-opacity:1;stroke:none;stroke-width:4.6875;stroke-linecap:round;stroke-miterlimit:4;stroke-dasharray:none;stroke-opacity:.63316585" transform="translate(-159.493 -229.71)"/><g style="display:inline;opacity:1"><path d="M423.503 581.835c-.004 4.4-1.198 7.589-3.375 9.829s-5.331 3.551-9.146 4.443c-3.815.89-8.283 1.395-13.057 1.838s-9.851.79-14.95 1.1c-5.098.308-9.945.347-14.402.085-4.457-.26-8.524-.799-11.993-1.712s-6.337-2.213-8.356-4.092c-2.019-1.88-3.187-4.345-3.255-7.511-.067-3.166.999-5.486 2.926-7.084s4.712-2.464 8.1-2.847 7.372-.283 11.77-.16 9.21.234 14.332-.122c5.12-.357 10.271-1.474 15.16-2.541 4.888-1.068 9.504-2.052 13.438-2.272s7.178.324 9.398 2.046c2.221 1.723 3.415 4.6 3.41 9" style="color:#000;clip-rule:nonzero;display:inline;overflow:visible;opacity:1;isolation:auto;mix-blend-mode:normal;color-interpolation:sRGB;color-interpolation-filters:linearRGB;solid-color:#000;solid-opacity:1;fill:#e1d6b9;fill-opacity:1;fill-rule:nonzero;stroke:none;stroke-width:10;stroke-linecap:butt;stroke-linejoin:miter;stroke-miterlimit:4;stroke-dasharray:none;stroke-dashoffset:0;stroke-opacity:1;color-rendering:auto;image-rendering:auto;shape-rendering:auto;text-rendering:auto" transform="matrix(-.19756 -.64741 .92085 -.16781 -189.824 815.518)"/><path d="M411.914 568.549c-3.75-.027-8.087.54-12.762 1.287-5.342.854-11.107 1.92-17.01 2.326-5.902.406-11.41.383-16.447.414s-9.604.16-13.508.86c-3.903.698-7.135 1.967-9.408 3.968s-3.585 4.717-3.652 8.176 1.218 6.307 3.543 8.58 5.688 3.98 9.762 5.25c4.073 1.27 8.852 2.12 14.056 2.598 5.205.479 10.834.561 16.703.222 5.87-.338 11.472-.786 16.606-1.35 5.134-.562 9.793-1.223 13.707-2.343a27.6 27.6 0 0 0 4.127-1.52c2.545-1.193 2.05-6.172-.1-4.54-1.991 1.511-4.143 1.681-7.157 2.35-3.673.815-8.181.991-12.55 1.343s-8.78 1.784-13.313 2.077c-4.535.293-8.868.328-12.932.07-4.064-.257-7.857-.78-11.125-1.642-3.268-.863-5.997-2.08-7.885-3.814s-2.925-3.988-2.978-6.801.901-4.82 2.669-6.106c1.767-1.286 5.617-.585 8.691-.714 3.075-.13 6.907-.545 10.788-.417 3.882.127 6.546-.481 11.049-1.214s9.152-2.344 13.887-3.721 9.225-2.343 13.009-2.554q.71-.04 1.388-.045c1.16-.007 2.25.044 3.25.236 1.153.222 2.316-2.861-.838-2.927-.511-.011-1.034-.045-1.57-.05" style="color:#000;clip-rule:nonzero;display:inline;overflow:visible;opacity:1;isolation:auto;mix-blend-mode:normal;color-interpolation:sRGB;color-interpolation-filters:linearRGB;solid-color:#000;solid-opacity:1;fill:#394655;fill-opacity:1;fill-rule:nonzero;stroke:none;stroke-width:10;stroke-linecap:butt;stroke-linejoin:miter;stroke-miterlimit:4;stroke-dasharray:none;stroke-dashoffset:0;stroke-opacity:1;color-rendering:auto;image-rendering:auto;shape-rendering:auto;text-rendering:auto" transform="matrix(-.19756 -.64741 .92085 -.16781 -189.824 815.518)"/></g><g style="opacity:1"><path d="M-626.573 401.696c2.247 11.35.367 22.39-3.843 32.038-4.21 9.649-10.55 17.905-17.72 24.344s-15.254 11.11-24.57 13.61c-9.318 2.501-20.95 4.473-31.646 1.829s-18.092-9.812-24.148-17.25c-6.056-7.44-12.443-16.568-23.097-25.36-10.654-8.793-20.952-17.788-25.3-26.873-4.35-9.086-7.116-18.361-7.98-27.522s.246-17.364 2.961-24.584 7.032-13.455 12.66-18.537 12.567-9.01 20.593-11.49c8.026-2.478 17.135-3.505 27.21-2.666 10.073.838 20.18 3.472 29.951 7.653s19.215 9.908 27.712 16.897 16.035 15.24 21.796 24.415c5.76 9.176 13.174 22.145 15.421 33.496" style="color:#000;clip-rule:nonzero;display:inline;overflow:visible;opacity:1;isolation:auto;mix-blend-mode:normal;color-interpolation:sRGB;color-interpolation-filters:linearRGB;solid-color:#000;solid-opacity:1;fill:#96d6ff;fill-opacity:1;fill-rule:nonzero;stroke:none;stroke-width:10;stroke-linecap:butt;stroke-linejoin:miter;stroke-miterlimit:4;stroke-dasharray:none;stroke-dashoffset:0;stroke-opacity:1;color-rendering:auto;image-rendering:auto;shape-rendering:auto;text-rendering:auto" transform="rotate(-25.357 -261.31 -657.1)scale(.42416)"/><path d="M-784.271 455.904a5.5 5.5 0 0 0-1.56.262 4.5 4.5 0 0 0-1.63.935 3.9 3.9 0 0 0-1.018 1.475 4.35 4.35 0 0 0-.261 1.937 6.3 6.3 0 0 0 .592 2.157c.33.71.996 1.419 1.845 2.083.848.664 1.363 1.37 1.833 1.94.47.567 1.137.91 2.027.989.103.009.123-.313.034-.34-.781-.217-1.26-.775-1.723-1.214-.428-.524-.878-1.166-1.63-1.785-.753-.619-1.48-1.252-1.787-1.892a5.8 5.8 0 0 1-.567-1.938 3.8 3.8 0 0 1 .208-1.73c.191-.508.495-.949.893-1.307a3.85 3.85 0 0 1 1.454-.81q.427-.132.908-.182t1.016-.008a6.8 6.8 0 0 1 2.114.538 8.1 8.1 0 0 1 1.955 1.19 7.2 7.2 0 0 1 1.535 1.719c.406.646.928 1.559 1.088 2.358a3.53 3.53 0 0 1-.131 1.88c-.039.108.498.304.628-.002.243-.57.234-1.244.102-1.897-.18-.883-.695-1.871-1.144-2.587a7.9 7.9 0 0 0-1.703-1.899 8.8 8.8 0 0 0-2.16-1.296 7.4 7.4 0 0 0-2.34-.564 6 6 0 0 0-.578-.012" style="color:#000;clip-rule:nonzero;display:inline;overflow:visible;opacity:1;isolation:auto;mix-blend-mode:normal;color-interpolation:sRGB;color-interpolation-filters:linearRGB;solid-color:#000;solid-opacity:1;fill:#394655;fill-opacity:1;fill-rule:nonzero;stroke:none;stroke-width:10;stroke-linecap:butt;stroke-linejoin:miter;stroke-miterlimit:4;stroke-dasharray:none;stroke-dashoffset:0;stroke-opacity:1;color-rendering:auto;image-rendering:auto;shape-rendering:auto;text-rendering:auto" transform="rotate(-25.357 -8068.17 -8937.034)scale(5.87505)"/><path d="M-730.273 382.913c1.807-2.764 6.313-3.63 13.246-1.617 10.53 3.057 22.434 14.977 28.948 24.047 3.574 4.975 7.643 9.782 9.648 15.624.68 1.983 1.276 3.978.69 6.704-2.407-.494-4.188-3.623-5.38-6.013-4.7-9.42-11.386-17.865-20.096-24.139-7.328-5.278-8.205-8.972-15.615-12.257-4.69-2.08-7.441-1.02-11.44-2.35" style="color:#000;clip-rule:nonzero;display:inline;overflow:visible;opacity:1;isolation:auto;mix-blend-mode:normal;color-interpolation:sRGB;color-interpolation-filters:linearRGB;solid-color:#000;solid-opacity:1;fill:#394655;fill-opacity:1;fill-rule:nonzero;stroke:none;stroke-width:10;stroke-linecap:butt;stroke-linejoin:miter;stroke-miterlimit:4;stroke-dasharray:none;stroke-dashoffset:0;stroke-opacity:1;color-rendering:auto;image-rendering:auto;shape-rendering:auto;text-rendering:auto" transform="rotate(-25.357 -261.31 -657.1)scale(.42416)"/><path d="M-689.32 403.5c2.089-2.189-1.901 4.556-4.484 5.369-9.695 3.051-19.018 7.226-28.579 10.645-3.113 1.112-3.947-2.11-1.307-3.73 2.683-1.645 5.457-2.739 8.355-3.752 2.716-.95 5.644-1.286 8.277-2.424 5.061-2.187 7.834-5.206 12.759-7.68 1.689-.848 3.868 2.736 4.976 1.574z" style="color:#000;clip-rule:nonzero;display:inline;overflow:visible;opacity:1;isolation:auto;mix-blend-mode:normal;color-interpolation:sRGB;color-interpolation-filters:linearRGB;solid-color:#000;solid-opacity:1;fill:#394655;fill-opacity:1;fill-rule:nonzero;stroke:none;stroke-width:10;stroke-linecap:butt;stroke-linejoin:miter;stroke-miterlimit:4;stroke-dasharray:none;stroke-dashoffset:0;stroke-opacity:1;color-rendering:auto;image-rendering:auto;shape-rendering:auto;text-rendering:auto" transform="rotate(-25.357 -261.31 -657.1)scale(.42416)"/></g></g><g style="opacity:.07000002"><path d="M410.734 402.674c-22.122 5.912-47.244 11.63-70.615 16.373-48.79 9.9-67.176 36.062-78.49 54.447l6.877-1.68c36.644-15.306 75.758-23.231 113.484-35.27 12.098-3.472 21.06-13.528 25.504-25.009a140 140 0 0 0 3.24-8.861" style="opacity:1;fill:#1e1e1e;fill-opacity:1;stroke:none;stroke-width:3.53553391;stroke-linecap:round;stroke-miterlimit:4;stroke-dasharray:none;stroke-opacity:1" transform="translate(-22.469 -107.815)scale(.9375)"/><path d="M176.74 191.193c-12.023 5.356-23.557 11.86-34.445 19.053-5.419 4.11-12.048 7.06-16.457 12.31.09.62-.235 1.16-.715 1.55a827 827 0 0 1-2.086 12.507c-5.657 32.527-33.941 3.536-50.912 0-10.527-2.193-19.68-11.2-16.18-32.734a29.7 29.7 0 0 0-4.392 4.225c-5.28 6.03-6.06 15.294-3.237 22.568 4.226 7.6 10.488 15.225 19.426 17.115 7.922 1.962 15.287 5.437 22.82 8.438 3.387 1.472 7.753.611 10.766 2.427-2.434 1.642-6.472 1.232-7.285 4.858-9.48 22.451-12.471 46.968-15.553 70.95-3.622 29.346-3.81 59.078-1.185 88.51 5.062 45.877 20.8 91.177 49.363 127.805 19.957 26.392 47.352 48.609 80.11 56.245 22.473 5.532 45.447 9.512 68.577 10.697 8.527-.4 17.188-.507 25.58-2.026.383-2.82-2.617-5.577-3.496-8.246-1.446-3.423-4.198-6.886-4.158-10.638 2.14-1.543 1.84-4.8 4.658-5.897 5.555-3.574 12.84-2.42 18.942-1.758 5.753.524 7.147 7.193 9.875 11.229 2.123 3.09 2.42 7.874 5.558 10.062 26.172-6.523 52.36-14.89 75.512-29.045 17.053-10.549 31.724-25.286 40.908-43.2-.32-7.868.098-15.83.024-23.749-36.466 9.914-97.746 26.518-128.438 31.877-44.547 7.778-96.875 9.19-150.615-30.407-65.7-48.41-44.548-229.81-35.355-265.165 4.798-18.454 17.907-38.644 42.39-59.56" style="opacity:1;fill:#1e1e1e;fill-opacity:1;stroke:none;stroke-width:5;stroke-linecap:round;stroke-miterlimit:4;stroke-dasharray:none;stroke-opacity:1" transform="translate(-22.469 -107.815)scale(.9375)"/><path d="M221.25 457.423s15 15.235 22.031 18.047 20.86 11.016 28.125 14.766 7.735 10.078 22.969 4.219c15.234-5.86 20.39-10.079 30.938-11.72 10.546-1.64 18.046-.937 25.078-3.984 7.03-3.046 23.906-10.78 28.593-13.359 4.688-2.578 9.61-2.578 13.829-3.984 4.218-1.407 17.109-.235 19.453-3.75s3.75-3.985 3.046-6.563c-.703-2.578-7.03-15-15-16.875-7.968-1.875-14.765-2.344-36.562-1.875s-18.75-1.172-39.14 4.453-14.766 10.782-37.266 12.89c-22.5 2.11-17.11 2.11-29.531 1.642-12.422-.47-11.72-.235-19.688-1.641-7.969-1.406-16.875 7.734-16.875 7.734" style="opacity:1;fill:#1e1e1e;fill-opacity:1;stroke:none;stroke-width:4.6875;stroke-linecap:round;stroke-miterlimit:4;stroke-dasharray:none;stroke-opacity:1" transform="translate(-22.469 -107.815)"/><path d="M364.922 465.158c15 5.86 16.875 39.61 16.875 39.61s3.984 3.28 4.219-.704c5.369-7.307-8.34-45.035-13.829-41.484z" style="opacity:1;fill:#1e1e1e;fill-opacity:1;stroke:none;stroke-width:4.6875;stroke-linecap:round;stroke-miterlimit:4;stroke-dasharray:none;stroke-opacity:1" transform="translate(-22.469 -107.815)"/><path d="M280.102 140.03a49.7 49.7 0 0 0-9.346 5.529c-5.8 4.435-10.88 10.555-12.154 17.927-.293 2.258-.379 4.574-.327 6.828.546.718 1.767.281 2.596.479q5.41.244 10.813.61c-3.094-7.058-2.406-18.246 8.418-31.374" style="display:inline;opacity:1;fill:#1e1e1e;fill-opacity:1;stroke:none;stroke-width:.88388348;stroke-linecap:round;stroke-miterlimit:4;stroke-dasharray:none;stroke-opacity:1" transform="translate(-22.469 -107.815)scale(.9375)"/></g><g style="display:inline"><path d="M388.321 383.467c18.092-4.427 33.789 9.749 33.012 32.662-.572 16.851-4.152 31.458-21.97 36.879-8.991 2.735-20.564.266-28.343-6.036-14.51 5.922-28.459 9.409-40.715 13.077-5.02 10.281-11.008 17.443-28.675 21.148-18.228 3.824-32.938-4.304-35.64-27.07-3.73-31.434 9.344-44.775 24.95-50.064 14.035-4.755 80.165-15.017 97.381-20.596" style="opacity:1;fill:#dee3e8;fill-opacity:1;stroke:none;stroke-width:2.56882381;stroke-linecap:round;stroke-miterlimit:4;stroke-dasharray:none;stroke-opacity:.63316585" transform="translate(-22.469 -107.815)"/><path d="M377.243 406.706q.169-.001.28.237c-4.971 20.55 7.851 43.838 18.562 43.917 13.5.1 20.217-10.887 23.441-19.63-2.46 10.072-7.984 18.073-20.163 21.778-8.991 2.736-20.564.265-28.343-6.037-.74.302-1.472.573-2.209.863-2.375-12.216 6.266-41.116 8.432-41.128" style="opacity:1;fill:#c4cbd2;fill-opacity:1;stroke:none;stroke-width:4.6875;stroke-linecap:round;stroke-miterlimit:4;stroke-dasharray:none;stroke-opacity:.63316585" transform="translate(-22.469 -107.815)"/><path d="M273.622 430.074q.222-.002.37.251c-6.532 21.869 10.313 46.652 24.384 46.736 29.393.176 34.402-32.098 34.402-32.098s-.794 8.445-4.02 18.061c-4.79 8.692-11.224 14.837-27.128 18.173-18.228 3.824-32.938-4.303-35.64-27.07a94 94 0 0 1-.509-5.766c2.857-9.87 6.655-18.28 8.141-18.287" style="opacity:1;fill:#c4cbd2;fill-opacity:1;stroke:none;stroke-width:5.54240274;stroke-linecap:round;stroke-miterlimit:4;stroke-dasharray:none;stroke-opacity:.63316585" transform="translate(-22.469 -107.815)"/><path d="M391.445 385.73c8.452-.166 10.441.662 10.441.662s-9.944 1.658-31.322 6.298c-21.38 4.64-70.095 14.994-75.241 17.567-7.955 3.978-9.482 4.618-16.076 14.75-4.2 6.454-9.943 16.904-10.11 15.247-.165-1.657 4.278-20.42 9.116-26.02 6.636-7.68 19.887-9.777 25.688-11.269 5.8-1.491 87.504-17.236 87.504-17.236" style="display:inline;opacity:1;fill:#fff;fill-opacity:1;stroke:none;stroke-width:4.6875;stroke-linecap:round;stroke-miterlimit:4;stroke-dasharray:none;stroke-opacity:.63316585" transform="translate(-22.469 -107.815)"/><path d="m600.4 438.516.83 6.131 15.578 2.32s-.829-6.794-1.492-6.794-14.915-1.657-14.915-1.657" style="display:inline;opacity:1;fill:#c4cbd2;fill-opacity:1;stroke:none;stroke-width:4.6875;stroke-linecap:round;stroke-miterlimit:4;stroke-dasharray:none;stroke-opacity:.63316585" transform="matrix(-1 0 0 1 941.37 -144.857)"/><path d="m600.384 438.635 3.867-4.336-1.875 5.507zm9.61-2.93c-.82.058-5.45 3.984-5.157 4.16s2.461-1.113 3.809-1.7c1.348-.585 2.871-.175 2.52-.937-.352-.761-1.172-1.523-1.172-1.523m4.921 4.687c.586-.527 3.34-3.105 3.34-3.105l-3.515 4.219zm1.407 6.211 4.511-.703-4.511.996z" style="display:inline;opacity:1;fill:#c4cbd2;fill-opacity:1;stroke:none;stroke-width:4.6875;stroke-linecap:round;stroke-miterlimit:4;stroke-dasharray:none;stroke-opacity:.63316585" transform="matrix(-1 0 0 1 941.37 -144.857)"/><path d="M354.196 400.01c17.93.938 11.602 42.54 14.18 50.86 43.359 13.008 20.39 120.703 46.289 126.328 25.898 5.625 78.047 2.46 78.047 2.46" style="display:inline;opacity:1;fill:none;fill-opacity:1;stroke:#444;stroke-width:4.6875;stroke-linecap:round;stroke-miterlimit:4;stroke-dasharray:none;stroke-opacity:1" transform="translate(-22.469 -107.815)"/></g><g style="display:inline"><g transform="matrix(-.70546 0 0 .70546 493.844 -30.23)"><path d="M547.428 318.165c-.44 14.771-4.13 29.026-10.39 42.252s-15.092 25.427-25.805 35.997-23.304 19.508-37.118 26.09-28.851 10.803-44.502 11.862c-15.65 1.059-30.44-1.159-43.818-6.168s-25.34-12.807-35.3-22.804c-9.961-9.997-17.917-22.19-23.266-35.908-5.35-13.718-8.092-28.96-7.642-44.981s4.044-31.294 10.142-45.079 14.696-26.082 25.17-36.257c10.473-10.176 22.822-18.23 36.461-23.662 13.64-5.43 28.572-8.243 44.23-8.025a121.4 121.4 0 0 1 44.11 8.941c13.548 5.515 25.74 13.338 35.925 22.915s18.362 20.914 23.877 33.533 8.366 26.522 7.926 41.294" style="color:#000;clip-rule:nonzero;display:inline;overflow:visible;opacity:1;isolation:auto;mix-blend-mode:normal;color-interpolation:sRGB;color-interpolation-filters:linearRGB;solid-color:#000;solid-opacity:1;fill:#394655;fill-opacity:1;fill-rule:nonzero;stroke:none;stroke-width:2;stroke-linecap:butt;stroke-linejoin:miter;stroke-miterlimit:4;stroke-dasharray:none;stroke-dashoffset:0;stroke-opacity:1;color-rendering:auto;image-rendering:auto;shape-rendering:auto;text-rendering:auto"/><path d="M539.722 314.79c.001 13.9-3.015 27.538-8.513 40.353-5.498 12.814-13.48 24.805-23.377 35.252s-21.705 19.342-34.785 25.879-27.425 10.712-42.377 11.767-29.091-1.113-41.86-5.931c-12.767-4.819-24.168-12.288-33.665-21.791s-17.09-21.043-22.232-33.955c-5.143-12.912-7.833-27.195-7.523-42.136.31-14.94 3.59-29.108 9.23-41.858a105.9 105.9 0 0 1 23.396-33.471c9.759-9.39 21.278-16.839 34.003-21.942s26.66-7.868 41.286-7.943c14.624-.075 28.559 2.532 41.26 7.244 12.702 4.712 24.168 11.534 33.816 20.036s17.479 18.69 22.901 30.213 8.439 24.383 8.44 38.283" style="color:#000;clip-rule:nonzero;display:inline;overflow:visible;opacity:1;isolation:auto;mix-blend-mode:normal;color-interpolation:sRGB;color-interpolation-filters:linearRGB;solid-color:#000;solid-opacity:1;fill:#fff;fill-opacity:1;fill-rule:nonzero;stroke:none;stroke-width:2;stroke-linecap:butt;stroke-linejoin:miter;stroke-miterlimit:4;stroke-dasharray:none;stroke-dashoffset:0;stroke-opacity:1;color-rendering:auto;image-rendering:auto;shape-rendering:auto;text-rendering:auto"/><circle cx="420.487" cy="314.255" r="30.81" style="color:#000;clip-rule:nonzero;display:inline;overflow:visible;opacity:1;isolation:auto;mix-blend-mode:normal;color-interpolation:sRGB;color-interpolation-filters:linearRGB;solid-color:#000;solid-opacity:1;fill:#394455;fill-opacity:1;fill-rule:nonzero;stroke:none;stroke-width:2;stroke-linecap:butt;stroke-linejoin:miter;stroke-miterlimit:4;stroke-dasharray:none;stroke-dashoffset:0;stroke-opacity:1;color-rendering:auto;image-rendering:auto;shape-rendering:auto;text-rendering:auto"/><circle cx="406.85" cy="300.113" r="15.152" style="color:#000;clip-rule:nonzero;display:inline;overflow:visible;opacity:1;isolation:auto;mix-blend-mode:normal;color-interpolation:sRGB;color-interpolation-filters:linearRGB;solid-color:#000;solid-opacity:1;fill:#fff;fill-opacity:1;fill-rule:nonzero;stroke:none;stroke-width:2;stroke-linecap:butt;stroke-linejoin:miter;stroke-miterlimit:4;stroke-dasharray:none;stroke-dashoffset:0;stroke-opacity:1;color-rendering:auto;image-rendering:auto;shape-rendering:auto;text-rendering:auto"/></g><g transform="rotate(41.616 67.77 950.022)scale(-.49743 .49743)"><path d="M549.052 326.951c-3.756 13.708-9.945 27.498-18.134 40.758s-18.56 25.888-30.487 36.735-25.267 19.914-38.406 26.704-26.01 11.354-38.377 13.005-23.25.186-33.068-4.022-22.907-9.215-29.991-18.167c-7.085-8.952-12.84-20.183-16.504-33.034-3.663-12.851-5.229-27.33-3.924-42.728 1.305-15.4 5.367-30.25 11.818-43.755s15.29-25.659 26.008-35.783 28.443-20.293 42.249-25.867 28.833-8.628 44.21-8.804c15.376-.176 29.627 2.526 41.943 7.375s22.698 11.85 30.36 20.347 12.726 18.56 14.823 29.822c2.098 11.261 1.235 23.707-2.52 37.414" style="color:#000;clip-rule:nonzero;display:inline;overflow:visible;opacity:1;isolation:auto;mix-blend-mode:normal;color-interpolation:sRGB;color-interpolation-filters:linearRGB;solid-color:#000;solid-opacity:1;fill:#394655;fill-opacity:1;fill-rule:nonzero;stroke:none;stroke-width:2;stroke-linecap:butt;stroke-linejoin:miter;stroke-miterlimit:4;stroke-dasharray:none;stroke-dashoffset:0;stroke-opacity:1;color-rendering:auto;image-rendering:auto;shape-rendering:auto;text-rendering:auto"/><path d="M543.487 325.965c-3.055 12.954-8.324 26.188-15.657 38.96s-16.924 24.967-28.33 35.277-24.494 18.73-37.46 24.89c-12.964 6.16-25.7 10.138-37.71 11.477s-22.343-.132-31.494-4.076-22.125-8.815-28.383-17.025c-6.257-8.211-11.243-18.535-14.304-30.376-3.06-11.84-4.19-25.202-2.686-39.425 1.503-14.224 5.508-27.949 11.68-40.439 6.17-12.49 14.507-23.74 24.547-33.139 10.04-9.398 26.99-19.062 39.836-24.293a115.4 115.4 0 0 1 41-8.458c14.218-.3 27.344 2.037 38.644 6.33s20.73 10.52 27.815 18.216c7.085 7.695 11.81 16.845 13.923 27.203s1.634 21.924-1.421 34.878" style="color:#000;clip-rule:nonzero;display:inline;overflow:visible;opacity:1;isolation:auto;mix-blend-mode:normal;color-interpolation:sRGB;color-interpolation-filters:linearRGB;solid-color:#000;solid-opacity:1;fill:#fff;fill-opacity:1;fill-rule:nonzero;stroke:none;stroke-width:2;stroke-linecap:butt;stroke-linejoin:miter;stroke-miterlimit:4;stroke-dasharray:none;stroke-dashoffset:0;stroke-opacity:1;color-rendering:auto;image-rendering:auto;shape-rendering:auto;text-rendering:auto"/><circle cx="451.741" cy="221.945" r="27.721" style="color:#000;clip-rule:nonzero;display:inline;overflow:visible;opacity:1;isolation:auto;mix-blend-mode:normal;color-interpolation:sRGB;color-interpolation-filters:linearRGB;solid-color:#000;solid-opacity:1;fill:#394455;fill-opacity:1;fill-rule:nonzero;stroke:none;stroke-width:2;stroke-linecap:butt;stroke-linejoin:miter;stroke-miterlimit:4;stroke-dasharray:none;stroke-dashoffset:0;stroke-opacity:1;color-rendering:auto;image-rendering:auto;shape-rendering:auto;text-rendering:auto" transform="rotate(9.459)"/><circle cx="444.282" cy="208.593" r="13.633" style="color:#000;clip-rule:nonzero;display:inline;overflow:visible;opacity:1;isolation:auto;mix-blend-mode:normal;color-interpolation:sRGB;color-interpolation-filters:linearRGB;solid-color:#000;solid-opacity:1;fill:#fff;fill-opacity:1;fill-rule:nonzero;stroke:none;stroke-width:2;stroke-linecap:butt;stroke-linejoin:miter;stroke-miterlimit:4;stroke-dasharray:none;stroke-dashoffset:0;stroke-opacity:1;color-rendering:auto;image-rendering:auto;shape-rendering:auto;text-rendering:auto" transform="rotate(9.459)"/></g></g><g style="opacity:.07000002"><path d="M183.986 257.11c-12.965 6.803-24.092 16.989-31.246 29.857-6.623 11.81-9.19 25.588-7.963 39.027 1.673 22.697 14.457 43.56 31.547 58.102 14.068 11.69 31.689 19.748 50.072 20.845 11.728.493 23.748-.51 34.56-5.425 7.003-3.014 13.438-7.18 19.12-12.21-12.369 1.555-17.488 4.997-41.576 5.112-34.014.162-53-11.5-68.5-36.5-14.175-22.863-23.284-60.803 13.986-98.809m223.016-16.23c-9.282 2.403-16.98 9.78-21.584 18.094-9.077 16.03-11.912 35.423-8.525 53.468 3.18 14.415 9.493 28.957 20.972 38.674 5.727 4.404 12.922 6.428 19.834 8.135 6.812 1.14 13.433-1.454 19.354-4.83-10.637.157-18.091-.624-29.803-7.002-16.872-9.188-20.865-23.477-24.25-43.5-2.92-17.274-3.798-39.703 24.002-63.04" style="opacity:1;fill:#1e1e1e;fill-opacity:1;stroke:none;stroke-width:2.5;stroke-linecap:round;stroke-miterlimit:4;stroke-dasharray:none;stroke-opacity:1" transform="translate(-22.469 -107.815)scale(.9375)"/></g><g style="display:inline"><path d="M479.16 446.533q-.841.015-1.708.093a24.7 24.7 0 0 0-6.513 1.481c-1.997.756-3.781 1.748-5.226 2.899-1.036.825-1.887 1.734-2.52 2.692-.5.122-1.005.233-1.498.37-3.814 1.059-7.408 2.542-10.404 4.356-2.996 1.813-5.458 3.902-6.895 6.26-1.473 2.416-1.972 5.139-1.804 7.295.198 2.53 1.758 4.82 3.973 6.88 2.216 2.062 5.276 3.89 8.82 5.386 1.413.596 2.91 1.12 4.44 1.595l-.836 5.841-1.567 7.923c-.283 1.427.093 2.684.785 3.6s1.754 1.437 3.005 1.466l4.171.101 8.253-.192a6.55 6.55 0 0 0 4.13-1.597 5.45 5.45 0 0 0 1.846-3.63l.722-7.863.296-3.983a45.4 45.4 0 0 0 9.313-2.45c3.135-1.196 5.77-2.614 7.844-4.187s3.61-3.319 4.578-5.265 1.37-4.098 1.018-6.42c-.351-2.32-1.439-4.583-3.118-6.663-1.398-1.73-3.215-3.32-5.308-4.716a8 8 0 0 0-.13-1.7c-.268-1.411-.892-2.763-1.837-3.986s-2.21-2.315-3.739-3.2-3.321-1.566-5.312-1.969a22 22 0 0 0-4.779-.417" style="color:#000;clip-rule:nonzero;display:inline;overflow:visible;opacity:1;isolation:auto;mix-blend-mode:normal;color-interpolation:sRGB;color-interpolation-filters:linearRGB;solid-color:#000;solid-opacity:1;fill:#1e1e1e;fill-opacity:.08542714;fill-rule:nonzero;stroke:none;stroke-width:11.14130306;stroke-linecap:butt;stroke-linejoin:miter;stroke-miterlimit:4;stroke-dasharray:none;stroke-dashoffset:0;stroke-opacity:1;color-rendering:auto;image-rendering:auto;shape-rendering:auto;text-rendering:auto" transform="translate(-159.493 -229.71)"/><path d="m467.317 478.774-7.095.092-4.134-.091c-1.32-.03-2.494.596-3.35 1.52-.856.922-1.278 2.2-1.477 3.594l-1.129 7.895-1.567 7.922c-.283 1.427.093 2.685.785 3.6.692.916 1.754 1.437 3.005 1.467l4.172.1 8.252-.193a6.55 6.55 0 0 0 4.13-1.596 5.45 5.45 0 0 0 1.845-3.632l.722-7.861.585-7.85c.104-1.396-.52-2.648-1.397-3.544-.876-.896-2.07-1.43-3.347-1.423" style="color:#000;clip-rule:nonzero;display:inline;overflow:visible;opacity:1;isolation:auto;mix-blend-mode:normal;color-interpolation:sRGB;color-interpolation-filters:linearRGB;solid-color:#000;solid-opacity:1;fill:#2e3436;fill-opacity:1;fill-rule:nonzero;stroke:none;stroke-width:11.14130306;stroke-linecap:butt;stroke-linejoin:miter;stroke-miterlimit:4;stroke-dasharray:none;stroke-dashoffset:0;stroke-opacity:1;color-rendering:auto;image-rendering:auto;shape-rendering:auto;text-rendering:auto" transform="translate(-146.898 -233.687)"/><path d="m466.021 481.164-5.79.078-2.757-.114c-1.047-.043-2.015.486-2.742 1.241-.728.756-1.152 1.803-1.35 2.945l-1.117 6.455-1.398 6.471c-.25 1.156.002 2.196.545 2.943.543.748 1.411 1.152 2.45 1.194l2.832.112 6.557-.142c1.242-.027 2.423-.526 3.313-1.297a4.7 4.7 0 0 0 1.603-2.97l.814-6.428.702-6.42c.125-1.144-.318-2.17-.994-2.904a3.54 3.54 0 0 0-2.667-1.164" style="color:#000;clip-rule:nonzero;display:inline;overflow:visible;opacity:1;isolation:auto;mix-blend-mode:normal;color-interpolation:sRGB;color-interpolation-filters:linearRGB;solid-color:#000;solid-opacity:1;fill:#fff;fill-opacity:1;fill-rule:nonzero;stroke:none;stroke-width:11.14130306;stroke-linecap:butt;stroke-linejoin:miter;stroke-miterlimit:4;stroke-dasharray:none;stroke-dashoffset:0;stroke-opacity:1;color-rendering:auto;image-rendering:auto;shape-rendering:auto;text-rendering:auto" transform="translate(-146.898 -233.687)"/><path d="M433.735 472.08c.198 2.53 1.757 4.82 3.973 6.882 2.215 2.062 5.276 3.889 8.82 5.386a49.2 49.2 0 0 0 11.592 3.263 45.2 45.2 0 0 0 12.186.197 45.5 45.5 0 0 0 10.78-2.65c3.135-1.196 5.77-2.614 7.844-4.188s3.609-3.317 4.578-5.263c.968-1.946 1.37-4.1 1.019-6.42s-1.44-4.585-3.12-6.664c-1.679-2.08-3.938-3.973-6.59-5.549-2.654-1.575-5.698-2.832-9.057-3.656s-7.039-1.215-11.064-1.082a50.8 50.8 0 0 0-11.857 1.833c-3.814 1.059-7.408 2.543-10.405 4.357-2.996 1.813-5.458 3.902-6.895 6.26-1.472 2.416-1.972 5.138-1.804 7.294" style="color:#000;clip-rule:nonzero;display:inline;overflow:visible;opacity:1;isolation:auto;mix-blend-mode:normal;color-interpolation:sRGB;color-interpolation-filters:linearRGB;solid-color:#000;solid-opacity:1;fill:#394655;fill-opacity:1;fill-rule:nonzero;stroke:none;stroke-width:11.14130306;stroke-linecap:butt;stroke-linejoin:miter;stroke-miterlimit:4;stroke-dasharray:none;stroke-dashoffset:0;stroke-opacity:1;color-rendering:auto;image-rendering:auto;shape-rendering:auto;text-rendering:auto" transform="translate(-146.898 -233.687)"/><path d="M442.258 471.512c.345 2.01 1.521 3.888 3.327 5.57s4.24 3.172 7.005 4.36a36.4 36.4 0 0 0 8.992 2.53 35.7 35.7 0 0 0 9.505.12c3.154-.385 5.971-1.147 8.415-2.122 2.445-.974 4.507-2.16 6.125-3.482s2.795-2.787 3.49-4.383c.694-1.595.907-3.326.545-5.159-.361-1.833-1.269-3.593-2.608-5.2-1.34-1.606-3.108-3.057-5.191-4.257s-4.478-2.15-7.12-2.764c-2.64-.614-5.527-.893-8.653-.764-3.126.13-6.21.654-9.122 1.495s-5.65 2.003-7.962 3.411-4.188 3.065-5.384 4.872c-1.195 1.807-1.71 3.763-1.364 5.773" style="color:#000;clip-rule:nonzero;display:inline;overflow:visible;opacity:1;isolation:auto;mix-blend-mode:normal;color-interpolation:sRGB;color-interpolation-filters:linearRGB;solid-color:#000;solid-opacity:1;fill:#e1d0cb;fill-opacity:1;fill-rule:nonzero;stroke:none;stroke-width:11.14130306;stroke-linecap:butt;stroke-linejoin:miter;stroke-miterlimit:4;stroke-dasharray:none;stroke-dashoffset:0;stroke-opacity:1;color-rendering:auto;image-rendering:auto;shape-rendering:auto;text-rendering:auto" transform="translate(-146.898 -233.687)"/><path d="M453.442 459.244c.503 1.44 1.6 2.72 3.115 3.8s3.447 1.961 5.541 2.637a34 34 0 0 0 6.546 1.401c2.202.252 4.355.281 6.373.058s3.72-.676 5.162-1.308 2.62-1.441 3.55-2.394 1.61-2.05 2.004-3.267a7.9 7.9 0 0 0 .236-3.963c-.267-1.412-.892-2.765-1.837-3.987-.945-1.223-2.21-2.315-3.738-3.2s-3.32-1.565-5.311-1.969c-1.99-.403-4.18-.53-6.488-.324a24.7 24.7 0 0 0-6.513 1.482c-1.997.756-3.782 1.748-5.227 2.899-1.445 1.15-2.55 2.46-3.169 3.847-.619 1.386-.748 2.847-.244 4.288" style="color:#000;clip-rule:nonzero;display:inline;overflow:visible;opacity:1;isolation:auto;mix-blend-mode:normal;color-interpolation:sRGB;color-interpolation-filters:linearRGB;solid-color:#000;solid-opacity:1;fill:#394655;fill-opacity:1;fill-rule:nonzero;stroke:none;stroke-width:11.14130306;stroke-linecap:butt;stroke-linejoin:miter;stroke-miterlimit:4;stroke-dasharray:none;stroke-dashoffset:0;stroke-opacity:1;color-rendering:auto;image-rendering:auto;shape-rendering:auto;text-rendering:auto" transform="translate(-146.898 -233.687)"/></g><g style="display:inline"><path d="M423.503 581.835c-.004 4.4-1.198 7.589-3.375 9.829s-5.331 3.551-9.146 4.443c-3.815.89-8.283 1.395-13.057 1.838s-9.851.79-14.95 1.1c-5.098.308-9.945.347-14.402.085-4.457-.26-8.524-.799-11.993-1.712s-6.337-2.213-8.356-4.092c-2.019-1.88-3.187-4.345-3.255-7.511-.067-3.166.999-5.486 2.926-7.084s4.712-2.464 8.1-2.847 7.372-.283 11.77-.16 9.21.234 14.332-.122c5.12-.357 10.271-1.474 15.16-2.541 4.888-1.068 9.504-2.052 13.438-2.272s7.178.324 9.398 2.046c2.221 1.723 3.415 4.6 3.41 9" style="color:#000;clip-rule:nonzero;display:inline;overflow:visible;opacity:1;isolation:auto;mix-blend-mode:normal;color-interpolation:sRGB;color-interpolation-filters:linearRGB;solid-color:#000;solid-opacity:1;fill:#e1d6b9;fill-opacity:1;fill-rule:nonzero;stroke:none;stroke-width:10;stroke-linecap:butt;stroke-linejoin:miter;stroke-miterlimit:4;stroke-dasharray:none;stroke-dashoffset:0;stroke-opacity:1;color-rendering:auto;image-rendering:auto;shape-rendering:auto;text-rendering:auto" transform="matrix(-.73022 -.0504 .04755 1.01106 476.641 -235.724)"/><path d="M411.914 568.549c-3.75-.027-8.087.54-12.762 1.287-5.342.854-11.107 1.92-17.01 2.326-5.902.406-11.41.383-16.447.414s-9.604.16-13.508.86c-3.903.698-7.135 1.967-9.408 3.968s-3.585 4.717-3.652 8.176 1.218 6.307 3.543 8.58 5.688 3.98 9.762 5.25c4.073 1.27 8.852 2.12 14.056 2.598 5.205.479 10.834.561 16.703.222 5.87-.338 11.472-.786 16.606-1.35 5.134-.562 9.793-1.223 13.707-2.343a27.6 27.6 0 0 0 4.127-1.52c2.545-1.193 2.05-6.172-.1-4.54-1.991 1.511-4.56 2.503-7.57 3.207-3.669.857-7.967 1.341-12.559 1.767s-9.475.76-14.379 1.057c-4.903.297-9.565.335-13.851.084s-8.199-.769-11.535-1.647-6.096-2.13-8.037-3.937c-1.942-1.808-3.066-4.178-3.131-7.223s.96-5.277 2.814-6.814 4.531-2.37 7.79-2.739c3.257-.368 7.092-.272 11.322-.154s8.857.226 13.783-.117c4.925-.343 9.88-1.417 14.582-2.443s9.14-1.973 12.924-2.184q.71-.04 1.388-.045c1.16-.007 2.25.044 3.25.236 1.153.222 2.316-2.861-.838-2.927-.511-.011-1.034-.045-1.57-.05" style="color:#000;clip-rule:nonzero;display:inline;overflow:visible;opacity:1;isolation:auto;mix-blend-mode:normal;color-interpolation:sRGB;color-interpolation-filters:linearRGB;solid-color:#000;solid-opacity:1;fill:#394655;fill-opacity:1;fill-rule:nonzero;stroke:none;stroke-width:10;stroke-linecap:butt;stroke-linejoin:miter;stroke-miterlimit:4;stroke-dasharray:none;stroke-dashoffset:0;stroke-opacity:1;color-rendering:auto;image-rendering:auto;shape-rendering:auto;text-rendering:auto" transform="matrix(-.73022 -.0504 .04755 1.01106 476.641 -235.724)"/></g></svg>