<svg xmlns="http://www.w3.org/2000/svg" width="787.036" height="593.399" viewBox="0 0 737.846 556.312"><g style="display:inline"><path d="m144.617 760.455 61.722-63.029 64.335 19.921 14.696-12.736 18.94 18.288 50.62-35.596 72.498-.653 16.656 23.186 8.49-50.945 28.412-6.532 18.288-30.044 71.846 15.675-32.984-54.21-1.306-43.435 64.008 9.144-40.168-13.39 6.205-36.249-12.737-27.432 22.86-8.164 16.656 18.941 21.227-28.085s42.128 13.716 43.434 14.37c1.306.652 61.395-5.553 61.395-5.553s-12.41 32.984-15.675 32.984-66.62-6.531-71.846-3.919c-5.225 2.613-16.328 28.086-15.675 36.576s1.143 16.063 0 20.248c-3.778 13.831-16.329 9.797-28.086 20.9-11.756 11.104-3.918 26.126 0 36.577 3.92 10.45-3.918 47.68-3.918 50.945s-37.883 11.756-49.64 19.594-16.328 42.454-21.553 46.373c-5.225 3.92-58.13 11.757-68.58 4.572s-45.72-11.103-60.743-3.265c-15.022 7.837-32.657 16.981-39.188 19.594s-49.64 1.96-54.864-3.919c-5.226-5.878-33.547-5.443-50.292-3.919-10.992 1-21.295 5.823-32.005 8.491-20.932 5.216-63.028 14.696-63.028 14.696" style="fill:#c4ab95;fill-opacity:1;fill-rule:evenodd;stroke:none;stroke-width:4;stroke-linecap:butt;stroke-linejoin:miter;stroke-miterlimit:4;stroke-dasharray:none;stroke-opacity:1" transform="translate(.214 -223.259)"/><path d="m144.617 760.455 61.722-63.029 64.335 19.921 14.696-12.736 18.94 18.288 50.62-35.596 72.498-.653 16.656 23.186 8.49-50.945 28.412-6.532 18.288-30.044 71.846 15.675-32.984-54.21-1.306-43.435 64.008 9.144-40.168-13.39 6.205-36.249-12.737-27.432 22.86-8.164 16.656 18.941 21.227-28.085s42.128 13.716 43.434 14.37c1.306.652 61.395-5.553 61.395-5.553" style="fill:none;fill-rule:evenodd;stroke:#453c35;stroke-width:4;stroke-linecap:butt;stroke-linejoin:miter;stroke-miterlimit:4;stroke-dasharray:none;stroke-opacity:1" transform="translate(.214 -223.259)"/></g><g transform="translate(.214 -223.259)"><path d="m61.139 480.06 18.451-8.481 13.927-3.064 1.795-34.44-21.925.974-19.598 12.91z" style="fill:#4b3977;fill-opacity:1;fill-rule:evenodd;stroke:none;stroke-width:1px;stroke-linecap:butt;stroke-linejoin:miter;stroke-opacity:1"/><path d="M60.937 480.478c7.941-3.353 28.264-12.894 34.202-14.18" style="fill:none;fill-rule:evenodd;stroke:#3d305f;stroke-width:2;stroke-linecap:butt;stroke-linejoin:miter;stroke-miterlimit:4;stroke-dasharray:none;stroke-opacity:1"/><path d="m52.279 421.473 20.247 1.551 14.125-1.96 13.634 31.678-20.9 6.695-22.86-5.307z" style="fill:#4b3977;fill-opacity:1;fill-rule:evenodd;stroke:none;stroke-width:1px;stroke-linecap:butt;stroke-linejoin:miter;stroke-opacity:1"/><path d="M50.797 419.225c10.31 4.983 31.264 3.05 36.997 1.432" style="fill:none;fill-rule:evenodd;stroke:#3d305f;stroke-width:2;stroke-linecap:butt;stroke-linejoin:miter;stroke-miterlimit:4;stroke-dasharray:none;stroke-opacity:1"/><ellipse cx="-34.907" cy="452.303" rx="29.78" ry="33.564" style="color:#000;clip-rule:nonzero;display:inline;overflow:visible;opacity:1;isolation:auto;mix-blend-mode:normal;color-interpolation:sRGB;color-interpolation-filters:linearRGB;solid-color:#000;solid-opacity:1;fill:#3d305f;fill-opacity:1;fill-rule:nonzero;stroke:none;stroke-width:4;stroke-linecap:round;stroke-linejoin:miter;stroke-miterlimit:4;stroke-dasharray:none;stroke-dashoffset:0;stroke-opacity:1;color-rendering:auto;image-rendering:auto;shape-rendering:auto;text-rendering:auto" transform="rotate(-10.412)"/><ellipse cx="-34.907" cy="452.793" rx="26.714" ry="30.109" style="color:#000;clip-rule:nonzero;display:inline;overflow:visible;opacity:1;isolation:auto;mix-blend-mode:normal;color-interpolation:sRGB;color-interpolation-filters:linearRGB;solid-color:#000;solid-opacity:1;fill:#a591d5;fill-opacity:1;fill-rule:nonzero;stroke:none;stroke-width:4;stroke-linecap:round;stroke-linejoin:miter;stroke-miterlimit:4;stroke-dasharray:none;stroke-dashoffset:0;stroke-opacity:1;color-rendering:auto;image-rendering:auto;shape-rendering:auto;text-rendering:auto" transform="rotate(-10.412)"/><ellipse cx="-130.431" cy="436.399" rx="4.274" ry="7.272" style="color:#000;clip-rule:nonzero;display:inline;overflow:visible;opacity:1;isolation:auto;mix-blend-mode:normal;color-interpolation:sRGB;color-interpolation-filters:linearRGB;solid-color:#000;solid-opacity:1;fill:#3d305f;fill-opacity:1;fill-rule:nonzero;stroke:none;stroke-width:4;stroke-linecap:round;stroke-linejoin:miter;stroke-miterlimit:4;stroke-dasharray:none;stroke-dashoffset:0;stroke-opacity:1;color-rendering:auto;image-rendering:auto;shape-rendering:auto;text-rendering:auto" transform="rotate(-22.46)skewX(-.295)"/><path d="M68.392 433.834c-.44 4.84-2.287 20.351-8.358 26.338-6.81 6.716-12.278 12.859-32.58 10.385a30.109 26.714 79.588 0 0 25.49 10.701 30.109 26.714 79.588 0 0 20.832-34.441 30.109 26.714 79.588 0 0-5.384-12.983" style="color:#000;clip-rule:nonzero;display:inline;overflow:visible;opacity:1;isolation:auto;mix-blend-mode:normal;color-interpolation:sRGB;color-interpolation-filters:linearRGB;solid-color:#000;solid-opacity:1;fill:#9685c0;fill-opacity:1;fill-rule:nonzero;stroke:none;stroke-width:4;stroke-linecap:round;stroke-linejoin:miter;stroke-miterlimit:4;stroke-dasharray:none;stroke-dashoffset:0;stroke-opacity:1;color-rendering:auto;image-rendering:auto;shape-rendering:auto;text-rendering:auto"/></g><g style="display:inline;opacity:1"><path d="M220.382 374.447c-4.65-17.856-18.542-27.753-39.515-30.698-4.935-7.122-7.944-13.54-17.962-18.615-10.385-2.047-24.318-4.026-39.515-.326-8.611 17.589-14.63 48.62-4.246 65.967 16.345 27.304 52.674 31.33 82.623 20.574 16.026-5.755 22.906-20.424 18.615-36.902" style="fill:#284021;fill-opacity:1;fill-rule:evenodd;stroke:none;stroke-width:1px;stroke-linecap:butt;stroke-linejoin:miter;stroke-opacity:1" transform="translate(.214 -223.259)"/><path d="M176.19 354.424c-5.841-.252-12.142.2-18.655 1.592-3.733 8.178-6.955 19.121-8.105 29.988-1.23 11.625-.028 22.97 4.466 30.478 7.562 12.632 19.623 19.841 33.653 22.743s29.948 1.32 44.305-3.836c14.375-5.163 20.05-17.303 16.158-32.25-4.26-16.362-16.267-25.006-36.283-27.817a3.9 3.9 0 0 1-2.665-1.64c-5.051-7.29-7.395-12.55-16.138-17.116-4.963-.963-10.59-1.877-16.737-2.142" style="fill:#a5ca9a;fill-opacity:1;fill-rule:evenodd;stroke:none;stroke-width:1px;stroke-linecap:butt;stroke-linejoin:miter;stroke-opacity:1" transform="translate(-31.192 -250.97)"/><path d="M238.67 353.546c-17.971-5.55-27.9 18.616-46.614 17.796-21.35-.935-41.504-7.01-61.649-13.47-14.35-4.601-31.826-10.004-45.917-2.384-11.39 6.159-8.501 21.585-9.732 32.673-3.046 27.452.28 55.221 1.125 82.79.749 24.448 2.96 48.899 2.599 73.342-.294 19.884-15.547 34.847-18.432 54.372-3.187 21.57-3.998 47.208 11.415 63.818 18.713 20.167 47.79 29.403 74.673 29.202 19.83-.147 36.91-14.447 50.924-27.77 20.07-19.083 24.622-47.685 25.963-74.014 1.248-24.492 5.23-49.019 15.816-71.417 12.486-26.42 26.333-53.68 25.554-83.92-.633-24.583 1.579-52.25-14.586-72.564-2.923-3.674-6.65-7.068-11.14-8.454" style="fill:#284021;fill-opacity:1;fill-rule:evenodd;stroke:none;stroke-width:1px;stroke-linecap:butt;stroke-linejoin:miter;stroke-opacity:1" transform="translate(.214 -223.259)"/><path d="M132.754 385.41c-5.143-.066-9.789.812-13.994 3.086-3.658 1.978-4.848 4.907-5.578 10.04s-.328 11.637-1.034 18c-2.944 26.531.301 54.013 1.157 81.94.741 24.21 2.969 48.752 2.601 73.618-.17 11.459-4.58 21.078-8.847 29.861-4.268 8.783-8.396 16.836-9.647 25.3-3.107 21.033-3.367 44.574 9.873 58.843 17.222 18.56 44.74 27.467 70.213 27.277 16.96-.126 33.018-12.99 46.82-26.113 18.223-17.325 22.78-44.098 24.098-69.957 1.27-24.939 5.325-50.276 16.387-73.682 12.537-26.528 25.707-52.884 24.978-81.195-.645-25.06 1.063-50.947-13.277-68.967-2.495-3.136-5.469-5.608-8.207-6.453-3.166-.978-5.452-.695-8.256.406s-5.95 3.235-9.406 5.8c-6.914 5.132-15.45 12.38-27.438 11.854-22.324-.977-43.012-7.27-63.222-13.752-8.938-2.866-18.649-5.795-27.221-5.906" style="fill:#a5ca9a;fill-opacity:1;fill-rule:evenodd;stroke:none;stroke-width:1px;stroke-linecap:butt;stroke-linejoin:miter;stroke-opacity:1" transform="translate(-31.192 -250.97)"/><path d="m210.6 418.252 3.696 61.426-7.39 35.793-31.175 70.66-24.709 74.819c-.755 8.183-2.8 16.484-.42 24.382 15.294-2.091 29.738-13.827 42.311-25.78a59.4 59.4 0 0 0 6.318-7.065l5.135-11.164 6.498-12.133c3.897-12.477 5.462-26.159 6.147-39.596 1.27-24.938 5.325-50.276 16.386-73.682 12.538-26.528 25.708-52.884 24.979-81.195-.006-.226-.006-.453-.012-.68z" style="fill:#84a67a;fill-opacity:1;fill-rule:evenodd;stroke:none;stroke-width:1px;stroke-linecap:butt;stroke-linejoin:miter;stroke-opacity:1" transform="translate(.214 -223.259)"/><path d="M180.67 397.43a43 43 0 0 0-5.169.27c-10.403 1.225-23.68 5.481-27.48 15.242-2.209 5.67 8.028 11.666 5.773 17.318-1.94 4.862-14.085 2.16-13.856 7.389.173 3.928 10.249.734 10.854 4.619.454 2.912-6.252 2.86-6.697 5.773-.904 5.912 10.709 9.39 9.468 15.24-1.58 7.452-9.521 24.185-20.322 31.174-12.905 8.352-42.1-5.18-50.762-9.529.336 7 .716 14.028 1.069 21.082 14.344 10.55 39.513 5.987 54.889-3.353 12.671-7.698 21.349-24.318 21.13-39.143-.079-5.38-7.702-8.604-8.082-13.97-.196-2.774 4.005-5.1 3.118-7.735-.959-2.846-7.956-1.624-7.737-4.62.316-4.319 10.045-1.103 12.008-4.964 2.441-4.801-5.747-10.677-3.81-15.703 2.51-6.515 10.387-10.941 17.318-11.777 26.672-3.218 54.074 44.365 75.512 28.173 3.552-2.683 5.158-7.216 5.33-12.24l-1.52-1.73s-43.96-21.385-71.033-21.516" style="fill:#84a67a;fill-opacity:1;fill-rule:evenodd;stroke:none;stroke-width:1px;stroke-linecap:butt;stroke-linejoin:miter;stroke-opacity:1" transform="translate(.214 -223.259)"/><path d="M161.378 638.06c6.242-16.98 10.506-34.718 17.49-51.389 8.076-19.276 19.304-37.254 26.445-56.869 4.395-12.071 7.545-24.69 9.459-37.377 1.695-11.242 3.446-22.543 2.527-33.988-1.006-12.522-1.066-25.096-3.2-37.511-.997-5.797-.77-12.053-4.414-16.887-.866-1.15-6.457 3.115-6.04 5.689 2.57 15.888 5.932 31.751 6.928 47.796.646 10.402 1.702 21.202-.645 31.301-4.136 17.791-10.024 35.204-16.557 52.246-6.575 17.153-15.36 33.432-21.68 50.676-8.323 22.712-17.336 45.316-23.506 68.677-.834 3.16-1.146 6.362 2.414 8.875 4.843 2.301 8.522-24.163 10.779-31.24" style="fill:#284021;fill-opacity:1;fill-rule:evenodd;stroke:none;stroke-width:1px;stroke-linecap:butt;stroke-linejoin:miter;stroke-opacity:1" transform="translate(.214 -223.259)"/><path d="M87.288 558.19s7.526 10.603 22.173 16.052c18.044 6.714 27.428 9.396 41.855 11.477 20.703 2.988 32.036.182 32.036.182" style="fill:none;fill-rule:evenodd;stroke:#284021;stroke-width:4;stroke-linecap:round;stroke-linejoin:miter;stroke-miterlimit:4;stroke-dasharray:none;stroke-opacity:1" transform="translate(.214 -223.259)"/><path d="M88.93 575.784c-1.884.272-.636 2.872-.642 3.96 1.167 8.821 2.083 17.237 4.164 25.145-5.127 2.317-9.75 4.768-13.816 8.067-.876-3.434-1.101-7.119-1.149-10.772-.547-1.206-2.1.2-1.625 1.363-1.074 4.172 3.094 9.518-.295 12.151-1.615 1.915-3.72 3.82-4.432 6.458.112 1.225 1.537 1.05 1.733-.06 1.415-1.734 4.754-8.577 5.564-4.025 1.633 4.887 3.908 9.523 6.658 14.16-2.625 2.598-5.333 5.543-6.554 9.605.187 1.45 1.89 1.16 1.89-.114 1.478-2.59 3.836-7.518 6.144-7.003 2.745 4.547 5.954 9.11 9.497 13.6-2.091 2.46-4.47 4.915-5.84 8.192.08 1.39 1.964 1.433 2.08.208 1.67-1.832 3.475-6.941 5.787-5.815 3.56 4.29 7.097 8.767 10.768 12.82 1.243.62 1.875-1.166.726-1.885-3.607-4.283-7.404-8.614-10.965-13 3.957-3.923 8.652-7.12 14.055-10.45 6.452 5.605 13.815 10.862 20.26 16.015.651 1.26 3.12 1.261 2.618-.283-2.034-2.04-4.834-3.656-7.15-5.687-4.524-3.694-9.67-7.077-13.961-11.015 5.162-2.909 11.842-4.895 18.748-6.663 3.856 3.055 7.738 6.229 11.762 8.821 1.601.299 1.796-1.767.327-2.15-2.573-2.32-8.32-5.395-8.774-7.518 3.129-1.032 8.181-1.28 8.403-4.796-.375-1.361-2.697-.68-2.614.559-3.826 2.478-10.08 3.724-12.329-.858-2.54-3.11-7.944-7.596-7.069-10.41 5.218-1.042 11.887-6.19 16.237-4.712 2.703 2.238 5.562 4.774 9.078 5.986 1.515-.092 1.415-2.01.04-2.174-2.166-1.6-8.17-4.302-6.736-6.155 5.374-2.245 10.618-4.146 14.844-6.72.758-1.08-.838-2.155-1.707-1.226-4.676 2.391-10.06 4.615-15.786 6.859-3.379-3.516-5.266-7.896-6.424-12.42-1.105-1.035-2.815.918-1.844 1.91.027 4.32 5.284 8.974 4.913 11.822-4.89 1.252-11.275 5.472-15.216 4.72-1.833-3.688-5.75-8.672-5.077-11.896 1.797-.778 4.903.023 6.067-1.854.385-1.426-1.753-1.275-2.743-.764-6.913 3.218-5.596-4.712-6.668-8.515.077-1.036.042-3.947-1.828-2.763-1.397 2.179.395 4.748.247 6.924 0 2.562 3.222 6.625-1.744 6.221-5.182.909-10.013 2.368-14.334 4.446-2.362-8.714-2.987-18.199-4.533-27.92a.94.94 0 0 0-.754-.389zm23.29 25.176c.997 4.48 5.003 9.39 5.708 13.156-6.21 2.262-11.878 4.572-16.726 7.115-2.824-5.087-5.073-10.072-6.467-15.339 5.148-2.609 11.096-3.846 17.485-4.932m-19.241 5.75c1.411 5.3 3.672 10.313 6.515 15.438-5.118 2.748-9.296 5.816-13.189 8.94-3.108-5.301-5.584-10.599-7.144-16.272 4.022-3.362 8.665-5.762 13.818-8.106m26.655 8.898c3.042 4.74 6.852 9.342 11.688 13.362-6.973 1.81-13.527 3.994-18.652 6.929a61.3 61.3 0 0 1-10.477-12.938c5.025-2.629 10.953-5.01 17.44-7.353m-19.15 8.27a62.4 62.4 0 0 0 10.444 12.996c-5.28 3.244-9.835 6.387-13.672 10.222-3.763-4.702-7.103-9.501-9.93-14.259 3.877-3.13 8.031-6.221 13.157-8.96" style="color:#000;font-style:normal;font-variant:normal;font-weight:400;font-stretch:normal;font-size:medium;line-height:normal;font-family:sans-serif;text-indent:0;text-align:start;text-decoration:none;text-decoration-line:none;text-decoration-style:solid;text-decoration-color:#000;letter-spacing:normal;word-spacing:normal;text-transform:none;direction:ltr;block-progression:tb;writing-mode:lr-tb;baseline-shift:baseline;text-anchor:start;white-space:normal;clip-rule:nonzero;display:inline;overflow:visible;opacity:1;isolation:auto;mix-blend-mode:normal;color-interpolation:sRGB;color-interpolation-filters:linearRGB;solid-color:#000;solid-opacity:1;fill:#84a67a;fill-opacity:1;fill-rule:evenodd;stroke:none;stroke-width:2;stroke-linecap:round;stroke-linejoin:miter;stroke-miterlimit:4;stroke-dasharray:none;stroke-dashoffset:0;stroke-opacity:1;color-rendering:auto;image-rendering:auto;shape-rendering:auto;text-rendering:auto" transform="translate(.214 -223.259)"/><path d="M89.257 575.45c-1.884.278-.637 2.857-.643 3.933 1.168 8.724 2.083 16.877 4.164 24.583-5.126 2.492-9.75 5.111-13.815 8.517-.877-3.407-1.102-7.074-1.149-10.705-.547-1.19-2.1.235-1.626 1.385-1.073 4.173 3.095 9.432-.294 12.133-1.616 1.949-3.72 3.88-4.432 6.526.111 1.225 1.537 1.038 1.732-.076 1.415-1.752 4.755-8.68 5.564-4.139 1.634 4.856 3.909 9.462 6.659 14.088-2.626 2.711-5.333 5.728-6.555 9.809.188 1.453 1.891 1.154 1.89-.127 1.479-2.616 3.837-7.656 6.145-7.195 2.744 4.549 5.954 9.139 9.496 13.673-2.09 2.546-4.47 5.052-5.84 8.33.08 1.389 1.964 1.434 2.08.206 1.67-1.838 3.475-7.044 5.787-5.923 3.56 4.335 7.098 8.869 10.768 12.928 1.244.621 1.876-1.172.727-1.895-3.608-4.31-7.404-8.711-10.965-13.151 3.957-4.08 8.652-7.53 14.054-11.082 6.453 5.77 13.815 11.372 20.26 16.695.652 1.295 3.121 1.314 2.619-.268-2.035-2.1-4.834-3.798-7.15-5.929-4.525-3.878-9.67-7.462-13.961-11.532 5.162-3.093 11.841-5.135 18.747-6.763 3.857 3.268 7.738 6.691 11.763 9.46 1.6.35 1.796-1.76.327-2.198-2.574-2.457-8.32-5.83-8.775-8.032 3.13-.957 8.182-1.016 8.404-4.582-.375-1.4-2.697-.805-2.615.46-3.825 2.37-10.079 3.436-12.328-1.31-2.541-3.246-7.944-7.848-7.07-10.644 5.218-.994 11.888-5.874 16.237-4.238 2.704 2.321 5.562 4.985 9.079 6.355 1.515-.026 1.414-1.948.04-2.172-2.166-1.691-8.17-4.632-6.737-6.4 5.375-1.99 10.619-3.64 14.845-6.066.757-1.047-.839-2.154-1.707-1.262-4.676 2.222-10.06 4.17-15.786 6.154-3.38-3.584-5.266-7.882-6.425-12.266-1.104-1.02-2.814.825-1.844 1.801.028 4.163 5.284 8.844 4.914 11.632-4.89 1.06-11.275 5.102-15.217 4.35-1.832-3.658-5.75-8.484-5.076-11.605 1.797-.77 4.903-.004 6.066-1.808.386-1.372-1.753-1.232-2.743-.737-6.912 3.113-5.596-4.484-6.667-8.117.076-.995.041-3.79-1.828-2.628-1.398 2.111.395 4.55.247 6.644 0 2.462 3.221 6.307-1.744 6.031-5.182 1-10.013 2.602-14.334 4.819-2.362-8.471-2.987-17.633-4.533-27.279a.93.93 0 0 0-.755-.384zm23.29 24.041c.997 4.32 5.002 9.088 5.707 12.836-6.21 2.281-11.878 4.795-16.726 7.564-2.823-5.041-5.072-9.9-6.466-15.03 5.148-2.784 11.095-4.213 17.484-5.37m-19.242 6.25c1.412 5.173 3.672 10.067 6.516 15.15-5.119 2.999-9.297 6.315-13.189 9.61-3.109-5.289-5.584-10.541-7.145-16.173 4.022-3.476 8.666-6.057 13.818-8.588m26.655 8.071c3.042 4.739 6.853 9.488 11.689 13.763-6.974 1.681-13.527 3.959-18.653 7.094a65.6 65.6 0 0 1-10.477-13.06c5.026-2.866 10.953-5.454 17.441-7.797m-19.15 8.796a66.4 66.4 0 0 0 10.444 13.105c-5.28 3.474-9.834 6.875-13.672 10.872-3.762-4.756-7.102-9.584-9.93-14.339 3.877-3.302 8.032-6.646 13.158-9.638" style="color:#000;font-style:normal;font-variant:normal;font-weight:400;font-stretch:normal;font-size:medium;line-height:normal;font-family:sans-serif;text-indent:0;text-align:start;text-decoration:none;text-decoration-line:none;text-decoration-style:solid;text-decoration-color:#000;letter-spacing:normal;word-spacing:normal;text-transform:none;direction:ltr;block-progression:tb;writing-mode:lr-tb;baseline-shift:baseline;text-anchor:start;white-space:normal;clip-rule:nonzero;display:inline;overflow:visible;opacity:1;isolation:auto;mix-blend-mode:normal;color-interpolation:sRGB;color-interpolation-filters:linearRGB;solid-color:#000;solid-opacity:1;fill:#284021;fill-opacity:1;fill-rule:evenodd;stroke:none;stroke-width:2;stroke-linecap:round;stroke-linejoin:miter;stroke-miterlimit:4;stroke-dasharray:none;stroke-dashoffset:0;stroke-opacity:1;color-rendering:auto;image-rendering:auto;shape-rendering:auto;text-rendering:auto" transform="translate(.214 -223.259)"/><path d="m179.07 346.525-17.145 4.735c-5.83 1.61-12.15.274-18.136-.592-1.808-.262-3.088-2.036-4.617-3.05-.597-.395-1.16-.836-1.74-1.257" style="fill:none;fill-rule:evenodd;stroke:#284021;stroke-width:2;stroke-linecap:round;stroke-linejoin:miter;stroke-miterlimit:4;stroke-dasharray:none;stroke-opacity:1" transform="translate(.214 -223.259)"/><path d="M79.899 483.603s38.11 20.712 53.343 10.853c10.8-6.99 18.741-23.723 20.32-31.174 1.241-5.85-10.371-9.329-9.467-15.24.445-2.914 7.15-2.862 6.697-5.774-.606-3.885-10.681-.69-10.854-4.618-.229-5.23 11.916-2.528 13.856-7.39 2.254-5.652-7.982-11.648-5.773-17.319 3.8-9.76 17.077-14.015 27.48-15.24 26.188-3.086 76.203 21.244 76.203 21.244" style="fill:none;fill-rule:evenodd;stroke:#284021;stroke-width:2;stroke-linecap:butt;stroke-linejoin:miter;stroke-miterlimit:4;stroke-dasharray:none;stroke-opacity:1" transform="translate(.214 -223.259)"/><path d="M123.9 380.106c-10.004.25-19.087 7.878-25.864 15.24-3.357 3.648-5.602 4.746-6.466 13.394 5.011-4.844 11.354-10.51 18.012-14.317 7.446-4.257 23.522-.674 24.016-9.237.21-3.643-6.05-5.171-9.699-5.08m-9.55 23.022c-6.467.161-12.34 5.093-16.72 9.853-2.171 2.358-3.623 3.068-4.18 8.659 3.238-3.132 7.34-6.795 11.644-9.256 4.813-2.753 15.206-.436 15.526-5.972.136-2.355-3.912-3.343-6.27-3.284m-8.967 19.79c-3.592.09-6.853 2.829-9.286 5.472-1.205 1.31-2.011 1.704-2.321 4.809 1.799-1.74 4.076-3.774 6.466-5.14 2.674-1.529 8.445-.242 8.623-3.317.075-1.308-2.172-1.856-3.482-1.824m37.142 136.988c12.801-.201 24.425-6.328 33.097-12.241 4.297-2.93 7.17-3.812 8.274-10.758-6.412 3.891-14.529 8.442-23.05 11.5-9.528 3.419-30.1.54-30.732 7.418-.27 2.927 7.742 4.154 12.411 4.08m12.222-18.49c8.276-.13 15.79-4.091 21.397-7.914 2.778-1.894 4.635-2.464 5.35-6.955-4.146 2.516-9.394 5.458-14.902 7.435-6.16 2.21-19.46.35-19.869 4.796-.174 1.892 5.006 2.685 8.024 2.638m11.475-15.895c4.596-.073 8.77-2.273 11.883-4.396 1.543-1.051 2.574-1.368 2.97-3.862-2.301 1.397-5.216 3.031-8.275 4.129-3.42 1.227-10.807.194-11.034 2.663-.096 1.051 2.78 1.492 4.456 1.465" style="fill:#84a67a;fill-opacity:1;fill-rule:evenodd;stroke:none;stroke-width:1px;stroke-linecap:butt;stroke-linejoin:miter;stroke-opacity:1" transform="translate(.214 -223.259)"/></g><g style="display:inline"><g style="display:inline;opacity:1"><path d="M419.84 584.573c-1.11 4.235-3.115 7.142-5.85 9.023-2.733 1.88-6.191 2.76-10.137 3.24-3.945.478-8.373.597-13.053.66s-9.607.027-14.585-.15c-4.979-.175-9.678-.662-13.95-1.444-4.27-.782-8.122-1.835-11.288-3.158-3.165-1.323-5.635-2.923-7.074-4.89-1.439-1.968-1.838-4.3-.941-7.08.896-2.779 2.647-4.652 5.058-5.712s5.478-1.298 8.97-1.047 7.402.982 11.607 1.607 8.715 1.101 13.557.957c4.842-.143 9.822-1.206 14.6-2.186 4.777-.98 9.356-1.805 13.205-1.762s6.938.923 8.725 2.848.05 13.33 1.156 9.094" style="color:#000;clip-rule:nonzero;display:inline;overflow:visible;opacity:1;isolation:auto;mix-blend-mode:normal;color-interpolation:sRGB;color-interpolation-filters:linearRGB;solid-color:#000;solid-opacity:1;fill:#e1d6b9;fill-opacity:1;fill-rule:nonzero;stroke:none;stroke-width:10;stroke-linecap:butt;stroke-linejoin:miter;stroke-miterlimit:4;stroke-dasharray:none;stroke-dashoffset:0;stroke-opacity:1;color-rendering:auto;image-rendering:auto;shape-rendering:auto;text-rendering:auto" transform="matrix(-.49423 -.07738 -.02724 .69122 709.834 -96.125)"/><path d="M411.667 570.505c-3.645-.32-7.912.035-12.443.673-5.179.73-10.69 1.783-16.256 1.964-5.566.18-10.757-.278-15.64-.874-4.885-.596-9.469-1.263-13.594-1.35-4.126-.089-7.779.412-10.667 1.77-2.888 1.357-5.006 3.55-6.114 6.605-1.107 3.054-.683 5.795.966 8.195s4.516 4.463 8.197 6.211 8.163 3.194 13.122 4.283 10.401 1.796 16.157 2.057c5.756.262 11.242.3 16.338.22 5.097-.08 9.799-.251 13.94-.875a34 34 0 0 0 4.471-.962c2.833-.826 3.606-5.67 1.067-4.353-2.352 1.219-5.13 1.888-8.234 2.279-3.784.476-8.035.605-12.53.676-4.496.071-9.23.04-14.014-.121-4.784-.162-9.297-.62-13.4-1.363-4.101-.743-7.798-1.746-10.836-3.01-3.037-1.264-5.405-2.797-6.784-4.68s-1.759-4.116-.894-6.78 2.549-4.465 4.863-5.49c2.315-1.023 5.253-1.264 8.6-1.039 3.349.226 7.097.91 11.134 1.495s8.371 1.037 13.029.899 9.454-1.15 14.045-2.094c4.592-.944 8.982-1.753 12.668-1.736q.691.002 1.348.044c1.122.07 2.17.205 3.1.477 1.074.314 2.955-2.604-.117-2.943-.499-.055-1.55.198-1.522-.178" style="color:#000;clip-rule:nonzero;display:inline;overflow:visible;opacity:1;isolation:auto;mix-blend-mode:normal;color-interpolation:sRGB;color-interpolation-filters:linearRGB;solid-color:#000;solid-opacity:1;fill:#394655;fill-opacity:1;fill-rule:nonzero;stroke:none;stroke-width:10;stroke-linecap:butt;stroke-linejoin:miter;stroke-miterlimit:4;stroke-dasharray:none;stroke-dashoffset:0;stroke-opacity:1;color-rendering:auto;image-rendering:auto;shape-rendering:auto;text-rendering:auto" transform="matrix(-.49423 -.07738 -.02724 .69122 709.834 -96.125)"/></g><g style="display:inline;opacity:1"><path d="M390.548 587.64c.446 4.164.248 6.978-1.396 8.828s-4.63 2.692-7.964 3.011c-3.334.32-6.787.208-10.431.047s-7.771-.433-13.73-.626c-5.96-.194-6.765-.274-13.458-1.012-6.692-.738-12.46-1.67-17.238-2.847-4.777-1.176-8.608-2.627-11.427-4.609s-4.676-4.515-4.743-7.659c-.066-3.144 1.695-5.355 4.427-6.762s6.468-1.993 11.128-1.95 10.288.74 17.002 1.523 9.992 1.447 14.33 2.069 6.59.584 9.377.341c2.785-.242 6.98-.86 11.076-1.038 4.097-.179 7.398.264 9.511 1.946s4.139 14.295 3.536 8.738" style="color:#000;clip-rule:nonzero;display:inline;overflow:visible;opacity:1;isolation:auto;mix-blend-mode:normal;color-interpolation:sRGB;color-interpolation-filters:linearRGB;solid-color:#000;solid-opacity:1;fill:#e1d6b9;fill-opacity:1;fill-rule:nonzero;stroke:none;stroke-width:10;stroke-linecap:butt;stroke-linejoin:miter;stroke-miterlimit:4;stroke-dasharray:none;stroke-dashoffset:0;stroke-opacity:1;color-rendering:auto;image-rendering:auto;shape-rendering:auto;text-rendering:auto" transform="matrix(-.52038 -.25648 .43551 -.67375 393.104 898.44)"/><path d="M379.748 574.62c-3.725-.01-8.156.463-11.346.636-3.645.198-5.723.082-10.257-.667-4.533-.75-9.24-1.514-16.798-2.219-7.56-.705-13.863-1.22-19.092-.951-5.23.268-9.43 1.288-12.484 3.139s-4.984 4.506-4.995 7.97 1.942 6.369 5.02 8.712 7.333 4.146 12.72 5.635c5.386 1.489 11.957 2.703 19.582 3.658 7.626.955 9.521 1.19 16.452 1.345 6.93.155 11.399.366 15.513.436 4.114.069 8.19.044 11.84-.532 1.388-.219 2.676-.53 3.822-.945 2.313-.84-1.803-5.031-3.509-3.79-1.58 1.152-3.952 1.08-6.511 1.286-3.119.251-6.638-.158-9.882-.368s-6.338.546-11.29.352c-4.953-.193-4.503-.186-10.814-.89-6.312-.703-11.98-1.653-16.738-2.827s-8.627-2.598-11.397-4.463c-2.771-1.866-4.471-4.189-4.51-6.962-.037-2.774 1.593-4.641 4.168-5.707s7.344.016 11.773.33c4.429.315 10.408.568 16.58 1.264 6.173.695 5.517.345 9.477.5s6.261-.41 8.907-.915 6.413-1.031 10.262-1.153c.481-.015.959-.024 1.425-.021 1.198.006 2.342.053 3.355.238 1.169.214 3.423-3.027.28-3.054-.51-.004-1.685.346-1.553-.037" style="color:#000;clip-rule:nonzero;display:inline;overflow:visible;opacity:1;isolation:auto;mix-blend-mode:normal;color-interpolation:sRGB;color-interpolation-filters:linearRGB;solid-color:#000;solid-opacity:1;fill:#394655;fill-opacity:1;fill-rule:nonzero;stroke:none;stroke-width:10;stroke-linecap:butt;stroke-linejoin:miter;stroke-miterlimit:4;stroke-dasharray:none;stroke-dashoffset:0;stroke-opacity:1;color-rendering:auto;image-rendering:auto;shape-rendering:auto;text-rendering:auto" transform="matrix(-.52038 -.25648 .43551 -.67375 393.104 898.44)"/></g></g><g style="display:inline;opacity:1"><g style="opacity:1"><path d="M-626.547 402.353c2.228 10.863.345 21.826-3.867 31.425-4.213 9.6-10.552 17.861-17.721 24.3s-15.255 11.106-24.572 13.614c-9.317 2.507-20.95 4.469-31.639 1.984s-18.069-9.229-24.094-15.893-12.359-14.476-22.965-22.068-20.865-15.599-25.161-23.378c-4.297-7.78-7.008-15.67-7.816-23.39-.807-7.722.36-14.56 3.123-20.545s7.126-11.121 12.786-15.41 12.617-7.736 20.642-10.242 17.112-4.076 27.14-4.415c10.026-.34 20.065.594 29.76 2.875s19.056 5.92 27.478 11.023 15.893 11.692 21.605 19.629c5.711 7.936 13.074 19.628 15.301 30.49" style="color:#000;clip-rule:nonzero;display:inline;overflow:visible;opacity:1;isolation:auto;mix-blend-mode:normal;color-interpolation:sRGB;color-interpolation-filters:linearRGB;solid-color:#000;solid-opacity:1;fill:#96d6ff;fill-opacity:1;fill-rule:nonzero;stroke:none;stroke-width:10;stroke-linecap:butt;stroke-linejoin:miter;stroke-miterlimit:4;stroke-dasharray:none;stroke-dashoffset:0;stroke-opacity:1;color-rendering:auto;image-rendering:auto;shape-rendering:auto;text-rendering:auto" transform="matrix(-.31302 .12521 .15462 .27473 135.8 19.096)"/><path d="M-784.214 457.34a8 8 0 0 0-1.556.335 5.6 5.6 0 0 0-1.635.827c-.451.342-.802.747-1.028 1.22a3.1 3.1 0 0 0-.274 1.62c.052.609.252 1.233.58 1.849.326.616.989 1.252 1.835 1.841.845.59 1.356 1.206 1.825 1.729.467.521 1.135.854 2.024.927.103.008.124-.305.035-.329-.781-.203-1.259-.72-1.719-1.11-.425-.467-.872-1.015-1.621-1.547s-1.473-1.093-1.777-1.639-.497-1.1-.555-1.642a2.7 2.7 0 0 1 .22-1.443c.194-.421.502-.784.901-1.087.4-.302.89-.545 1.458-.723a7 7 0 0 1 .907-.215q.48-.08 1.012-.102a8 8 0 0 1 2.1.2 6.7 6.7 0 0 1 1.939.772c.593.359 1.119.82 1.52 1.377.403.557.922 1.375 1.08 2.137.13.625.073 1.258-.133 1.834-.038.107.498.294.628-.012.243-.57.234-1.24.103-1.874-.179-.856-.69-1.769-1.137-2.4a5.7 5.7 0 0 0-1.689-1.553 7.1 7.1 0 0 0-2.143-.85 8.6 8.6 0 0 0-2.9-.143z" style="color:#000;clip-rule:nonzero;display:inline;overflow:visible;opacity:1;isolation:auto;mix-blend-mode:normal;color-interpolation:sRGB;color-interpolation-filters:linearRGB;solid-color:#000;solid-opacity:1;fill:#394655;fill-opacity:1;fill-rule:nonzero;stroke:none;stroke-width:10;stroke-linecap:butt;stroke-linejoin:miter;stroke-miterlimit:4;stroke-dasharray:none;stroke-dashoffset:0;stroke-opacity:1;color-rendering:auto;image-rendering:auto;shape-rendering:auto;text-rendering:auto" transform="matrix(-4.33567 1.73432 2.14168 3.8053 -3964.078 -360.927)"/><path d="M-753.772 413.022c-.136-2.619 2.18-4.948 7.22-6.2 7.654-1.903 20.038 1.845 27.938 5.67 4.333 2.1 8.89 3.892 12.666 7.195 1.282 1.121 2.518 2.283 3.368 4.409-1.658.577-4.104-.922-5.872-2.13-6.968-4.766-14.695-8.09-22.677-9.127-6.716-.872-8.87-3.11-14.756-2.562-3.726.347-4.906 2.139-7.887 2.745" style="color:#000;clip-rule:nonzero;display:inline;overflow:visible;opacity:1;isolation:auto;mix-blend-mode:normal;color-interpolation:sRGB;color-interpolation-filters:linearRGB;solid-color:#000;solid-opacity:1;fill:#394655;fill-opacity:1;fill-rule:nonzero;stroke:none;stroke-width:10;stroke-linecap:butt;stroke-linejoin:miter;stroke-miterlimit:4;stroke-dasharray:none;stroke-dashoffset:0;stroke-opacity:1;color-rendering:auto;image-rendering:auto;shape-rendering:auto;text-rendering:auto" transform="matrix(-.31302 .12521 .15462 .27473 135.8 19.096)"/><path d="M-720.17 411.684c.285-2.325.87 3.903-.319 5.46-4.46 5.84-8.203 12.32-12.42 18.365-1.374 1.968-3.295.041-2.428-2.1.881-2.173 2.06-3.998 3.35-5.814 1.207-1.702 2.813-3.058 3.888-4.86 2.066-3.463 2.395-6.629 4.254-10.24.637-1.237 3.522.426 3.674-.808z" style="color:#000;clip-rule:nonzero;display:inline;overflow:visible;opacity:1;isolation:auto;mix-blend-mode:normal;color-interpolation:sRGB;color-interpolation-filters:linearRGB;solid-color:#000;solid-opacity:1;fill:#394655;fill-opacity:1;fill-rule:nonzero;stroke:none;stroke-width:10;stroke-linecap:butt;stroke-linejoin:miter;stroke-miterlimit:4;stroke-dasharray:none;stroke-dashoffset:0;stroke-opacity:1;color-rendering:auto;image-rendering:auto;shape-rendering:auto;text-rendering:auto" transform="matrix(-.31302 .12521 .15462 .27473 135.8 19.096)"/></g><path d="M224.725 356.485c5.66-27.53 33.027-44.233 69.854-60.742 42.089-18.868 81.636-27.9 115.41-24.297 20.19 2.153 40.272 7.997 57.706 23.284 19.986 17.526 32.97 43.847 38.47 69.854 13.738 64.953 6.428 136.386-17.21 198.425-12.448 32.67-27.416 65.477-55.68 86.052-34.599 25.185-78.693 41.659-121.486 41.507-43.97-.155-101.28-6.206-124.522-43.532-11.859-19.045-1.535-46.555 8.1-66.816 18.45-38.802 27.716-55.22 32.395-93.139 7.783-63.06-11.197-90.896-3.037-130.596" style="display:inline;fill:#394655;fill-opacity:1;fill-rule:evenodd;stroke:none;stroke-width:1px;stroke-linecap:butt;stroke-linejoin:miter;stroke-opacity:1" transform="translate(.214 -223.259)"/><path d="M399.062 276.308c-29.453-.343-63.896 8.235-100.593 24.522-18.474 8.2-34.219 16.4-45.604 25.387s-18.306 18.353-20.844 29.954c-4.012 18.332-1.739 34.031.892 54.162 2.63 20.132 5.464 44.35 1.652 77.654-4.572 39.928-14.192 58.643-31.92 98.07-4.523 10.059-9.042 21.69-10.979 32.488s-1.28 20.255 3.201 27.519c10.222 16.566 28.182 26.792 49.73 32.847 21.55 6.056 46.249 7.708 67.899 7.75 40.743.082 83.603-16.292 117.172-41.327 26.259-19.583 40.977-51.47 53.518-84.666 23.512-62.236 31.003-133.774 17.755-197.223-5.15-24.66-17.575-49.437-35.93-65.348-15.96-13.833-34.216-19.1-53.632-21.1q-6.004-.616-12.317-.69" style="display:inline;fill:#96d6ff;fill-opacity:1;fill-rule:evenodd;stroke:none;stroke-width:1px;stroke-linecap:butt;stroke-linejoin:miter;stroke-opacity:1" transform="translate(.214 -223.259)"/><g style="display:inline;opacity:1"><path d="M-626.573 401.696c2.247 11.35.367 22.39-3.843 32.038-4.21 9.649-10.55 17.905-17.72 24.344s-15.254 11.11-24.57 13.61c-9.318 2.501-20.95 4.473-31.646 1.829s-18.092-9.812-24.148-17.25c-6.056-7.44-12.443-16.568-23.097-25.36-10.654-8.793-20.952-17.788-25.3-26.873-4.35-9.086-7.116-18.361-7.98-27.522s.246-17.364 2.961-24.584 7.032-13.455 12.66-18.537 12.567-9.01 20.593-11.49c8.026-2.478 17.135-3.505 27.21-2.666 10.073.838 20.18 3.472 29.951 7.653s19.215 9.908 27.712 16.897 16.035 15.24 21.796 24.415c5.76 9.176 13.174 22.145 15.421 33.496" style="color:#000;clip-rule:nonzero;display:inline;overflow:visible;opacity:1;isolation:auto;mix-blend-mode:normal;color-interpolation:sRGB;color-interpolation-filters:linearRGB;solid-color:#000;solid-opacity:1;fill:#96d6ff;fill-opacity:1;fill-rule:nonzero;stroke:none;stroke-width:10;stroke-linecap:butt;stroke-linejoin:miter;stroke-miterlimit:4;stroke-dasharray:none;stroke-dashoffset:0;stroke-opacity:1;color-rendering:auto;image-rendering:auto;shape-rendering:auto;text-rendering:auto" transform="rotate(-42.022 178.31 34.74)scale(-.37951 .37951)"/><path d="M-784.271 455.904a5.5 5.5 0 0 0-1.56.262 4.5 4.5 0 0 0-1.63.935 3.9 3.9 0 0 0-1.018 1.475 4.35 4.35 0 0 0-.261 1.937 6.3 6.3 0 0 0 .592 2.157c.33.71.996 1.419 1.845 2.083 1.249.998 1.493 1.428 1.567 1.04.054-.284-.046-.697-1.026-1.45-.753-.619-1.48-1.252-1.787-1.892a5.8 5.8 0 0 1-.567-1.938 3.8 3.8 0 0 1 .208-1.73c.191-.508.495-.949.893-1.307a3.85 3.85 0 0 1 1.454-.81q.427-.132.909-.182.481-.05 1.015-.008a6.8 6.8 0 0 1 2.114.538 8.1 8.1 0 0 1 1.955 1.19 7.2 7.2 0 0 1 1.535 1.719c.406.646.928 1.559 1.088 2.358a3.53 3.53 0 0 1-.131 1.88c-.039.108.498.304.628-.002.243-.57.234-1.244.102-1.897-.18-.883-.695-1.871-1.144-2.587a7.9 7.9 0 0 0-1.703-1.899 8.8 8.8 0 0 0-2.16-1.296 7.4 7.4 0 0 0-2.34-.564 6 6 0 0 0-.578-.012" style="color:#000;clip-rule:nonzero;display:inline;overflow:visible;opacity:1;isolation:auto;mix-blend-mode:normal;color-interpolation:sRGB;color-interpolation-filters:linearRGB;solid-color:#000;solid-opacity:1;fill:#394655;fill-opacity:1;fill-rule:nonzero;stroke:none;stroke-width:10;stroke-linecap:butt;stroke-linejoin:miter;stroke-miterlimit:4;stroke-dasharray:none;stroke-dashoffset:0;stroke-opacity:1;color-rendering:auto;image-rendering:auto;shape-rendering:auto;text-rendering:auto" transform="rotate(-42.022 -863.913 6179.85)scale(-5.25667 5.25667)"/><path d="M-730.273 382.913c1.807-2.764 6.313-3.63 13.246-1.617 10.53 3.057 22.434 14.977 28.948 24.047 3.574 4.975 7.643 9.782 9.648 15.624.68 1.983 1.276 3.978.69 6.704-2.407-.494-4.188-3.623-5.38-6.013-4.7-9.42-11.386-17.865-20.096-24.139-7.328-5.278-8.205-8.972-15.615-12.257-4.69-2.08-7.441-1.02-11.44-2.35" style="color:#000;clip-rule:nonzero;display:inline;overflow:visible;opacity:1;isolation:auto;mix-blend-mode:normal;color-interpolation:sRGB;color-interpolation-filters:linearRGB;solid-color:#000;solid-opacity:1;fill:#394655;fill-opacity:1;fill-rule:nonzero;stroke:none;stroke-width:10;stroke-linecap:butt;stroke-linejoin:miter;stroke-miterlimit:4;stroke-dasharray:none;stroke-dashoffset:0;stroke-opacity:1;color-rendering:auto;image-rendering:auto;shape-rendering:auto;text-rendering:auto" transform="rotate(-42.022 178.31 34.74)scale(-.37951 .37951)"/><path d="M-689.32 403.5c2.089-2.189-1.901 4.556-4.484 5.369-9.695 3.051-19.018 7.226-28.579 10.645-3.113 1.112-3.947-2.11-1.307-3.73 2.683-1.645 5.457-2.739 8.355-3.752 2.716-.95 5.644-1.286 8.277-2.424 5.061-2.187 7.834-5.206 12.759-7.68 1.689-.848 3.868 2.736 4.976 1.574z" style="color:#000;clip-rule:nonzero;display:inline;overflow:visible;opacity:1;isolation:auto;mix-blend-mode:normal;color-interpolation:sRGB;color-interpolation-filters:linearRGB;solid-color:#000;solid-opacity:1;fill:#394655;fill-opacity:1;fill-rule:nonzero;stroke:none;stroke-width:10;stroke-linecap:butt;stroke-linejoin:miter;stroke-miterlimit:4;stroke-dasharray:none;stroke-dashoffset:0;stroke-opacity:1;color-rendering:auto;image-rendering:auto;shape-rendering:auto;text-rendering:auto" transform="rotate(-42.022 178.31 34.74)scale(-.37951 .37951)"/></g></g><g style="display:inline;opacity:.07000002"><path d="M346.605 29.654q-.768.003-1.552.076c-12.437-.008-21.353 11.358-25.407 22.004-4.273 12.126-3.587 26.652 3.49 37.588 1.42 2.51 4.827 3.785 5.862 6.282-1.734 2.958-4.894-.956-6.36-2.266-2.954-2.55-4.72-6.267-5.949-9.752-1.062.22-2.43.526-3.396 1.203l.098-.182c-15.483 7.276-33.367 17.262-43.442 25.215-12.144 9.588-19.524 19.576-22.232 31.95-4.28 19.554-1.855 36.301.95 57.775 2.807 21.473 5.832 47.306 1.765 82.83-4.876 42.59-15.14 62.551-34.05 104.607-4.823 10.73-9.644 23.137-11.71 34.655-2.066 11.517-1.365 21.603 3.416 29.351 10.903 17.671 30.058 28.58 53.043 35.04 22.985 6.459 49.332 8.22 72.426 8.267 43.458.086 89.177-17.38 124.984-44.084 4.903-3.657 9.419-7.721 13.621-12.12-57.602 23.368-102.23 28.047-126.867 26.243-51.078-3.74-65.144-33.974-63.75-66.022 1.393-32.047 16.161-26.433 21.621-112.652 4.193-66.213-15.075-69.487-13.682-143.336.332-17.589 6.92-32.55 18.192-42.84 4.202-3.835 15.552-5.167 18.324-3.088 4 3 7.75.75 13.25-1s-2.434-7.341-5-10.5c-3.25-4-6.875-9.75-8.625-20-1.311-7.68 9.544-26.934 26.33-34.373a16.7 16.7 0 0 0-5.35-.87" style="display:inline;opacity:1;fill:#000;fill-opacity:1;fill-rule:evenodd;stroke:none;stroke-width:1.06666672px;stroke-linecap:butt;stroke-linejoin:miter;stroke-opacity:1" transform="scale(.9375)"/><path d="M332.527 288.732c-11.907 18.401-11.474 40.483-7.794 48.277 3.68 7.793 17.536 8.226 18.618 5.628 1.083-2.598 2.253-6.493.088-17.1-2.165-10.609-6.366-19.27-4.85-23.816 1.515-4.546-6.062-12.99-6.062-12.99" style="opacity:1;fill:#000;fill-opacity:1;stroke:none;stroke-width:4.6875;stroke-linecap:round;stroke-miterlimit:4;stroke-dasharray:none;stroke-opacity:1"/><path d="M448.35 21.55c-4.027.704-7.95 2.046-11.616 3.833-6.279 3.133-12.115 7.924-14.93 14.506-1.315 3.124-1.718 6.555-1.849 9.916-.246.855.434 1.406 1.25 1.175 9.67.08 19.35.88 28.856 2.717 1.727.324 3.451.7 5.17 1.102-6.175-2.551-20.882-3.268-21.345-10.956-.43-7.14 2.047-10.318 6.98-15.827 1.843-2.058 4.307-4.213 7.484-6.465" style="display:inline;opacity:1;fill:#000;fill-opacity:1;stroke:none;stroke-width:.625;stroke-linecap:round;stroke-miterlimit:4;stroke-dasharray:none;stroke-opacity:1" transform="scale(.9375)"/><path d="M481.606 227.176c-4.143 2.071-7.827 7.705-7.872 11.186-.083 6.464 4.475 9.198 5.966 9.613s4.806.082 4.89 1.905c.082 1.823.248 11.104.496 12.761.249 1.658.249 3.232 5.552 2.9 5.303-.33 10.441-1.657 11.104-2.237s2.154-1.905 2.652-4.143c.497-2.237 1.823-14.087-2.072-18.23s-7.21-5.718-10.027-8.12c-2.817-2.404-10.689-5.635-10.689-5.635" style="opacity:1;fill:#000;fill-opacity:1;stroke:none;stroke-width:4.6875;stroke-linecap:round;stroke-miterlimit:4;stroke-dasharray:none;stroke-opacity:1"/></g><g style="display:inline"><g style="display:inline;opacity:1"><path d="M381.043 586.683c.382 4.157.195 6.972-1.274 8.84s-4.127 2.742-7.094 3.099c-2.966.356-6.037.283-9.278.162-3.24-.12-6.91-.346-12.21-.473-5.299-.126-6.015-.198-11.965-.86-5.95-.664-11.077-1.532-15.321-2.655-4.245-1.122-7.646-2.53-10.146-4.48s-4.143-4.46-4.19-7.603 1.526-5.372 3.961-6.81c2.435-1.436 5.76-2.063 9.905-2.071s9.147.624 15.116 1.332 8.881 1.335 12.737 1.908 5.86.51 8.34.237c2.478-.273 6.21-.937 9.855-1.161 3.644-.224 6.579.182 8.452 1.84 1.873 1.657 3.628 14.242 3.112 8.695" style="color:#000;clip-rule:nonzero;display:inline;overflow:visible;opacity:1;isolation:auto;mix-blend-mode:normal;color-interpolation:sRGB;color-interpolation-filters:linearRGB;solid-color:#000;solid-opacity:1;fill:#e1d6b9;fill-opacity:1;fill-rule:nonzero;stroke:none;stroke-width:10;stroke-linecap:butt;stroke-linejoin:miter;stroke-miterlimit:4;stroke-dasharray:none;stroke-dashoffset:0;stroke-opacity:1;color-rendering:auto;image-rendering:auto;shape-rendering:auto;text-rendering:auto" transform="matrix(.16322 -.55671 .73857 .31323 -244.274 478.359)"/><path d="M371.486 573.787c-3.314.031-7.256.555-10.094.763-3.243.239-5.09.146-9.12-.553-4.03-.698-8.212-1.41-14.933-2.03-6.72-.621-12.325-1.066-16.977-.74s-8.391 1.394-11.115 3.278-4.449 4.56-4.471 8.023 1.703 6.345 4.432 8.653 6.507 4.063 11.293 5.491 10.624 2.57 17.403 3.439c6.78.87 8.464 1.083 14.628 1.16 6.163.079 10.137.24 13.795.263 3.66.024 7.285-.046 10.533-.662 1.235-.235 2.383-.56 3.403-.988 2.06-.866-1.586-5.01-3.107-3.749-1.41 1.169-3.52 1.123-5.796 1.357-2.774.286-5.903-.083-8.788-.257-2.884-.174-5.638.616-10.042.478-4.405-.139-4.005-.136-9.615-.769s-10.649-1.52-14.876-2.64-7.664-2.501-10.121-4.335-3.962-4.137-3.985-6.91c-.023-2.771 1.434-4.656 3.728-5.75s6.531-.067 10.47.199c3.937.265 9.254.452 14.741 1.078 5.488.626 4.905.284 8.427.395 3.523.11 5.57-.48 7.926-1.014 2.355-.535 5.707-1.102 9.13-1.267q.645-.031 1.268-.037c1.066-.007 2.083.026 2.984.2 1.038.201 3.055-3.064.26-3.056-.454.002-1.5.365-1.381-.02" style="color:#000;clip-rule:nonzero;display:inline;overflow:visible;opacity:1;isolation:auto;mix-blend-mode:normal;color-interpolation:sRGB;color-interpolation-filters:linearRGB;solid-color:#000;solid-opacity:1;fill:#394655;fill-opacity:1;fill-rule:nonzero;stroke:none;stroke-width:10;stroke-linecap:butt;stroke-linejoin:miter;stroke-miterlimit:4;stroke-dasharray:none;stroke-dashoffset:0;stroke-opacity:1;color-rendering:auto;image-rendering:auto;shape-rendering:auto;text-rendering:auto" transform="matrix(.16322 -.55671 .73857 .31323 -244.274 478.359)"/></g></g><g style="display:inline"><g style="display:inline;opacity:1" transform="rotate(48.038 154.374 1015.327)scale(-.54127 .54127)"><path d="M533.184 326.941c-7.496 7.765-18.041 13.97-29.035 20.118s-22.392 12.46-33.28 19.735c-10.887 7.275-21.32 15.482-31.114 23.145s-18.954 14.62-28.115 18.727-17.615 4.91-25.403 2.714-18.214-3.979-24.004-11.222-10-16.541-11.703-27.122c-1.704-10.581-.873-22.451 3.03-34.898 3.903-12.446 10.478-24.284 18.747-34.948s18.2-20.16 28.795-28.074c10.597-7.914 26.271-15.763 37.354-20.23 11.084-4.468 22.427-6.888 34.19-6.638 11.765.25 22.958 3.178 33.175 8.106 10.216 4.927 19.404 11.836 26.206 19.748 6.803 7.913 11.151 16.824 11.646 25.638s-2.993 17.436-10.49 25.201" style="color:#000;clip-rule:nonzero;display:inline;overflow:visible;opacity:1;isolation:auto;mix-blend-mode:normal;color-interpolation:sRGB;color-interpolation-filters:linearRGB;solid-color:#000;solid-opacity:1;fill:#394655;fill-opacity:1;fill-rule:nonzero;stroke:none;stroke-width:2;stroke-linecap:butt;stroke-linejoin:miter;stroke-miterlimit:4;stroke-dasharray:none;stroke-dashoffset:0;stroke-opacity:1;color-rendering:auto;image-rendering:auto;shape-rendering:auto;text-rendering:auto"/><path d="M527.035 324.76c-6.471 7.28-15.602 13.447-25.495 19.52-9.892 6.074-20.526 12.193-31.01 18.879-10.483 6.686-20.847 13.937-30.635 20.642s-18.985 12.746-27.854 16.374c-8.87 3.629-16.715 4.427-23.704 2.565s-16.65-3.158-21.479-9.584c-4.828-6.427-8.133-14.747-9.154-24.25-1.02-9.503.27-20.19 4.31-31.402s10.418-21.878 18.252-31.507c7.833-9.628 17.09-18.225 26.9-25.429s24.572-14.575 34.763-18.704 20.582-6.439 31.278-6.373 20.782 2.525 29.886 6.763c9.105 4.237 17.181 10.235 23.094 17.14s9.603 14.707 9.974 22.52c.372 7.811-2.655 15.566-9.126 22.846" style="color:#000;clip-rule:nonzero;display:inline;overflow:visible;opacity:1;isolation:auto;mix-blend-mode:normal;color-interpolation:sRGB;color-interpolation-filters:linearRGB;solid-color:#000;solid-opacity:1;fill:#fff;fill-opacity:1;fill-rule:nonzero;stroke:none;stroke-width:2;stroke-linecap:butt;stroke-linejoin:miter;stroke-miterlimit:4;stroke-dasharray:none;stroke-dashoffset:0;stroke-opacity:1;color-rendering:auto;image-rendering:auto;shape-rendering:auto;text-rendering:auto"/><ellipse cx="510.36" cy="112.43" rx="21.856" ry="27.178" style="color:#000;clip-rule:nonzero;display:inline;overflow:visible;opacity:1;isolation:auto;mix-blend-mode:normal;color-interpolation:sRGB;color-interpolation-filters:linearRGB;solid-color:#000;solid-opacity:1;fill:#394655;fill-opacity:1;fill-rule:nonzero;stroke:none;stroke-width:2;stroke-linecap:butt;stroke-linejoin:miter;stroke-miterlimit:4;stroke-dasharray:none;stroke-dashoffset:0;stroke-opacity:1;color-rendering:auto;image-rendering:auto;shape-rendering:auto;text-rendering:auto" transform="matrix(.93072 .36573 -.50716 .86185 0 0)"/><ellipse cx="504.479" cy="99.339" rx="10.749" ry="13.366" style="color:#000;clip-rule:nonzero;display:inline;overflow:visible;opacity:1;isolation:auto;mix-blend-mode:normal;color-interpolation:sRGB;color-interpolation-filters:linearRGB;solid-color:#000;solid-opacity:1;fill:#fff;fill-opacity:1;fill-rule:nonzero;stroke:none;stroke-width:2;stroke-linecap:butt;stroke-linejoin:miter;stroke-miterlimit:4;stroke-dasharray:none;stroke-dashoffset:0;stroke-opacity:1;color-rendering:auto;image-rendering:auto;shape-rendering:auto;text-rendering:auto" transform="matrix(.93072 .36573 -.50716 .86185 0 0)"/></g><path d="m502.618 462.384-6.104.785-3.571.333c-1.14.106-2.09.762-2.735 1.642-.646.88-.882 2.023-.915 3.245l-.187 6.914-.562 6.982c-.102 1.257.347 2.304 1.035 3.023s1.653 1.064 2.734.965l3.605-.33 7.09-.986a5.68 5.68 0 0 0 3.401-1.787 4.72 4.72 0 0 0 1.228-3.312l-.16-6.845-.277-6.821c-.05-1.214-.712-2.23-1.557-2.915a4.03 4.03 0 0 0-3.025-.893" style="color:#000;clip-rule:nonzero;display:inline;overflow:visible;opacity:1;isolation:auto;mix-blend-mode:normal;color-interpolation:sRGB;color-interpolation-filters:linearRGB;solid-color:#000;solid-opacity:1;fill:#2e3436;fill-opacity:1;fill-rule:nonzero;stroke:none;stroke-width:6.3400259;stroke-linecap:butt;stroke-linejoin:miter;stroke-miterlimit:4;stroke-dasharray:none;stroke-dashoffset:0;stroke-opacity:1;color-rendering:auto;image-rendering:auto;shape-rendering:auto;text-rendering:auto" transform="translate(.214 -223.259)"/><path d="m501.74 464.572-4.981.643-2.388.177c-.906.067-1.687.618-2.239 1.342-.551.723-.813 1.667-.87 2.671l-.32 5.673-.56 5.715c-.101 1.02.219 1.891.762 2.481.542.59 1.33.852 2.23.785l2.45-.185 5.636-.775a4.6 4.6 0 0 0 2.725-1.447 4.1 4.1 0 0 0 1.086-2.718l.062-5.62-.034-5.602c-.006-.998-.49-1.838-1.145-2.403a3.07 3.07 0 0 0-2.415-.737" style="color:#000;clip-rule:nonzero;display:inline;overflow:visible;opacity:1;isolation:auto;mix-blend-mode:normal;color-interpolation:sRGB;color-interpolation-filters:linearRGB;solid-color:#000;solid-opacity:1;fill:#fff;fill-opacity:1;fill-rule:nonzero;stroke:none;stroke-width:6.3400259;stroke-linecap:butt;stroke-linejoin:miter;stroke-miterlimit:4;stroke-dasharray:none;stroke-dashoffset:0;stroke-opacity:1;color-rendering:auto;image-rendering:auto;shape-rendering:auto;text-rendering:auto" transform="translate(.214 -223.259)"/><path d="M476.21 460.653c.16 2.139 1.294 3.932 2.873 5.252s3.735 2.116 6.162 2.411 5.094.116 7.73-.2c2.636-.317 5.247-.756 7.807-1.112s4.856-.59 6.877-.856 3.75-.59 5.125-1.184c1.375-.593 2.406-1.451 3.06-2.637s.93-2.7.713-4.504-.919-3.722-1.998-5.566a21.3 21.3 0 0 0-4.235-5.124c-1.706-1.513-3.668-2.77-5.854-3.615s-4.6-1.278-7.266-1.17c-2.666.106-5.35.74-7.92 1.79-2.571 1.049-5.021 2.514-7.082 4.249s-3.775 3.69-4.771 5.838c-1.02 2.2-1.357 4.605-1.22 6.428" style="color:#000;clip-rule:nonzero;display:inline;overflow:visible;opacity:1;isolation:auto;mix-blend-mode:normal;color-interpolation:sRGB;color-interpolation-filters:linearRGB;solid-color:#000;solid-opacity:1;fill:#394655;fill-opacity:1;fill-rule:nonzero;stroke:none;stroke-width:6.3400259;stroke-linecap:butt;stroke-linejoin:miter;stroke-miterlimit:4;stroke-dasharray:none;stroke-dashoffset:0;stroke-opacity:1;color-rendering:auto;image-rendering:auto;shape-rendering:auto;text-rendering:auto" transform="translate(.214 -223.259)"/><path d="M484.544 462.878c1.244.85 2.896 1.33 4.733 1.537s3.846.155 5.867.025 4.055-.335 6.056-.535c2-.2 3.79-.38 5.358-.63 1.567-.249 2.905-.578 3.964-1.095 1.059-.518 1.84-1.225 2.305-2.158s.617-2.09.396-3.439c-.221-1.348-.797-2.758-1.651-4.101a15.6 15.6 0 0 0-3.321-3.701 15.1 15.1 0 0 0-4.589-2.56c-1.71-.588-3.59-.874-5.64-.762-2.048.112-4.08.613-6.01 1.425a20.3 20.3 0 0 0-5.303 3.266c-1.549 1.329-2.814 2.86-3.616 4.442-.801 1.582-1.137 3.217-.88 4.719.258 1.502 1.088 2.717 2.331 3.567" style="color:#000;clip-rule:nonzero;display:inline;overflow:visible;opacity:1;isolation:auto;mix-blend-mode:normal;color-interpolation:sRGB;color-interpolation-filters:linearRGB;solid-color:#000;solid-opacity:1;fill:#e1d0cb;fill-opacity:1;fill-rule:nonzero;stroke:none;stroke-width:6.3400259;stroke-linecap:butt;stroke-linejoin:miter;stroke-miterlimit:4;stroke-dasharray:none;stroke-dashoffset:0;stroke-opacity:1;color-rendering:auto;image-rendering:auto;shape-rendering:auto;text-rendering:auto" transform="translate(.214 -223.259)"/><path d="M488.74 446.633c.537 1.23 1.542 2.262 2.872 3.075s2.98 1.411 4.744 1.811c1.765.4 3.64.604 5.454.616 1.815.012 3.571-.168 5.195-.56 1.623-.392 2.97-.958 4.088-1.658 1.119-.699 2.008-1.531 2.68-2.466a7.8 7.8 0 0 0 1.346-3.094 7.7 7.7 0 0 0-.157-3.542 8.6 8.6 0 0 0-1.847-3.365c-.877-.996-2.003-1.844-3.326-2.484s-2.842-1.07-4.498-1.238-3.45-.07-5.312.335a19.1 19.1 0 0 0-5.174 1.941c-1.559.863-2.925 1.915-4.001 3.076s-1.86 2.43-2.242 3.721-.36 2.6.178 3.832" style="color:#000;clip-rule:nonzero;display:inline;overflow:visible;opacity:1;isolation:auto;mix-blend-mode:normal;color-interpolation:sRGB;color-interpolation-filters:linearRGB;solid-color:#000;solid-opacity:1;fill:#394655;fill-opacity:1;fill-rule:nonzero;stroke:none;stroke-width:6.3400259;stroke-linecap:butt;stroke-linejoin:miter;stroke-miterlimit:4;stroke-dasharray:none;stroke-dashoffset:0;stroke-opacity:1;color-rendering:auto;image-rendering:auto;shape-rendering:auto;text-rendering:auto" transform="translate(.214 -223.259)"/><g transform="rotate(10.054 312.57 4245.224)scale(-.70976 .70976)"><path d="M542.315 317.388c.373 15.167-2.296 30.072-7.208 44.07s-12.044 27.078-20.884 38.431c-8.84 11.354-19.406 20.977-31.51 28.04-12.106 7.065-25.777 11.574-40.76 12.688-14.982 1.113-29.853-1.287-43.766-6.624-13.913-5.338-26.855-13.61-37.932-24.13a121.8 121.8 0 0 1-26.806-37.539 119.5 119.5 0 0 1-10.81-46.427c-.457-16.435 2.501-31.998 8.126-45.986a110.8 110.8 0 0 1 24.068-36.654c10.158-10.25 22.184-18.337 35.34-23.795 13.155-5.457 27.43-8.29 42.256-8.123 14.825.166 28.822 3.294 41.642 8.682a115.6 115.6 0 0 1 34.459 22.444c9.98 9.407 18.268 20.575 24.133 33.161s9.278 26.596 9.652 41.762" style="color:#000;clip-rule:nonzero;display:inline;overflow:visible;opacity:1;isolation:auto;mix-blend-mode:normal;color-interpolation:sRGB;color-interpolation-filters:linearRGB;solid-color:#000;solid-opacity:1;fill:#394655;fill-opacity:1;fill-rule:nonzero;stroke:none;stroke-width:2;stroke-linecap:butt;stroke-linejoin:miter;stroke-miterlimit:4;stroke-dasharray:none;stroke-dashoffset:0;stroke-opacity:1;color-rendering:auto;image-rendering:auto;shape-rendering:auto;text-rendering:auto"/><path d="M534.816 314.09c.81 14.27-1.195 28.517-5.383 42.068-4.19 13.551-10.543 26.394-18.64 37.61-8.096 11.217-17.953 20.793-29.361 27.819s-24.389 11.5-38.631 12.628-28.39-1.197-41.622-6.318c-13.233-5.12-25.541-13.036-36.1-23.04a118.1 118.1 0 0 1-25.656-35.532c-6.29-13.435-10.063-28.211-10.664-43.567-.601-15.355 2.02-29.822 7.153-42.79a101.05 101.05 0 0 1 22.162-33.923 101.7 101.7 0 0 1 32.754-22.144c12.215-5.151 25.492-7.954 39.324-8.088a105.8 105.8 0 0 1 38.964 6.992c12.032 4.6 23.006 11.274 32.455 19.634s17.364 18.41 23.115 29.914c5.751 11.503 9.32 24.468 10.13 38.737" style="color:#000;clip-rule:nonzero;display:inline;overflow:visible;opacity:1;isolation:auto;mix-blend-mode:normal;color-interpolation:sRGB;color-interpolation-filters:linearRGB;solid-color:#000;solid-opacity:1;fill:#fff;fill-opacity:1;fill-rule:nonzero;stroke:none;stroke-width:2;stroke-linecap:butt;stroke-linejoin:miter;stroke-miterlimit:4;stroke-dasharray:none;stroke-dashoffset:0;stroke-opacity:1;color-rendering:auto;image-rendering:auto;shape-rendering:auto;text-rendering:auto"/><circle cx="379.891" cy="316.663" r="30.81" style="color:#000;clip-rule:nonzero;display:inline;overflow:visible;opacity:1;isolation:auto;mix-blend-mode:normal;color-interpolation:sRGB;color-interpolation-filters:linearRGB;solid-color:#000;solid-opacity:1;fill:#394655;fill-opacity:1;fill-rule:nonzero;stroke:none;stroke-width:2;stroke-linecap:butt;stroke-linejoin:miter;stroke-miterlimit:4;stroke-dasharray:none;stroke-dashoffset:0;stroke-opacity:1;color-rendering:auto;image-rendering:auto;shape-rendering:auto;text-rendering:auto"/><circle cx="366.254" cy="302.521" r="15.152" style="color:#000;clip-rule:nonzero;display:inline;overflow:visible;opacity:1;isolation:auto;mix-blend-mode:normal;color-interpolation:sRGB;color-interpolation-filters:linearRGB;solid-color:#000;solid-opacity:1;fill:#fff;fill-opacity:1;fill-rule:nonzero;stroke:none;stroke-width:2;stroke-linecap:butt;stroke-linejoin:miter;stroke-miterlimit:4;stroke-dasharray:none;stroke-dashoffset:0;stroke-opacity:1;color-rendering:auto;image-rendering:auto;shape-rendering:auto;text-rendering:auto"/></g></g><g style="display:inline;opacity:.07000002"><path d="M430.184 115.918c-25.9.186-51.658 13.669-65.436 35.803-11.933 18.695-14.261 42.225-9.709 63.613 4.232 19.686 14.357 38.828 30.816 50.916 11.61 8.356 25.944 13.181 40.307 12.611 13.52.29 26.798-4.048 38.565-10.472 5.7-3.154 11.007-6.983 15.85-11.336-7.774.807-16.795 1.342-27.327 1.441-47.434.448-67.668-30.482-69.977-64.455-1.733-25.51 4.673-55.89 49.182-78.11a80 80 0 0 0-2.271-.011m104.834 2.297c-6.351.452-12.806 3.377-15.887 9.176-3.21 5.335-2.503 11.786-2.328 17.724 1.438 11.91 4.453 23.566 6.037 35.46 1.766 10.951 2.469 22.155 5.588 32.849 1.39 3.836 3.282 7.797 6.46 10.457 2.605 1.426 5.818.739 8.487 2.086 2.348.758 3.814 2.764 5.39 4.49 2.23 1.156 4.799-.32 7.034-.812 3.468-1.24 6.583-3.096 9.357-5.377-2.859.074-5.497.13-7.406.13-11 0-16.13-7.263-21.25-12.75-5.053-5.414-10.882-58.957-8.75-69.75 1.101-5.572.583-13.526 7.268-23.683" style="opacity:1;fill:#000;fill-opacity:1;stroke:none;stroke-width:1.63286042;stroke-linecap:round;stroke-miterlimit:4;stroke-dasharray:none;stroke-opacity:1" transform="scale(.9375)"/></g><g style="display:inline"><path d="M423.438 582.27c.004 4.349-1.201 7.517-3.603 9.801-2.402 2.285-6.023 3.71-10.869 4.797-4.846 1.088-10.944 1.883-17.855 2.526s-14.605 1.054-22.28 1.166a201 201 0 0 1-21.43-.835c-6.496-.603-12.228-1.43-17.038-2.525s-8.729-2.483-11.581-4.408-4.673-4.408-4.725-7.521c-.05-3.113 1.693-5.318 4.45-6.69 2.755-1.373 6.548-1.896 11.198-1.796s10.188.835 16.628 1.577c6.44.741 13.818 1.433 21.832 1.213s16.248-1.706 23.478-3.342 13.375-3.278 18.068-3.931 8.027-.358 10.279 1.217 3.456 13.1 3.448 8.75" style="color:#000;clip-rule:nonzero;display:inline;overflow:visible;opacity:1;isolation:auto;mix-blend-mode:normal;color-interpolation:sRGB;color-interpolation-filters:linearRGB;solid-color:#000;solid-opacity:1;fill:#e1d6b9;fill-opacity:1;fill-rule:nonzero;stroke:none;stroke-width:10;stroke-linecap:butt;stroke-linejoin:miter;stroke-miterlimit:4;stroke-dasharray:none;stroke-dashoffset:0;stroke-opacity:1;color-rendering:auto;image-rendering:auto;shape-rendering:auto;text-rendering:auto" transform="matrix(-.00294 -.50024 -.68664 .08404 744.588 446.38)"/><path d="M411.324 569.865c-4.266.35-9.704 1.482-16.28 2.816-7.514 1.525-16.5 3.2-25.624 3.539s-17.507-.37-24.792-1.068c-7.284-.699-13.536-1.304-18.81-1.12s-9.6 1.132-12.748 2.955c-3.148 1.822-5.132 4.49-5.198 7.942s1.876 6.32 5.046 8.61 7.61 4.026 13.116 5.422c5.507 1.396 12.116 2.487 19.584 3.285 7.468.797 15.786 1.26 24.453 1.106s16.959-.693 24.155-1.443 13.274-1.645 18.009-2.906c1.802-.48 3.411-1.025 4.845-1.65 2.897-1.261 2.298-6.045-.186-4.349-2.3 1.572-5.38 2.674-9.264 3.54-4.733 1.055-10.66 1.825-17.348 2.441s-14.107 1.005-21.512 1.11a194 194 0 0 1-20.695-.815c-6.284-.59-11.845-1.402-16.518-2.472-4.672-1.07-8.485-2.422-11.25-4.282s-4.516-4.245-4.55-7.225c-.036-2.98 1.664-5.08 4.35-6.379s6.383-1.778 10.905-1.67c4.522.11 9.898.82 16.121 1.525 6.224.705 13.33 1.353 21.046 1.144 7.716-.208 15.643-1.61 22.646-3.167 7.002-1.557 13.004-3.138 17.617-3.78q.865-.123 1.67-.2c1.376-.133 2.623-.191 3.736-.092 1.283.115 2.726-3.151-.764-2.92-.566.037-1.716.5-1.76.103" style="color:#000;clip-rule:nonzero;display:inline;overflow:visible;opacity:1;isolation:auto;mix-blend-mode:normal;color-interpolation:sRGB;color-interpolation-filters:linearRGB;solid-color:#000;solid-opacity:1;fill:#394655;fill-opacity:1;fill-rule:nonzero;stroke:none;stroke-width:10;stroke-linecap:butt;stroke-linejoin:miter;stroke-miterlimit:4;stroke-dasharray:none;stroke-dashoffset:0;stroke-opacity:1;color-rendering:auto;image-rendering:auto;shape-rendering:auto;text-rendering:auto" transform="matrix(-.00294 -.50024 -.68664 .08404 744.588 446.38)"/></g></svg>