<svg xmlns="http://www.w3.org/2000/svg" width="508.083" height="758.648" viewBox="0 0 476.328 711.233"><g style="display:inline"><g style="display:inline"><g style="display:inline;opacity:1"><path d="M423.503 581.835c-.004 4.4-1.198 7.589-3.375 9.829s-5.331 3.551-9.146 4.443c-3.815.89-8.283 1.395-13.057 1.838s-9.851.79-14.95 1.1c-5.098.308-9.945.347-14.402.085-4.457-.26-8.524-.799-11.993-1.712s-6.337-2.213-8.356-4.092c-2.019-1.88-3.187-4.345-3.255-7.511-.067-3.166.999-5.486 2.926-7.084s4.712-2.464 8.1-2.847 7.372-.283 11.77-.16 9.21.234 14.332-.122c5.12-.357 10.271-1.474 15.16-2.541 4.888-1.068 9.504-2.052 13.438-2.272s7.178.324 9.398 2.046c2.221 1.723 3.415 4.6 3.41 9" style="color:#000;clip-rule:nonzero;display:inline;overflow:visible;opacity:1;isolation:auto;mix-blend-mode:normal;color-interpolation:sRGB;color-interpolation-filters:linearRGB;solid-color:#000;solid-opacity:1;fill:#e1d6b9;fill-opacity:1;fill-rule:nonzero;stroke:none;stroke-width:10;stroke-linecap:butt;stroke-linejoin:miter;stroke-miterlimit:4;stroke-dasharray:none;stroke-dashoffset:0;stroke-opacity:1;color-rendering:auto;image-rendering:auto;shape-rendering:auto;text-rendering:auto" transform="matrix(-.00794 -.8649 1.18926 .12741 -358.577 909.254)"/><path d="M411.914 568.549c-3.75-.027-8.087.54-12.762 1.287-5.342.854-11.107 1.92-17.01 2.326-5.902.406-11.41.383-16.447.414s-9.604.16-13.508.86c-3.903.698-7.135 1.967-9.408 3.968s-3.585 4.717-3.652 8.176 1.218 6.307 3.543 8.58 5.688 3.98 9.762 5.25c4.073 1.27 8.852 2.12 14.056 2.598 5.205.479 10.834.561 16.703.222 5.87-.338 11.472-.786 16.606-1.35 5.134-.562 9.793-1.223 13.707-2.343a27.6 27.6 0 0 0 4.127-1.52c2.545-1.193 2.05-6.172-.1-4.54-1.991 1.511-4.143 1.681-7.157 2.35-3.673.815-8.181.991-12.55 1.343s-8.78 1.784-13.313 2.077c-4.535.293-8.868.328-12.932.07-4.064-.257-7.857-.78-11.125-1.642-3.268-.863-5.997-2.08-7.885-3.814s-2.925-3.988-2.978-6.801.901-4.82 2.669-6.106c1.767-1.286 5.617-.585 8.691-.714 3.075-.13 6.907-.545 10.788-.417 3.882.127 6.546-.481 11.049-1.214s9.152-2.344 13.887-3.721 9.225-2.343 13.009-2.554q.71-.04 1.388-.045c1.16-.007 2.25.044 3.25.236 1.153.222 2.316-2.861-.838-2.927-.511-.011-1.034-.045-1.57-.05" style="color:#000;clip-rule:nonzero;display:inline;overflow:visible;opacity:1;isolation:auto;mix-blend-mode:normal;color-interpolation:sRGB;color-interpolation-filters:linearRGB;solid-color:#000;solid-opacity:1;fill:#394655;fill-opacity:1;fill-rule:nonzero;stroke:none;stroke-width:10;stroke-linecap:butt;stroke-linejoin:miter;stroke-miterlimit:4;stroke-dasharray:none;stroke-dashoffset:0;stroke-opacity:1;color-rendering:auto;image-rendering:auto;shape-rendering:auto;text-rendering:auto" transform="matrix(-.00794 -.8649 1.18926 .12741 -358.577 909.254)"/></g><g style="display:inline;opacity:1"><path d="M423.503 581.835c-.004 4.4-1.198 7.589-3.375 9.829s-5.331 3.551-9.146 4.443c-3.815.89-8.283 1.395-13.057 1.838s-9.851.79-14.95 1.1c-5.098.308-9.945.347-14.402.085-4.457-.26-8.524-.799-11.993-1.712s-6.337-2.213-8.356-4.092c-2.019-1.88-3.187-4.345-3.255-7.511-.067-3.166.999-5.486 2.926-7.084s4.712-2.464 8.1-2.847 7.372-.283 11.77-.16 9.21.234 14.332-.122c5.12-.357 10.271-1.474 15.16-2.541 4.888-1.068 9.504-2.052 13.438-2.272s7.178.324 9.398 2.046c2.221 1.723 3.415 4.6 3.41 9" style="color:#000;clip-rule:nonzero;display:inline;overflow:visible;opacity:1;isolation:auto;mix-blend-mode:normal;color-interpolation:sRGB;color-interpolation-filters:linearRGB;solid-color:#000;solid-opacity:1;fill:#e1d6b9;fill-opacity:1;fill-rule:nonzero;stroke:none;stroke-width:10;stroke-linecap:butt;stroke-linejoin:miter;stroke-miterlimit:4;stroke-dasharray:none;stroke-dashoffset:0;stroke-opacity:1;color-rendering:auto;image-rendering:auto;shape-rendering:auto;text-rendering:auto" transform="matrix(.00794 -.8649 -1.18926 .12741 855.278 912.066)"/><path d="M411.914 568.549c-3.75-.027-8.087.54-12.762 1.287-5.342.854-11.107 1.92-17.01 2.326-5.902.406-11.41.383-16.447.414s-9.604.16-13.508.86c-3.903.698-7.135 1.967-9.408 3.968s-3.585 4.717-3.652 8.176 1.218 6.307 3.543 8.58 5.688 3.98 9.762 5.25c4.073 1.27 8.852 2.12 14.056 2.598 5.205.479 10.834.561 16.703.222 5.87-.338 11.472-.786 16.606-1.35 5.134-.562 9.793-1.223 13.707-2.343a27.6 27.6 0 0 0 4.127-1.52c2.545-1.193 2.05-6.172-.1-4.54-1.991 1.511-4.143 1.681-7.157 2.35-3.673.815-8.181.991-12.55 1.343s-8.78 1.784-13.313 2.077c-4.535.293-8.868.328-12.932.07-4.064-.257-7.857-.78-11.125-1.642-3.268-.863-5.997-2.08-7.885-3.814s-2.925-3.988-2.978-6.801.901-4.82 2.669-6.106c1.767-1.286 5.617-.585 8.691-.714 3.075-.13 6.907-.545 10.788-.417 3.882.127 6.546-.481 11.049-1.214s9.152-2.344 13.887-3.721 9.225-2.343 13.009-2.554q.71-.04 1.388-.045c1.16-.007 2.25.044 3.25.236 1.153.222 2.316-2.861-.838-2.927-.511-.011-1.034-.045-1.57-.05" style="color:#000;clip-rule:nonzero;display:inline;overflow:visible;opacity:1;isolation:auto;mix-blend-mode:normal;color-interpolation:sRGB;color-interpolation-filters:linearRGB;solid-color:#000;solid-opacity:1;fill:#394655;fill-opacity:1;fill-rule:nonzero;stroke:none;stroke-width:10;stroke-linecap:butt;stroke-linejoin:miter;stroke-miterlimit:4;stroke-dasharray:none;stroke-dashoffset:0;stroke-opacity:1;color-rendering:auto;image-rendering:auto;shape-rendering:auto;text-rendering:auto" transform="matrix(.00794 -.8649 -1.18926 .12741 855.278 912.066)"/></g></g><g style="display:inline"><path d="M516.641 550.682c17.459 85.79 26.616 137.493-8.447 197.824-27.307 46.988-63.517 25.52-115.526 30.213-52.008 4.692-138.926 40.329-179.452-1.622-51.684-53.5-74.127-124.968-45.642-214.26 22.128-69.363-32.354-134.367 1.936-183.014s88.732-79.276 153.655-83.7c64.924-4.425 126.728 18.244 172.47 63.304s6.692 120.92 21.006 191.255" style="color:#000;clip-rule:nonzero;display:inline;overflow:visible;opacity:1;isolation:auto;mix-blend-mode:normal;color-interpolation:sRGB;color-interpolation-filters:linearRGB;solid-color:#000;solid-opacity:1;fill:#394655;fill-opacity:1;fill-rule:nonzero;stroke:none;stroke-width:10;stroke-linecap:round;stroke-linejoin:miter;stroke-miterlimit:4;stroke-dasharray:none;stroke-dashoffset:0;stroke-opacity:1;color-rendering:auto;image-rendering:auto;shape-rendering:auto;text-rendering:auto" transform="translate(-96.482 -151.386)"/><path d="M511.122 553.997c22.91 88.09 14.612 149.96-17.71 199.19-32.321 49.23-53.833 13.244-103.075 17.625s-130.605 37.033-170.72-2.606c-40.114-39.639-69.68-128.697-47.222-202.607 20.105-66.169-27.709-136.036 4.92-182.538 32.63-46.501 88.388-74.242 150.167-78.379s116.567 14.232 160.314 57.43 6.253 126.238 23.326 191.885" style="color:#000;clip-rule:nonzero;display:inline;overflow:visible;opacity:1;isolation:auto;mix-blend-mode:normal;color-interpolation:sRGB;color-interpolation-filters:linearRGB;solid-color:#000;solid-opacity:1;fill:#96d6ff;fill-opacity:1;fill-rule:nonzero;stroke:none;stroke-width:10;stroke-linecap:round;stroke-linejoin:miter;stroke-miterlimit:4;stroke-dasharray:none;stroke-dashoffset:0;stroke-opacity:1;color-rendering:auto;image-rendering:auto;shape-rendering:auto;text-rendering:auto" transform="translate(-96.482 -151.386)"/></g><g style="display:inline;opacity:.05899999"><path d="M154.055 241.623c-8.29-.195-16.639 2.559-22.201 8.922-7.988 8.436-8.213 21.658-3.256 31.678 2.55 6.165 8.616 11.274 15.595 10.593 7.886.226 16.654-.078 23.977.23-12.134 13.439-24.843 27.789-28.781 46.015-2.92 11.233-1.735 22.96-1.752 34.43 1.214 18.786 5.453 37.211 8.078 55.823 3.055 19.164 5.165 38.791 3.238 58.13.895 3.307 5.423 3.368 7.951 5.156 21.893 10.089 43.926 20.222 66.444 28.982-1.3-16.664-11.716-32.956-15.458-46.678-8.485-31.112-14.85-84.146-14.143-111.723.706-27.563 28.26-78.468 50.877-93.314-5.257-1.463-19.566-2.672-24.425-5.316-2.996-1.24-5.282-4.556-8.531-4.608-4.34 2.67-9.044 5.015-12.91 8.37-10.717-8.8-20.636-19.344-33.703-24.657a35.3 35.3 0 0 0-11-2.033" style="opacity:1;fill:#000;fill-opacity:1;stroke:none;stroke-width:5;stroke-linecap:round;stroke-linejoin:round;stroke-miterlimit:4;stroke-dasharray:none;stroke-opacity:1" transform="translate(-61.024 -64.885)scale(.9375)"/><path d="M221.083 380.032c15-1.406 61.033 4.345 101.016-2.11 45.076-7.276 64.565-21.858 70.312-26.718 23.56-19.923 27.422-35.86 27.422-35.86l-123.75-15.937-40.312 21.563-28.125 32.343z" style="display:inline;opacity:1;fill:#000;fill-opacity:.98897059;stroke:none;stroke-width:4.6875;stroke-linecap:round;stroke-linejoin:round;stroke-miterlimit:4;stroke-dasharray:none;stroke-opacity:1" transform="translate(-96.482 -151.386)"/><path d="M232.781 545.83c7.012 30.178 66.21 38.547 72.715 43.651 8.539-3.83 91.649-32.3 134.257-51.202 20.156-8.942 66.754-16.726 66.754-16.726l1.186 12.218-203.203 69.375-80.625-26.953z" style="display:inline;opacity:1;fill:#000;fill-opacity:1;stroke:none;stroke-width:4.6875;stroke-linecap:round;stroke-miterlimit:4;stroke-dasharray:none;stroke-opacity:1" transform="translate(-96.482 -151.386)"/></g><g style="display:inline"><path d="M168.772 550.285c-32.478 55.004.978 137.965-15.758 247.722 130.993-2.119 328.165 16.615 388.73-9.234-15.233-79.731 14.073-188.078-20.151-255.06-108.497 11.123-157.195 73.846-223.51 69.755-67.746-4.18-84.466-36.036-129.31-53.183z" style="display:inline;opacity:1;fill:#468aa9;fill-opacity:1;stroke:#1d4455;stroke-width:4.6875;stroke-linecap:round;stroke-miterlimit:4;stroke-dasharray:none;stroke-opacity:1" transform="translate(-96.482 -151.386)"/><path d="M515.814 478.072a3 3 0 0 0-.47.04c-33.42 4.006-66.311 12.776-97.051 26.564-28.84 12.173-56.205 27.63-85.44 38.623-21.326 8.08-44.423 10.94-66.968 7.447-23.15-2.569-45.438-10.772-65.375-22.758-18.714-10.562-36.091-23.964-56.346-31.504-4.257.954-4.874 6.629-6.834 9.897-5.289 12.624-7.236 26.762-8.418 40.322l-.935 31.649 4.029 82.13.93 52.363 49.32 7.778c-10.535-42.757-34.022-60.244-26.2-154.518 34.334 13.452 45.114 24.474 85.839 32.543-6.304 52.61-3.8 89.09-2.42 131.65l-109.2-9.896c-.686 11.557-1.847 23.073-3.658 34.487.93 4.215 6.632 2.407 9.733 2.947 70.8.146 141.553 3.275 212.33 4.603 39.206-.181 78.445.55 117.625-1.107 22.231-1.877 44.717-3.873 66.215-10.133 3.116-.855 7.416-3.083 5.835-7.037-1.274-8.357-2.18-16.734-2.814-25.127l-217.344 21.033-2.828-132.228c11.785 17.825 157.238-49.785 219.488-62.182-1.702-21.777-5.616-43.287-14.7-63.31-.955-1.727-2.07-4.293-4.343-4.276" style="display:inline;opacity:1;fill:#000;fill-opacity:.13602941;stroke:none;stroke-width:5;stroke-linecap:round;stroke-linejoin:round;stroke-miterlimit:4;stroke-dasharray:none;stroke-opacity:1" transform="translate(-61.024 -64.885)scale(.9375)"/><path d="M332.934 615.771c1.202 33.548 2.778 67.05 2.53 100.627.399 2.356-1.094 5.848 1.5 7.198 23.152-.228 46.327-.56 69.468-1.582-17.861-10.008-33.754-27.666-41.211-34.271-8.277-7.33-22.368-40.02-32.287-71.972" style="opacity:1;fill:#000;fill-opacity:.13602941;stroke:none;stroke-width:5;stroke-linecap:round;stroke-linejoin:round;stroke-miterlimit:4;stroke-dasharray:none;stroke-opacity:1" transform="translate(-61.024 -64.885)scale(.9375)"/><path d="M166.912 664.572c2.813 3.867 4.102 5.39 9.375 3.281 5.274-2.11 7.383-3.164 7.383-3.164s14.609 16.259 22.148 17.461c11.169 1.781 14.649-7.617 14.649-7.617s-30.938-39.375-33.047-39.023c-2.11.351-20.508 29.062-20.508 29.062" style="opacity:1;fill:#3d7892;fill-opacity:1;stroke:none;stroke-width:4.6875;stroke-linecap:round;stroke-miterlimit:4;stroke-dasharray:none;stroke-opacity:1" transform="translate(-96.482 -151.386)"/></g><g style="display:inline"><path d="M141.778 758.132c-6.612 10.63-7.665 26.955-.95 37.52 2.944 4.633 9.787 5.197 15.091 6.64 28.537 7.766 80.014 13.45 86.135 13.674 79.237 2.9 187.56-.516 204.835-2.504 17.274-1.99 71.756-14.584 81.057-18.562 9.302-3.977 19.416-4.948 22.59-12.595 2.173-5.233 4.16-27.692-1.328-39.775-2.005-4.414-7.309-10.607-10.631-9.944s-24.08 20.614-75.743 27.843c-52.516 7.348-205.194 5.752-233.871.663-29.049-5.155-69.682-10.072-73.669-10.072s-10.83 2.794-13.516 7.112" style="display:inline;opacity:1;fill:#468aa9;fill-opacity:1;stroke:#1d4455;stroke-width:4.68749952;stroke-linecap:round;stroke-linejoin:round;stroke-miterlimit:4;stroke-dasharray:none;stroke-opacity:1" transform="translate(-96.482 -151.386)"/><path d="m275.693 766.985-9.844-2.344c1.062 18.934 5.184 34.47 12.255 50.029l22.578-.11z" style="opacity:1;fill:#000;fill-opacity:.13602941;stroke:none;stroke-width:4.6875;stroke-linecap:round;stroke-linejoin:round;stroke-miterlimit:4;stroke-dasharray:none;stroke-opacity:1" transform="translate(-96.482 -151.386)"/><path d="M275.681 616.08c-.779 0-19.003 128.29 5.386 188.1 1.84 4.51 8.958 17.38 8.958 17.38 16.297 1.365 32.373.733 48.36-.703 0 0 8.344-14.333 8.974-19.99 6.122-55.016-3.622-175.124-1.658-178.987 1.202-2.364-37.786-24.528-37.786-24.528l-19.224 2.652z" style="display:inline;opacity:1;fill:#468aa9;fill-opacity:1;stroke:#1d4455;stroke-width:4.6875;stroke-linecap:round;stroke-linejoin:round;stroke-miterlimit:4;stroke-dasharray:none;stroke-opacity:1" transform="translate(-96.482 -151.386)"/><path d="m274.462 643.06 12.832 2.628s7.172-25.848 9.838-29.956c.586-.469 8.156-4.566 11.256-4.146.117.586 10.245 18.773 13.531 26.953 2.063 5.136 4.019 11.281 5.365 11.74 2.503.855 16.675-2.088 16.675-2.088l-.585-9.492s-26.314-30.034-26.431-30.737-11.72-10.078-11.72-10.078l-13.007 9.023-17.453 33.051z" style="opacity:1;fill:#000;fill-opacity:.13602941;stroke:none;stroke-width:4.6875;stroke-linecap:round;stroke-linejoin:round;stroke-miterlimit:4;stroke-dasharray:none;stroke-opacity:1" transform="translate(-96.482 -151.386)"/><path d="M161.552 539.407c-8.558 11.13-16.258 26.398-17.344 45 41.92 8.486 93.664 46.645 142.969 56.719 6.833-20.869 16.374-32.713 25.781-45-53.644-9.343-104.85-35.563-151.406-56.719" style="display:inline;opacity:1;fill:#468aa9;fill-opacity:1;stroke:#1d4455;stroke-width:4.6875;stroke-linecap:round;stroke-linejoin:round;stroke-miterlimit:4;stroke-dasharray:none;stroke-opacity:1" transform="translate(-96.482 -151.386)"/><path d="M519.845 525.26c16.242 12.667 26.017 31.538 27.488 52.712-56.825 9.66-148.295 53.563-215.13 65.029-6.512-16.97-13.095-31.691-29.089-47.94 72.718-10.635 141.902-65.409 216.731-69.802" style="display:inline;opacity:1;fill:#468aa9;fill-opacity:1;stroke:#1d4455;stroke-width:4.6875;stroke-linecap:round;stroke-linejoin:round;stroke-miterlimit:4;stroke-dasharray:none;stroke-opacity:1" transform="translate(-96.482 -151.386)"/><path d="M155.523 752.716c-6.206.207-12.174 4.13-14.474 9.83-4.092 9.031-4.743 19.788-.954 29.02 1.36 3.344 3.878 6.43 7.608 7.29 26.321 7.327 53.51 11.096 80.635 14.247 12.222 1.35 24.538 1.744 36.828 1.971-37.418-11.51-103.163-24.68-108.353-62.347q-.645-.024-1.29-.01" style="opacity:1;fill:#000;fill-opacity:.13602941;stroke:none;stroke-width:4.59070826;stroke-linecap:round;stroke-linejoin:round;stroke-miterlimit:4;stroke-dasharray:none;stroke-opacity:1" transform="translate(-96.482 -151.386)"/><path d="M350.739 768.119c-.544 1.366-.264 3.318-.477 4.69-.178 9.91-.663 19.907-2.132 29.746-1.062 3.964-3.292 7.426-4.727 11.195-.129 2.65 3.31 1.936 5.085 1.94 31.572-.776 63.189-.903 94.701-3.135 14.426-1.272 28.543-4.673 42.679-7.625 13.763-3.177 27.638-6.105 41.048-10.546 6.38-2.645 13.527-3.866 19.203-7.932a10 10 0 0 0 2.203-2.442c-52.629 9.694-189.481 17.052-197.583-15.891" style="opacity:1;fill:#000;fill-opacity:.13602941;stroke:none;stroke-width:4.60873985;stroke-linecap:round;stroke-linejoin:round;stroke-miterlimit:4;stroke-dasharray:none;stroke-opacity:1" transform="translate(-96.482 -151.386)"/><path d="M254.622 593.673c-.486 2.473-.216 4.04-.765 6.2-1.916 21.188-3.762 41.55-3.682 62.836-.304 26.242.81 52.064 6.1 77.838 2.506 11.764 5.663 22.507 11.573 33.053 1.763 2.907 2.498 6.586 5.023 8.921 9.382.145 18.364.638 27.77.475-20.37-34.714-41.616-108.963-40.256-188.42-1.907-.399-3.82-.756-5.763-.903M135.533 484.441q-.226-.012-.463.026c-2.545 1.264-3.55 4.332-5.234 6.486-6.957 11.013-11.575 23.609-12.87 36.594-.459 2.436 1.879 3.898 4.014 4.078 24.665 6.33 47.258 18.428 70.13 29.277 3.941 1.869 7.889 3.75 11.843 5.623-22.433-18.643-48.075-46.78-58.646-78.236-1.947-.893-3.894-1.794-5.842-2.682-.985-.337-1.877-1.115-2.932-1.166m165.899 55.657c-3.587.793-7.18 1.566-10.764 2.38-2.214.837-1.381 3.424.002 4.612 11.026 12.145 18.683 26.586 24.652 41.742.674 1.79 1.708 4.443 4.153 3.63 37.74-7.238 73.958-20.253 110.138-32.97-17.598.988-37.398.643-58.029-2.564-34.715-5.396-56.383-11.063-70.152-16.83" style="opacity:1;fill:#000;fill-opacity:.13602941;stroke:none;stroke-width:5;stroke-linecap:round;stroke-linejoin:round;stroke-miterlimit:4;stroke-dasharray:none;stroke-opacity:1" transform="translate(-61.024 -64.885)scale(.9375)"/></g><g style="display:inline"><path d="M525.529 559.619a6.608 5.283 70.603 0 0-1.412.243 6.608 5.283 70.603 0 0-2.788 7.987 6.608 5.283 70.603 0 0 7.177 4.479 6.608 5.283 70.603 0 0 2.789-7.987 6.608 5.283 70.603 0 0-5.766-4.722m-14.251 4.31a6.608 5.283 70.603 0 0-1.414.242 6.608 5.283 70.603 0 0-2.788 7.987 6.608 5.283 70.603 0 0 7.177 4.478 6.608 5.283 70.603 0 0 2.79-7.987 6.608 5.283 70.603 0 0-5.765-4.72m-14.334 2.708a6.608 5.283 70.603 0 0-1.413.242 6.608 5.283 70.603 0 0-2.787 7.987 6.608 5.283 70.603 0 0 7.176 4.479 6.608 5.283 70.603 0 0 2.789-7.988 6.608 5.283 70.603 0 0-5.765-4.72m-339.823.663a5.283 6.608 19.397 0 0-5.764 4.72 5.283 6.608 19.397 0 0 2.788 7.987 5.283 6.608 19.397 0 0 7.178-4.478 5.283 6.608 19.397 0 0-2.789-7.987 5.283 6.608 19.397 0 0-1.413-.242m325.845 4.034a6.608 5.283 70.603 0 0-1.413.241 6.608 5.283 70.603 0 0-2.787 7.99 6.608 5.283 70.603 0 0 7.177 4.478 6.608 5.283 70.603 0 0 2.787-7.989 6.608 5.283 70.603 0 0-5.764-4.72m-311.924.606a5.283 6.608 19.397 0 0-5.764 4.72 5.283 6.608 19.397 0 0 2.789 7.99 5.283 6.608 19.397 0 0 7.176-4.48 5.283 6.608 19.397 0 0-2.787-7.989 5.283 6.608 19.397 0 0-1.414-.241m13.373 2.547a5.283 6.608 19.397 0 0-5.765 4.722 5.283 6.608 19.397 0 0 2.787 7.987 5.283 6.608 19.397 0 0 7.178-4.479 5.283 6.608 19.397 0 0-2.787-7.987 5.283 6.608 19.397 0 0-1.413-.243m283.304 1.018a6.608 5.283 70.603 0 0-1.414.243 6.608 5.283 70.603 0 0-2.786 7.987 6.608 5.283 70.603 0 0 7.177 4.48 6.608 5.283 70.603 0 0 2.787-7.988 6.608 5.283 70.603 0 0-5.764-4.722m-16.848 5.03a6.608 5.283 70.603 0 0-1.413.241 6.608 5.283 70.603 0 0-2.787 7.987 6.608 5.283 70.603 0 0 7.178 4.48 6.608 5.283 70.603 0 0 2.787-7.988 6.608 5.283 70.603 0 0-5.765-4.72m-251.565.364a5.283 6.608 19.397 0 0-5.764 4.72 5.283 6.608 19.397 0 0 2.787 7.99 5.283 6.608 19.397 0 0 7.178-4.48 5.283 6.608 19.397 0 0-2.787-7.988 5.283 6.608 19.397 0 0-1.414-.242m13.594 6.094a5.283 6.608 19.397 0 0-5.764 4.72 5.283 6.608 19.397 0 0 2.787 7.99 5.283 6.608 19.397 0 0 7.178-4.48 5.283 6.608 19.397 0 0-2.787-7.988 5.283 6.608 19.397 0 0-1.414-.242m221.924 1.164a6.608 5.283 70.603 0 0-1.412.242 6.608 5.283 70.603 0 0-2.788 7.989 6.608 5.283 70.603 0 0 7.177 4.479 6.608 5.283 70.603 0 0 2.787-7.99 6.608 5.283 70.603 0 0-5.764-4.72m-12.378 7.922a6.608 5.283 70.603 0 0-1.412.243 6.608 5.283 70.603 0 0-2.788 7.987 6.608 5.283 70.603 0 0 7.177 4.479 6.608 5.283 70.603 0 0 2.79-7.987 6.608 5.283 70.603 0 0-5.767-4.722m-196.05.72a5.283 6.608 19.397 0 0-5.765 4.721 5.283 6.608 19.397 0 0 2.789 7.987 5.283 6.608 19.397 0 0 7.177-4.478 5.283 6.608 19.397 0 0-2.788-7.987 5.283 6.608 19.397 0 0-1.414-.242m180.471 4.584a6.608 5.283 70.603 0 0-1.411.242 6.608 5.283 70.603 0 0-2.789 7.987 6.608 5.283 70.603 0 0 7.178 4.479 6.608 5.283 70.603 0 0 2.788-7.987 6.608 5.283 70.603 0 0-5.766-4.72m-69.605 1.989a6.608 5.283 70.603 0 0-1.412.241 6.608 5.283 70.603 0 0-2.789 7.987 6.608 5.283 70.603 0 0 7.178 4.48 6.608 5.283 70.603 0 0 2.789-7.988 6.608 5.283 70.603 0 0-5.766-4.72m-59.823 1.05a5.283 6.608 19.397 0 0-5.764 4.721 5.283 6.608 19.397 0 0 2.789 7.989 5.283 6.608 19.397 0 0 7.178-4.479 5.283 6.608 19.397 0 0-2.789-7.989 5.283 6.608 19.397 0 0-1.414-.241m-24.195 1.658a5.283 6.608 19.397 0 0-5.764 4.72 5.283 6.608 19.397 0 0 2.787 7.99 5.283 6.608 19.397 0 0 7.177-4.48 5.283 6.608 19.397 0 0-2.787-7.989 5.283 6.608 19.397 0 0-1.413-.241m134.068 1.6a6.608 5.283 70.603 0 0-1.412.242 6.608 5.283 70.603 0 0-2.789 7.989 6.608 5.283 70.603 0 0 7.178 4.478 6.608 5.283 70.603 0 0 2.789-7.988 6.608 5.283 70.603 0 0-5.766-4.72m-22.87 2.983a6.608 5.283 70.603 0 0-1.414.243 6.608 5.283 70.603 0 0-2.786 7.987 6.608 5.283 70.603 0 0 7.177 4.48 6.608 5.283 70.603 0 0 2.787-7.988 6.608 5.283 70.603 0 0-5.764-4.722m-61.664 50.293a13.196 13.196 0 0 0-13.195 13.197 13.196 13.196 0 0 0 13.195 13.196 13.196 13.196 0 0 0 13.196-13.196 13.196 13.196 0 0 0-13.196-13.197m-2.333 51.05a13.196 13.196 0 0 0-13.195 13.197 13.196 13.196 0 0 0 13.195 13.196 13.196 13.196 0 0 0 13.196-13.196 13.196 13.196 0 0 0-13.196-13.197m234.4 44.987a9.319 7.45 89.054 0 0-7.295 9.441 9.319 7.45 89.054 0 0 7.603 9.194 9.319 7.45 89.054 0 0 7.295-9.44 9.319 7.45 89.054 0 0-7.603-9.195m-226.662 7.381a13.196 13.196 0 0 0-13.195 13.195 13.196 13.196 0 0 0 13.195 13.196 13.196 13.196 0 0 0 13.196-13.196 13.196 13.196 0 0 0-13.196-13.195m207.444 2.463a9.319 7.45 89.054 0 0-7.295 9.44 9.319 7.45 89.054 0 0 7.602 9.195 9.319 7.45 89.054 0 0 7.295-9.441 9.319 7.45 89.054 0 0-7.602-9.194m-363.911 2.578a7.45 9.319.946 0 0-7.603 9.194 7.45 9.319.946 0 0 7.295 9.44 7.45 9.319.946 0 0 7.602-9.193 7.45 9.319.946 0 0-7.294-9.44m340.004 5.39a9.319 7.45 89.054 0 0-7.295 9.442 9.319 7.45 89.054 0 0 7.603 9.194 9.319 7.45 89.054 0 0 7.295-9.441 9.319 7.45 89.054 0 0-7.603-9.194m-317.973.938a7.45 9.319.946 0 0-7.603 9.194 7.45 9.319.946 0 0 7.295 9.441 7.45 9.319.946 0 0 7.603-9.194 7.45 9.319.946 0 0-7.295-9.44m26.719 3.282a7.45 9.319.946 0 0-7.603 9.193 7.45 9.319.946 0 0 7.295 9.441 7.45 9.319.946 0 0 7.602-9.193 7.45 9.319.946 0 0-7.294-9.441m260.786.937a9.319 7.45 89.054 0 0-7.295 9.44 9.319 7.45 89.054 0 0 7.602 9.195 9.319 7.45 89.054 0 0 7.295-9.441 9.319 7.45 89.054 0 0-7.602-9.194m-229.849 3.281a7.45 9.319.946 0 0-7.603 9.194 7.45 9.319.946 0 0 7.295 9.441 7.45 9.319.946 0 0 7.603-9.194 7.45 9.319.946 0 0-7.295-9.44m194.224.47a9.319 7.45 89.054 0 0-7.295 9.438 9.319 7.45 89.054 0 0 7.602 9.196 9.319 7.45 89.054 0 0 7.295-9.441 9.319 7.45 89.054 0 0-7.602-9.194m-165.865.702a7.45 9.319.946 0 0-7.602 9.194 7.45 9.319.946 0 0 7.295 9.44 7.45 9.319.946 0 0 7.602-9.193 7.45 9.319.946 0 0-7.295-9.44m132.583.703a9.319 7.45 89.054 0 0-7.295 9.44 9.319 7.45 89.054 0 0 7.603 9.195 9.319 7.45 89.054 0 0 7.295-9.44 9.319 7.45 89.054 0 0-7.603-9.195m-31.875.47a9.319 7.45 89.054 0 0-7.295 9.44 9.319 7.45 89.054 0 0 7.603 9.194 9.319 7.45 89.054 0 0 7.295-9.441 9.319 7.45 89.054 0 0-7.603-9.194" style="display:inline;opacity:1;fill:#5d5e00;fill-opacity:.5;stroke:none;stroke-width:4.6875;stroke-linecap:round;stroke-linejoin:round;stroke-miterlimit:4;stroke-dasharray:none;stroke-opacity:1" transform="translate(-96.482 -151.386)"/><path d="M524.742 503.408a7.049 5.635 70.603 0 0-1.506.26 7.049 5.635 70.603 0 0-2.974 8.52 7.049 5.635 70.603 0 0 7.656 4.777 7.049 5.635 70.603 0 0 2.975-8.52 7.049 5.635 70.603 0 0-6.15-5.037m-15.201 4.598a7.049 5.635 70.603 0 0-1.508.258 7.049 5.635 70.603 0 0-2.974 8.52 7.049 5.635 70.603 0 0 7.656 4.777 7.049 5.635 70.603 0 0 2.974-8.52 7.049 5.635 70.603 0 0-6.148-5.035m-15.289 2.889a7.049 5.635 70.603 0 0-1.508.257 7.049 5.635 70.603 0 0-2.973 8.52 7.049 5.635 70.603 0 0 7.655 4.777 7.049 5.635 70.603 0 0 2.974-8.52 7.049 5.635 70.603 0 0-6.148-5.034m-362.479.707a5.635 7.049 19.397 0 0-6.148 5.035 5.635 7.049 19.397 0 0 2.975 8.52 5.635 7.049 19.397 0 0 7.656-4.778 5.635 7.049 19.397 0 0-2.975-8.52 5.635 7.049 19.397 0 0-1.508-.257m347.569 4.302a7.049 5.635 70.603 0 0-1.508.258 7.049 5.635 70.603 0 0-2.973 8.522 7.049 5.635 70.603 0 0 7.657 4.777 7.049 5.635 70.603 0 0 2.972-8.522 7.049 5.635 70.603 0 0-6.148-5.035m-332.719.647a5.635 7.049 19.397 0 0-6.148 5.035 5.635 7.049 19.397 0 0 2.974 8.521 5.635 7.049 19.397 0 0 7.655-4.777 5.635 7.049 19.397 0 0-2.973-8.521 5.635 7.049 19.397 0 0-1.508-.258m14.264 2.717a5.635 7.049 19.397 0 0-6.149 5.037 5.635 7.049 19.397 0 0 2.973 8.52 5.635 7.049 19.397 0 0 7.656-4.778 5.635 7.049 19.397 0 0-2.972-8.52 5.635 7.049 19.397 0 0-1.508-.26m302.191 1.086a7.049 5.635 70.603 0 0-1.508.26 7.049 5.635 70.603 0 0-2.972 8.519 7.049 5.635 70.603 0 0 7.656 4.777 7.049 5.635 70.603 0 0 2.973-8.52 7.049 5.635 70.603 0 0-6.149-5.036m-17.97 5.365a7.049 5.635 70.603 0 0-1.508.258 7.049 5.635 70.603 0 0-2.973 8.52 7.049 5.635 70.603 0 0 7.656 4.776 7.049 5.635 70.603 0 0 2.973-8.52 7.049 5.635 70.603 0 0-6.149-5.034m-268.337.388a5.635 7.049 19.397 0 0-6.148 5.036 5.635 7.049 19.397 0 0 2.973 8.521 5.635 7.049 19.397 0 0 7.656-4.777 5.635 7.049 19.397 0 0-2.973-8.522 5.635 7.049 19.397 0 0-1.508-.258m14.5 6.5a5.635 7.049 19.397 0 0-6.148 5.036 5.635 7.049 19.397 0 0 2.973 8.521 5.635 7.049 19.397 0 0 7.656-4.777 5.635 7.049 19.397 0 0-2.973-8.522 5.635 7.049 19.397 0 0-1.508-.258m236.72 1.243a7.049 5.635 70.603 0 0-1.507.257 7.049 5.635 70.603 0 0-2.974 8.522 7.049 5.635 70.603 0 0 7.656 4.777 7.049 5.635 70.603 0 0 2.973-8.521 7.049 5.635 70.603 0 0-6.149-5.035m-13.204 8.449a7.049 5.635 70.603 0 0-1.506.26 7.049 5.635 70.603 0 0-2.974 8.52 7.049 5.635 70.603 0 0 7.656 4.776 7.049 5.635 70.603 0 0 2.974-8.52 7.049 5.635 70.603 0 0-6.15-5.036m-209.121.77a5.635 7.049 19.397 0 0-6.148 5.035 5.635 7.049 19.397 0 0 2.974 8.52 5.635 7.049 19.397 0 0 7.656-4.778 5.635 7.049 19.397 0 0-2.974-8.52 5.635 7.049 19.397 0 0-1.508-.258m192.504 4.888a7.049 5.635 70.603 0 0-1.506.258 7.049 5.635 70.603 0 0-2.975 8.52 7.049 5.635 70.603 0 0 7.657 4.777 7.049 5.635 70.603 0 0 2.974-8.52 7.049 5.635 70.603 0 0-6.15-5.035m-74.246 2.121a7.049 5.635 70.603 0 0-1.506.258 7.049 5.635 70.603 0 0-2.975 8.52 7.049 5.635 70.603 0 0 7.657 4.777 7.049 5.635 70.603 0 0 2.974-8.52 7.049 5.635 70.603 0 0-6.15-5.035m-63.81 1.121a5.635 7.049 19.397 0 0-6.15 5.035 5.635 7.049 19.397 0 0 2.975 8.522 5.635 7.049 19.397 0 0 7.657-4.777 5.635 7.049 19.397 0 0-2.975-8.522 5.635 7.049 19.397 0 0-1.508-.258m-25.81 1.768a5.635 7.049 19.397 0 0-6.148 5.035 5.635 7.049 19.397 0 0 2.973 8.521 5.635 7.049 19.397 0 0 7.656-4.777 5.635 7.049 19.397 0 0-2.973-8.521 5.635 7.049 19.397 0 0-1.507-.258m143.007 1.707a7.049 5.635 70.603 0 0-1.506.258 7.049 5.635 70.603 0 0-2.975 8.521 7.049 5.635 70.603 0 0 7.656 4.777 7.049 5.635 70.603 0 0 2.975-8.521 7.049 5.635 70.603 0 0-6.15-5.035m-24.395 3.181a7.049 5.635 70.603 0 0-1.508.26 7.049 5.635 70.603 0 0-2.972 8.52 7.049 5.635 70.603 0 0 7.656 4.777 7.049 5.635 70.603 0 0 2.972-8.52 7.049 5.635 70.603 0 0-6.148-5.037M287.14 611.5a14.076 14.076 0 0 0-14.075 14.076 14.076 14.076 0 0 0 14.075 14.076 14.076 14.076 0 0 0 14.076-14.076A14.076 14.076 0 0 0 287.14 611.5m-2.489 54.453a14.076 14.076 0 0 0-14.074 14.076 14.076 14.076 0 0 0 14.074 14.076 14.076 14.076 0 0 0 14.077-14.076 14.076 14.076 0 0 0-14.077-14.076m250.028 47.986a9.94 7.946 89.054 0 0-7.782 10.07 9.94 7.946 89.054 0 0 8.11 9.807 9.94 7.946 89.054 0 0 7.781-10.07 9.94 7.946 89.054 0 0-8.11-9.807m-241.774 7.873a14.076 14.076 0 0 0-14.074 14.075 14.076 14.076 0 0 0 14.074 14.076 14.076 14.076 0 0 0 14.076-14.076 14.076 14.076 0 0 0-14.076-14.075m221.274 2.627a9.94 7.946 89.054 0 0-7.782 10.069 9.94 7.946 89.054 0 0 8.11 9.808 9.94 7.946 89.054 0 0 7.781-10.07 9.94 7.946 89.054 0 0-8.11-9.807m-388.172 2.75a7.946 9.94.946 0 0-8.11 9.807 7.946 9.94.946 0 0 7.782 10.07 7.946 9.94.946 0 0 8.11-9.806 7.946 9.94.946 0 0-7.782-10.07m362.672 5.75a9.94 7.946 89.054 0 0-7.782 10.07 9.94 7.946 89.054 0 0 8.11 9.807 9.94 7.946 89.054 0 0 7.781-10.07 9.94 7.946 89.054 0 0-8.11-9.807m-339.172 1a7.946 9.94.946 0 0-8.11 9.807 7.946 9.94.946 0 0 7.782 10.07 7.946 9.94.946 0 0 8.11-9.806 7.946 9.94.946 0 0-7.782-10.07m28.5 3.5a7.946 9.94.946 0 0-8.11 9.807 7.946 9.94.946 0 0 7.782 10.07 7.946 9.94.946 0 0 8.11-9.806 7.946 9.94.946 0 0-7.782-10.07m278.172 1a9.94 7.946 89.054 0 0-7.782 10.069 9.94 7.946 89.054 0 0 8.11 9.808 9.94 7.946 89.054 0 0 7.781-10.07 9.94 7.946 89.054 0 0-8.11-9.807m-245.172 3.5a7.946 9.94.946 0 0-8.11 9.807 7.946 9.94.946 0 0 7.782 10.07 7.946 9.94.946 0 0 8.11-9.806 7.946 9.94.946 0 0-7.782-10.07m207.172.5a9.94 7.946 89.054 0 0-7.782 10.069 9.94 7.946 89.054 0 0 8.11 9.808 9.94 7.946 89.054 0 0 7.781-10.07 9.94 7.946 89.054 0 0-8.11-9.807m-176.922.75a7.946 9.94.946 0 0-8.11 9.807 7.946 9.94.946 0 0 7.782 10.07 7.946 9.94.946 0 0 8.11-9.806 7.946 9.94.946 0 0-7.782-10.07m141.422.75a9.94 7.946 89.054 0 0-7.782 10.069 9.94 7.946 89.054 0 0 8.11 9.808 9.94 7.946 89.054 0 0 7.781-10.07 9.94 7.946 89.054 0 0-8.11-9.807m-34 .5a9.94 7.946 89.054 0 0-7.782 10.07 9.94 7.946 89.054 0 0 8.11 9.807 9.94 7.946 89.054 0 0 7.781-10.07 9.94 7.946 89.054 0 0-8.11-9.807" style="display:inline;opacity:1;fill:#feff00;fill-opacity:1;stroke:none;stroke-width:5;stroke-linecap:round;stroke-linejoin:round;stroke-miterlimit:4;stroke-dasharray:none;stroke-opacity:1" transform="translate(-61.024 -64.885)scale(.9375)"/></g><g style="display:inline"><path d="M1173.547-22.321c-6.148-9.22-12.002-17.492-23.055-18.282-4.787-.341-9.198 1.21-11.957 5.136-3.196 4.548-3.052 9.435-1.04 14.617 2.249 5.787 9.477 4.178 13.03 5.382 10.221 3.464 15.678.501 20.426-1.422 1.854-.75 4.476-2.612 2.596-5.431" style="fill:#394655;fill-rule:evenodd;stroke:none;stroke-width:1px;stroke-linecap:butt;stroke-linejoin:miter;stroke-opacity:1" transform="rotate(173.76 1341.934 57.34)scale(2.00003 -2.00003)"/><path d="M1174.41-18.762c-5.481-8.22-13.31-19.892-23.165-20.596-4.267-.304-8.45 1.203-10.91 4.704-2.849 4.055-2.72 8.411-.926 13.031 2.004 5.16 7.904 3.883 11.232 4.213 8.624.854 10.705 7.275 18.058 1.957 1.445-1.044 7.387-.796 5.71-3.31" style="fill:#96d6ff;fill-rule:evenodd;stroke:none;stroke-width:1px;stroke-linecap:butt;stroke-linejoin:miter;stroke-opacity:1" transform="rotate(173.76 1341.934 57.34)scale(2.00003 -2.00003)"/><path d="M1151.03-30.81c-.873-.042-1.57.028-2.117.144-.548.116-.944.28-1.21.422-.265.142-.431.29-.431.29-.485.46.247.655.731.197 0 0 .031-.039.215-.137a2.7 2.7 0 0 1 .946-.324c1.622-.239 2.67-.104 5.05.52 5.217 1.367 7.466 6.9 7.466 6.9.268.651 1.24.185.9-.432 0 0-2.642-5.556-8.376-7.06-1.25-.327-2.3-.479-3.173-.52" style="color:#000;font-style:normal;font-variant:normal;font-weight:400;font-stretch:normal;font-size:medium;line-height:normal;font-family:sans-serif;text-indent:0;text-align:start;text-decoration:none;text-decoration-line:none;text-decoration-style:solid;text-decoration-color:#000;letter-spacing:normal;word-spacing:normal;text-transform:none;writing-mode:lr-tb;direction:ltr;baseline-shift:baseline;text-anchor:start;white-space:normal;clip-rule:nonzero;display:inline;overflow:visible;opacity:1;isolation:auto;mix-blend-mode:normal;color-interpolation:sRGB;color-interpolation-filters:linearRGB;solid-color:#000;solid-opacity:1;fill:#394655;fill-opacity:1;fill-rule:evenodd;stroke:none;stroke-width:1px;stroke-linecap:round;stroke-linejoin:miter;stroke-miterlimit:4;stroke-dasharray:none;stroke-dashoffset:0;stroke-opacity:1;color-rendering:auto;image-rendering:auto;shape-rendering:auto;text-rendering:auto" transform="rotate(173.76 1341.934 57.34)scale(2.00003 -2.00003)"/><path d="M1156.99-25.234c-.674.05-1.28.154-1.78.357-.497.203-.96.57-1.022 1.133-.075.663.231.048.393-.158 1.724-2.197 6.027-.477 6.497-.086.656.12.836-.865.18-.985-1.31-.238-2.92-.363-4.268-.261" style="color:#000;font-style:normal;font-variant:normal;font-weight:400;font-stretch:normal;font-size:medium;line-height:normal;font-family:sans-serif;text-indent:0;text-align:start;text-decoration:none;text-decoration-line:none;text-decoration-style:solid;text-decoration-color:#000;letter-spacing:normal;word-spacing:normal;text-transform:none;writing-mode:lr-tb;direction:ltr;baseline-shift:baseline;text-anchor:start;white-space:normal;clip-rule:nonzero;display:inline;overflow:visible;opacity:1;isolation:auto;mix-blend-mode:normal;color-interpolation:sRGB;color-interpolation-filters:linearRGB;solid-color:#000;solid-opacity:1;fill:#394655;fill-opacity:1;fill-rule:evenodd;stroke:none;stroke-width:1px;stroke-linecap:round;stroke-linejoin:miter;stroke-miterlimit:4;stroke-dasharray:none;stroke-dashoffset:0;stroke-opacity:1;color-rendering:auto;image-rendering:auto;shape-rendering:auto;text-rendering:auto" transform="rotate(173.76 1341.934 57.34)scale(2.00003 -2.00003)"/><path d="M1173.547-22.321c-6.148-9.22-12.002-17.492-23.055-18.282-4.787-.341-9.198 1.21-11.957 5.136-3.196 4.548-3.052 9.435-1.04 14.617 2.249 5.787 9.314 4.865 13.03 5.382 10.006 1.39 15.772.858 20.426-1.422 1.796-.88 4.476-2.612 2.596-5.431" style="fill:#394655;fill-rule:evenodd;stroke:none;stroke-width:1px;stroke-linecap:butt;stroke-linejoin:miter;stroke-opacity:1" transform="rotate(-6.24 3410.816 20413.47)scale(2.00003)"/><path d="M1174.76-21.142c-7.538-6.388-13.66-17.512-23.515-18.216-4.267-.304-8.45 1.203-10.91 4.704-2.849 4.055-2.72 8.411-.926 13.031 2.004 5.16 8.28 4.563 11.615 4.798 15.713 1.108 12.524 3.716 14.236 3.47 1.765-.255 11.94-5.719 9.5-7.787" style="fill:#96d6ff;fill-rule:evenodd;stroke:none;stroke-width:1px;stroke-linecap:butt;stroke-linejoin:miter;stroke-opacity:1" transform="rotate(-6.24 3410.816 20413.47)scale(2.00003)"/><path d="M1151.03-30.81c-.774-.087-1.556-.17-2.336-.137-.543.023-1.108.038-1.616.234-.161.063-.46.12-.431.291.042.25.482.235.731.196.084-.013.135-.109.215-.136.428-.149.9-.148 1.352-.137 1.776.044 2.889.177 5.27.801 5.216 1.367 7.465 6.9 7.465 6.9.268.651 1.24.185.9-.432 0 0-2.642-5.556-8.376-7.06-1.25-.327-2.108-.402-3.173-.52" style="color:#000;font-style:normal;font-variant:normal;font-weight:400;font-stretch:normal;font-size:medium;line-height:normal;font-family:sans-serif;text-indent:0;text-align:start;text-decoration:none;text-decoration-line:none;text-decoration-style:solid;text-decoration-color:#000;letter-spacing:normal;word-spacing:normal;text-transform:none;writing-mode:lr-tb;direction:ltr;baseline-shift:baseline;text-anchor:start;white-space:normal;clip-rule:nonzero;display:inline;overflow:visible;opacity:1;isolation:auto;mix-blend-mode:normal;color-interpolation:sRGB;color-interpolation-filters:linearRGB;solid-color:#000;solid-opacity:1;fill:#394655;fill-opacity:1;fill-rule:evenodd;stroke:none;stroke-width:1px;stroke-linecap:round;stroke-linejoin:miter;stroke-miterlimit:4;stroke-dasharray:none;stroke-dashoffset:0;stroke-opacity:1;color-rendering:auto;image-rendering:auto;shape-rendering:auto;text-rendering:auto" transform="rotate(-6.24 3410.816 20413.47)scale(2.00003)"/><path d="M1156.99-25.234c-.674.05-1.28.154-1.78.357-.497.203-.96.57-1.022 1.133-.075.663.231.048.393-.158 1.724-2.197 6.027-.477 6.497-.086.656.12.836-.865.18-.985-1.31-.238-2.92-.363-4.268-.261" style="color:#000;font-style:normal;font-variant:normal;font-weight:400;font-stretch:normal;font-size:medium;line-height:normal;font-family:sans-serif;text-indent:0;text-align:start;text-decoration:none;text-decoration-line:none;text-decoration-style:solid;text-decoration-color:#000;letter-spacing:normal;word-spacing:normal;text-transform:none;writing-mode:lr-tb;direction:ltr;baseline-shift:baseline;text-anchor:start;white-space:normal;clip-rule:nonzero;display:inline;overflow:visible;opacity:1;isolation:auto;mix-blend-mode:normal;color-interpolation:sRGB;color-interpolation-filters:linearRGB;solid-color:#000;solid-opacity:1;fill:#394655;fill-opacity:1;fill-rule:evenodd;stroke:none;stroke-width:1px;stroke-linecap:round;stroke-linejoin:miter;stroke-miterlimit:4;stroke-dasharray:none;stroke-dashoffset:0;stroke-opacity:1;color-rendering:auto;image-rendering:auto;shape-rendering:auto;text-rendering:auto" transform="rotate(-6.24 3410.816 20413.47)scale(2.00003)"/></g><g style="display:inline" transform="translate(-96.482 -151.386)"><path d="M443.176 639.127s-8.223 8.408-8.286 9.612c-.166 3.15 5.634 12.099 5.634 12.099s-13.8 10.827-14.252 16.572c-.507 6.446 2.983 12.596 8.618 13.424 5.634.829 23.367-14.915 23.367-14.915s6.96 3.48 10.441 2.817c3.48-.663 15.744-11.932 15.744-11.932z" style="opacity:1;fill:#3d7892;fill-opacity:1;stroke:none;stroke-width:4.6875;stroke-linecap:round;stroke-miterlimit:4;stroke-dasharray:none;stroke-opacity:1"/><g style="display:inline"><path d="M423.503 581.835c-.004 4.4-1.198 7.589-3.375 9.829s-5.331 3.551-9.146 4.443c-3.815.89-8.283 1.395-13.057 1.838s-9.851.79-14.95 1.1c-5.098.308-9.945.347-14.402.085-4.457-.26-8.524-.799-11.993-1.712s-6.337-2.213-8.356-4.092c-2.019-1.88-3.187-4.345-3.255-7.511-.067-3.166.999-5.486 2.926-7.084s4.712-2.464 8.1-2.847 7.372-.283 11.77-.16 9.21.234 14.332-.122c5.12-.357 10.271-1.474 15.16-2.541 4.888-1.068 9.504-2.052 13.438-2.272s7.178.324 9.398 2.046c2.221 1.723 3.415 4.6 3.41 9" style="color:#000;clip-rule:nonzero;display:inline;overflow:visible;opacity:1;isolation:auto;mix-blend-mode:normal;color-interpolation:sRGB;color-interpolation-filters:linearRGB;solid-color:#000;solid-opacity:1;fill:#e1d6b9;fill-opacity:1;fill-rule:nonzero;stroke:none;stroke-width:10;stroke-linecap:butt;stroke-linejoin:miter;stroke-miterlimit:4;stroke-dasharray:none;stroke-dashoffset:0;stroke-opacity:1;color-rendering:auto;image-rendering:auto;shape-rendering:auto;text-rendering:auto" transform="matrix(.40354 -.41576 .50654 .62078 -.742 463.32)"/><path d="M411.914 568.549c-3.75-.027-8.087.54-12.762 1.287-5.342.854-11.107 1.92-17.01 2.326-5.902.406-11.41.383-16.447.414s-9.604.16-13.508.86c-3.903.698-7.135 1.967-9.408 3.968s-3.585 4.717-3.652 8.176 1.218 6.307 3.543 8.58 5.688 3.98 9.762 5.25c4.073 1.27 8.852 2.12 14.056 2.598 5.205.479 10.834.561 16.703.222 5.87-.338 11.472-.786 16.606-1.35 5.134-.562 9.793-1.223 13.707-2.343a27.6 27.6 0 0 0 4.127-1.52c2.545-1.193 2.05-6.172-.1-4.54-1.991 1.511-4.56 2.503-7.57 3.207-3.669.857-7.967 1.341-12.559 1.767s-9.475.76-14.379 1.057c-4.903.297-9.565.335-13.851.084s-8.199-.769-11.535-1.647-6.096-2.13-8.037-3.937c-1.942-1.808-3.066-4.178-3.131-7.223s.96-5.277 2.814-6.814 4.531-2.37 7.79-2.739c3.257-.368 7.092-.272 11.322-.154s8.857.226 13.783-.117c4.925-.343 9.88-1.417 14.582-2.443s9.14-1.973 12.924-2.184q.71-.04 1.388-.045c1.16-.007 2.25.044 3.25.236 1.153.222 2.316-2.861-.838-2.927-.511-.011-1.034-.045-1.57-.05" style="color:#000;clip-rule:nonzero;display:inline;overflow:visible;opacity:1;isolation:auto;mix-blend-mode:normal;color-interpolation:sRGB;color-interpolation-filters:linearRGB;solid-color:#000;solid-opacity:1;fill:#394655;fill-opacity:1;fill-rule:nonzero;stroke:none;stroke-width:10;stroke-linecap:butt;stroke-linejoin:miter;stroke-miterlimit:4;stroke-dasharray:none;stroke-dashoffset:0;stroke-opacity:1;color-rendering:auto;image-rendering:auto;shape-rendering:auto;text-rendering:auto" transform="matrix(.40354 -.41576 .50654 .62078 -.742 463.32)"/></g><path d="M438.53 645.673c4.987 9.93 18.028 20.487 32.814 28.505l18.893-16.241c10.889-28.078-.123-31.951-39.112-26.848z" style="opacity:1;fill:#468aa9;fill-opacity:1;stroke:#1d4455;stroke-width:4.6875;stroke-linecap:round;stroke-linejoin:round;stroke-miterlimit:4;stroke-dasharray:none;stroke-opacity:1"/><circle cx="462.365" cy="654.469" r="4.588" style="display:inline;opacity:1;fill:#feff00;fill-opacity:1;stroke:none;stroke-width:4.6875;stroke-linecap:round;stroke-linejoin:round;stroke-miterlimit:4;stroke-dasharray:none;stroke-opacity:1"/><circle cx="470.895" cy="662.102" r="4.588" style="display:inline;opacity:1;fill:#feff00;fill-opacity:1;stroke:none;stroke-width:4.6875;stroke-linecap:round;stroke-linejoin:round;stroke-miterlimit:4;stroke-dasharray:none;stroke-opacity:1"/><g style="display:inline"><path d="M423.503 581.835c-.004 4.4-1.198 7.589-3.375 9.829s-5.331 3.551-9.146 4.443c-3.815.89-8.283 1.395-13.057 1.838s-9.851.79-14.95 1.1c-5.098.308-9.945.347-14.402.085-4.457-.26-8.524-.799-11.993-1.712s-6.337-2.213-8.356-4.092c-2.019-1.88-3.187-4.345-3.255-7.511-.067-3.166.999-5.486 2.926-7.084s4.712-2.464 8.1-2.847 7.372-.283 11.77-.16 9.21.234 14.332-.122c5.12-.357 10.271-1.474 15.16-2.541 4.888-1.068 9.504-2.052 13.438-2.272s7.178.324 9.398 2.046c2.221 1.723 3.415 4.6 3.41 9" style="color:#000;clip-rule:nonzero;display:inline;overflow:visible;opacity:1;isolation:auto;mix-blend-mode:normal;color-interpolation:sRGB;color-interpolation-filters:linearRGB;solid-color:#000;solid-opacity:1;fill:#e1d6b9;fill-opacity:1;fill-rule:nonzero;stroke:none;stroke-width:10;stroke-linecap:butt;stroke-linejoin:miter;stroke-miterlimit:4;stroke-dasharray:none;stroke-dashoffset:0;stroke-opacity:1;color-rendering:auto;image-rendering:auto;shape-rendering:auto;text-rendering:auto" transform="matrix(-.4488 -.36645 -.43157 .67506 625.064 403.923)"/><path d="M411.914 568.549c-3.75-.027-8.087.54-12.762 1.287-5.342.854-11.107 1.92-17.01 2.326-5.902.406-11.41.383-16.447.414s-9.604.16-13.508.86c-3.903.698-7.135 1.967-9.408 3.968s-3.585 4.717-3.652 8.176 1.218 6.307 3.543 8.58 5.688 3.98 9.762 5.25c4.073 1.27 8.852 2.12 14.056 2.598 5.205.479 10.834.561 16.703.222 5.87-.338 11.472-.786 16.606-1.35 5.134-.562 9.793-1.223 13.707-2.343a27.6 27.6 0 0 0 4.127-1.52c2.545-1.193 2.05-6.172-.1-4.54-1.991 1.511-4.56 2.503-7.57 3.207-3.669.857-7.967 1.341-12.559 1.767s-9.475.76-14.379 1.057c-4.903.297-9.565.335-13.851.084s-8.199-.769-11.535-1.647-6.096-2.13-8.037-3.937c-1.942-1.808-3.066-4.178-3.131-7.223s.96-5.277 2.814-6.814 4.531-2.37 7.79-2.739c3.257-.368 7.092-.272 11.322-.154s8.857.226 13.783-.117c4.925-.343 9.88-1.417 14.582-2.443s9.14-1.973 12.924-2.184q.71-.04 1.388-.045c1.16-.007 2.25.044 3.25.236 1.153.222 2.316-2.861-.838-2.927-.511-.011-1.034-.045-1.57-.05" style="color:#000;clip-rule:nonzero;display:inline;overflow:visible;opacity:1;isolation:auto;mix-blend-mode:normal;color-interpolation:sRGB;color-interpolation-filters:linearRGB;solid-color:#000;solid-opacity:1;fill:#394655;fill-opacity:1;fill-rule:nonzero;stroke:none;stroke-width:10;stroke-linecap:butt;stroke-linejoin:miter;stroke-miterlimit:4;stroke-dasharray:none;stroke-dashoffset:0;stroke-opacity:1;color-rendering:auto;image-rendering:auto;shape-rendering:auto;text-rendering:auto" transform="matrix(-.4488 -.36645 -.43157 .67506 625.064 403.923)"/></g><path d="M204.9 646.077c-6.452 7.523-20.012 13.855-34.537 17.614l-11.368-18.123c2.793-22.917 8.35-25.319 38.14-14.825z" style="opacity:1;fill:#3d7892;fill-opacity:1;stroke:#1d4455;stroke-width:4.18098927;stroke-linecap:round;stroke-linejoin:round;stroke-miterlimit:4;stroke-dasharray:none;stroke-opacity:1"/><circle cx="-185.386" cy="648.375" r="4.588" style="display:inline;opacity:1;fill:#feff00;fill-opacity:1;stroke:none;stroke-width:4.6875;stroke-linecap:round;stroke-linejoin:round;stroke-miterlimit:4;stroke-dasharray:none;stroke-opacity:1" transform="scale(-1 1)"/><circle cx="-174.747" cy="652.727" r="4.588" style="display:inline;opacity:1;fill:#feff00;fill-opacity:1;stroke:none;stroke-width:4.6875;stroke-linecap:round;stroke-linejoin:round;stroke-miterlimit:4;stroke-dasharray:none;stroke-opacity:1" transform="scale(-1 1)"/></g><g style="display:inline"><path d="m303.586 519.667 23.452-1.69c3.614-.26 7.388 2.42 7.456 6.021.152 8.073 1.28 12.736-.508 25.818-.466 3.408-4.355 6.963-7.977 7.064l-16.134.45c-3.623.1-7.539-2.623-7.338-6.25.724-13.097-2.607-17.265-4.544-24.453-.944-3.508 1.978-6.7 5.593-6.96" style="color:#000;clip-rule:nonzero;display:inline;overflow:visible;opacity:1;isolation:auto;mix-blend-mode:normal;color-interpolation:sRGB;color-interpolation-filters:linearRGB;solid-color:#000;solid-opacity:1;fill:#394655;fill-opacity:1;fill-rule:nonzero;stroke:none;stroke-width:2;stroke-linecap:round;stroke-linejoin:miter;stroke-miterlimit:1;stroke-dasharray:none;stroke-dashoffset:0;stroke-opacity:1;color-rendering:auto;image-rendering:auto;shape-rendering:auto;text-rendering:auto" transform="translate(-96.482 -151.386)"/><path d="m305.982 523.02 19.28-1.39c2.972-.213 5.966 1.994 6.13 4.95.397 7.103 2.124 13.29.492 21.788-.599 3.117-1.828 4.625-4.598 5.722-5.816 2.304-11.144 1.023-16.671 1.201-2.978.097-6.295-1.967-6.13-4.95.472-8.566-1.413-14.993-3.1-21.599-.74-2.893 1.625-5.508 4.597-5.722" style="color:#000;clip-rule:nonzero;display:inline;overflow:visible;opacity:1;isolation:auto;mix-blend-mode:normal;color-interpolation:sRGB;color-interpolation-filters:linearRGB;solid-color:#000;solid-opacity:1;fill:#fff;fill-opacity:1;fill-rule:nonzero;stroke:none;stroke-width:2;stroke-linecap:round;stroke-linejoin:miter;stroke-miterlimit:1;stroke-dasharray:none;stroke-dashoffset:0;stroke-opacity:1;color-rendering:auto;image-rendering:auto;shape-rendering:auto;text-rendering:auto" transform="translate(-96.482 -151.386)"/><path d="M277.171 514.987c1.449 16.498 19.415 19.395 40.929 17.042s37.772-9.35 36.585-22.673c-1.563-17.552-20.336-27.83-41.85-25.478-21.515 2.353-37.483 10.388-35.664 31.109" style="color:#000;clip-rule:nonzero;display:inline;overflow:visible;opacity:1;isolation:auto;mix-blend-mode:normal;color-interpolation:sRGB;color-interpolation-filters:linearRGB;solid-color:#000;solid-opacity:1;fill:#394655;fill-opacity:1;fill-rule:nonzero;stroke:none;stroke-width:2;stroke-linecap:round;stroke-linejoin:miter;stroke-miterlimit:1;stroke-dasharray:none;stroke-dashoffset:0;stroke-opacity:1;color-rendering:auto;image-rendering:auto;shape-rendering:auto;text-rendering:auto" transform="translate(-96.482 -151.386)"/><path d="M284.238 514.113c1.216 13.848 16.297 16.28 34.356 14.305 18.06-1.974 31.707-7.848 30.71-19.032-1.312-14.733-17.07-23.36-35.13-21.386-18.059 1.975-31.463 8.72-29.936 26.113" style="color:#000;clip-rule:nonzero;display:inline;overflow:visible;opacity:1;isolation:auto;mix-blend-mode:normal;color-interpolation:sRGB;color-interpolation-filters:linearRGB;solid-color:#000;solid-opacity:1;fill:#e1d6b9;fill-opacity:1;fill-rule:nonzero;stroke:none;stroke-width:2;stroke-linecap:round;stroke-linejoin:miter;stroke-miterlimit:1;stroke-dasharray:none;stroke-dashoffset:0;stroke-opacity:1;color-rendering:auto;image-rendering:auto;shape-rendering:auto;text-rendering:auto" transform="translate(-96.482 -151.386)"/><path d="M289.942 489.583a16.087 25.057 83.76 0 0 26.657 13.268 16.087 25.057 83.76 0 0 23.16-18.715 16.087 25.057 83.76 0 0-26.658-13.268 16.087 25.057 83.76 0 0-23.16 18.715" style="color:#000;clip-rule:nonzero;display:inline;overflow:visible;opacity:1;isolation:auto;mix-blend-mode:normal;color-interpolation:sRGB;color-interpolation-filters:linearRGB;solid-color:#000;solid-opacity:1;fill:#394655;fill-opacity:1;fill-rule:nonzero;stroke:none;stroke-width:2;stroke-linecap:round;stroke-linejoin:miter;stroke-miterlimit:1;stroke-dasharray:none;stroke-dashoffset:0;stroke-opacity:1;color-rendering:auto;image-rendering:auto;shape-rendering:auto;text-rendering:auto" transform="translate(-96.482 -151.386)"/></g></g><g style="display:inline"><path d="M340.985 433.821c-1.464 24.103 8.843 47.232 25.867 64.887s40.82 29.785 67.307 31.466c26.486 1.68 50.67-7.446 68.424-23.037s28.999-37.541 30.45-61.627-6.8-45.767-21.428-61.642-35.947-25.938-62.478-27.513c-26.53-1.574-53.187 5.492-73.288 19.19s-33.39 34.173-34.854 58.276" style="color:#000;clip-rule:nonzero;display:inline;overflow:visible;opacity:1;isolation:auto;mix-blend-mode:normal;color-interpolation:sRGB;color-interpolation-filters:linearRGB;solid-color:#000;solid-opacity:1;fill:#394655;fill-opacity:1;fill-rule:nonzero;stroke:none;stroke-width:2.1915338;stroke-linecap:butt;stroke-linejoin:miter;stroke-miterlimit:1;stroke-dasharray:none;stroke-dashoffset:0;stroke-opacity:1;color-rendering:auto;image-rendering:auto;shape-rendering:auto;text-rendering:auto" transform="translate(-96.482 -151.386)"/><path d="M347.251 432.13c-1.651 22.813 7.812 44.777 23.696 61.568s38.221 28.366 63.139 30.116c24.916 1.75 47.712-6.694 64.539-21.306 16.826-14.611 27.625-35.303 29.265-58.101s-5.888-43.392-19.569-58.533-33.786-24.844-58.74-26.5c-24.954-1.658-49.983 4.927-68.969 17.79-18.985 12.864-31.708 32.152-33.36 54.965" style="color:#000;clip-rule:nonzero;display:inline;overflow:visible;opacity:1;isolation:auto;mix-blend-mode:normal;color-interpolation:sRGB;color-interpolation-filters:linearRGB;solid-color:#000;solid-opacity:1;fill:#fff;fill-opacity:1;fill-rule:nonzero;stroke:none;stroke-width:2.1915338;stroke-linecap:butt;stroke-linejoin:miter;stroke-miterlimit:1;stroke-dasharray:none;stroke-dashoffset:0;stroke-opacity:1;color-rendering:auto;image-rendering:auto;shape-rendering:auto;text-rendering:auto" transform="translate(-96.482 -151.386)"/><path d="M117.223 451.228c-.31 22.547 9.434 42.42 25.246 56.911 15.811 14.492 37.696 23.616 61.924 24.282 24.227.666 46.223-7.263 62.186-20.905s25.862-32.991 26.16-55.526c.298-22.534-8.951-44.17-24.188-60.675-15.236-16.506-36.565-27.688-60.836-28.344-24.272-.655-46.839 9.327-63.324 24.96-16.486 15.634-26.857 36.749-27.168 59.297" style="color:#000;clip-rule:nonzero;display:inline;overflow:visible;opacity:1;isolation:auto;mix-blend-mode:normal;color-interpolation:sRGB;color-interpolation-filters:linearRGB;solid-color:#000;solid-opacity:1;fill:#394655;fill-opacity:1;fill-rule:nonzero;stroke:none;stroke-width:2;stroke-linecap:butt;stroke-linejoin:miter;stroke-miterlimit:1;stroke-dasharray:none;stroke-dashoffset:0;stroke-opacity:1;color-rendering:auto;image-rendering:auto;shape-rendering:auto;text-rendering:auto" transform="translate(-96.482 -151.386)"/><path d="M122.86 447.25c-.357 21.195 8.663 39.914 23.362 53.584 14.7 13.669 35.08 22.307 57.657 23.004s43.085-6.688 57.992-19.464 24.192-30.945 24.545-52.13c.355-21.187-8.2-41.53-22.378-57.02-14.177-15.49-34.065-25.961-56.683-26.646-22.619-.684-43.643 8.534-59.03 23.112s-25.108 34.366-25.465 55.56" style="color:#000;clip-rule:nonzero;display:inline;overflow:visible;opacity:1;isolation:auto;mix-blend-mode:normal;color-interpolation:sRGB;color-interpolation-filters:linearRGB;solid-color:#000;solid-opacity:1;fill:#fff;fill-opacity:1;fill-rule:nonzero;stroke:none;stroke-width:2;stroke-linecap:butt;stroke-linejoin:miter;stroke-miterlimit:1;stroke-dasharray:none;stroke-dashoffset:0;stroke-opacity:1;color-rendering:auto;image-rendering:auto;shape-rendering:auto;text-rendering:auto" transform="translate(-96.482 -151.386)"/><g transform="rotate(173.76 1363.77 42.622)scale(2.00003 -2.00003)"><circle cx="1334.421" cy="32.28" r="11.625" style="color:#000;clip-rule:nonzero;display:inline;overflow:visible;opacity:1;isolation:auto;mix-blend-mode:normal;color-interpolation:sRGB;color-interpolation-filters:linearRGB;solid-color:#000;solid-opacity:1;fill:#394655;fill-opacity:1;fill-rule:nonzero;stroke:none;stroke-width:2;stroke-linecap:butt;stroke-linejoin:miter;stroke-miterlimit:1;stroke-dasharray:none;stroke-dashoffset:0;stroke-opacity:1;color-rendering:auto;image-rendering:auto;shape-rendering:auto;text-rendering:auto"/><circle cx="1340.214" cy="27.552" r="8.125" style="color:#000;clip-rule:nonzero;display:inline;overflow:visible;opacity:1;isolation:auto;mix-blend-mode:normal;color-interpolation:sRGB;color-interpolation-filters:linearRGB;solid-color:#000;solid-opacity:1;fill:#fff;fill-opacity:1;fill-rule:nonzero;stroke:none;stroke-width:2;stroke-linecap:butt;stroke-linejoin:miter;stroke-miterlimit:1;stroke-dasharray:none;stroke-dashoffset:0;stroke-opacity:1;color-rendering:auto;image-rendering:auto;shape-rendering:auto;text-rendering:auto"/></g><g transform="rotate(173.76 1465.4 20.482)scale(2.19157 -2.19157)"><circle cx="1183.726" cy="49.712" r="11.625" style="color:#000;clip-rule:nonzero;display:inline;overflow:visible;opacity:1;isolation:auto;mix-blend-mode:normal;color-interpolation:sRGB;color-interpolation-filters:linearRGB;solid-color:#000;solid-opacity:1;fill:#394655;fill-opacity:1;fill-rule:nonzero;stroke:none;stroke-width:2;stroke-linecap:butt;stroke-linejoin:miter;stroke-miterlimit:1;stroke-dasharray:none;stroke-dashoffset:0;stroke-opacity:1;color-rendering:auto;image-rendering:auto;shape-rendering:auto;text-rendering:auto"/><circle cx="1190.774" cy="44.446" r="8.125" style="color:#000;clip-rule:nonzero;display:inline;overflow:visible;opacity:1;isolation:auto;mix-blend-mode:normal;color-interpolation:sRGB;color-interpolation-filters:linearRGB;solid-color:#000;solid-opacity:1;fill:#fff;fill-opacity:1;fill-rule:nonzero;stroke:none;stroke-width:2;stroke-linecap:butt;stroke-linejoin:miter;stroke-miterlimit:1;stroke-dasharray:none;stroke-dashoffset:0;stroke-opacity:1;color-rendering:auto;image-rendering:auto;shape-rendering:auto;text-rendering:auto"/></g></g><g style="display:inline"><path d="M372.566 167.252c-22.763 21.857-46.07 44.47-60.824 72.816-19.22-21.935-39.375-43.544-62.361-61.467-6.127-.99-6.681 7.023-5.622 11.261-.17 19.213-.4 38.542-.503 57.803-21.343-6.467-42.423-13.816-63.977-19.575-5.679.662-3.636 7.768-.323 10.131 21.94 29.145 41.04 60.743 56.302 94.004 16.072 12.04 37.328 13.004 56.61 15.01 40.225 2.09 83.206-1.993 117.697-24.58 4.944-3.383 10.368-7.575 9.908-14.226 6.801-41.775 26.581-80 46.11-117.13 3.058-5.558-5.288-6.94-8.287-3.613-13.302 11.206-28.108 20.579-41.865 31.286-11.105 8.17-22.232 16.31-33.447 24.33-3.501-22.437-2.861-45.398-3.211-68.093.68-3.669-1.315-10.195-6.207-7.957" style="opacity:1;fill:#ebec00;fill-opacity:1;stroke:none;stroke-width:4.6875;stroke-linecap:round;stroke-linejoin:round;stroke-miterlimit:4;stroke-dasharray:none;stroke-opacity:1" transform="translate(-94.193 -149.079)"/><path d="M414.725 313.32c-45.101 41.277-154.908 34.189-176.407 16.503-22.395-51.348-59.166-98.017-59.166-98.017l68.062 21.262.544-71.04c21.905 18.075 43.515 40.039 64.88 65.219 16.006-33.287 39.534-54.093 61.994-76.67 0 0 0 82.298 5.8 78.698 5.799-3.599 82.045-60.052 82.045-60.052s-42.306 72.067-47.752 124.098" style="opacity:1;fill:#feff00;fill-opacity:1;stroke:none;stroke-width:4.6875;stroke-linecap:round;stroke-linejoin:round;stroke-miterlimit:4;stroke-dasharray:none;stroke-opacity:1" transform="translate(-94.193 -149.079)"/><path d="M372.941 172.258c-12.81 12.803-25.878 25.176-37.657 39.69.35 33.917.1 74.616-2.578 93.397a8967 8967 0 0 1-5.499 37.828c5.433-.378 10.89-.915 16.316-1.66 5.61-28.276 22.492-113.154 24.84-122.183 1.744-6.702 3.976-29.921 4.578-47.072" style="opacity:1;fill:#feff76;fill-opacity:1;stroke:none;stroke-width:4.6875;stroke-linecap:round;stroke-linejoin:round;stroke-miterlimit:4;stroke-dasharray:none;stroke-opacity:1" transform="translate(-94.193 -149.079)"/><path d="M462.476 189.222s-14.35 10.615-30.49 22.514c-15.788 38.994-33.504 88.612-42.345 117.438 9.537-4.216 18.089-9.453 25.083-15.854 5.446-52.031 47.752-124.098 47.752-124.098m-283.324 42.584s36.77 46.67 59.166 98.017c6.574 5.408 21.425 9.814 40.137 12.16-9.77-24.283-21.845-57.8-32.466-89.298z" style="opacity:1;fill:#e1e107;fill-opacity:1;stroke:none;stroke-width:4.6875;stroke-linecap:round;stroke-linejoin:round;stroke-miterlimit:4;stroke-dasharray:none;stroke-opacity:1" transform="translate(-94.193 -149.079)"/></g><g style="display:inline;opacity:.07000002"><path d="M181.375 299.277a106 106 0 0 0-4.15.016c-41.22 1.28-78.967 34.69-84.928 75.559-1.103 9.844-.86 19.996 1.433 29.66 7.441 29.584 33.083 52.371 62.073 60.142 15.168 4.232 31.365 4.546 46.795 1.598 13.352-2.505 26.112-8.38 36.83-16.79-57.126 17.772-117.55-13.49-122.428-51.362-8.243-64.006 56.73-94.544 96.467-92.371-10.115-4.264-21.014-6.589-32.092-6.452" style="display:inline;opacity:1;fill:#010101;fill-opacity:1;stroke:none;stroke-width:5;stroke-linecap:round;stroke-linejoin:round;stroke-miterlimit:4;stroke-dasharray:none;stroke-opacity:1" transform="translate(-61.024 -64.885)scale(.9375)"/><path d="M404.35 271.09c-24.132.052-48.486 8.163-67.175 23.57-16.257 13.262-27.206 33.462-27.22 54.663-.647 26.74 13.86 52.144 34.564 68.381 14.833 11.643 32.96 19.527 51.814 21.153 11.705.023 23.718.543 34.932-3.444 15.937-4.73 30.437-14.084 41.437-26.501-62.444 30.844-132.133-11.998-137.62-54.601-7.684-59.668 44.085-84.595 82.608-82.85a93 93 0 0 0-8.017-.346 193 193 0 0 0-5.323-.025m34.884 4.803c3.44 1.429 6.515 3.18 9.098 5.256h3.398a88 88 0 0 0-12.496-5.256" style="display:inline;opacity:1;fill:#030608;fill-opacity:1;stroke:none;stroke-width:5.01105738;stroke-linecap:round;stroke-linejoin:round;stroke-miterlimit:4;stroke-dasharray:none;stroke-opacity:1" transform="translate(-61.024 -64.885)"/><path d="M211.691 364.693c-7.824 4.33-12.375 11.308-11.418 22.215 1.297 14.772 17.382 17.366 36.645 15.26 7.715-.844 14.65-2.368 20.154-4.643-24.135-1.234-54.467-8.611-45.38-32.832" style="opacity:1;fill:#000;fill-opacity:1;stroke:none;stroke-width:5;stroke-linecap:round;stroke-miterlimit:4;stroke-dasharray:none;stroke-opacity:1" transform="scale(.9375)"/><path d="M250.729 402.244c-9.832.53-22.392 1.25-31.735 1.965 1.671 6.468 3.339 12.938 2.875 21.344-.175 3.18 3.363 5.382 6.54 5.279 5.895-.19 11.577 1.177 17.78-1.281 1.395-.553 2.416-1.21 3.18-2.092-7.31 1.553-16.07 2.439-21.25-.998-3.68-2.441-3.981-12.527-.701-15.568 3.141-2.914 12.409-2.522 23.67-5.02q-.202-1.8-.36-3.629" style="display:inline;opacity:1;fill:#000;fill-opacity:1;stroke:none;stroke-width:5;stroke-linecap:round;stroke-miterlimit:4;stroke-dasharray:none;stroke-opacity:1" transform="scale(.9375)"/><path d="M66.693 184.018c-3.092 4.338-5.002 9.638-4.857 15-.083 5.2 1.74 10.235 4.004 14.845 1.562 3.302 4.381 5.955 7.838 7.178 5.91 2.242 12.332 1.052 18.468.89 6.34-.11 12.723-.38 19.04.286 3.401.338 6.95.95 9.693 3.146 1.074 1.358 2.886.466 4.084-.205a75 75 0 0 0 5.8-3.676c-9.262-2.358-22.637-5.05-37.425-5.714-22.834-1.025-26.99-11.896-26.645-31.75" style="opacity:1;fill:#000;fill-opacity:1;stroke:none;stroke-width:.88388348;stroke-linecap:round;stroke-miterlimit:4;stroke-dasharray:none;stroke-opacity:1" transform="scale(.9375)"/></g></svg>