<svg xmlns="http://www.w3.org/2000/svg" width="571.938" height="684.918" viewBox="0 0 536.192 642.111"><path d="M261.895 583.639c6.96 12.31-4.026 17.123-4.243 17.147-1.145.127-4.066-.707-5.48-3.093s-2.917-11.58-2.475-14.143 2.21-9.015 4.066-9.28c1.856-.266 4.1 2.237 8.132 9.369z" style="fill:#5d7a63;fill-opacity:1;fill-rule:evenodd;stroke:#5d7a63;stroke-width:1px;stroke-linecap:butt;stroke-linejoin:miter;stroke-opacity:1" transform="translate(-137.025 -121.895)"/><g style="display:inline;opacity:1"><g style="display:inline;opacity:1"><path d="M419.84 584.573c-1.11 4.235-3.115 7.142-5.85 9.023-2.733 1.88-6.191 2.76-10.137 3.24-3.945.478-8.373.597-13.053.66s-9.607.027-14.585-.15c-4.979-.175-9.678-.662-13.95-1.444-4.27-.782-8.122-1.835-11.288-3.158-3.165-1.323-5.635-2.923-7.074-4.89-1.439-1.968-1.838-4.3-.941-7.08.896-2.779 2.647-4.652 5.058-5.712s5.478-1.298 8.97-1.047 7.402.982 11.607 1.607 8.715 1.101 13.557.957c4.842-.143 9.822-1.206 14.6-2.186 4.777-.98 9.356-1.805 13.205-1.762s6.938.923 8.725 2.848.05 13.33 1.156 9.094" style="color:#000;clip-rule:nonzero;display:inline;overflow:visible;opacity:1;isolation:auto;mix-blend-mode:normal;color-interpolation:sRGB;color-interpolation-filters:linearRGB;solid-color:#000;solid-opacity:1;fill:#e1d6b9;fill-opacity:1;fill-rule:nonzero;stroke:none;stroke-width:10;stroke-linecap:butt;stroke-linejoin:miter;stroke-miterlimit:4;stroke-dasharray:none;stroke-dashoffset:0;stroke-opacity:1;color-rendering:auto;image-rendering:auto;shape-rendering:auto;text-rendering:auto" transform="matrix(.43779 .0924 -.19694 .58654 64.495 85.329)"/><path d="M411.667 570.505c-3.645-.32-7.912.035-12.443.673-5.179.73-10.69 1.783-16.256 1.964-5.566.18-10.757-.278-15.64-.874-4.885-.596-9.469-1.263-13.594-1.35-4.126-.089-7.779.412-10.667 1.77-2.888 1.357-5.006 3.55-6.114 6.605-1.107 3.054-.683 5.795.966 8.195s4.516 4.463 8.197 6.211 8.163 3.194 13.122 4.283 10.401 1.796 16.157 2.057c5.756.262 11.242.3 16.338.22 5.097-.08 9.799-.251 13.94-.875a34 34 0 0 0 4.471-.962c2.833-.826 3.606-5.67 1.067-4.353-2.352 1.219-5.13 1.888-8.234 2.279-3.784.476-8.035.605-12.53.676-4.496.071-9.23.04-14.014-.121-4.784-.162-9.297-.62-13.4-1.363-4.101-.743-7.798-1.746-10.836-3.01-3.037-1.264-5.405-2.797-6.784-4.68s-1.759-4.116-.894-6.78 2.549-4.465 4.863-5.49c2.315-1.023 5.253-1.264 8.6-1.039 3.349.226 7.097.91 11.134 1.495s8.371 1.037 13.029.899 9.454-1.15 14.045-2.094c4.592-.944 8.982-1.753 12.668-1.736q.691.002 1.348.044c1.122.07 2.17.205 3.1.477 1.074.314 2.955-2.604-.117-2.943-.499-.055-1.55.198-1.522-.178" style="color:#000;clip-rule:nonzero;display:inline;overflow:visible;opacity:1;isolation:auto;mix-blend-mode:normal;color-interpolation:sRGB;color-interpolation-filters:linearRGB;solid-color:#000;solid-opacity:1;fill:#394655;fill-opacity:1;fill-rule:nonzero;stroke:none;stroke-width:10;stroke-linecap:butt;stroke-linejoin:miter;stroke-miterlimit:4;stroke-dasharray:none;stroke-dashoffset:0;stroke-opacity:1;color-rendering:auto;image-rendering:auto;shape-rendering:auto;text-rendering:auto" transform="matrix(.43779 .0924 -.19694 .58654 64.495 85.329)"/></g><g style="display:inline;opacity:1"><path d="M767.3 387.327c11.123 7.965 31.777 11.3 44.73 15.545 12.954 4.245 18.15 9.36 22.13 13.373s5.944 7.144 4.718 9.527-5.543 3.994-14 4.811c-8.459.818-15.91.121-23.024-1.725s-13.807-4.867-21.706-8.603c-7.899-3.737-17.327-8.05-25.811-14.185-8.484-6.133-17.623-13.9-23.143-24.133-5.519-10.234-5.782-21.344-5.371-30.883s1.51-17.554 2.716-23.75c1.204-6.195 2.715-10.673 4.77-13.669 2.057-2.995 4.652-4.526 7.72-4.526s5.703 1.83 7.625 5.499 3.048 9.244 3.287 16.76-.672 17.08.34 27.198c1.011 10.118 3.895 20.795 15.018 28.76" style="color:#000;clip-rule:nonzero;display:inline;overflow:visible;opacity:1;isolation:auto;mix-blend-mode:normal;color-interpolation:sRGB;color-interpolation-filters:linearRGB;solid-color:#000;solid-opacity:1;fill:#394655;fill-opacity:1;fill-rule:nonzero;stroke:none;stroke-width:10;stroke-linecap:butt;stroke-linejoin:miter;stroke-miterlimit:4;stroke-dasharray:none;stroke-dashoffset:0;stroke-opacity:1;color-rendering:auto;image-rendering:auto;shape-rendering:auto;text-rendering:auto" transform="matrix(.20409 .3611 -.80609 .48598 374.877 104.348)"/><path d="M760.817 387.615c8.354 7.229 23.405 11.344 36.929 14.854s21.763 7.51 26.414 11.295 7.043 6.961 6.893 9.28c-.151 2.32-3.073 3.852-9.995 4.538-6.922.685-13.124-.18-19.188-2.159s-12.013-5.066-19.623-8.647-16.945-7.618-24.99-13.216-15.823-12.654-20.902-21.246-6.013-17.8-5.992-25.918c.022-8.118.935-15.149 1.866-20.67.932-5.52 2.018-9.597 3.383-12.305 1.366-2.707 3.035-4.069 5.02-4.013 1.985.055 3.577 1.847 4.614 5.275 1.038 3.428 1.448 8.544 1.474 15.152.026 6.609-.436 14.761.913 23.275 1.35 8.514 4.83 17.275 13.184 24.505" style="color:#000;clip-rule:nonzero;display:inline;overflow:visible;opacity:1;isolation:auto;mix-blend-mode:normal;color-interpolation:sRGB;color-interpolation-filters:linearRGB;solid-color:#000;solid-opacity:1;fill:#e1d6b9;fill-opacity:1;fill-rule:nonzero;stroke:none;stroke-width:10;stroke-linecap:butt;stroke-linejoin:miter;stroke-miterlimit:4;stroke-dasharray:none;stroke-dashoffset:0;stroke-opacity:1;color-rendering:auto;image-rendering:auto;shape-rendering:auto;text-rendering:auto" transform="matrix(.20409 .3611 -.80609 .48598 374.877 104.348)"/></g><g style="display:inline;opacity:1"><path d="M767.3 387.327c11.123 7.965 31.777 11.3 44.73 15.545 12.954 4.245 18.15 9.36 22.13 13.373s5.944 7.144 4.718 9.527-5.543 3.994-14 4.811c-8.459.818-15.91.121-23.024-1.725s-13.807-4.867-21.706-8.603c-7.899-3.737-17.327-8.05-25.811-14.185-8.484-6.133-17.623-13.9-23.143-24.133-5.519-10.234-5.782-21.344-5.371-30.883s1.51-17.554 2.716-23.75c1.204-6.195 2.715-10.673 4.77-13.669 2.057-2.995 4.652-4.526 7.72-4.526s5.703 1.83 7.625 5.499 3.048 9.244 3.287 16.76-.672 17.08.34 27.198c1.011 10.118 3.895 20.795 15.018 28.76" style="color:#000;clip-rule:nonzero;display:inline;overflow:visible;opacity:1;isolation:auto;mix-blend-mode:normal;color-interpolation:sRGB;color-interpolation-filters:linearRGB;solid-color:#000;solid-opacity:1;fill:#394655;fill-opacity:1;fill-rule:nonzero;stroke:none;stroke-width:10;stroke-linecap:butt;stroke-linejoin:miter;stroke-miterlimit:4;stroke-dasharray:none;stroke-dashoffset:0;stroke-opacity:1;color-rendering:auto;image-rendering:auto;shape-rendering:auto;text-rendering:auto" transform="matrix(.13664 -.29657 .88137 .09664 -66.59 668.625)"/><path d="M760.817 387.615c8.354 7.229 23.405 11.344 36.929 14.854s21.763 7.51 26.414 11.295 7.043 6.961 6.893 9.28c-.151 2.32-3.073 3.852-9.995 4.538-6.922.685-13.124-.18-19.188-2.159s-12.013-5.066-19.623-8.647-16.945-7.618-24.99-13.216-15.823-12.654-20.902-21.246-6.013-17.8-5.992-25.918c.022-8.118.935-15.149 1.866-20.67.932-5.52 2.018-9.597 3.383-12.305 1.366-2.707 3.035-4.069 5.02-4.013 1.985.055 3.577 1.847 4.614 5.275 1.038 3.428 1.448 8.544 1.474 15.152.026 6.609-.436 14.761.913 23.275 1.35 8.514 4.83 17.275 13.184 24.505" style="color:#000;clip-rule:nonzero;display:inline;overflow:visible;opacity:1;isolation:auto;mix-blend-mode:normal;color-interpolation:sRGB;color-interpolation-filters:linearRGB;solid-color:#000;solid-opacity:1;fill:#e1d6b9;fill-opacity:1;fill-rule:nonzero;stroke:none;stroke-width:10;stroke-linecap:butt;stroke-linejoin:miter;stroke-miterlimit:4;stroke-dasharray:none;stroke-dashoffset:0;stroke-opacity:1;color-rendering:auto;image-rendering:auto;shape-rendering:auto;text-rendering:auto" transform="matrix(.13664 -.29657 .88137 .09664 -66.59 668.625)"/></g><g style="opacity:1"><path d="M-626.547 402.353c2.228 10.863.345 21.826-3.867 31.425-4.213 9.6-10.552 17.861-17.721 24.3s-15.255 11.106-24.572 13.614c-9.317 2.507-20.95 4.469-31.639 1.984s-18.069-9.229-24.094-15.893-12.359-14.476-22.965-22.068-20.865-15.599-25.161-23.378c-4.297-7.78-7.008-15.67-7.816-23.39-.807-7.722.36-14.56 3.123-20.545s7.126-11.121 12.786-15.41 12.617-7.736 20.642-10.242 17.112-4.076 27.14-4.415c10.026-.34 20.065.594 29.76 2.875s19.056 5.92 27.478 11.023 15.893 11.692 21.605 19.629c5.711 7.936 13.074 19.628 15.301 30.49" style="color:#000;clip-rule:nonzero;display:inline;overflow:visible;opacity:1;isolation:auto;mix-blend-mode:normal;color-interpolation:sRGB;color-interpolation-filters:linearRGB;solid-color:#000;solid-opacity:1;fill:#96d6ff;fill-opacity:1;fill-rule:nonzero;stroke:none;stroke-width:10;stroke-linecap:butt;stroke-linejoin:miter;stroke-miterlimit:4;stroke-dasharray:none;stroke-dashoffset:0;stroke-opacity:1;color-rendering:auto;image-rendering:auto;shape-rendering:auto;text-rendering:auto" transform="matrix(.3288 .17362 -.20143 .28339 500.866 203.357)"/><path d="M-784.214 457.34a8 8 0 0 0-1.556.335 5.6 5.6 0 0 0-1.635.827c-.451.342-.802.747-1.028 1.22a3.1 3.1 0 0 0-.274 1.62c.052.609.252 1.233.58 1.849.326.616.989 1.252 1.835 1.841.845.59 1.356 1.206 1.825 1.729.467.521 1.135.854 2.024.927.103.008.124-.305.035-.329-.781-.203-1.259-.72-1.719-1.11-.425-.467-.872-1.015-1.621-1.547s-1.473-1.093-1.777-1.639-.497-1.1-.555-1.642a2.7 2.7 0 0 1 .22-1.443c.194-.421.502-.784.901-1.087.4-.302.89-.545 1.458-.723a7 7 0 0 1 .907-.215q.48-.08 1.012-.102a8 8 0 0 1 2.1.2 6.7 6.7 0 0 1 1.939.772c.593.359 1.119.82 1.52 1.377.403.557.922 1.375 1.08 2.137.13.625.073 1.258-.133 1.834-.038.107.498.294.628-.012.243-.57.234-1.24.103-1.874-.179-.856-.69-1.769-1.137-2.4a5.7 5.7 0 0 0-1.689-1.553 7.1 7.1 0 0 0-2.143-.85 8.6 8.6 0 0 0-2.9-.143z" style="color:#000;clip-rule:nonzero;display:inline;overflow:visible;opacity:1;isolation:auto;mix-blend-mode:normal;color-interpolation:sRGB;color-interpolation-filters:linearRGB;solid-color:#000;solid-opacity:1;fill:#394655;fill-opacity:1;fill-rule:nonzero;stroke:none;stroke-width:10;stroke-linecap:butt;stroke-linejoin:miter;stroke-miterlimit:4;stroke-dasharray:none;stroke-dashoffset:0;stroke-opacity:1;color-rendering:auto;image-rendering:auto;shape-rendering:auto;text-rendering:auto" transform="matrix(4.55414 2.40477 -2.79007 3.92523 5041.514 261.86)"/><path d="M-753.772 413.022c-.136-2.619 2.18-4.948 7.22-6.2 7.654-1.903 20.038 1.845 27.938 5.67 4.333 2.1 8.89 3.892 12.666 7.195 1.282 1.121 2.518 2.283 3.368 4.409-1.658.577-4.104-.922-5.872-2.13-6.968-4.766-14.695-8.09-22.677-9.127-6.716-.872-8.87-3.11-14.756-2.562-3.726.347-4.906 2.139-7.887 2.745" style="color:#000;clip-rule:nonzero;display:inline;overflow:visible;opacity:1;isolation:auto;mix-blend-mode:normal;color-interpolation:sRGB;color-interpolation-filters:linearRGB;solid-color:#000;solid-opacity:1;fill:#394655;fill-opacity:1;fill-rule:nonzero;stroke:none;stroke-width:10;stroke-linecap:butt;stroke-linejoin:miter;stroke-miterlimit:4;stroke-dasharray:none;stroke-dashoffset:0;stroke-opacity:1;color-rendering:auto;image-rendering:auto;shape-rendering:auto;text-rendering:auto" transform="matrix(.3288 .17362 -.20143 .28339 500.866 203.357)"/><path d="M-720.17 411.684c.285-2.325.87 3.903-.319 5.46-4.46 5.84-8.203 12.32-12.42 18.365-1.374 1.968-3.295.041-2.428-2.1.881-2.173 2.06-3.998 3.35-5.814 1.207-1.702 2.813-3.058 3.888-4.86 2.066-3.463 2.395-6.629 4.254-10.24.637-1.237 3.522.426 3.674-.808z" style="color:#000;clip-rule:nonzero;display:inline;overflow:visible;opacity:1;isolation:auto;mix-blend-mode:normal;color-interpolation:sRGB;color-interpolation-filters:linearRGB;solid-color:#000;solid-opacity:1;fill:#394655;fill-opacity:1;fill-rule:nonzero;stroke:none;stroke-width:10;stroke-linecap:butt;stroke-linejoin:miter;stroke-miterlimit:4;stroke-dasharray:none;stroke-dashoffset:0;stroke-opacity:1;color-rendering:auto;image-rendering:auto;shape-rendering:auto;text-rendering:auto" transform="matrix(.3288 .17362 -.20143 .28339 500.866 203.357)"/></g><g style="display:inline;opacity:1"><path d="M-140.717 398.664c-9.314 71.697-25.761 141.32-83.877 188.864-73.317 59.98-208.092 67.906-303.428 10.996-27.57-16.458-49.524-62.176-53.041-91.74-7.352-61.799 19.827-103.65 13.479-160.679-5.053-45.392-29.638-82.955-27.308-137.001 1.563-36.267 11.065-78.465 40.507-100.884 38.57-29.37 83.605-46.189 134.68-45.031 72.738 1.649 151.18 6.327 212.188 49.94 43.544 31.127 68.503 82.536 72.904 135.3 4.52 54.197-.16 104.485-6.104 150.235" style="color:#000;clip-rule:nonzero;display:inline;overflow:visible;opacity:1;isolation:auto;mix-blend-mode:normal;color-interpolation:sRGB;color-interpolation-filters:linearRGB;solid-color:#000;solid-opacity:1;fill:#394655;fill-opacity:1;fill-rule:nonzero;stroke:none;stroke-width:2;stroke-linecap:butt;stroke-linejoin:miter;stroke-miterlimit:4;stroke-dasharray:none;stroke-dashoffset:0;stroke-opacity:1;color-rendering:auto;image-rendering:auto;shape-rendering:auto;text-rendering:auto" transform="matrix(-.69027 0 0 .73815 18.78 137.756)"/><path d="M-158.937 464.93c-15.561 65.936-58.423 127.392-134.422 151.72-70.615 22.605-163.492 17.3-232.185-25.547-26.146-16.309-46.091-61.462-48.959-89.476-6.035-58.964 19.048-102.174 13.303-156.595-4.795-45.426-28.021-78.346-27.296-132.223.474-35.21 8.99-76.957 37.821-98.8 36.525-27.67 78.353-45.238 126.457-45.012 76.22.358 162.162 5.533 222.843 56.659 55.48 46.742 63.384 129.048 60.81 193.305-2.122 52.998-7.672 100.63-18.372 145.969" style="color:#000;clip-rule:nonzero;display:inline;overflow:visible;opacity:1;isolation:auto;mix-blend-mode:normal;color-interpolation:sRGB;color-interpolation-filters:linearRGB;solid-color:#000;solid-opacity:1;fill:#96d6ff;fill-opacity:1;fill-rule:nonzero;stroke:none;stroke-width:2;stroke-linecap:butt;stroke-linejoin:miter;stroke-miterlimit:4;stroke-dasharray:none;stroke-dashoffset:0;stroke-opacity:1;color-rendering:auto;image-rendering:auto;shape-rendering:auto;text-rendering:auto" transform="matrix(-.69027 0 0 .73815 18.78 137.756)"/></g><g style="opacity:1"><path d="M-626.573 401.696c2.247 11.35.367 22.39-3.843 32.038-4.21 9.649-10.55 17.905-17.72 24.344s-15.254 11.11-24.57 13.61c-9.318 2.501-20.95 4.473-31.646 1.829s-18.092-9.812-24.148-17.25c-6.056-7.44-12.443-16.568-23.097-25.36-10.654-8.793-20.952-17.788-25.3-26.873-4.35-9.086-7.116-18.361-7.98-27.522s.246-17.364 2.961-24.584 7.032-13.455 12.66-18.537 12.567-9.01 20.593-11.49c8.026-2.478 17.135-3.505 27.21-2.666 10.073.838 20.18 3.472 29.951 7.653s19.215 9.908 27.712 16.897 16.035 15.24 21.796 24.415c5.76 9.176 13.174 22.145 15.421 33.496" style="color:#000;clip-rule:nonzero;display:inline;overflow:visible;opacity:1;isolation:auto;mix-blend-mode:normal;color-interpolation:sRGB;color-interpolation-filters:linearRGB;solid-color:#000;solid-opacity:1;fill:#96d6ff;fill-opacity:1;fill-rule:nonzero;stroke:none;stroke-width:10;stroke-linecap:butt;stroke-linejoin:miter;stroke-miterlimit:4;stroke-dasharray:none;stroke-dashoffset:0;stroke-opacity:1;color-rendering:auto;image-rendering:auto;shape-rendering:auto;text-rendering:auto" transform="rotate(18.859 213.006 552.893)scale(-.42416 .42416)"/><path d="M-784.271 455.904a5.5 5.5 0 0 0-1.56.262 4.5 4.5 0 0 0-1.63.935 3.9 3.9 0 0 0-1.018 1.475 4.35 4.35 0 0 0-.261 1.937 6.3 6.3 0 0 0 .592 2.157c.33.71.996 1.419 1.845 2.083.848.664 1.363 1.37 1.833 1.94.47.567 1.137.91 2.027.989.103.009.123-.313.034-.34-.781-.217-1.26-.775-1.723-1.214-.428-.524-.878-1.166-1.63-1.785-.753-.619-1.48-1.252-1.787-1.892a5.8 5.8 0 0 1-.567-1.938 3.8 3.8 0 0 1 .208-1.73c.191-.508.495-.949.893-1.307a3.85 3.85 0 0 1 1.454-.81q.427-.132.908-.182t1.016-.008a6.8 6.8 0 0 1 2.114.538 8.1 8.1 0 0 1 1.955 1.19 7.2 7.2 0 0 1 1.535 1.719c.406.646.928 1.559 1.088 2.358a3.53 3.53 0 0 1-.131 1.88c-.039.108.498.304.628-.002.243-.57.234-1.244.102-1.897-.18-.883-.695-1.871-1.144-2.587a7.9 7.9 0 0 0-1.703-1.899 8.8 8.8 0 0 0-2.16-1.296 7.4 7.4 0 0 0-2.34-.564 6 6 0 0 0-.578-.012" style="color:#000;clip-rule:nonzero;display:inline;overflow:visible;opacity:1;isolation:auto;mix-blend-mode:normal;color-interpolation:sRGB;color-interpolation-filters:linearRGB;solid-color:#000;solid-opacity:1;fill:#394655;fill-opacity:1;fill-rule:nonzero;stroke:none;stroke-width:10;stroke-linecap:butt;stroke-linejoin:miter;stroke-miterlimit:4;stroke-dasharray:none;stroke-dashoffset:0;stroke-opacity:1;color-rendering:auto;image-rendering:auto;shape-rendering:auto;text-rendering:auto" transform="rotate(18.859 10026.034 -11114.286)scale(-5.87505 5.87505)"/><path d="M-730.273 382.913c1.807-2.764 6.313-3.63 13.246-1.617 10.53 3.057 22.434 14.977 28.948 24.047 3.574 4.975 7.643 9.782 9.648 15.624.68 1.983 1.276 3.978.69 6.704-2.407-.494-4.188-3.623-5.38-6.013-4.7-9.42-11.386-17.865-20.096-24.139-7.328-5.278-8.205-8.972-15.615-12.257-4.69-2.08-7.441-1.02-11.44-2.35" style="color:#000;clip-rule:nonzero;display:inline;overflow:visible;opacity:1;isolation:auto;mix-blend-mode:normal;color-interpolation:sRGB;color-interpolation-filters:linearRGB;solid-color:#000;solid-opacity:1;fill:#394655;fill-opacity:1;fill-rule:nonzero;stroke:none;stroke-width:10;stroke-linecap:butt;stroke-linejoin:miter;stroke-miterlimit:4;stroke-dasharray:none;stroke-dashoffset:0;stroke-opacity:1;color-rendering:auto;image-rendering:auto;shape-rendering:auto;text-rendering:auto" transform="rotate(18.859 213.006 552.893)scale(-.42416 .42416)"/><path d="M-689.32 403.5c2.089-2.189-1.901 4.556-4.484 5.369-9.695 3.051-19.018 7.226-28.579 10.645-3.113 1.112-3.947-2.11-1.307-3.73 2.683-1.645 5.457-2.739 8.355-3.752 2.716-.95 5.644-1.286 8.277-2.424 5.061-2.187 7.834-5.206 12.759-7.68 1.689-.848 3.868 2.736 4.976 1.574z" style="color:#000;clip-rule:nonzero;display:inline;overflow:visible;opacity:1;isolation:auto;mix-blend-mode:normal;color-interpolation:sRGB;color-interpolation-filters:linearRGB;solid-color:#000;solid-opacity:1;fill:#394655;fill-opacity:1;fill-rule:nonzero;stroke:none;stroke-width:10;stroke-linecap:butt;stroke-linejoin:miter;stroke-miterlimit:4;stroke-dasharray:none;stroke-dashoffset:0;stroke-opacity:1;color-rendering:auto;image-rendering:auto;shape-rendering:auto;text-rendering:auto" transform="rotate(18.859 213.006 552.893)scale(-.42416 .42416)"/></g><g style="display:inline;opacity:1"><path d="M423.503 581.835c-.004 4.4-1.198 7.589-3.375 9.829s-5.331 3.551-9.146 4.443c-3.815.89-8.283 1.395-13.057 1.838s-9.851.79-14.95 1.1c-5.098.308-9.945.347-14.402.085-4.457-.26-8.524-.799-11.993-1.712s-6.337-2.213-8.356-4.092c-2.019-1.88-3.187-4.345-3.255-7.511-.067-3.166.999-5.486 2.926-7.084s4.712-2.464 8.1-2.847 7.372-.283 11.77-.16 9.21.234 14.332-.122c5.12-.357 10.271-1.474 15.16-2.541 4.888-1.068 9.504-2.052 13.438-2.272s7.178.324 9.398 2.046c2.221 1.723 3.415 4.6 3.41 9" style="color:#000;clip-rule:nonzero;display:inline;overflow:visible;opacity:1;isolation:auto;mix-blend-mode:normal;color-interpolation:sRGB;color-interpolation-filters:linearRGB;solid-color:#000;solid-opacity:1;fill:#e1d6b9;fill-opacity:1;fill-rule:nonzero;stroke:none;stroke-width:10;stroke-linecap:butt;stroke-linejoin:miter;stroke-miterlimit:4;stroke-dasharray:none;stroke-dashoffset:0;stroke-opacity:1;color-rendering:auto;image-rendering:auto;shape-rendering:auto;text-rendering:auto" transform="matrix(-.13059 -.42795 .6087 -.11093 28.814 834.324)"/><path d="M411.914 568.549c-3.75-.027-8.087.54-12.762 1.287-5.342.854-11.107 1.92-17.01 2.326-5.902.406-11.41.383-16.447.414s-9.604.16-13.508.86c-3.903.698-7.135 1.967-9.408 3.968s-3.585 4.717-3.652 8.176 1.218 6.307 3.543 8.58 5.688 3.98 9.762 5.25c4.073 1.27 8.852 2.12 14.056 2.598 5.205.479 10.834.561 16.703.222 5.87-.338 11.472-.786 16.606-1.35 5.134-.562 9.793-1.223 13.707-2.343a27.6 27.6 0 0 0 4.127-1.52c2.545-1.193 2.05-6.172-.1-4.54-1.991 1.511-4.143 1.681-7.157 2.35-3.673.815-8.181.991-12.55 1.343s-8.78 1.784-13.313 2.077c-4.535.293-8.868.328-12.932.07-4.064-.257-7.857-.78-11.125-1.642-3.268-.863-5.997-2.08-7.885-3.814s-2.925-3.988-2.978-6.801.901-4.82 2.669-6.106c1.767-1.286 5.617-.585 8.691-.714 3.075-.13 6.907-.545 10.788-.417 3.882.127 6.546-.481 11.049-1.214s9.152-2.344 13.887-3.721 9.225-2.343 13.009-2.554q.71-.04 1.388-.045c1.16-.007 2.25.044 3.25.236 1.153.222 2.316-2.861-.838-2.927-.511-.011-1.034-.045-1.57-.05" style="color:#000;clip-rule:nonzero;display:inline;overflow:visible;opacity:1;isolation:auto;mix-blend-mode:normal;color-interpolation:sRGB;color-interpolation-filters:linearRGB;solid-color:#000;solid-opacity:1;fill:#394655;fill-opacity:1;fill-rule:nonzero;stroke:none;stroke-width:10;stroke-linecap:butt;stroke-linejoin:miter;stroke-miterlimit:4;stroke-dasharray:none;stroke-dashoffset:0;stroke-opacity:1;color-rendering:auto;image-rendering:auto;shape-rendering:auto;text-rendering:auto" transform="matrix(-.13059 -.42795 .6087 -.11093 28.814 834.324)"/></g></g><g style="display:inline"><path d="M83.39 524.743c-6.146-1.227-13.331-2.601-13.331-2.601" style="fill:none;fill-rule:evenodd;stroke:#5d7a63;stroke-width:1px;stroke-linecap:butt;stroke-linejoin:miter;stroke-opacity:1" transform="rotate(73.961 124.798 450.757)"/><path d="M100.801 457.383c-11.349-.773-15.897-3.323-15.897-3.323" style="fill:none;fill-opacity:1;fill-rule:evenodd;stroke:#5d7a63;stroke-width:1px;stroke-linecap:butt;stroke-linejoin:miter;stroke-opacity:1" transform="rotate(73.961 124.798 450.757)"/><path d="m113.996 449.208-25.082-13.65c1.05 6.532 3.04 13.422-4.044 18.464 3.432 7.983-.231 15.986-5.402 19.55 6.776 12.304 1.812 19.64-4.749 26.3 3.53 10.08 1.618 17.256-4.102 22.399 4.852 15.745-1.45 15.938-4.203 20.936l28.277 3.583" style="fill:none;fill-rule:evenodd;stroke:#5d7a63;stroke-width:3;stroke-linecap:butt;stroke-linejoin:miter;stroke-miterlimit:4;stroke-dasharray:none;stroke-opacity:1" transform="rotate(73.961 124.798 450.757)"/><path d="M83.589 542.97c-3.718-6.465 2.08-37.76 2.08-37.76l12.707-41.84s1.464-15.42 6.1-19.01c4.636-3.592 13.986 1.452 14.924 3.848s-8.536 51.653-9.314 54.205-19.678 38.246-19.678 38.246z" style="fill:#5d7a63;fill-opacity:1;fill-rule:evenodd;stroke:none;stroke-width:1px;stroke-linecap:butt;stroke-linejoin:miter;stroke-opacity:1" transform="rotate(73.961 124.798 450.757)"/><path d="M107.255 466.863c-16.741-3.885-29.913-.286-34.88 21.14-4.967 21.428 7.333 37.397 24.52 37.429 53.921.101 105.828-.372 131.514 3.784 11.605-.263 9.036-8.207 2.246-11.704-28.655-24.455-103.993-43.724-123.4-50.65" style="display:inline;fill:#5d7a63;fill-opacity:1;fill-rule:evenodd;stroke:none;stroke-width:1px;stroke-linecap:butt;stroke-linejoin:miter;stroke-opacity:1" transform="rotate(73.961 124.798 450.757)"/><path d="M104.67 469.88c-16.88-2.21-25.013 3.585-28.352 18.703-3.851 14.833 2.431 30.032 18.822 32.12 18.055 2.3 100.42-1.774 133.563 5.982 3.743.876 4.314-1.53 2.995-4.66-5.656-13.421-115.994-49.195-127.029-52.146" style="display:inline;fill:#9dbfa4;fill-opacity:1;fill-rule:evenodd;stroke:none;stroke-width:1px;stroke-linecap:butt;stroke-linejoin:miter;stroke-opacity:1" transform="rotate(73.961 124.798 450.757)"/><path d="M222.055 539.568c11.61 27.357 7.255 120.726 2.257 159.664a9 9 0 0 0 1.336-.837c11.585-8.83 18.667-124.606 18.768-136.028-1.945-15.832-8.779-22.472-22.361-22.799" style="fill:#80a087;fill-opacity:1;fill-rule:evenodd;stroke:none;stroke-width:1px;stroke-linecap:butt;stroke-linejoin:miter;stroke-opacity:1" transform="rotate(-1.576 -4396.53 5718.95)"/><path d="M180.513 532.305c-3.033-.59-5.775-5.43-3.778-8.158 1.682-2.298 5.68-2.22 8.293-10.393 6.45-20.166-2.937-17.52.778-22.121 1.293-1.602 4.656-2.172 7.776-.388 4.076 2.331 4.737 10.16 4.498 14.001-.377 6.06-1.736 13.786-5.434 19.244-2.646 3.905-7.663 8.686-12.133 7.815z" style="fill:#5d7a63;fill-opacity:1;fill-rule:evenodd;stroke:#5d7a63;stroke-width:1px;stroke-linecap:butt;stroke-linejoin:miter;stroke-opacity:1" transform="rotate(73.961 124.798 450.757)"/><path d="M82.81 538.956c-1.188 5.202 7.07 12.559 13.007 12.21 5.26-.308 7.887-7.35 10.18-12.094 12.993-26.885 21.158-58.106 17.856-87.784-.329-2.95-1.035-6.718-3.65-8.121-5.059-2.717-13.435-1.707-16.997 2.796 2.044 5.5 4.106 10.586 4.096 16.135-.045 23.061-7.419 46.143-17.279 66.99-1.742 3.683-6.302 5.878-7.213 9.868" style="fill:#5d7a63;fill-opacity:1;fill-rule:evenodd;stroke:none;stroke-width:1px;stroke-linecap:butt;stroke-linejoin:miter;stroke-opacity:1" transform="rotate(73.961 124.798 450.757)"/><path d="M85.12 526.131c-1.58 12.158.311 14.8 1.542 15.596 1.23.797 4.829 3.623 11.369-10.079 7.318-15.333 12.18-37.583 13.733-46.874 2.576-15.417 5.188-33.514 1.15-36.263-1.501-1.023-4.32-.309-6.774 3.878-1.89 3.221-3.04 9.17-2.78 9.844.26.675 1.596 2.499 3.055.961 1.458-1.538 3.17-4.96 4.084-3.228.915 1.731.118 10.228-.831 15.885-.95 5.657-6.173 28.452-7.866 33.161-1.693 4.71-5.452 17.05-8.594 19.622-.75.613-3.286 2.162-4.343-.185-.966-2.149-1.79-4.648-2.594-4.721s-1.151 2.403-1.151 2.403" style="fill:#9dbfa4;fill-opacity:1;fill-rule:evenodd;stroke:none;stroke-width:1px;stroke-linecap:butt;stroke-linejoin:miter;stroke-opacity:1" transform="rotate(73.961 124.798 450.757)"/><path d="M79.383 505.673C61.9 518.94 52.89 519.375 46.97 511.702c-9.16-11.872-14.34-14.846-19.283-15.079-4.944-.232-11.926.988-11.926.988s15.298-8.951 22.52-6.78c7.224 2.172 11.99 8.901 11.99 8.901s-5.337-15.118-20.438-16.325c-15.1-1.208-18.721-16.73-18.721-16.73s20.786 4.005 28.84-1.556c8.052-5.56 17.912-14.357 25.653-12.777 7.742 1.58 18.115 24.683 19.326 28.153 2.59 7.427-1.556 22.147-5.548 25.176z" style="fill:#ffb280;fill-opacity:1;fill-rule:evenodd;stroke:#5d3e29;stroke-width:3.6173954;stroke-linecap:butt;stroke-linejoin:miter;stroke-miterlimit:4;stroke-dasharray:none;stroke-opacity:1" transform="rotate(73.961 124.798 450.757)"/><path d="M95.458 547.879c-18.1-3.315-27.754-4.718-27.754-4.718s7.515-8.018 4.3-14.442c7.246-8.047 13.237-10.606 10.23-19.703 9.63-7.348 9.65-17.684 5.77-28.199 2.809-7.509 11.581-12.242 2.28-24.92 4.988-5.726 6.75-8.186.272-20.051 8.489 3.69 16.643 7.603 28.11 9.291" style="fill:none;fill-rule:evenodd;stroke:#5d7a63;stroke-width:4;stroke-linecap:butt;stroke-linejoin:miter;stroke-miterlimit:4;stroke-dasharray:none;stroke-opacity:1" transform="rotate(73.961 124.798 450.757)"/><path d="M72.892 530.157c9.579-.017 24.541 2.652 24.96 3.447m-14.434-24.307c9.158.686 22.391 5.057 22.391 5.057m-16.614-33.486c10.164 5.135 23.278 6.722 23.278 6.722m-20.675-31.661c11.565 5.735 24.038 6.56 24.038 6.56" style="fill:none;fill-rule:evenodd;stroke:#5d7a63;stroke-width:2;stroke-linecap:butt;stroke-linejoin:miter;stroke-miterlimit:4;stroke-dasharray:none;stroke-opacity:1" transform="rotate(73.961 124.798 450.757)"/><path d="M35.992 477.657c4.957 6.916 21.772 5.344 24.35 13.935 1.666 5.55-5.103 14.554-.236 15.314 3.249.507 15.34-5.156 16.504-9.675 1.553-6.029-1.202-14.633-2.357-21.285-.728-4.19-2.58-11.45-7.793-11.237-4.671.19-4.075 6.759-11.067 9.373-9.953 3.72-23.313-1.883-19.401 3.575" style="fill:#ffefc5;fill-opacity:1;fill-rule:evenodd;stroke:none;stroke-width:1px;stroke-linecap:butt;stroke-linejoin:miter;stroke-opacity:1" transform="rotate(73.961 124.798 450.757)"/></g><g style="display:inline;opacity:.06000001" transform="translate(-137.025 -121.895)"><path d="M443.84 306.577c-3.589.042-7.174.204-10.745.482-19.233.592-38.595 2.141-57.675 5.283 65.389-.975 128.367 55.788 129.174 117.467.905 69.28-18.303 92.543-18.47 132.041-.203 47.795 18.13 83.088-6.986 116.86-18.86 25.36-37.78 41.444-56.037 50.92 13.17-.261 26.336-1.752 39.272-4.344 4.716 6.547 3.49 18.063 12.508 20.691 7.3 1.614 11.434-6.792 9.396-12.934-.685-4.529-2.441-8.558-4.226-12.728 20.949-8.024 43.957-16.401 56.703-36.227 15.3-21.374 22.527-48.128 20.443-74.19-.187-4.944-.55-9.798-1.004-14.704 4.105-1.83 9.173-8.983 4.043-12.195-3.196.41-7.954-.856-7.053-5.041-5.871-28.159-9.762-57.902-1.377-85.995 7.37-26.81 16.096-53.801 14.061-82.002-.52-13.431-3.39-26.667-7.27-39.435-.278-4.985 6.693-5.432 9.99-7.776 9.952-3.927 20.082-9.758 24.26-20.17 5.627-11.958-.438-27.437-12.755-32.283-18.326-8.355-41.412-2.026-54.235 13.168-2.742 4.383-5.948 4.523-9.668 1.186-21.93-12.782-47.231-18.367-72.35-18.074m106.488 31.388a2 2 0 0 1 .512.03c6.15 1.215-1.93 8.272-2.512 2.398-.107-1.201.833-2.338 2-2.428m6.734 246.758c3.365.133 3.568 7.093-.68 6.266-2.089-.657-1.943-7.03-.464-6.072a3 3 0 0 1 1.144-.194m-225.549 145.74c.967 2.124 2.537 3.94 4.934 5.211 2.075.374 3.84-.084 5.379-1.017a131 131 0 0 1-10.313-4.194" style="color:#000;clip-rule:nonzero;display:inline;overflow:visible;opacity:1;isolation:auto;mix-blend-mode:normal;color-interpolation:sRGB;color-interpolation-filters:linearRGB;solid-color:#000;solid-opacity:1;fill:#000;fill-opacity:1;fill-rule:nonzero;stroke:none;stroke-width:2;stroke-linecap:round;stroke-linejoin:miter;stroke-miterlimit:4;stroke-dasharray:none;stroke-dashoffset:0;stroke-opacity:1;color-rendering:auto;image-rendering:auto;shape-rendering:auto;text-rendering:auto"/><ellipse cx="330.469" cy="482.665" rx="22.451" ry="20.683" style="color:#000;clip-rule:nonzero;display:inline;overflow:visible;opacity:1;isolation:auto;mix-blend-mode:normal;color-interpolation:sRGB;color-interpolation-filters:linearRGB;solid-color:#000;solid-opacity:1;fill:#000;fill-opacity:1;fill-rule:nonzero;stroke:none;stroke-width:2;stroke-linecap:round;stroke-linejoin:miter;stroke-miterlimit:4;stroke-dasharray:none;stroke-dashoffset:0;stroke-opacity:1;color-rendering:auto;image-rendering:auto;shape-rendering:auto;text-rendering:auto"/></g><g style="display:inline"><path d="M434.25 713.362c3.5 9.75 6 21.5 15.75 22.5s30.25-7 38.75-7.5 20.5-.75 24.5-9.25 11-57.25 11.75-72 6.75-46 2.25-53.5-30.75-17.5-32.75-16.75-30 14.75-37 30.5-7.5 62.25-11 77-12.25 29-12.25 29z" style="fill:#a7cfb5;fill-opacity:1;fill-rule:evenodd;stroke:#5d7a63;stroke-width:2;stroke-linecap:butt;stroke-linejoin:miter;stroke-miterlimit:4;stroke-dasharray:none;stroke-opacity:1" transform="translate(-137.025 -121.895)"/><path d="M506.25 592.925c-9.399 7.497-15.815 13.074-21.028 22.83-14.267 26.705-5.047 69.073-11.284 81.286-8.485 16.617-28.107 35.002-32.703 37.123s-13.082 5.303-32.174 4.596-28.284-3.182-43.84-8.485-40.305-11.314-47.376-16.97c-7.072-5.657-16.618-19.8-14.496-25.81s67.882-26.516 75.66-31.466 47.73-31.113 56.922-41.012 16.264-30.406 30.406-31.467 25.456 2.829 25.456 2.829z" style="fill:#a7cfb5;fill-opacity:1;fill-rule:evenodd;stroke:#5d7a63;stroke-width:2;stroke-linecap:butt;stroke-linejoin:miter;stroke-miterlimit:4;stroke-dasharray:none;stroke-opacity:1" transform="translate(-137.025 -121.895)"/><path d="M464.25 584.112c16.25 1 45.5 10.75 44.75 17.75s-4 30.5-8.5 44.25-4.25 24.875-1.5 33.875 6.5 23 5.75 29-9.625 20.875-.75 23.625c5.456 1.69 11.75-2 18.25-1.75s9.75 4.25 10.75-1 .75-36.5 0-44.25 0-27.25 1.75-55.25 4.5-46-1.75-52.75-35-10.5-38.75-10-30 16.5-30 16.5z" style="fill:#a7cfb5;fill-opacity:1;fill-rule:evenodd;stroke:#5d7a63;stroke-width:2;stroke-linecap:butt;stroke-linejoin:miter;stroke-miterlimit:4;stroke-dasharray:none;stroke-opacity:1" transform="translate(-137.025 -121.895)"/><path d="M487 577.612c26.144-3.36 49.055 9.535 46.939 24.1-1.983 13.644-13.328 28.72-8.189 67.65 1.449 10.976 4.5 29.5 5.5 38.75s-4 19.25 3 20.75 23 12.5 30.25 6.25 1.75-22-.25-28.25-4.002-34-4.75-42c-.821-8.785 1.924-44.038-.75-66.75-1.044-8.862-4-25-5-29.5s-6.25-9-7.5-9.75-21.25-2.75-27-2-32.25 20.75-32.25 20.75z" style="fill:#a7cfb5;fill-opacity:1;fill-rule:evenodd;stroke:#5d7a63;stroke-width:2;stroke-linecap:butt;stroke-linejoin:miter;stroke-miterlimit:4;stroke-dasharray:none;stroke-opacity:1" transform="translate(-137.025 -121.895)"/><path d="M255.205 577.338c2.056 1.127 7.334 14.364 1.201 19.815-1.772 1.575 4.264 6.717 5.273 16.4 1.245 11.94 7.304 19.254 9.053 20.85 1.847 1.685 67.265 18.09 84.236 11.373 16.97-6.718 59.043-21.567 71.064-32.527s35.709-35.355 26.87-39.245c-8.839-3.889-.354-3.182-31.82 0s-55.91 14.49-89.492 15.193c-33.266.695-40.251 2.768-54.404-9.536-4.831-4.2-15.244-6.383-19.56-6.251-1.994.06-5.676 2.146-2.421 3.928z" style="fill:#a7cfb5;fill-opacity:1;fill-rule:evenodd;stroke:#5d7a63;stroke-width:3;stroke-linecap:butt;stroke-linejoin:miter;stroke-miterlimit:4;stroke-dasharray:none;stroke-opacity:1" transform="translate(-137.025 -121.895)"/><path d="M282.84 658.541c1 16.5 1.872 31.056 15.938 39.25 17.591 10.248 44.212 10.748 63.212-1.752s46.742-32.652 61.742-38.652S457.5 650.862 465 636.362s10-19 11.5-27-1-12 5-20.5 7-14 21.5-17 20.5-4 33.5-3.5 18.5 2 22.5 0 6.5-8 6-10-4.93-13.884-11-16.5c-19.1-8.23-41.982 3.321-61.5 10.5-17.464 6.424-36.057 14.23-48 28.5-8.226 9.828-5 26.409-13.5 36-21.31 24.046-44.879 29.613-77.753 37.375-39.312 9.28-70.406 4.304-70.406 4.304z" style="fill:#a7cfb5;fill-opacity:1;fill-rule:evenodd;stroke:#5d7a63;stroke-width:2;stroke-linecap:butt;stroke-linejoin:miter;stroke-miterlimit:4;stroke-dasharray:none;stroke-opacity:1" transform="translate(-137.025 -121.895)"/><path d="M269.5 630.987c19.022 8.016 38.754 5.592 53.429 3.727 40.607-5.162 88.046-19.137 106.571-45.352 26.5-37.5 119.5-65.5 119.5-65.5s30.5 20.5 30.5 23.5-7 18-17.5 19-43-14-59-7-43 9-42 28 7 37-29 50-72 35-101 34-51 2-65-7-1.81-35.612 3.5-33.375z" style="fill:#a7cfb5;fill-opacity:1;fill-rule:evenodd;stroke:#5d7a63;stroke-width:2;stroke-linecap:butt;stroke-linejoin:miter;stroke-miterlimit:4;stroke-dasharray:none;stroke-opacity:1" transform="translate(-137.025 -121.895)"/><path d="M254.25 575.737c11.25.875 19.103 14.285 26.125 20.625 22.048 19.907 52.196 13.555 78.75 12.5" style="fill:none;fill-rule:evenodd;stroke:#5d7a63;stroke-width:2;stroke-linecap:round;stroke-linejoin:miter;stroke-miterlimit:4;stroke-dasharray:none;stroke-opacity:1" transform="translate(-137.025 -121.895)"/><path d="M254.062 575.55c6.154 1.067 13.906 16.512 14.291 25.131 1.752 39.204 46.948 21.393 69.839 22.573" style="fill:none;fill-rule:evenodd;stroke:#5d7a63;stroke-width:1.63280904;stroke-linecap:round;stroke-linejoin:miter;stroke-miterlimit:4;stroke-dasharray:none;stroke-opacity:1" transform="translate(-137.025 -121.895)"/><path d="M447.69 570.964c-11.25.875-42.039 12.933-52.465 17.443-22.417 9.699-50.993 13.838-78.75 12.5" style="fill:none;fill-rule:evenodd;stroke:#5d7a63;stroke-width:1.5;stroke-linecap:round;stroke-linejoin:miter;stroke-miterlimit:4;stroke-dasharray:none;stroke-opacity:1" transform="translate(-137.025 -121.895)"/><path d="M486.69 553.214c-7.78 4.782-25.68 12.571-37.1 23.515-7.364 7.057-7.615 27.808-22.796 41.76-43.8 40.25-61.898 25.221-94.319 28.918-25.586 2.918-40.136 12.531-62.75 2m158.39.71c-11.25.875-55.49 21.175-65.546 26.458-25.864 13.589-46.813 20.505-67.79 11.086" style="fill:none;fill-rule:evenodd;stroke:#5d7a63;stroke-width:1.5;stroke-linecap:round;stroke-linejoin:miter;stroke-miterlimit:4;stroke-dasharray:none;stroke-opacity:1" transform="translate(-137.025 -121.895)"/><path d="M463.604 679.33c-8.08.829-39.858 20.057-47.08 25.062-18.579 12.87-33.626 19.422-48.693 10.5m126.12 3.111c-5.673.674-17.184-.023-31.545 6.612m62.555-156.078c25.023 1.934 21.959 47.638 15.637 75.667-6.403 28.387 14.732 43.802 13.247 81.445" style="fill:none;fill-rule:evenodd;stroke:#5d7a63;stroke-width:1.23726535;stroke-linecap:round;stroke-linejoin:miter;stroke-miterlimit:4;stroke-dasharray:none;stroke-opacity:1" transform="translate(-137.025 -121.895)"/></g><g style="display:inline;opacity:.06000001"><path d="M549 523.861s-31.092 10.145-61.301 24.375c7.364 3.742 10.521 11.462.47 13.66-28.973 6.336-33.683 24.552-30.583 33.32 1.842 5.21.694 15.99-1.318 25.161 3.943 4.37 13.995 14.26 3.576 22.941-1.31 1.093-1.716 1.98-2.878 3.132 11.114-.5 3.421 31.242-8.448 38.487-2.465 1.47-5.021 2.59-6.386 4.285 8.567 5.995 5.627 16.09-13.415 48.626 6.165-.984 9.95-2.499 12.517-3.684.524-.242 1.264-.72 2.139-1.357 1.767 1.666 3.916 2.776 6.627 3.054 9.75 1 30.25-7 38.75-7.5 3.464-.203 7.506-.374 11.354-1.07.135 2.505 1.184 4.48 3.896 5.32 5.456 1.69 11.75-2 18.25-1.75s9.75 4.25 10.75-1c.065-.339.125-.793.18-1.336a6 6 0 0 0 1.07.336c7 1.5 23 12.5 30.25 6.25s1.75-22-.25-28.25-4.002-34-4.75-42c-.821-8.785 1.924-44.037-.75-66.75-1.006-8.544-3.753-23.626-4.848-28.746 2.063-.03 3.68-.295 5.098-1.004.942-.47 1.797-1.168 2.553-1.978.148-.008.307-.008.447-.022 10.5-1 17.5-16 17.5-19s-30.5-23.5-30.5-23.5" style="display:inline;fill:#000;fill-opacity:1;fill-rule:evenodd;stroke:none;stroke-width:2;stroke-linecap:butt;stroke-linejoin:miter;stroke-miterlimit:4;stroke-dasharray:none;stroke-opacity:1" transform="translate(-137.025 -121.895)"/><path d="m457.83 622.002-.717.871c-3.694 4.5-8.314 7.987-15.058 11.367-3.323 1.666-5.87 2.725-12.315 5.13-7.886 2.94-14.39 5.655-32.271 13.464-26.144 11.417-37.623 15.57-49.832 18.027-7.798 1.57-8.183 1.584-34.383 1.28-12.99-.151-24.616-.391-25.838-.532-1.222-.14-2.268-.208-2.324-.152-.197.197.69 5.06 1.433 7.86.31 1.164.668 2.262 1.057 3.32 14.375 3.81 38.86 2.98 57.553-4.946 27.93-11.844 60.885-27.682 82.853-31.66 11.492-2.08 21.87-1.98 30.729-3.574 2.496-2.27 4.823-5.223 5.603-7.291.837-2.216-1.618-7.644-5.39-11.918zm.03 24.368c-.233 0-1.284.497-2.335 1.103-4 2.307-8.752 4.042-19.513 7.129-3.369.966-7.09 2.083-8.27 2.482-9.388 3.176-20.008 9.394-45.73 26.777-20.664 13.965-21.374 14.424-25.34 16.375-12.846 6.32-28.714 7.99-43.033 4.528-1.375-.333-2.533-.57-2.575-.53-.159.16 3.143 4.105 4.936 5.899a25 25 0 0 0 2.62 2.305c26.774 5.914 50.24-1.568 57.13-6.827 9.5-7.25 37.25-27 52.25-27.75 7.15-.357 16.8.587 26.375 1.272 4.492-6.412 7.942-16.38 7.986-23.889.02-3.416-.316-5.082-1.357-6.723-.7-1.102-2.233-2.152-3.145-2.152" style="fill:#000;fill-opacity:1;stroke:none;stroke-width:2;stroke-linecap:round;stroke-miterlimit:4;stroke-dasharray:none;stroke-opacity:1" transform="translate(-137.025 -121.895)"/></g><g style="display:inline"><g transform="translate(14.446 95.082)scale(.6561)"><path d="M547.428 318.165c-.44 14.771-4.13 29.026-10.39 42.252s-15.092 25.427-25.805 35.997-23.304 19.508-37.118 26.09-28.851 10.803-44.502 11.862c-15.65 1.059-30.44-1.159-43.818-6.168s-25.34-12.807-35.3-22.804c-9.961-9.997-17.917-22.19-23.266-35.908-5.35-13.718-8.092-28.96-7.642-44.981s4.044-31.294 10.142-45.079 14.696-26.082 25.17-36.257c10.473-10.176 22.822-18.23 36.461-23.662 13.64-5.43 28.572-8.243 44.23-8.025a121.4 121.4 0 0 1 44.11 8.941c13.548 5.515 25.74 13.338 35.925 22.915s18.362 20.914 23.877 33.533 8.366 26.522 7.926 41.294" style="color:#000;clip-rule:nonzero;display:inline;overflow:visible;opacity:1;isolation:auto;mix-blend-mode:normal;color-interpolation:sRGB;color-interpolation-filters:linearRGB;solid-color:#000;solid-opacity:1;fill:#394655;fill-opacity:1;fill-rule:nonzero;stroke:none;stroke-width:2;stroke-linecap:butt;stroke-linejoin:miter;stroke-miterlimit:4;stroke-dasharray:none;stroke-dashoffset:0;stroke-opacity:1;color-rendering:auto;image-rendering:auto;shape-rendering:auto;text-rendering:auto"/><path d="M539.722 314.79c.001 13.9-3.015 27.538-8.513 40.353-5.498 12.814-13.48 24.805-23.377 35.252s-21.705 19.342-34.785 25.879-27.425 10.712-42.377 11.767-29.091-1.113-41.86-5.931c-12.767-4.819-24.168-12.288-33.665-21.791s-17.09-21.043-22.232-33.955c-5.143-12.912-7.833-27.195-7.523-42.136.31-14.94 3.59-29.108 9.23-41.858a105.9 105.9 0 0 1 23.396-33.471c9.759-9.39 21.278-16.839 34.003-21.942s26.66-7.868 41.286-7.943c14.624-.075 28.559 2.532 41.26 7.244 12.702 4.712 24.168 11.534 33.816 20.036s17.479 18.69 22.901 30.213 8.439 24.383 8.44 38.283" style="color:#000;clip-rule:nonzero;display:inline;overflow:visible;opacity:1;isolation:auto;mix-blend-mode:normal;color-interpolation:sRGB;color-interpolation-filters:linearRGB;solid-color:#000;solid-opacity:1;fill:#fff;fill-opacity:1;fill-rule:nonzero;stroke:none;stroke-width:2;stroke-linecap:butt;stroke-linejoin:miter;stroke-miterlimit:4;stroke-dasharray:none;stroke-dashoffset:0;stroke-opacity:1;color-rendering:auto;image-rendering:auto;shape-rendering:auto;text-rendering:auto"/><circle cx="458.074" cy="316.134" r="30.81" style="color:#000;clip-rule:nonzero;display:inline;overflow:visible;opacity:1;isolation:auto;mix-blend-mode:normal;color-interpolation:sRGB;color-interpolation-filters:linearRGB;solid-color:#000;solid-opacity:1;fill:#394455;fill-opacity:1;fill-rule:nonzero;stroke:none;stroke-width:2;stroke-linecap:butt;stroke-linejoin:miter;stroke-miterlimit:4;stroke-dasharray:none;stroke-dashoffset:0;stroke-opacity:1;color-rendering:auto;image-rendering:auto;shape-rendering:auto;text-rendering:auto"/><circle cx="444.437" cy="301.992" r="15.152" style="color:#000;clip-rule:nonzero;display:inline;overflow:visible;opacity:1;isolation:auto;mix-blend-mode:normal;color-interpolation:sRGB;color-interpolation-filters:linearRGB;solid-color:#000;solid-opacity:1;fill:#fff;fill-opacity:1;fill-rule:nonzero;stroke:none;stroke-width:2;stroke-linecap:butt;stroke-linejoin:miter;stroke-miterlimit:4;stroke-dasharray:none;stroke-dashoffset:0;stroke-opacity:1;color-rendering:auto;image-rendering:auto;shape-rendering:auto;text-rendering:auto"/></g><g transform="rotate(-27.195 401.302 491.116)scale(.56014)"><path d="M544.26 323.966c-5.953 12.338-15.2 24.223-25.898 35.92-10.698 11.696-22.743 23.281-34.524 34.218s-23.276 21.155-34.237 29.303-21.473 14.18-32.043 16.952c-10.57 2.77-20.297 2.025-29.304-1.678s-20.58-7.765-27.665-16.717-12.84-20.183-16.504-33.034c-3.663-12.851-5.229-27.33-3.924-42.729s5.367-30.25 11.818-43.754c6.451-13.505 15.29-25.659 26.008-35.783s28.443-20.293 42.249-25.867 28.833-8.628 44.21-8.804c15.376-.176 29.627 2.526 41.943 7.375s22.698 11.85 30.36 20.347 12.601 18.483 14.065 29.349-.6 22.565-6.553 34.902" style="color:#000;clip-rule:nonzero;display:inline;overflow:visible;opacity:1;isolation:auto;mix-blend-mode:normal;color-interpolation:sRGB;color-interpolation-filters:linearRGB;solid-color:#000;solid-opacity:1;fill:#394655;fill-opacity:1;fill-rule:nonzero;stroke:none;stroke-width:2;stroke-linecap:butt;stroke-linejoin:miter;stroke-miterlimit:4;stroke-dasharray:none;stroke-dashoffset:0;stroke-opacity:1;color-rendering:auto;image-rendering:auto;shape-rendering:auto;text-rendering:auto"/><path d="M538.18 322.659c-5.177 11.632-13.277 23.1-22.969 34.404-9.691 11.303-20.938 22.465-32.344 32.775-11.405 10.31-22.908 19.719-33.859 27.134-10.95 7.415-21.396 12.82-31.595 15.287-10.2 2.467-19.302 1.763-27.568-1.63s-19.134-6.95-25.392-15.161-11.243-18.535-14.304-30.376c-3.06-11.84-4.19-25.202-2.686-39.425 1.503-14.224 5.508-27.949 11.68-40.439 6.17-12.49 14.507-23.74 24.547-33.139 10.04-9.398 26.99-19.062 39.836-24.293a115.4 115.4 0 0 1 41-8.458c14.218-.3 27.344 2.037 38.644 6.33s20.77 10.545 27.74 18.17c6.971 7.624 11.438 16.612 12.814 26.511s-.366 20.678-5.544 32.31" style="color:#000;clip-rule:nonzero;display:inline;overflow:visible;opacity:1;isolation:auto;mix-blend-mode:normal;color-interpolation:sRGB;color-interpolation-filters:linearRGB;solid-color:#000;solid-opacity:1;fill:#fff;fill-opacity:1;fill-rule:nonzero;stroke:none;stroke-width:2;stroke-linecap:butt;stroke-linejoin:miter;stroke-miterlimit:4;stroke-dasharray:none;stroke-dashoffset:0;stroke-opacity:1;color-rendering:auto;image-rendering:auto;shape-rendering:auto;text-rendering:auto"/><circle cx="436.023" cy="235.828" r="27.721" style="color:#000;clip-rule:nonzero;display:inline;overflow:visible;opacity:1;isolation:auto;mix-blend-mode:normal;color-interpolation:sRGB;color-interpolation-filters:linearRGB;solid-color:#000;solid-opacity:1;fill:#394455;fill-opacity:1;fill-rule:nonzero;stroke:none;stroke-width:2;stroke-linecap:butt;stroke-linejoin:miter;stroke-miterlimit:4;stroke-dasharray:none;stroke-dashoffset:0;stroke-opacity:1;color-rendering:auto;image-rendering:auto;shape-rendering:auto;text-rendering:auto" transform="rotate(9.459)"/><circle cx="428.564" cy="222.476" r="13.633" style="color:#000;clip-rule:nonzero;display:inline;overflow:visible;opacity:1;isolation:auto;mix-blend-mode:normal;color-interpolation:sRGB;color-interpolation-filters:linearRGB;solid-color:#000;solid-opacity:1;fill:#fff;fill-opacity:1;fill-rule:nonzero;stroke:none;stroke-width:2;stroke-linecap:butt;stroke-linejoin:miter;stroke-miterlimit:4;stroke-dasharray:none;stroke-dashoffset:0;stroke-opacity:1;color-rendering:auto;image-rendering:auto;shape-rendering:auto;text-rendering:auto" transform="rotate(9.459)"/></g></g><g style="display:inline"><path d="m320.401 477.723 6.368.083 3.71-.082c1.185-.026 2.239.536 3.007 1.364s1.147 1.975 1.326 3.227l1.013 7.085 1.407 7.111c.253 1.281-.084 2.41-.705 3.232-.621.821-1.574 1.29-2.697 1.316l-3.744.09-7.407-.173a5.88 5.88 0 0 1-3.708-1.433 4.88 4.88 0 0 1-1.655-3.26l-.648-7.056-.525-7.045c-.094-1.254.467-2.377 1.253-3.181a4.17 4.17 0 0 1 3.005-1.278" style="color:#000;clip-rule:nonzero;display:inline;overflow:visible;opacity:1;isolation:auto;mix-blend-mode:normal;color-interpolation:sRGB;color-interpolation-filters:linearRGB;solid-color:#000;solid-opacity:1;fill:#2e3436;fill-opacity:1;fill-rule:nonzero;stroke:none;stroke-width:10;stroke-linecap:butt;stroke-linejoin:miter;stroke-miterlimit:4;stroke-dasharray:none;stroke-dashoffset:0;stroke-opacity:1;color-rendering:auto;image-rendering:auto;shape-rendering:auto;text-rendering:auto" transform="translate(-137.025 -121.895)"/><path d="m321.564 479.868 5.196.07 2.475-.101c.94-.039 1.809.436 2.462 1.114.653.677 1.034 1.617 1.211 2.643l1.003 5.793 1.255 5.808c.224 1.037-.002 1.971-.49 2.642-.487.671-1.266 1.034-2.198 1.071l-2.542.101-5.886-.127a4.75 4.75 0 0 1-2.973-1.165 4.23 4.23 0 0 1-1.44-2.665l-.73-5.77-.63-5.763c-.112-1.026.286-1.947.892-2.606a3.18 3.18 0 0 1 2.395-1.045" style="color:#000;clip-rule:nonzero;display:inline;overflow:visible;opacity:1;isolation:auto;mix-blend-mode:normal;color-interpolation:sRGB;color-interpolation-filters:linearRGB;solid-color:#000;solid-opacity:1;fill:#fff;fill-opacity:1;fill-rule:nonzero;stroke:none;stroke-width:10;stroke-linecap:butt;stroke-linejoin:miter;stroke-miterlimit:4;stroke-dasharray:none;stroke-dashoffset:0;stroke-opacity:1;color-rendering:auto;image-rendering:auto;shape-rendering:auto;text-rendering:auto" transform="translate(-137.025 -121.895)"/><path d="M350.542 471.715c-.177 2.272-1.576 4.327-3.565 6.177s-4.735 3.49-7.917 4.834a44.2 44.2 0 0 1-10.405 2.93 40.6 40.6 0 0 1-10.937.176 41 41 0 0 1-9.676-2.378c-2.814-1.074-5.178-2.347-7.04-3.76s-3.24-2.977-4.109-4.723c-.87-1.747-1.23-3.68-.914-5.763s1.291-4.115 2.799-5.981c1.507-1.867 3.535-3.566 5.916-4.98s5.113-2.542 8.129-3.282 6.318-1.09 9.93-.972c3.614.12 7.22.695 10.643 1.646 3.423.95 6.65 2.283 9.338 3.91 2.69 1.628 4.9 3.503 6.19 5.62 1.32 2.168 1.77 4.611 1.618 6.546" style="color:#000;clip-rule:nonzero;display:inline;overflow:visible;opacity:1;isolation:auto;mix-blend-mode:normal;color-interpolation:sRGB;color-interpolation-filters:linearRGB;solid-color:#000;solid-opacity:1;fill:#394655;fill-opacity:1;fill-rule:nonzero;stroke:none;stroke-width:10;stroke-linecap:butt;stroke-linejoin:miter;stroke-miterlimit:4;stroke-dasharray:none;stroke-dashoffset:0;stroke-opacity:1;color-rendering:auto;image-rendering:auto;shape-rendering:auto;text-rendering:auto" transform="translate(-137.025 -121.895)"/><path d="M342.893 471.205c-.31 1.805-1.366 3.49-2.986 5s-3.806 2.847-6.288 3.914a32.7 32.7 0 0 1-8.07 2.27 32 32 0 0 1-8.532.108c-2.831-.346-5.36-1.03-7.553-1.905-2.194-.875-4.045-1.938-5.497-3.125-1.453-1.187-2.51-2.502-3.133-3.934a7.67 7.67 0 0 1-.49-4.63c.325-1.646 1.14-3.226 2.342-4.668s2.79-2.744 4.659-3.82c1.87-1.078 4.02-1.93 6.39-2.482 2.37-.551 4.961-.802 7.767-.685s5.573.586 8.187 1.341c2.615.755 5.072 1.798 7.147 3.062s3.76 2.75 4.832 4.373c1.073 1.622 1.535 3.377 1.225 5.181" style="color:#000;clip-rule:nonzero;display:inline;overflow:visible;opacity:1;isolation:auto;mix-blend-mode:normal;color-interpolation:sRGB;color-interpolation-filters:linearRGB;solid-color:#000;solid-opacity:1;fill:#e1d0cb;fill-opacity:1;fill-rule:nonzero;stroke:none;stroke-width:10;stroke-linecap:butt;stroke-linejoin:miter;stroke-miterlimit:4;stroke-dasharray:none;stroke-dashoffset:0;stroke-opacity:1;color-rendering:auto;image-rendering:auto;shape-rendering:auto;text-rendering:auto" transform="translate(-137.025 -121.895)"/><path d="M332.855 460.194c-.452 1.293-1.436 2.441-2.797 3.41-1.36.97-3.093 1.76-4.973 2.368s-3.9 1.032-5.875 1.257c-1.976.226-3.91.253-5.72.052-1.811-.2-3.34-.607-4.633-1.174s-2.353-1.293-3.187-2.149c-.834-.855-1.445-1.84-1.8-2.931a7.1 7.1 0 0 1-.21-3.558c.24-1.267.8-2.481 1.648-3.579.849-1.098 1.983-2.077 3.355-2.872s2.98-1.405 4.768-1.767c1.786-.362 3.751-.476 5.823-.29 2.071.185 4.053.65 5.845 1.33 1.793.678 3.395 1.568 4.692 2.601s2.289 2.21 2.844 3.453c.556 1.244.672 2.556.22 3.849" style="color:#000;clip-rule:nonzero;display:inline;overflow:visible;opacity:1;isolation:auto;mix-blend-mode:normal;color-interpolation:sRGB;color-interpolation-filters:linearRGB;solid-color:#000;solid-opacity:1;fill:#394655;fill-opacity:1;fill-rule:nonzero;stroke:none;stroke-width:10;stroke-linecap:butt;stroke-linejoin:miter;stroke-miterlimit:4;stroke-dasharray:none;stroke-dashoffset:0;stroke-opacity:1;color-rendering:auto;image-rendering:auto;shape-rendering:auto;text-rendering:auto" transform="translate(-137.025 -121.895)"/></g><g style="display:inline"><path d="M423.503 581.835c-.004 4.4-1.198 7.589-3.375 9.829s-5.331 3.551-9.146 4.443c-3.815.89-8.283 1.395-13.057 1.838s-9.851.79-14.95 1.1c-5.098.308-9.945.347-14.402.085-4.457-.26-8.524-.799-11.993-1.712s-6.337-2.213-8.356-4.092c-2.019-1.88-3.187-4.345-3.255-7.511-.067-3.166.999-5.486 2.926-7.084s4.712-2.464 8.1-2.847 7.372-.283 11.77-.16 9.21.234 14.332-.122c5.12-.357 10.271-1.474 15.16-2.541 4.888-1.068 9.504-2.052 13.438-2.272s7.178.324 9.398 2.046c2.221 1.723 3.415 4.6 3.41 9" style="color:#000;clip-rule:nonzero;display:inline;overflow:visible;opacity:1;isolation:auto;mix-blend-mode:normal;color-interpolation:sRGB;color-interpolation-filters:linearRGB;solid-color:#000;solid-opacity:1;fill:#e1d6b9;fill-opacity:1;fill-rule:nonzero;stroke:none;stroke-width:10;stroke-linecap:butt;stroke-linejoin:miter;stroke-miterlimit:4;stroke-dasharray:none;stroke-dashoffset:0;stroke-opacity:1;color-rendering:auto;image-rendering:auto;shape-rendering:auto;text-rendering:auto" transform="matrix(.18128 -.40906 .53288 .31442 -27.99 484.169)"/><path d="M411.914 568.549c-3.75-.027-8.087.54-12.762 1.287-5.342.854-11.107 1.92-17.01 2.326-5.902.406-11.41.383-16.447.414s-9.604.16-13.508.86c-3.903.698-7.135 1.967-9.408 3.968s-3.585 4.717-3.652 8.176 1.218 6.307 3.543 8.58 5.688 3.98 9.762 5.25c4.073 1.27 8.852 2.12 14.056 2.598 5.205.479 10.834.561 16.703.222 5.87-.338 11.472-.786 16.606-1.35 5.134-.562 9.793-1.223 13.707-2.343a27.6 27.6 0 0 0 4.127-1.52c2.545-1.193 2.05-6.172-.1-4.54-1.991 1.511-4.56 2.503-7.57 3.207-3.669.857-7.967 1.341-12.559 1.767s-9.475.76-14.379 1.057c-4.903.297-9.565.335-13.851.084s-8.199-.769-11.535-1.647-6.096-2.13-8.037-3.937c-1.942-1.808-3.066-4.178-3.131-7.223s.96-5.277 2.814-6.814 4.531-2.37 7.79-2.739c3.257-.368 7.092-.272 11.322-.154s8.857.226 13.783-.117c4.925-.343 9.88-1.417 14.582-2.443s9.14-1.973 12.924-2.184q.71-.04 1.388-.045c1.16-.007 2.25.044 3.25.236 1.153.222 2.316-2.861-.838-2.927-.511-.011-1.034-.045-1.57-.05" style="color:#000;clip-rule:nonzero;display:inline;overflow:visible;opacity:1;isolation:auto;mix-blend-mode:normal;color-interpolation:sRGB;color-interpolation-filters:linearRGB;solid-color:#000;solid-opacity:1;fill:#394655;fill-opacity:1;fill-rule:nonzero;stroke:none;stroke-width:10;stroke-linecap:butt;stroke-linejoin:miter;stroke-miterlimit:4;stroke-dasharray:none;stroke-dashoffset:0;stroke-opacity:1;color-rendering:auto;image-rendering:auto;shape-rendering:auto;text-rendering:auto" transform="matrix(.18128 -.40906 .53288 .31442 -27.99 484.169)"/></g><g style="display:inline"><path d="m515.306 573.917 3.68 5.038-6.534 69.221-2.83 1.018-46.013-4.168-1.609-2.312 4.25-64.602 2.18-2.473z" style="fill:#a7cfb5;fill-opacity:1;fill-rule:evenodd;stroke:#58735d;stroke-width:1px;stroke-linecap:butt;stroke-linejoin:miter;stroke-opacity:1" transform="translate(-134.025 -128.645)"/><path d="m515.155 576.54-5.562 70.644" style="fill:none;fill-rule:evenodd;stroke:#58735d;stroke-width:1px;stroke-linecap:butt;stroke-linejoin:miter;stroke-opacity:1" transform="translate(-134.025 -128.645)"/><path d="M513.014 641.232c.062-.518 5.68-72.189 5.68-72.465 0-.08.614.695 1.364 1.72l1.365 1.863-3.239 34.294c-1.78 18.861-3.269 34.325-3.307 34.363s-.487.221-.997.407l-.929.339z" style="fill:#9dc3aa;fill-opacity:1;stroke:none;stroke-width:2;stroke-linecap:round;stroke-miterlimit:4;stroke-dasharray:none;stroke-opacity:1" transform="translate(-137.025 -121.895)"/><g style="font-style:normal;font-weight:400;font-size:28.53491211px;line-height:125%;font-family:sans-serif;letter-spacing:0;word-spacing:0;fill:#58735d;fill-opacity:1;stroke:none;stroke-width:1px;stroke-linecap:butt;stroke-linejoin:miter;stroke-opacity:1"><path d="M600.532 575.099q-2.536 1.546-5.337 1.546-4.124 0-6.409-2.87-2.285-2.856-2.285-8.053t2.188-7.97q2.2-2.773 6.367-2.773 2.41 0 5.141.864v4.612h-1.714l-.404-3.01q-1.588-.752-2.967-.752-5.643 0-5.643 9.168 0 4.278 1.602 6.59 1.602 2.37 4.445 2.37 1.086 0 2.257-.447v-5.726h-2.397v-1.714h5.156zm10.617-20.106q3.385 0 5.545 3.01t2.16 7.789q0 4.848-2.16 7.844-2.16 3.01-5.643 3.01-2.982 0-5.002-2.439-2.605-3.135-2.605-8.402 0-4.779 2.145-7.788 2.16-3.024 5.56-3.024m0 1.854q-2.244 0-3.484 2.326-1.254 2.369-1.254 6.674 0 4.264 1.24 6.618 1.227 2.383 3.484 2.383t3.427-2.048q1.324-2.285 1.324-6.925 0-4.36-1.254-6.702-1.268-2.326-3.483-2.326" style="font-style:normal;font-variant:normal;font-weight:400;font-stretch:normal;font-family:&quot;Go Mono&quot;;-inkscape-font-specification:&quot;Go Mono&quot;;fill:#58735d;fill-opacity:1" transform="matrix(.94643 -.00334 -.14216 1.0571 -134.025 -128.645)"/></g><g style="font-style:normal;font-weight:400;font-size:28.53491211px;line-height:125%;font-family:sans-serif;letter-spacing:0;word-spacing:0;fill:#58735d;fill-opacity:1;stroke:none;stroke-width:1px;stroke-linecap:butt;stroke-linejoin:miter;stroke-opacity:1"><path d="M586.501 603.183v-1.714h1.547v-17.194H586.5v-1.713h3.26l8.5 14.978h.027v-13.265h-1.532v-1.713h4.807v1.713h-1.547v18.908h-1.728l-8.485-14.992h-.042v13.278h1.547v1.713zm20.175 0v-1.714h3.093v-7.482l-5.615-9.712h-1.198v-1.713h6.451v1.713h-2.076l4.389 7.58h.028l4.389-7.58h-2.062v-1.713h5.238v1.713h-1.198l-5.6 9.698v7.496h3.092v1.713z" style="font-style:normal;font-variant:normal;font-weight:400;font-stretch:normal;font-family:&quot;Go Mono&quot;;-inkscape-font-specification:&quot;Go Mono&quot;;fill:#58735d;fill-opacity:1" transform="matrix(.94643 -.00334 -.14216 1.0571 -134.025 -128.645)"/></g></g><g style="display:inline"><path d="m479.5 139.611-43.748 117.31c-10.964-1.526-23.668-1.797-39.053-.448L331.25 151.86l48.496 106.694c-7.371 1.22-14.035 2.79-20.017 4.601L259.5 179.861l86.766 88.18c-6.218 2.665-11.46 5.53-15.82 8.355L240.5 239.361l80.672 43.96a66 66 0 0 0-4.658 4.433L236.5 266.86l74.938 28.57c-.797 13.45 4.653 24.373 9.36 39.233 13.126-7.25 22.526-10.865 42.442-15.219 38.372-8.387 76.696-10.817 110.715.897 26.595 9.158 44.065 17.586 44.065 17.586 2.004-6.025 4.403-12.436 12.98-20.084 0 0-1.952-3.083-5.51-7.604L655.5 283.86l-140.793 14.27c-4.218-4.185-9.16-8.491-14.725-12.334L595.5 209.86l-115.367 63.153c-6.97-4.131-14.069-7.75-21.955-10.608z" style="fill:#80a087;fill-opacity:1;fill-rule:evenodd;stroke:none;stroke-width:1px;stroke-linecap:butt;stroke-linejoin:miter;stroke-opacity:1" transform="translate(-137.025 -121.895)"/><path d="M406.23 267.95c-45.835.405-81.885 23.129-90.834 36.253.39 8.041 2.491 15.24 5.09 23.432 7.878-2.983 24.723-10.42 39.268-13.446 38.454-8 79.122-9.804 113.14 1.91 19.8 6.819 36.633 14.633 42.874 17.465 1.6-4.468 3.852-8.01 6.71-11.28-39.228-41.497-80.678-54.65-116.248-54.335" style="fill:#394655;fill-opacity:1;fill-rule:evenodd;stroke:none;stroke-width:1px;stroke-linecap:butt;stroke-linejoin:miter;stroke-opacity:1" transform="translate(-137.025 -121.895)"/><path d="M419.74 264.958c-.568 26.44-1.67 44.906-4.033 45.075m-17.783-44.15c-2.298 27.047 0 45.255 0 45.255m-34.151-42.774c-.778 27.134 2.536 45.184 2.536 45.184m-14.685-41.616c.011 27.144 3.85 45.09 3.85 45.09m-33.492-34.745c3.135 26.962 9.014 44.347 9.014 44.347" style="fill:none;fill-rule:evenodd;stroke:#80a087;stroke-width:3;stroke-linecap:butt;stroke-linejoin:miter;stroke-miterlimit:4;stroke-dasharray:none;stroke-opacity:1" transform="translate(-137.025 -121.895)"/><path d="M316.18 292.82c3.711 21.124 10.016 34.231 10.016 34.231" style="fill:none;fill-rule:evenodd;stroke:#80a087;stroke-width:2.70473123;stroke-linecap:butt;stroke-linejoin:miter;stroke-miterlimit:4;stroke-dasharray:none;stroke-opacity:1" transform="translate(-137.025 -121.895)"/><path d="M330.205 278.568c1.96 27.073 7.077 44.698 7.077 44.698m3.558-48.749c.442 27.14 4.564 45.024 4.564 45.024m32.681-51.906c-.978 27.126 2.205 45.2 2.205 45.2m62.347-48.785c.723 22.812-1.134 29.678-5.89 45.78m22.684-42.244c-2.283 26.347-4.581 44.703-6.95 44.718m24.069-39.884c-5.696 25.825-10.367 43.725-12.718 43.43m18.552-35.917c-3.487 22.908-3.031 24.898-9.978 37.509m16.342-30.703c1.106 10.565-4.963 29.478-9.271 33.178m17.58-29.997c-3.15 20.536-6.575 27.995-10.42 33.356m16.077-29.466c-1.79 15.965-6.298 27.525-10.42 31.587m16.253-29.996c-3.254 21.985-7.271 26.838-10.42 31.587m14.574-26.107c-2.981 23.619-6.083 25.632-8.829 29.466m14.663-23.102c-1.19 10.887-3.562 20.037-8.74 25.046" style="fill:none;fill-rule:evenodd;stroke:#80a087;stroke-width:3;stroke-linecap:butt;stroke-linejoin:miter;stroke-miterlimit:4;stroke-dasharray:none;stroke-opacity:1" transform="translate(-137.025 -121.895)"/></g><g style="display:inline;opacity:.06000001"><path d="m479.5 139.611-43.748 117.31c-1.25-.173-2.528-.327-3.824-.468-.547-.06-1.11-.107-1.666-.16-.781-.075-1.565-.148-2.364-.211q-.974-.074-1.966-.137a149 149 0 0 0-6.172-.273c-.944-.023-1.888-.045-2.856-.053-.301-.003-.612.001-.916 0-3.954-.01-8.102.105-12.486.365l.002-.002a240 240 0 0 0-6.805.49l-46.41-72.997 40.639 82.564c-2.801 5.301-5.108 13.06-4.49 25.947.324 6.764.936 17.267 4.123 22.61 1.458-.195 2.914-.368 4.369-.54.6-.07 1.2-.142 1.8-.208 14.206-1.575 28.232-1.996 41.854-.807l.164.014q2.553.223 5.086.523 2.43.29 4.842.653.36.054.717.11 2.243.346 4.47.757l.276.049a148 148 0 0 1 5.484 1.138c1.445.328 2.885.673 4.316 1.045l.227.057a137 137 0 0 1 5.406 1.54c1.468.45 2.93.915 4.383 1.415 26.595 9.158 44.065 17.586 44.065 17.586 2.004-6.025 4.403-12.436 12.98-20.084 0 0-1.952-3.083-5.51-7.604l130.01-26.379-140.793 14.27c-4.218-4.185-9.16-8.491-14.725-12.334L595.5 209.86l-115.367 63.153c-6.97-4.131-14.069-7.75-21.955-10.608z" style="display:inline;fill:#000;fill-opacity:1;fill-rule:evenodd;stroke:none;stroke-width:1px;stroke-linecap:butt;stroke-linejoin:miter;stroke-opacity:1" transform="translate(-137.025 -121.895)"/></g></svg>