<svg xmlns="http://www.w3.org/2000/svg" width="665.553" height="590.686" viewBox="0 0 623.956 553.768"><path d="M536.555 320.662c9.46 1.434 17.178-15.573 29.702-2.317 8.173.967 12.046-2.939 28.66 7.528 8.722-10.62 22.558-7.02 33.154-12.318 17.738 5.167 27.552 9.628 52.444 9.188-10.97 5.85-16.592 11.53-25.95 20.944-11.962 5.06-11.147 14.417-16.908 25.125-8.606 4.909-5.914 10.12-13.81 16.287-12.274 5.63-23.327 10.099-24.863 25.72-20.487 4.159-15.088 7.858-23.746 16.764-9.245.179-24.011 6.607-32.457 12.077-11.956 5.628-3.544-8.737-1.064-15.705 5.616-15.322 6.092-32.8 4.313-49.035-3.808-16.356-11.51-31.55-12.661-48.634 1.545-1.425 2.324-3.362 3.186-5.624z" style="display:inline;opacity:1;fill:#eff4f5;fill-opacity:1;stroke:#808f94;stroke-width:4.62066603;stroke-linecap:round;stroke-miterlimit:4;stroke-dasharray:none;stroke-opacity:1" transform="translate(-75.363 -156.811)"/><path d="M557.494 348.693c3.169-4.69 4.919-6.654 6.562-7.5 2.962-3.961 4.893 4.386 9.279 2.344 5.732-.19 11.66.842 16.971-1.875 6.659-.491 13.263-1.86 19.995-1.406 3.864-.284 8.021.566 11.702-.422 2.975-2.266 10.08-6.714 15.162-8.016 3.92.104 8.26-.435 11.735.938" style="display:inline;opacity:1;fill:none;fill-opacity:1;stroke:#808f94;stroke-width:4.6875;stroke-linecap:round;stroke-miterlimit:4;stroke-dasharray:none;stroke-opacity:1" transform="translate(-75.363 -156.811)"/><path d="M325.634 313.253c-15.45-.714-30.898-2.082-46.35-2.275-8.281-.565-24.798 5.018-32.568 4.657-3.671-.34-6.54-.46-9.525.532-5.23 3.24-13.594 2.8-19.834 5.482-10.579 2.83-21.306 5.169-32.094 6.806-8.575 1.56-17.871 5.054-26.08.48-6.679-1.92-13.837-1.551-20.804-2.126-5.365 1.283-8.987 4.055-13.721 7.86-5.604 1.94-12.136 4.991-3.131 8.456 5.714 4.695 12.771 11.812 18.15 14.85 7.352 5.193 14.27 5.405 20.186 11.871 4.857 3.417-.662 18.74 6.016 22.913 5.871 5.965 19.27 6.145 24.983 12.727 8.717 7.485 10.706 20.93 21.325 25.729 6.123 5.142 14.175 5.432 19.997 10.419 3.25 5.95 12.28 7.362 17.937 11.631 7.057 3.282 8.264 12.745 15.141 14.13 5.493 1.68 11.666.954 17.454 1.69-2.887-1.095 8.113.505 3.949-4.47-1.309-4.177.249-9.288.115-13.863 1.096-16.82 1.536-33.702 3.223-50.466 3.066-10.308 5.715-20.939 10.734-30.473 1.793-8.103 4.558-15.962 4.574-24.327 4.933-6.235 6.04-13.79 9.132-20.734.932-2.824 14.901-8.201 11.19-11.5z" style="display:inline;opacity:1;fill:#eff4f5;fill-opacity:1;stroke:#808f94;stroke-width:4.6875;stroke-linecap:round;stroke-miterlimit:4;stroke-dasharray:none;stroke-opacity:1" transform="translate(-75.363 -156.811)"/><path d="M307.393 314.55c-1.545.282-5.083 1.046-6.629 1.327-1.322.24-2.668.36-3.977.663-1.568.361-3.073.964-4.64 1.325-1.31.303-2.674.337-3.978.663-1.356.34-2.642.915-3.978 1.326-1.537.473-3.093.884-4.64 1.326-11.228 3.208 2.792-.698-10.607 2.652a63 63 0 0 0-4.64 1.325c-1.129.377-2.16 1.038-3.315 1.326-1.515.38-3.087.49-4.64.663-1.073.12-2.232 0-3.314 0-.221 0-.507.156-.663 0-.313-.312.197-.93 0-1.326-.14-.28-.524-.383-.663-.663-.21-.418.209-2.896 0-3.314-1.316-2.631-.21 2.93-1.326-2.652-.087-.433.14-.906 0-1.326-.099-.296-.476-.412-.663-.662-.478-.638-.97-1.277-1.326-1.99-.312-.624-.275-1.407-.663-1.988-.52-.78-1.388-1.268-1.989-1.989-.51-.612-.815-1.376-1.325-1.988-.6-.72-1.326-1.326-1.99-1.99-.441-.441-.825-.95-1.325-1.325-.79-.593-1.83-.778-2.652-1.326-.26-.173-.383-.523-.662-.663-.175-.087-2.305 0-2.652 0-.221 0-.48-.122-.663 0-.52.347-.767 1.047-1.326 1.326-.79.395-1.813-.28-2.651 0-.938.313-1.727.979-2.652 1.326-.853.32-1.78.401-2.652.663-1.338.401-2.629.958-3.977 1.326-1.087.296-2.215.418-3.315.663-.89.197-1.755.5-2.651.662-1.538.28-3.094.442-4.64.663-1.548.221-3.083.543-4.641.663-1.322.102-2.652 0-3.978 0h-32.482c-.884 0-1.79-.191-2.652 0-1.162.258-2.186.95-3.315 1.326-3.341 1.114-6.535 1.743-9.943 2.652a127 127 0 0 0-4.64 1.326c-1.336.41-2.608 1.051-3.978 1.325-.867.174-1.773-.097-2.652 0-1.12.125-2.199.504-3.314.663-.438.063-.907-.14-1.326 0-2.458.82.808.663-1.326.663" style="display:inline;opacity:1;fill:none;fill-opacity:1;stroke:none;stroke-width:4.6875;stroke-linecap:round;stroke-miterlimit:4;stroke-dasharray:none;stroke-opacity:1" transform="translate(-75.363 -156.811)"/><path d="M302.09 323.169c-.884 0-1.78.145-2.652 0-.487-.081-.857-.507-1.325-.663-1.73-.576-3.558-.802-5.304-1.326-4.027-1.208-4.332-1.663-8.618-2.652-4.995-1.152-10.195-1.23-15.247-1.988-19.565-3.558 4.921.67-14.584-1.99-10.35-1.41-4.011-1.019-13.258-2.65-4.688-.828-4.958-.664-9.28-.664h-3.315c-.221 0-.663.221-.663 0 0-.442 1.013.313 1.326 0 .156-.156-.1-.465 0-.663.28-.559 1.046-.766 1.326-1.325.12-.24 0-2.854 0-3.315 0-.221.156-.507 0-.663-.157-.156-.442 0-.663 0h-3.978c-.22 0-.448-.054-.663 0-5.518 1.38.8-.046-3.314 1.326-1.729.576-3.575.75-5.304 1.326-.468.156-.884.442-1.325.663-1.99.442-3.982.867-5.967 1.325-.887.205-1.762.466-2.651.663-1.1.245-2.194.551-3.315.663-1.1.11-2.21 0-3.314 0h-32.484c-.662 0-1.35-.182-1.988 0-.95.272-1.714 1.014-2.652 1.326-.419.14-.892-.086-1.325 0-.686.137-1.304.526-1.99.663-.432.087-.896-.107-1.325 0-.48.12-.857.507-1.326.663-.629.21-1.345-.16-1.989 0-1.2-.4-1.232 1.074-1.988 1.326-.42.14-.897-.107-1.326 0-.48.12-.884.442-1.326.663-.442.22-.915.389-1.326.663-.28.187-1.851 1.714-1.988 1.988-.1.198.098.466 0 .663-.28.56-.98.806-1.326 1.326-.274.411-.39.915-.663 1.326-.188.28-1.715 1.851-1.989 1.989-.198.098-.507-.157-.663 0-.35.349-.389.914-.663 1.325-.613.921-2.553 2.272-3.314 2.652-.625.313-1.364.35-1.99.663-.712.356-1.232 1.074-1.988 1.326-.629.21-1.335-.11-1.989 0-1.378.23-2.599 1.096-3.977 1.326-1.09.181-2.225-.182-3.315 0-.898.15-1.753.513-2.651.663-.872.145-1.794-.215-2.652 0-.48.12-.846.543-1.326.663-4.722 1.18 3.359-2.007-3.314.662-.459.184-.842.566-1.326.663-.65.13-1.36-.21-1.989 0-.756.252-1.305.916-1.989 1.326-1.554.933-1.417.567-3.314 1.326-.863-.369-1.446 1.054-1.989 1.326-.198.099-.442 0-.663 0-.542 0-3.783-.097-3.977 0-.198.099.156.506 0 .663-.157.156-.454-.07-.663 0-.469.156-.884.442-1.326.663" style="display:inline;opacity:1;fill:none;fill-opacity:1;stroke:none;stroke-width:4.6875;stroke-linecap:round;stroke-miterlimit:4;stroke-dasharray:none;stroke-opacity:1" transform="translate(-75.363 -156.811)"/><path d="m117.8 365.595 10.607-5.303c.884-.442 1.74-.946 2.652-1.326a78 78 0 0 1 5.303-1.989c.864-.288 1.819-.293 2.652-.663 1.177-.523 2.183-1.371 3.314-1.988 8.687-4.344.596-.093 5.966-3.315 1.28-1.934.94-.139 1.99-.663.279-.14.382-.523.662-.663.198-.099.507.156.663 0 .181-.181-.18-2.292 0-2.651.14-.28.49-.403.663-.663.548-.823.777-1.83 1.326-2.652.173-.26.442-.442.663-.663l1.325-1.326c.221-.22.524-.383.663-.663.313-.625.244-1.43.663-1.988.297-.396.977-.314 1.326-.663s.366-.93.663-1.326c.375-.5 1.046-.767 1.326-1.326.197-.395-.245-.958 0-1.326.274-.41 1.052-.252 1.326-.663.245-.367-.246-.958 0-1.326.274-.41.914-.388 1.325-.662.26-.174.403-.49.663-.663.411-.274.977-.314 1.326-.663s.314-.977.663-1.326c.95-.95 4.802-1.656 5.966-1.989.672-.192 1.364-.35 1.989-.663 2.29-1.145 1.478-1.572 3.978-1.988.653-.11 1.325 0 1.988 0h8.619c.554 0 2.81.126 3.314 0 1.813-.454 1.066-.933 2.651-1.99.184-.122.507.157.663 0 .35-.349.367-.93.663-1.325.375-.5.884-.884 1.326-1.326l1.326-1.326c.442-.442 1.004-.79 1.326-1.326.36-.599.226-1.443.663-1.988.497-.622 1.366-.828 1.988-1.326 1.859-1.487 3.696-4.546 5.966-5.303.42-.14.884 0 1.326 0h1.326c.221 0 .465-.1.663 0 2.022 1.01-1.212.525 1.989 1.325.429.108.884 0 1.326 0h11.932c.884 0 1.775.11 2.652 0 2.104-.263 4.706-1.508 6.629-1.988 1.304-.326 2.673-.337 3.977-.663 1.356-.34 2.64-.924 3.978-1.326.872-.262 1.779-.401 2.651-.663 1.339-.402 2.634-.942 3.978-1.326 14.935-4.267.211-.314 7.292-1.326.902-.128 1.768-.442 2.652-.662 1.325-.221 2.643-.497 3.977-.663.439-.055.884 0 1.326 0h3.977" style="display:inline;opacity:1;fill:none;fill-opacity:1;stroke:none;stroke-width:4.6875;stroke-linecap:round;stroke-miterlimit:4;stroke-dasharray:none;stroke-opacity:1" transform="translate(-75.363 -156.811)"/><path d="M157.855 346.495c4.902-.619 9.767-2.199 14.725-1.296 4.166-.969 9.85-1.392 12.48-1.87 3.906 1.988 2.292 9.063 7.793 10.207 4.394 1.999 11.157 4.216 14.353-.72 5.415-2.29 11.367-3.323 17.314-3.547 6.75-.826 13.557-1.258 20.336-.541l1.838.103" style="display:inline;opacity:1;fill:#eff4f5;fill-opacity:1;stroke:#808f94;stroke-width:4.6875;stroke-linecap:round;stroke-miterlimit:4;stroke-dasharray:none;stroke-opacity:1" transform="translate(-75.363 -156.811)"/><path d="M43.665 180.432c-1.308 1.46-.77 3.119 3.825 4.887 5.715 4.695 12.77 11.814 18.15 14.852 7.351 5.193 14.27 5.403 20.185 11.869 4.857 3.417-.66 18.74 6.017 22.913 5.872 5.966 19.27 6.145 24.983 12.726 8.717 7.486 10.706 20.931 21.325 25.73 6.123 5.142 14.174 5.432 19.996 10.419 3.25 5.95 12.28 7.361 17.938 11.63 7.056 3.283 8.263 12.746 15.14 14.131 5.493 1.679 11.667.954 17.456 1.69-2.887-1.095 8.111.507 3.948-4.47-1.31-4.176.249-9.287.115-13.862.25-3.838.46-7.68.665-11.521-23.392-11.734-63.196-24.478-72.98-40.489-6.914-11.313-13.338-14.613-20.042-22.768-4.398-5.35-10.79-3.004-16.741-8.868-1.75-1.724-7.313-1.91-9.989-3.946-8.024-6.106-14.976-10.016-21.08-11.644-18.604-4.961-16.227-10.037-28.91-13.279" style="opacity:1;fill:#000;fill-opacity:.13622293;stroke:none;stroke-width:4.6875;stroke-linecap:round;stroke-miterlimit:4;stroke-dasharray:none;stroke-opacity:.63316585"/><path d="M635.395 176.893a357 357 0 0 0-3.895 1.793c-23.5 11-17.25 14.875-32.75 24.375s-16.375 11.75-24.375 13.75c-3.058.764-11.9.817-18.398 4.216-4.816 2.52-7.493 6.342-12.166 7.975-5.52 1.93-8.377-2.87-13.061.309-3.93 2.666-7.744 15.702-10.909 16.976-3.939 1.585-6.558 3.572-16.148 5.154 1.376 16.11-.735 18.471-6.248 33.512-2.646 7.432-11.62 22.756 1.133 16.752 9.01-5.834 24.76-12.692 34.621-12.883 9.235-9.499 3.478-13.443 25.33-17.88 1.64-16.662 13.429-21.428 26.52-27.434 8.423-6.579 5.553-12.138 14.732-17.373 6.146-11.423 5.275-21.403 18.035-26.801 9.98-10.042 15.978-16.1 27.68-22.34-3.659.065-6.99.02-10.101-.101" style="opacity:1;fill:#000;fill-opacity:.09597527;stroke:none;stroke-width:5;stroke-linecap:round;stroke-miterlimit:4;stroke-dasharray:none;stroke-opacity:.63316585" transform="scale(.9375)"/><path d="M129.056 353.85c17.832 3.892 47.174-8.774 43.796-47.38-6.007-68.647-76.685-80.156-74.49-122.792-4.382 23.531-5.853 81.215 10.148 98.549 8.357 9.764 14.431 16.932 15.107 26.897.696 10.251-7.97 12.746-9.316 22.49-3.053 22.087 13.246 21.906 14.755 22.235z" style="display:inline;opacity:1;fill:#ff9400;fill-opacity:.43216086;stroke:#ffe90b;stroke-width:4.6875;stroke-linecap:round;stroke-miterlimit:4;stroke-dasharray:none;stroke-opacity:.54545456" transform="translate(-75.363 -156.811)"/><path d="M126.077 347.298c-11.275-19.327-7.256-44.736 5.915-62.1 9.742-15.33 23.302-30.104 23.819-49.268-1.618-18.8-10.23-36.049-19.614-52.095-4.195-1.376-4.654-10.728.662-5.227 22.787 11.289 44.55 29.356 51.635 54.723 4.66 22.403-5.24 44.474-16.214 63.458-11.675 19.8-27.583 37.052-46.203 50.51z" style="display:inline;opacity:1;fill:#ff9400;fill-opacity:.43216086;stroke:#ffe90b;stroke-width:4.6875;stroke-linecap:round;stroke-miterlimit:4;stroke-dasharray:none;stroke-opacity:.54545456" transform="translate(-75.363 -156.811)"/><path d="M144.056 353.85c-17.902 5.756-37.39-14.608-30.924-32.245 10.1-27.945 28.16-52.946 33.353-82.622-1.17-20.397-14.818-36.68-23.235-54.455 10.47 15.17 14.314 26.315 19.614 31.982 14.396 15.394 16.87 15.353 28.674 26.09 13.87 12.615 9.494 31.118-.913 45.812-6.296 11.518-9.979 24.246-16.205 35.798-2.537 8.028-1.851 17.603-8.265 23.952-1.246 1.606-2.457 3.558-2.099 5.687z" style="display:inline;opacity:1;fill:#ff9400;fill-opacity:.43216086;stroke:#ffe90b;stroke-width:4.6875;stroke-linecap:round;stroke-miterlimit:4;stroke-dasharray:none;stroke-opacity:.54545456" transform="translate(-75.363 -156.811)"/><path d="M1.443 218.576c-5.722 1.368-9.584 4.325-14.634 8.385-5.978 2.068-12.945 5.321-3.34 9.018 6.095 5.007 13.623 12.6 19.361 15.841 3.107 2.195 6.135 3.553 9.059 4.825l10.03-10.133-1.767-24.748 1.834-1.348c-6.646-1.563-13.681-1.274-20.543-1.84z" style="display:inline;opacity:1;fill:#ff9400;fill-opacity:.43216086;stroke:#ffe90b;stroke-width:5;stroke-linecap:round;stroke-miterlimit:4;stroke-dasharray:none;stroke-opacity:.54545456" transform="translate(61.662 -34.916)scale(.9375)"/><path d="M564.056 386.662c5.562-3.155 5.826-12.081 9.375-14.531a73 73 0 0 0 10.781.468c4.636-2.9 10.032-.842 10.5-6.68 4.907-3.047 9.864-3.334 15.75-5.038 6.36-.84 10.189-1.795 14.532-5.625h.468" style="display:inline;opacity:1;fill:none;fill-opacity:1;stroke:#808f94;stroke-width:4.6875;stroke-linecap:round;stroke-miterlimit:4;stroke-dasharray:none;stroke-opacity:1" transform="translate(-75.363 -156.811)"/><path d="M171.486 363.86c.864 1.066 6.333.19 8.323 4.688 7.647 2.679 12.49 2.308 17.737 8.953 3.71 3.38 7.15 7.357 9.84 11.191 4.513 3.69 7.938 8.862 13.359 11.259 5.011 3.45 8.025 9.755 14.356 11.114 5.412 1.239 10.85 2.388 16.318 3.365-3.299-1.491 6.518.224 7.768.719-2.964.062 1.375.15 1.696.211" style="display:inline;opacity:1;fill:#eff4f5;fill-opacity:1;stroke:#808f94;stroke-width:4.6875;stroke-linecap:round;stroke-miterlimit:4;stroke-dasharray:none;stroke-opacity:1" transform="translate(-75.363 -156.811)"/><g style="display:inline;opacity:1"><g style="display:inline;opacity:1"><path d="M423.503 581.835c-.004 4.4-1.198 7.589-3.375 9.829s-5.331 3.551-9.146 4.443c-3.815.89-8.283 1.395-13.057 1.838s-9.851.79-14.95 1.1c-5.098.308-9.945.347-14.402.085-4.457-.26-8.524-.799-11.993-1.712s-6.337-2.213-8.356-4.092c-2.019-1.88-3.187-4.345-3.255-7.511-.067-3.166.999-5.486 2.926-7.084s4.712-2.464 8.1-2.847 7.372-.283 11.77-.16 9.21.234 14.332-.122c5.12-.357 10.271-1.474 15.16-2.541 4.888-1.068 9.504-2.052 13.438-2.272s7.178.324 9.398 2.046c2.221 1.723 3.415 4.6 3.41 9" style="color:#000;clip-rule:nonzero;display:inline;overflow:visible;opacity:1;isolation:auto;mix-blend-mode:normal;color-interpolation:sRGB;color-interpolation-filters:linearRGB;solid-color:#000;solid-opacity:1;fill:#e1d6b9;fill-opacity:1;fill-rule:nonzero;stroke:none;stroke-width:10;stroke-linecap:butt;stroke-linejoin:miter;stroke-miterlimit:4;stroke-dasharray:none;stroke-dashoffset:0;stroke-opacity:1;color-rendering:auto;image-rendering:auto;shape-rendering:auto;text-rendering:auto" transform="matrix(.02666 -.44664 -.61774 .03482 603.303 662.395)"/><path d="M411.914 568.549c-3.75-.027-8.087.54-12.762 1.287-5.342.854-11.107 1.92-17.01 2.326-5.902.406-11.41.383-16.447.414s-9.604.16-13.508.86c-3.903.698-7.135 1.967-9.408 3.968s-3.585 4.717-3.652 8.176 1.218 6.307 3.543 8.58 5.688 3.98 9.762 5.25c4.073 1.27 8.852 2.12 14.056 2.598 5.205.479 10.834.561 16.703.222 5.87-.338 11.472-.786 16.606-1.35 5.134-.562 9.793-1.223 13.707-2.343a27.6 27.6 0 0 0 4.127-1.52c2.545-1.193 2.05-6.172-.1-4.54-1.991 1.511-4.143 1.681-7.157 2.35-3.673.815-8.181.991-12.55 1.343s-8.78 1.784-13.313 2.077c-4.535.293-8.868.328-12.932.07-4.064-.257-7.857-.78-11.125-1.642-3.268-.863-5.997-2.08-7.885-3.814s-2.925-3.988-2.978-6.801.901-4.82 2.669-6.106c1.767-1.286 5.617-.585 8.691-.714 3.075-.13 6.907-.545 10.788-.417 3.882.127 6.546-.481 11.049-1.214s9.152-2.344 13.887-3.721 9.225-2.343 13.009-2.554q.71-.04 1.388-.045c1.16-.007 2.25.044 3.25.236 1.153.222 2.316-2.861-.838-2.927-.511-.011-1.034-.045-1.57-.05" style="color:#000;clip-rule:nonzero;display:inline;overflow:visible;opacity:1;isolation:auto;mix-blend-mode:normal;color-interpolation:sRGB;color-interpolation-filters:linearRGB;solid-color:#000;solid-opacity:1;fill:#394655;fill-opacity:1;fill-rule:nonzero;stroke:none;stroke-width:10;stroke-linecap:butt;stroke-linejoin:miter;stroke-miterlimit:4;stroke-dasharray:none;stroke-dashoffset:0;stroke-opacity:1;color-rendering:auto;image-rendering:auto;shape-rendering:auto;text-rendering:auto" transform="matrix(.02666 -.44664 -.61774 .03482 603.303 662.395)"/></g><g style="display:inline;opacity:1"><path d="M767.3 387.327c11.123 7.965 31.777 11.3 44.73 15.545 12.954 4.245 18.15 9.36 22.13 13.373s5.944 7.144 4.718 9.527-5.543 3.994-14 4.811c-8.459.818-15.91.121-23.024-1.725s-13.807-4.867-21.706-8.603c-7.899-3.737-17.327-8.05-25.811-14.185-8.484-6.133-17.623-13.9-23.143-24.133-5.519-10.234-5.782-21.344-5.371-30.883s1.51-17.554 2.716-23.75c1.204-6.195 2.715-10.673 4.77-13.669 2.057-2.995 4.652-4.526 7.72-4.526s5.703 1.83 7.625 5.499 3.048 9.244 3.287 16.76-.672 17.08.34 27.198c1.011 10.118 3.895 20.795 15.018 28.76" style="color:#000;clip-rule:nonzero;display:inline;overflow:visible;opacity:1;isolation:auto;mix-blend-mode:normal;color-interpolation:sRGB;color-interpolation-filters:linearRGB;solid-color:#000;solid-opacity:1;fill:#394655;fill-opacity:1;fill-rule:nonzero;stroke:none;stroke-width:10;stroke-linecap:butt;stroke-linejoin:miter;stroke-miterlimit:4;stroke-dasharray:none;stroke-dashoffset:0;stroke-opacity:1;color-rendering:auto;image-rendering:auto;shape-rendering:auto;text-rendering:auto" transform="matrix(-.26477 .31927 .70735 .62097 304.045 3.238)"/><path d="M760.817 387.615c8.354 7.229 23.405 11.344 36.929 14.854s21.763 7.51 26.414 11.295 7.043 6.961 6.893 9.28c-.151 2.32-3.073 3.852-9.995 4.538-6.922.685-13.124-.18-19.188-2.159s-12.013-5.066-19.623-8.647-16.945-7.618-24.99-13.216-15.823-12.654-20.902-21.246-6.013-17.8-5.992-25.918c.022-8.118.935-15.149 1.866-20.67.932-5.52 2.018-9.597 3.383-12.305 1.366-2.707 3.035-4.069 5.02-4.013 1.985.055 3.577 1.847 4.614 5.275 1.038 3.428 1.448 8.544 1.474 15.152.026 6.609-.436 14.761.913 23.275 1.35 8.514 4.83 17.275 13.184 24.505" style="color:#000;clip-rule:nonzero;display:inline;overflow:visible;opacity:1;isolation:auto;mix-blend-mode:normal;color-interpolation:sRGB;color-interpolation-filters:linearRGB;solid-color:#000;solid-opacity:1;fill:#e1d6b9;fill-opacity:1;fill-rule:nonzero;stroke:none;stroke-width:10;stroke-linecap:butt;stroke-linejoin:miter;stroke-miterlimit:4;stroke-dasharray:none;stroke-dashoffset:0;stroke-opacity:1;color-rendering:auto;image-rendering:auto;shape-rendering:auto;text-rendering:auto" transform="matrix(-.26477 .31927 .70735 .62097 304.045 3.238)"/></g><path d="M262.822 511.633c.586 50.116 2.242 96.883 34.313 128.994 40.458 40.51 130.992 46.746 203.681 8.892 21.022-10.947 40.105-42.345 44.52-62.89 9.232-42.946 1.92-67.095 3.816-107.841 1.509-32.432 6.145-66.926.052-107.33-4.088-27.113-6.387-58.699-26.04-75.935-25.746-22.582-54.644-35.645-87.01-34.596-46.095 1.495-94.034 5.491-129.788 39.287-25.52 24.12-39.11 63.703-41.85 103.011-2.814 40.376-2.067 76.43-1.694 108.408" style="color:#000;clip-rule:nonzero;display:inline;overflow:visible;opacity:1;isolation:auto;mix-blend-mode:normal;color-interpolation:sRGB;color-interpolation-filters:linearRGB;solid-color:#000;solid-opacity:1;fill:#394655;fill-opacity:1;fill-rule:nonzero;stroke:none;stroke-width:1.4276253;stroke-linecap:butt;stroke-linejoin:miter;stroke-miterlimit:4;stroke-dasharray:none;stroke-dashoffset:0;stroke-opacity:1;color-rendering:auto;image-rendering:auto;shape-rendering:auto;text-rendering:auto" transform="translate(-75.363 -156.811)"/><path d="M268.692 557.424c3.3 45.143 22.672 86.297 69.894 102.827 43.877 15.358 108.558 12.645 160.985-15.928 19.955-10.876 37.556-41.894 41.428-61.353 8.149-40.958 2.226-66.046 3.815-104.923 1.326-32.452 5.517-63.55.433-103.786-3.323-26.297-5.1-57.5-24.31-74.284-24.335-21.264-51.12-34.907-81.534-34.599-48.192.489-100.808 4.976-136.153 44.502-32.314 36.138-35.399 98.68-35.995 145.123-.492 38.306-.83 71.38 1.437 102.42" style="color:#000;clip-rule:nonzero;display:inline;overflow:visible;opacity:1;isolation:auto;mix-blend-mode:normal;color-interpolation:sRGB;color-interpolation-filters:linearRGB;solid-color:#000;solid-opacity:1;fill:#96d6ff;fill-opacity:1;fill-rule:nonzero;stroke:none;stroke-width:1.4276253;stroke-linecap:butt;stroke-linejoin:miter;stroke-miterlimit:4;stroke-dasharray:none;stroke-dashoffset:0;stroke-opacity:1;color-rendering:auto;image-rendering:auto;shape-rendering:auto;text-rendering:auto" transform="translate(-75.363 -156.811)"/><g style="display:inline;opacity:1"><path d="M-626.573 401.696c2.247 11.35.367 22.39-3.843 32.038-4.21 9.649-10.55 17.905-17.72 24.344s-15.254 11.11-24.57 13.61c-9.318 2.501-20.95 4.473-31.646 1.829s-18.092-9.812-24.148-17.25c-6.056-7.44-12.443-16.568-23.097-25.36-10.654-8.793-20.952-17.788-25.3-26.873-4.35-9.086-7.116-18.361-7.98-27.522s.246-17.364 2.961-24.584 7.032-13.455 12.66-18.537 12.567-9.01 20.593-11.49c8.026-2.478 17.135-3.505 27.21-2.666 10.073.838 20.18 3.472 29.951 7.653s19.215 9.908 27.712 16.897 16.035 15.24 21.796 24.415c5.76 9.176 13.174 22.145 15.421 33.496" style="color:#000;clip-rule:nonzero;display:inline;overflow:visible;opacity:1;isolation:auto;mix-blend-mode:normal;color-interpolation:sRGB;color-interpolation-filters:linearRGB;solid-color:#000;solid-opacity:1;fill:#96d6ff;fill-opacity:1;fill-rule:nonzero;stroke:none;stroke-width:10;stroke-linecap:butt;stroke-linejoin:miter;stroke-miterlimit:4;stroke-dasharray:none;stroke-dashoffset:0;stroke-opacity:1;color-rendering:auto;image-rendering:auto;shape-rendering:auto;text-rendering:auto" transform="matrix(-.45822 .0492 .06338 .41347 76.696 -18.26)"/><path d="M-784.271 455.904a5.5 5.5 0 0 0-1.56.262 4.5 4.5 0 0 0-1.63.935 3.9 3.9 0 0 0-1.018 1.475 4.35 4.35 0 0 0-.261 1.937 6.3 6.3 0 0 0 .592 2.157c.33.71.996 1.419 1.845 2.083.848.664 1.363 1.37 1.833 1.94.47.567.284.424 1.174.503.102.009.123-.313.034-.339-.782-.217-.407-.29-.87-.73-.428-.523-.878-1.165-1.63-1.784-.753-.619-1.48-1.252-1.787-1.892a5.8 5.8 0 0 1-.567-1.938 3.8 3.8 0 0 1 .208-1.73c.191-.508.495-.949.893-1.307a3.85 3.85 0 0 1 1.454-.81q.427-.132.909-.182.481-.05 1.015-.008a6.8 6.8 0 0 1 2.114.538 8.1 8.1 0 0 1 1.955 1.19 7.2 7.2 0 0 1 1.535 1.719c.406.646.928 1.559 1.088 2.358.13.656.308.675.066 1.355-.046.126.559.14.689-.165.242-.57-.014-.582-.156-1.21-.192-.85-.695-1.87-1.144-2.586a7.9 7.9 0 0 0-1.703-1.899 8.8 8.8 0 0 0-2.16-1.296 7.4 7.4 0 0 0-2.34-.564 6 6 0 0 0-.578-.012" style="color:#000;clip-rule:nonzero;display:inline;overflow:visible;opacity:1;isolation:auto;mix-blend-mode:normal;color-interpolation:sRGB;color-interpolation-filters:linearRGB;solid-color:#000;solid-opacity:1;fill:#394655;fill-opacity:1;fill-rule:nonzero;stroke:none;stroke-width:10;stroke-linecap:butt;stroke-linejoin:miter;stroke-miterlimit:4;stroke-dasharray:none;stroke-dashoffset:0;stroke-opacity:1;color-rendering:auto;image-rendering:auto;shape-rendering:auto;text-rendering:auto" transform="matrix(-6.34688 .68147 .87791 5.72703 -4946.966 -2001.2)"/><path d="M-727.646 369.779c-4.026 1.297-7.733 4.27-10.163 9.893-1.755 4.064-2.12 9.158-1.252 15.494.577 4.211 1.699 8.971 3.32 14.341.577 1.91 4.39 6.052 6.877 8.077 3.986 3.246 8.987 6.977 9.564 6.218.403-.53-6.217-3.846-9.61-8.108-2.83-3.554-4.024-7.347-4.914-13.253-1.33-8.83-.466-14.348 1.337-18.52 2.635-6.098 6.834-8.544 11.427-9.073 4.592-.529 9.467.99 12.974 2.587 7.478 3.405 17.39 9.05 28.018 21.619 1.97 2.33 3.382 1.183 1.388-1.088-11.15-12.698-20.92-21.475-29.713-25.544-4.057-1.877-9.65-3.795-15.157-3.415a17.2 17.2 0 0 0-4.096.772" style="color:#000;font-style:normal;font-variant:normal;font-weight:400;font-stretch:normal;font-size:medium;line-height:normal;font-family:sans-serif;font-variant-ligatures:normal;font-variant-position:normal;font-variant-caps:normal;font-variant-numeric:normal;font-variant-alternates:normal;font-feature-settings:normal;text-indent:0;text-align:start;text-decoration:none;text-decoration-line:none;text-decoration-style:solid;text-decoration-color:#000;letter-spacing:normal;word-spacing:normal;text-transform:none;writing-mode:lr-tb;direction:ltr;text-orientation:mixed;dominant-baseline:auto;baseline-shift:baseline;text-anchor:start;white-space:normal;shape-padding:0;clip-rule:nonzero;display:inline;overflow:visible;opacity:1;isolation:auto;mix-blend-mode:normal;color-interpolation:sRGB;color-interpolation-filters:linearRGB;solid-color:#000;solid-opacity:1;vector-effect:none;fill:#394655;fill-opacity:1;fill-rule:evenodd;stroke:none;stroke-width:4.24172354;stroke-linecap:round;stroke-linejoin:miter;stroke-miterlimit:4;stroke-dasharray:none;stroke-dashoffset:0;stroke-opacity:1;color-rendering:auto;image-rendering:auto;shape-rendering:auto;text-rendering:auto" transform="matrix(-.45822 .0492 .06338 .41347 76.696 -18.26)"/></g><g style="display:inline;opacity:1"><path d="M-626.573 401.696c2.247 11.35.367 22.39-3.843 32.038-4.21 9.649-10.55 17.905-17.72 24.344s-15.254 11.11-24.57 13.61c-9.318 2.501-20.95 4.473-31.646 1.829s-18.092-9.812-24.148-17.25c-6.056-7.44-12.443-16.568-23.097-25.36-10.654-8.793-20.952-17.788-25.3-26.873-4.35-9.086-7.116-18.361-7.98-27.522s.246-17.364 2.961-24.584 7.032-13.455 12.66-18.537 12.567-9.01 20.593-11.49c8.026-2.478 17.135-3.505 27.21-2.666 10.073.838 20.18 3.472 29.951 7.653s19.215 9.908 27.712 16.897 16.035 15.24 21.796 24.415c5.76 9.176 13.174 22.145 15.421 33.496" style="color:#000;clip-rule:nonzero;display:inline;overflow:visible;opacity:1;isolation:auto;mix-blend-mode:normal;color-interpolation:sRGB;color-interpolation-filters:linearRGB;solid-color:#000;solid-opacity:1;fill:#96d6ff;fill-opacity:1;fill-rule:nonzero;stroke:none;stroke-width:10;stroke-linecap:butt;stroke-linejoin:miter;stroke-miterlimit:4;stroke-dasharray:none;stroke-dashoffset:0;stroke-opacity:1;color-rendering:auto;image-rendering:auto;shape-rendering:auto;text-rendering:auto" transform="matrix(.45053 -.06302 .03868 .4111 545.336 -92.187)"/><path d="M-784.271 455.904a5.5 5.5 0 0 0-1.56.262 4.5 4.5 0 0 0-1.63.935 3.9 3.9 0 0 0-1.018 1.475 4.35 4.35 0 0 0-.261 1.937 6.3 6.3 0 0 0 .592 2.157c.33.71.996 1.419 1.845 2.083.848.664 1.363 1.37 1.833 1.94.47.567.284.424 1.174.503.102.009.123-.313.034-.339-.782-.217-.407-.29-.87-.73-.428-.523-.878-1.165-1.63-1.784-.753-.619-1.48-1.252-1.787-1.892a5.8 5.8 0 0 1-.567-1.938 3.8 3.8 0 0 1 .208-1.73c.191-.508.495-.949.893-1.307a3.85 3.85 0 0 1 1.454-.81q.427-.132.909-.182.481-.05 1.015-.008a6.8 6.8 0 0 1 2.114.538 8.1 8.1 0 0 1 1.955 1.19 7.2 7.2 0 0 1 1.535 1.719c.406.646.928 1.559 1.088 2.358.13.656.308.675.066 1.355-.046.126.559.14.689-.165.242-.57-.014-.582-.156-1.21-.192-.85-.695-1.87-1.144-2.586a7.9 7.9 0 0 0-1.703-1.899 8.8 8.8 0 0 0-2.16-1.296 7.4 7.4 0 0 0-2.34-.564 6 6 0 0 0-.578-.012" style="color:#000;clip-rule:nonzero;display:inline;overflow:visible;opacity:1;isolation:auto;mix-blend-mode:normal;color-interpolation:sRGB;color-interpolation-filters:linearRGB;solid-color:#000;solid-opacity:1;fill:#394655;fill-opacity:1;fill-rule:nonzero;stroke:none;stroke-width:10;stroke-linecap:butt;stroke-linejoin:miter;stroke-miterlimit:4;stroke-dasharray:none;stroke-dashoffset:0;stroke-opacity:1;color-rendering:auto;image-rendering:auto;shape-rendering:auto;text-rendering:auto" transform="matrix(6.2403 -.87286 .53583 5.69406 4878.46 -3197.965)"/><path d="M-727.646 369.779c-4.026 1.297-7.733 4.27-10.163 9.893-1.755 4.064-2.12 9.158-1.252 15.494.577 4.211 1.699 8.971 3.32 14.341.577 1.91 4.39 6.052 6.877 8.077 3.986 3.246 8.987 6.977 9.564 6.218.403-.53-6.217-3.846-9.61-8.108-2.83-3.554-4.024-7.347-4.914-13.253-1.33-8.83-.466-14.348 1.337-18.52 2.635-6.098 6.834-8.544 11.427-9.073 4.592-.529 9.467.99 12.974 2.587 7.478 3.405 17.39 9.05 28.018 21.619 1.97 2.33 3.382 1.183 1.388-1.088-11.15-12.698-20.92-21.475-29.713-25.544-4.057-1.877-9.65-3.795-15.157-3.415a17.2 17.2 0 0 0-4.096.772" style="color:#000;font-style:normal;font-variant:normal;font-weight:400;font-stretch:normal;font-size:medium;line-height:normal;font-family:sans-serif;font-variant-ligatures:normal;font-variant-position:normal;font-variant-caps:normal;font-variant-numeric:normal;font-variant-alternates:normal;font-feature-settings:normal;text-indent:0;text-align:start;text-decoration:none;text-decoration-line:none;text-decoration-style:solid;text-decoration-color:#000;letter-spacing:normal;word-spacing:normal;text-transform:none;writing-mode:lr-tb;direction:ltr;text-orientation:mixed;dominant-baseline:auto;baseline-shift:baseline;text-anchor:start;white-space:normal;shape-padding:0;clip-rule:nonzero;display:inline;overflow:visible;opacity:1;isolation:auto;mix-blend-mode:normal;color-interpolation:sRGB;color-interpolation-filters:linearRGB;solid-color:#000;solid-opacity:1;vector-effect:none;fill:#394655;fill-opacity:1;fill-rule:evenodd;stroke:none;stroke-width:4.24172354;stroke-linecap:round;stroke-linejoin:miter;stroke-miterlimit:4;stroke-dasharray:none;stroke-dashoffset:0;stroke-opacity:1;color-rendering:auto;image-rendering:auto;shape-rendering:auto;text-rendering:auto" transform="matrix(.45053 -.06302 .03868 .4111 545.336 -92.187)"/></g><path d="M363.496 269.805c1.772.754.278 2.739 2.436 3.395.393 3.115 5.766 2.479 7.804.638 2.66-.997 4.38 5.052 6.87 2.237 0-1.957 3.678-3.035 4.404-.249 2.867 2.395 5.537-2.103 9.174-.558 4.124 1.276 7.424-.531 11.149.211 2.942 1.407 5.768 3.226 9.324 3.066-1.327-3.072 5.823-2.993 6.574-1.56 2.798-1.296 5.037-4.5 8.615-2.672 1.237-2.32 5.207-5.28 7.393-2.226 3.201.103 6.044-.864 8.363-1.915 2.848 1.39 11.2 5.192 9.232 1.38-.975-1.887 4.608-5.705 3.222-6.734-.566-2.405-2.634-5.85-1.707-8.289 2.962-3.888 13.66-14.078 12.2-12.235-1.882 1.445-15.623 14.356-18.347 12.2-1.872-3.293 4.053-19.15 2.8-16.836-1.56 2.109-12.081 11.19-13.034 7.494-1.507-2.12-1.072-8.598-5.046-8.839-.754 2.337-5.009 5.067-5.01 7.728-.026 1.515-1.902 4.271-3.698 1.393-4.307-3.272-7.428-6.897-11.219-9.991-1.52-1.199-6.267-4.762-4.6-1.083 1.386 2.256 1.86 4.752 2.114 7.292-.384 2.433.35 5.025-.395 7.492-4.51 2.585-7.709-1.282-9.623-3.38-3.141-2.658-5.805-5.567-10.007-7.16-1.843 2.378 1.29 4.333 1.471 6.625.558 2.381 3.597 7.025-1.618 8.504-4.783.893-6.848-2.42-10.343-3.34-2.134-.738-5.295-2.218-6.982-3.983-1.245-.817-4.504-2.575-3.645.048.055 2.84 2.176 5.318 2.384 8.225.526 2.47.35 6.356-4.824 5.953-4.321.558-7.032-1.817-9.855-3.293-.83-1.063-3.976-4.013-3.132-.924 1.028 2.684 4.739 4.157 6.327 6.605 1.237 1.322 2.738 3.261 1.229 4.781z" style="opacity:1;fill:#eff4f5;fill-opacity:1;stroke:#808f94;stroke-width:3.35864925;stroke-linecap:round;stroke-miterlimit:4;stroke-dasharray:none;stroke-opacity:1" transform="translate(-75.363 -156.811)"/><path d="M319.989 315.214c-.884-.221-1.753-.513-2.652-.663-.766-.128-2.518 0-3.315 0H276.9c-.597 0-2.897.139-3.314 0-2.652-.884.134-.636-3.315-1.326-.433-.087-.884 0-1.326 0h-42.426c-.663 0-1.36-.21-1.989 0-.296.099-.383.523-.663.663-.423.212-2.118-.178-2.651 0-.938.312-1.693 1.086-2.652 1.326-.429.107-.897-.107-1.326 0-.48.12-.867.48-1.326.663-.648.26-1.34.403-1.988.663-.46.183-.837.593-1.326.663-1.094.156-2.231-.217-3.315 0-1.167.233-2.174.983-3.314 1.325-1.08.324-2.215.419-3.315.663-5.933 1.319 1.165.027-6.629 1.326-1.745.29-7.034 1.204-8.618 1.326-1.322.102-2.651 0-3.977 0h-44.415c-.884 0-1.777-.125-2.652 0-.692.099-1.3.548-1.989.663-.654.109-1.339-.13-1.989 0-.484.097-.846.543-1.325.663-1.072.268-2.232-.217-3.315 0-.484.097-.867.48-1.326.663-.649.26-1.303.526-1.988.663-.434.086-.907-.14-1.326 0-.297.098-.442.441-.663.662-.442.221-.847.544-1.326.663-3.018 0-.038-.312-1.989.663-.395.198-.93-.197-1.326 0-.28.14-.442.442-.663.663-.22.221-.523.384-.662.663-.1.198.156.507 0 .663-.157.156-.507-.156-.663 0s.156.507 0 .663c-.157.156-.442 0-.663 0h-4.64c-.222 0-.507-.156-.664 0-.156.156-.156.507 0 .663.157.156.442 0 .663 0h31.157c1.547 0 3.115-.254 4.64 0 1.174.195 2.21.884 3.315 1.326 2.571 1.028 3.318 1.063 5.303 2.651.489.39.838.936 1.326 1.326.622.498 1.426.763 1.989 1.326.475.475 2.434 3.771 2.652 4.64.107.43-.107.897 0 1.326.24.959 1.013 1.714 1.326 2.652.155.467-.178 2.474 0 2.651.156.157.506-.156.662 0 .157.157-.098.466 0 .663.14.28.442.442.663.663 0 .442-.14.907 0 1.326.198.593.98.806 1.326 1.326.978 1.467.269 1.505 1.989 2.652.184.122.465-.1.663 0 .446.223 2.488 1.823 3.314 1.988.65.13 1.335-.109 1.99 0 1.228.205 2.232.785 3.314 1.326.442.221.846.543 1.326.663.857.214 1.86-.395 2.651 0 .198.099-.156.507 0 .663.35.35.915.389 1.326.663.26.173.403.49.663.663.411.274.93.366 1.326.663.5.375.884.884 1.326 1.326l2.651 2.651c.442.442.936.838 1.326 1.326.498.622.714 1.479 1.326 1.989.759.632 1.83.777 2.652 1.326 4.054 2.703-1.781-.232 2.651 3.314.546.437 1.39.304 1.989.663.145.087 3.228 3.17 3.314 3.315.36.599.35 1.363.663 1.988.28.56 1.129.733 1.326 1.326.14.42-.197.93 0 1.326.28.559.98.806 1.326 1.326.123.184-.07.453 0 .663.156.469.507.857.663 1.326.21.631-.215 2.668 0 3.314.156.469.507.857.663 1.326.07.21-.099.465 0 .663.14.28.564.366.663.663.14.42-.198.93 0 1.326.28.559.95.825 1.326 1.325.296.396.313.977.662 1.326s.977.314 1.326.663.442.884.663 1.326c.663.884 1.208 1.87 1.989 2.652.35.35.93.366 1.326.663 1 .75 1.611 1.958 2.651 2.651.823.548 1.83.778 2.652 1.326 3.647 2.431-1.896.378 3.978 3.315.814.407 1.814.304 2.651.663.733.313 1.313.903 1.989 1.325a98 98 0 0 0 3.315 1.99c.429.244.883.441 1.325.662.663.442 1.306.916 1.99 1.326.423.254.901.409 1.325.663.683.41 1.276.97 1.989 1.326.625.312 1.363.35 1.988.662.28.14.413.476.663.663.638.478 1.306.916 1.989 1.326 2.896 1.738-.48-.571 3.315 1.326.28.14.442.442.663.663.441.22.867.48 1.325.663.65.26 1.364.35 1.99.663.279.14.402.49.662.663 1.417.945 3.088 1.367 4.64 1.988.092.037 2.62 1.32 2.652 1.326.65.13 1.373-.246 1.989 0 .58.232.767 1.047 1.326 1.326 1.564.782 3.076.544 4.64 1.326.713.356 1.276.97 1.989 1.326.625.312 1.334.417 1.988.663 1.115.417 2.228.842 3.315 1.325.903.402 1.743.937 2.652 1.326.642.276 1.31.494 1.988.663.215.054.466-.099.663 0 1.105.553.3 1.326 1.99 1.326" style="opacity:1;fill:none;fill-opacity:1;stroke:none;stroke-width:4.6875;stroke-linecap:round;stroke-miterlimit:4;stroke-dasharray:none;stroke-opacity:1" transform="translate(-75.363 -156.811)"/><path d="M370.5 102.936s7.625 5.5 10.625 7.25 1 3.875-4.25 5-12.375 0-18.5-1.375-12.75-9.125-12.75-9.125 1.375 8.125 2.125 9.375-2.5 1.25-8.625.875-15.625-4.625-15.625-4.625 1.75 6.375 1.125 6.375c-.574 0-10.836 1.782-17.447.138.831 1.2 1.298 2.562.164 3.703 1.89.804.296 2.92 2.597 3.621.42 3.323 6.152 2.644 8.325.68 2.838-1.063 4.673 5.39 7.33 2.387-.001-2.087 3.923-3.238 4.697-.266 3.059 2.554 5.906-2.243 9.785-.595 4.4 1.36 7.92-.566 11.893.226 3.138 1.5 6.152 3.44 9.945 3.27-1.415-3.277 6.21-3.194 7.012-1.664 2.985-1.383 5.373-4.8 9.19-2.85 1.318-2.476 5.554-5.633 7.886-2.375 3.415.11 6.447-.923 8.92-2.043 3.038 1.483 11.946 5.539 9.848 1.473-.9-1.74 3.423-5.019 3.656-6.584-1.848-.197-4.547-.592-8.551-1.496-7.75-1.75-11.75-5-14-5.875s-15.375-5.5-15.375-5.5" style="opacity:1;fill:#000;fill-opacity:.04705882;stroke:none;stroke-width:5;stroke-linecap:round;stroke-miterlimit:4;stroke-dasharray:none;stroke-opacity:.63316585" transform="scale(.9375)"/></g><g style="display:inline;opacity:.07"><path d="M168.76 131.49c-9.776 4.087-16.277 15.16-13.489 25.672 1.67 7.903 6.545 15.072 13.934 18.643 7.619 4.111 13.51 10.646 20.805 15.168 2.004.448 1.183 2.622-.795 1.816-2.666-.384-5.239.08-6.87 2.455-22.964 22.369-33.075 54.19-38.185 85.045-6.288 38.085-5.16 76.839-5.66 115.295.55 34.826-1.332 70.4 7.979 104.336 8.004 28.868 27.203 55.289 54.566 68.437 19.518 9.591 41.265 14.25 62.889 15.446 21.452-.121 43.185.25 64.171-4.895 22.035-5.012 43.934-12.363 63.108-24.523 15.353-10.793 25.785-27.207 33.613-43.965a109 109 0 0 0 3.285-8.77c-54.708 52-141.2 63.962-199.716 7.907-62.494-59.866-48.851-130.653-41.012-234.053 4.426-58.386 31.697-90.417 80.043-109.387a62 62 0 0 1-2.588.112c-1.392-1.32-3.376-3.033-4.416-.319-2.888 2.184-5.061-1.71-7.666-1.869l-1.346.291a3.5 3.5 0 0 0-.525.305 6.25 6.25 0 0 1-3.293.508c-10.825 2.264-22 4.45-36.342 8.523-20.25 5.75-16.25.25-26-2.75a15 15 0 0 1-2.943-1.246 19.6 19.6 0 0 0 2.47 2.166c-1.85-.837-3.418-2.172-4.662-3.787-4.111-3.923-3.48-9.962-3.865-14.383-.294-3.376-.94-13.13-7.49-22.178" style="opacity:1;fill:#000;fill-opacity:.72864326;stroke:none;stroke-width:3.53553391;stroke-linecap:round;stroke-miterlimit:4;stroke-dasharray:none;stroke-opacity:.54545456" transform="translate(61.662 -34.916)scale(.9375)"/><path d="M488.353 270.646c-.589-.31 15.109-18.082 21.914-12.45 13.389 11.078-1.758 19.95-1.758 19.95-2.268-9.976-10.11-10.59-20.156-7.5m-158.113 1.308c.517-.42-16.626-13.353-22.192-6.495-10.952 13.494 5.643 19.217 5.643 19.217.264-10.228 6.092-13.779 16.55-12.722" style="opacity:1;fill:#1b1b1b;fill-opacity:1;stroke:none;stroke-width:4.6875;stroke-linecap:round;stroke-miterlimit:4;stroke-dasharray:none;stroke-opacity:.54545456" transform="translate(-75.363 -156.811)"/></g><g style="display:inline" transform="translate(-75.363 -156.811)"><path d="M382.574 178.283a79 79 0 0 0-14.351 11.031c-7.383 7.173-13.444 15.842-17.743 25.56-4.298 9.716-6.831 20.48-7.148 31.774s1.616 22.038 5.387 31.707 9.38 18.264 16.4 25.311c7.021 7.047 15.453 12.543 24.883 16.074s19.854 5.094 30.887 4.348c11.032-.747 21.631-3.722 31.369-8.361s18.613-10.94 26.164-18.391 13.778-16.05 18.191-25.373c4.414-9.323 7.012-19.37 7.323-29.783.31-10.413-1.699-20.212-5.586-29.108-3.888-8.895-9.653-16.887-16.832-23.638a80.8 80.8 0 0 0-15.075-11.15c-24.49 9.24-53.791 5.655-83.869 0" style="color:#000;clip-rule:nonzero;display:inline;overflow:visible;opacity:1;isolation:auto;mix-blend-mode:normal;color-interpolation:sRGB;color-interpolation-filters:linearRGB;solid-color:#000;solid-opacity:1;fill:#394655;fill-opacity:1;fill-rule:nonzero;stroke:none;stroke-width:1.40978944;stroke-linecap:butt;stroke-linejoin:miter;stroke-miterlimit:4;stroke-dasharray:none;stroke-dashoffset:0;stroke-opacity:1;color-rendering:auto;image-rendering:auto;shape-rendering:auto;text-rendering:auto" transform="translate(75.363 156.811)scale(.9375)"/><path d="M384.83 182.533a74.3 74.3 0 0 0-14.41 10.82 74.6 74.6 0 0 0-16.492 23.594c-3.976 8.988-6.288 18.975-6.506 29.506-.219 10.531 1.68 20.6 5.305 29.701 3.625 9.102 8.975 17.237 15.67 23.936 6.694 6.699 14.73 11.963 23.73 15.36 9 3.396 18.968 4.924 29.508 4.18 10.54-.742 20.65-3.686 29.87-8.294s17.545-10.878 24.52-18.242c6.976-7.364 12.604-15.817 16.479-24.85s6-18.645 6-28.443c-.001-9.798-2.127-18.864-5.95-26.987-3.821-8.122-9.34-15.303-16.142-21.296-3.858-3.4-8.14-6.403-12.748-8.985-24.415 10.554-51.462 6.198-78.834 0" style="color:#000;clip-rule:nonzero;display:inline;overflow:visible;opacity:1;isolation:auto;mix-blend-mode:normal;color-interpolation:sRGB;color-interpolation-filters:linearRGB;solid-color:#000;solid-opacity:1;fill:#fff;fill-opacity:1;fill-rule:nonzero;stroke:none;stroke-width:1.40978944;stroke-linecap:butt;stroke-linejoin:miter;stroke-miterlimit:4;stroke-dasharray:none;stroke-dashoffset:0;stroke-opacity:1;color-rendering:auto;image-rendering:auto;shape-rendering:auto;text-rendering:auto" transform="translate(75.363 156.811)scale(.9375)"/><circle cx="437.857" cy="378.484" r="20.36" style="color:#000;clip-rule:nonzero;display:inline;overflow:visible;opacity:1;isolation:auto;mix-blend-mode:normal;color-interpolation:sRGB;color-interpolation-filters:linearRGB;solid-color:#000;solid-opacity:1;fill:#394455;fill-opacity:1;fill-rule:nonzero;stroke:none;stroke-width:1.32167757;stroke-linecap:butt;stroke-linejoin:miter;stroke-miterlimit:4;stroke-dasharray:none;stroke-dashoffset:0;stroke-opacity:1;color-rendering:auto;image-rendering:auto;shape-rendering:auto;text-rendering:auto"/><circle cx="428.845" cy="369.138" r="10.013" style="color:#000;clip-rule:nonzero;display:inline;overflow:visible;opacity:1;isolation:auto;mix-blend-mode:normal;color-interpolation:sRGB;color-interpolation-filters:linearRGB;solid-color:#000;solid-opacity:1;fill:#fff;fill-opacity:1;fill-rule:nonzero;stroke:none;stroke-width:1.32167757;stroke-linecap:butt;stroke-linejoin:miter;stroke-miterlimit:4;stroke-dasharray:none;stroke-dashoffset:0;stroke-opacity:1;color-rendering:auto;image-rendering:auto;shape-rendering:auto;text-rendering:auto"/><path d="M179.945 177.59a79 79 0 0 0-9.441 7.832c-7.383 7.173-13.444 15.84-17.742 25.557-4.299 9.717-6.834 20.481-7.15 31.775-.318 11.294 1.615 22.037 5.386 31.707s9.38 18.266 16.4 25.312c7.021 7.047 15.454 12.544 24.883 16.075 9.43 3.53 19.857 5.094 30.889 4.347s21.632-3.722 31.37-8.361c9.736-4.64 18.612-10.94 26.163-18.39s13.776-16.053 18.19-25.376c4.413-9.323 7.013-19.37 7.324-29.783s-1.7-20.212-5.588-29.107c-3.888-8.896-9.65-16.886-16.83-23.637-3.077-2.893-6.428-5.543-9.988-7.951-28.853 5.818-57.262 10.255-82.203 3.903a82 82 0 0 1-11.663-3.903" style="color:#000;clip-rule:nonzero;display:inline;overflow:visible;opacity:1;isolation:auto;mix-blend-mode:normal;color-interpolation:sRGB;color-interpolation-filters:linearRGB;solid-color:#000;solid-opacity:1;fill:#394655;fill-opacity:1;fill-rule:nonzero;stroke:none;stroke-width:1.40978944;stroke-linecap:butt;stroke-linejoin:miter;stroke-miterlimit:4;stroke-dasharray:none;stroke-dashoffset:0;stroke-opacity:1;color-rendering:auto;image-rendering:auto;shape-rendering:auto;text-rendering:auto" transform="translate(75.363 156.811)scale(.9375)"/><path d="M181.56 182.186a74 74 0 0 0-8.859 7.275 74.6 74.6 0 0 0-16.492 23.594c-3.975 8.987-6.287 18.974-6.506 29.506-.218 10.53 1.678 20.6 5.303 29.7 3.625 9.102 8.978 17.235 15.672 23.934s14.73 11.965 23.73 15.362c9 3.396 18.967 4.923 29.506 4.18s20.651-3.688 29.871-8.296 17.544-10.876 24.52-18.24 12.603-15.817 16.478-24.85c3.876-9.032 6.003-18.647 6.002-28.445 0-9.798-2.127-18.862-5.95-26.984-3.821-8.123-9.342-15.304-16.144-21.297a73 73 0 0 0-7.029-5.44c-33.465 8.923-63.301 8.408-90.101 0" style="color:#000;clip-rule:nonzero;display:inline;overflow:visible;opacity:1;isolation:auto;mix-blend-mode:normal;color-interpolation:sRGB;color-interpolation-filters:linearRGB;solid-color:#000;solid-opacity:1;fill:#fff;fill-opacity:1;fill-rule:nonzero;stroke:none;stroke-width:1.40978944;stroke-linecap:butt;stroke-linejoin:miter;stroke-miterlimit:4;stroke-dasharray:none;stroke-dashoffset:0;stroke-opacity:1;color-rendering:auto;image-rendering:auto;shape-rendering:auto;text-rendering:auto" transform="translate(75.363 156.811)scale(.9375)"/><circle cx="255.944" cy="372.978" r="20.36" style="color:#000;clip-rule:nonzero;display:inline;overflow:visible;opacity:1;isolation:auto;mix-blend-mode:normal;color-interpolation:sRGB;color-interpolation-filters:linearRGB;solid-color:#000;solid-opacity:1;fill:#394455;fill-opacity:1;fill-rule:nonzero;stroke:none;stroke-width:1.32167757;stroke-linecap:butt;stroke-linejoin:miter;stroke-miterlimit:4;stroke-dasharray:none;stroke-dashoffset:0;stroke-opacity:1;color-rendering:auto;image-rendering:auto;shape-rendering:auto;text-rendering:auto"/><circle cx="246.932" cy="363.633" r="10.013" style="color:#000;clip-rule:nonzero;display:inline;overflow:visible;opacity:1;isolation:auto;mix-blend-mode:normal;color-interpolation:sRGB;color-interpolation-filters:linearRGB;solid-color:#000;solid-opacity:1;fill:#fff;fill-opacity:1;fill-rule:nonzero;stroke:none;stroke-width:1.32167757;stroke-linecap:butt;stroke-linejoin:miter;stroke-miterlimit:4;stroke-dasharray:none;stroke-dashoffset:0;stroke-opacity:1;color-rendering:auto;image-rendering:auto;shape-rendering:auto;text-rendering:auto"/><path d="m372.205 443.977 6.355.083 3.723-.083c1.188-.026 2.161.536 2.81 1.364s.862 1.975.86 3.227l-.01 7.086.382 7.11c.069 1.281-.432 2.41-1.171 3.232a3.96 3.96 0 0 1-2.887 1.316l-3.758.09-7.381-.173c-1.416-.033-2.656-.585-3.501-1.433-.846-.848-1.252-2-1.186-3.26l.37-7.055.492-7.045c.088-1.254.81-2.378 1.713-3.182s2.043-1.284 3.189-1.277" style="color:#000;clip-rule:nonzero;display:inline;overflow:visible;opacity:1;isolation:auto;mix-blend-mode:normal;color-interpolation:sRGB;color-interpolation-filters:linearRGB;solid-color:#000;solid-opacity:1;fill:#2e3436;fill-opacity:1;fill-rule:nonzero;stroke:none;stroke-width:10;stroke-linecap:butt;stroke-linejoin:miter;stroke-miterlimit:4;stroke-dasharray:none;stroke-dashoffset:0;stroke-opacity:1;color-rendering:auto;image-rendering:auto;shape-rendering:auto;text-rendering:auto"/><path d="m373.058 446.122 5.186.07 2.49-.102c.946-.039 1.745.436 2.3 1.114.556.678.801 1.617.83 2.643l.168 5.793.416 5.809a3.62 3.62 0 0 1-.87 2.641c-.585.671-1.416 1.034-2.354 1.071l-2.556.101-5.867-.127a4.1 4.1 0 0 1-2.805-1.164c-.699-.693-1.074-1.635-1.055-2.665l.102-5.77.201-5.764c.036-1.026.567-1.947 1.268-2.606s1.61-1.057 2.546-1.044" style="color:#000;clip-rule:nonzero;display:inline;overflow:visible;opacity:1;isolation:auto;mix-blend-mode:normal;color-interpolation:sRGB;color-interpolation-filters:linearRGB;solid-color:#000;solid-opacity:1;fill:#fff;fill-opacity:1;fill-rule:nonzero;stroke:none;stroke-width:10;stroke-linecap:butt;stroke-linejoin:miter;stroke-miterlimit:4;stroke-dasharray:none;stroke-dashoffset:0;stroke-opacity:1;color-rendering:auto;image-rendering:auto;shape-rendering:auto;text-rendering:auto"/><path d="M405.65 441.041c-.178 2.272-1.577 4.327-3.566 6.177s-4.736 3.49-7.917 4.834a44.2 44.2 0 0 1-10.405 2.93 40.6 40.6 0 0 1-10.937.176 41 41 0 0 1-9.676-2.378c-2.814-1.074-5.178-2.347-7.04-3.76s-3.24-2.977-4.109-4.723c-.87-1.747-1.23-3.68-.915-5.763.316-2.083 1.292-4.115 2.8-5.981 1.507-1.867 3.535-3.566 5.916-4.98s5.113-2.542 8.129-3.282 6.317-1.09 9.93-.972c3.614.12 7.22.695 10.642 1.646 3.424.95 6.65 2.283 9.34 3.91 2.688 1.628 4.898 3.503 6.188 5.62 1.321 2.168 1.77 4.611 1.62 6.546" style="color:#000;clip-rule:nonzero;display:inline;overflow:visible;opacity:1;isolation:auto;mix-blend-mode:normal;color-interpolation:sRGB;color-interpolation-filters:linearRGB;solid-color:#000;solid-opacity:1;fill:#394655;fill-opacity:1;fill-rule:nonzero;stroke:none;stroke-width:10;stroke-linecap:butt;stroke-linejoin:miter;stroke-miterlimit:4;stroke-dasharray:none;stroke-dashoffset:0;stroke-opacity:1;color-rendering:auto;image-rendering:auto;shape-rendering:auto;text-rendering:auto"/><path d="M398 440.531c-.31 1.805-1.366 3.49-2.987 5s-3.805 2.847-6.287 3.914a32.7 32.7 0 0 1-8.07 2.27 32 32 0 0 1-8.533.108c-2.83-.346-5.359-1.03-7.553-1.905-2.193-.874-4.044-1.938-5.497-3.125-1.452-1.187-2.509-2.502-3.132-3.934a7.67 7.67 0 0 1-.49-4.63c.325-1.646 1.14-3.226 2.342-4.668s2.79-2.743 4.659-3.82c1.87-1.078 4.02-1.93 6.39-2.482 2.37-.551 4.961-.802 7.767-.685s5.573.586 8.187 1.341c2.614.756 5.071 1.798 7.146 3.062s3.76 2.75 4.833 4.373c1.073 1.622 1.535 3.377 1.225 5.181" style="color:#000;clip-rule:nonzero;display:inline;overflow:visible;opacity:1;isolation:auto;mix-blend-mode:normal;color-interpolation:sRGB;color-interpolation-filters:linearRGB;solid-color:#000;solid-opacity:1;fill:#e1d0cb;fill-opacity:1;fill-rule:nonzero;stroke:none;stroke-width:10;stroke-linecap:butt;stroke-linejoin:miter;stroke-miterlimit:4;stroke-dasharray:none;stroke-dashoffset:0;stroke-opacity:1;color-rendering:auto;image-rendering:auto;shape-rendering:auto;text-rendering:auto"/><path d="M391.726 428.905c-.452 1.293-1.436 2.442-2.797 3.41-1.36.97-3.093 1.761-4.973 2.369-1.88.607-3.9 1.031-5.875 1.257-1.977.226-3.91.252-5.72.052-1.811-.2-3.34-.607-4.633-1.174s-2.353-1.294-3.187-2.149-1.445-1.84-1.8-2.932a7.1 7.1 0 0 1-.21-3.557c.24-1.267.8-2.482 1.648-3.58s1.983-2.077 3.355-2.872 2.98-1.404 4.768-1.766c1.786-.362 3.751-.476 5.823-.291 2.071.185 4.053.651 5.845 1.33 1.792.678 3.395 1.569 4.692 2.602s2.289 2.209 2.844 3.453c.556 1.244.672 2.556.22 3.848" style="color:#000;clip-rule:nonzero;display:inline;overflow:visible;opacity:1;isolation:auto;mix-blend-mode:normal;color-interpolation:sRGB;color-interpolation-filters:linearRGB;solid-color:#000;solid-opacity:1;fill:#394655;fill-opacity:1;fill-rule:nonzero;stroke:none;stroke-width:10;stroke-linecap:butt;stroke-linejoin:miter;stroke-miterlimit:4;stroke-dasharray:none;stroke-dashoffset:0;stroke-opacity:1;color-rendering:auto;image-rendering:auto;shape-rendering:auto;text-rendering:auto"/></g><path d="M384.33 182.533a76 76 0 0 0-9.092 6.213c-9.459 7.786-17.239 17.669-21.947 29.022-4.319 10.133-6.502 21.173-6.035 32.195.053 17.71 7.117 35.278 19.05 48.324 13.6 14.881 34.131 23.265 54.282 21.58 16.695-.68 32.637-7.395 45.744-17.652-75.36 39.924-157.741-64.205-60.482-115.307-7.932-1.71-15.565-3.323-21.52-4.375m-203.312-.347c-4.023 2.844-7.768 6.084-11.13 9.726-13.413 14.338-21.078 34.03-20.386 53.7.12 23.283 11.835 46.658 31.559 59.404 12.294 8.107 27.317 12.187 42.027 10.943 17.217-.736 33.807-7.985 47.09-18.78.322-.265.63-.549.949-.82-41.295 7.305-91.442 3.719-100.701-52.796-3.884-23.71 4.379-38.14 27.98-56.877-6.142-1.5-11.913-3-17.388-4.5" style="opacity:1;fill:#f4f4f4;fill-opacity:1;stroke:none;stroke-width:1.76776695;stroke-linecap:round;stroke-miterlimit:4;stroke-dasharray:none;stroke-opacity:.54545456" transform="scale(.9375)"/><g style="display:inline"><path d="M427.508 491.21a6.38 6.38 0 0 0-6.386 6.401c0 3.546 2.505 6.366 5.889 7.396l5.99 1.823.166 58.83c.023 8.199 6.584 14.8 14.763 14.8s14.763-6.601 14.763-14.8v-61.647h5.661a6.38 6.38 0 0 0 6.383-6.402 6.38 6.38 0 0 0-6.383-6.402z" style="opacity:1;fill:#000;fill-opacity:.04705882;stroke:none;stroke-width:5.32799911;stroke-linecap:round;stroke-miterlimit:4;stroke-dasharray:none;stroke-opacity:.63316585" transform="translate(-75.363 -156.811)"/><path d="M484.778 506.654q-.19 0-.429.108c-.207.096-.424.18-.639.284-1.508.73-3.128 1.925-4.845 3.29-1.962 1.561-4.05 3.328-6.33 4.74-2.28 1.41-4.492 2.495-6.504 3.515s-3.815 2.004-5.233 3.188-2.447 2.566-2.939 4.184c-.492 1.617-.45 3.46.247 5.487s.692 7.287 2.035 8.369 3.005 1.56 4.903 1.488c1.899-.071 4.04-.698 6.338-1.843s4.748-2.828 7.221-4.858c2.474-2.03 4.806-4.029 6.858-5.77 2.053-1.74 3.827-3.215 5.161-4.646q.764-.815 1.337-1.706c.77-1.202-.47-4.002-.99-2.624-.482 1.276-1.304 2.366-2.363 3.374-1.29 1.23-2.91 2.367-4.662 3.529-1.75 1.162-3.638 2.328-5.54 3.477s-3.764 2.098-5.534 2.805-3.447 1.186-4.968 1.339-2.888-.028-4.044-.694c-1.157-.666-2.104-1.822-2.767-3.582s-.72-3.264-.298-4.528c.42-1.264 1.32-2.28 2.548-3.144 1.229-.863 2.785-1.57 4.505-2.344s3.596-1.632 5.498-2.812 3.663-2.791 5.332-4.325 3.25-2.967 4.723-3.843q.276-.165.547-.303c.464-.235.91-.421 1.352-.509.444-.087.363-1.651-.52-1.646" style="color:#000;clip-rule:nonzero;display:inline;overflow:visible;opacity:1;isolation:auto;mix-blend-mode:normal;color-interpolation:sRGB;color-interpolation-filters:linearRGB;solid-color:#000;solid-opacity:1;fill:#8fccf4;fill-opacity:1;fill-rule:nonzero;stroke:none;stroke-width:5.24383736;stroke-linecap:butt;stroke-linejoin:miter;stroke-miterlimit:4;stroke-dasharray:none;stroke-dashoffset:0;stroke-opacity:1;color-rendering:auto;image-rendering:auto;shape-rendering:auto;text-rendering:auto" transform="translate(-75.363 -156.811)"/><path d="M383.258 354.838a6.59 6.59 0 0 0-6.604 6.603 6.59 6.59 0 0 0 6.604 6.606h5.853v63.603c0 8.46 6.81 15.272 15.27 15.272s15.271-6.812 15.271-15.272v-63.603h5.856a6.59 6.59 0 0 0 6.605-6.606 6.59 6.59 0 0 0-6.605-6.603z" style="opacity:1;fill:#fff;fill-opacity:.57286431;stroke:none;stroke-width:5.50424671;stroke-linecap:round;stroke-miterlimit:4;stroke-dasharray:none;stroke-opacity:.63316585" transform="scale(.9375)"/><path d="M383.504 356.305a5.126 5.126 0 0 0-5.137 5.136 5.126 5.126 0 0 0 5.137 5.137h7.32v62.326a13.53 13.53 0 0 0 13.557 13.559 13.53 13.53 0 0 0 13.558-13.559v-62.326h7.325a5.124 5.124 0 0 0 5.134-5.137 5.124 5.124 0 0 0-5.134-5.136z" style="opacity:1;fill:#fff;fill-opacity:.57286431;stroke:none;stroke-width:4.70169926;stroke-linecap:round;stroke-miterlimit:4;stroke-dasharray:none;stroke-opacity:.63316585" transform="scale(.9375)"/><path d="M441.761 535.622v23.287a12.68 12.68 0 0 0 12.71 12.71 12.68 12.68 0 0 0 12.709-12.71v-18.871c-2.785 1.082-6.36 2.412-9.258.86-8.09-4.336-10.044-7.473-16.16-5.276" style="opacity:1;fill:#fa5d5d;fill-opacity:.57286431;stroke:none;stroke-width:6.48894215;stroke-linecap:round;stroke-miterlimit:4;stroke-dasharray:none;stroke-opacity:.63316585" transform="translate(-75.363 -156.811)"/><path d="M441.746 500.519h25.398v1.435h-25.398z" style="opacity:1;fill:#cfe9fa;fill-opacity:1;stroke:none;stroke-width:7.96270657;stroke-linecap:round;stroke-miterlimit:4;stroke-dasharray:none;stroke-opacity:1" transform="translate(-75.363 -156.811)"/><path d="M457.904 500.518c-.927 6.306.974 19.706 1.138 22.034.717 10.136-3.74 49.88.857 50.524 1.9.266 3.36-1.758 3.36-2.461 0-.697-.315-68.023-.32-70.097z" style="opacity:1;fill:#fff;fill-opacity:.50196078;stroke:none;stroke-width:8.14332962;stroke-linecap:round;stroke-miterlimit:4;stroke-dasharray:none;stroke-opacity:1" transform="translate(-75.363 -156.811)"/><path d="M493.503 509.48c.92 2.563 1.108 4.657.705 6.395s-1.393 3.129-2.736 4.407c-1.342 1.278-3.026 2.461-4.847 3.67-1.82 1.208-3.782 2.42-5.76 3.615-1.979 1.195-3.913 2.182-5.754 2.917s-3.583 1.231-5.164 1.39c-1.581.16-3.003-.027-4.205-.72-1.202-.692-2.186-1.895-2.876-3.725s-.748-3.393-.31-4.707c.437-1.314 1.372-2.372 2.65-3.27 1.276-.897 2.894-1.632 4.682-2.436 1.788-.803 3.74-1.696 5.718-2.923s3.807-2.903 5.543-4.497c1.735-1.595 3.379-3.087 4.91-3.998 1.53-.91 2.943-1.24 4.194-.679s2.33 1.998 3.25 4.561" style="color:#000;clip-rule:nonzero;display:inline;overflow:visible;opacity:1;isolation:auto;mix-blend-mode:normal;color-interpolation:sRGB;color-interpolation-filters:linearRGB;solid-color:#000;solid-opacity:1;fill:#e1d6b9;fill-opacity:1;fill-rule:nonzero;stroke:none;stroke-width:5.24383736;stroke-linecap:butt;stroke-linejoin:miter;stroke-miterlimit:4;stroke-dasharray:none;stroke-dashoffset:0;stroke-opacity:1;color-rendering:auto;image-rendering:auto;shape-rendering:auto;text-rendering:auto" transform="translate(-75.363 -156.811)"/><path d="M486.078 504.051c-1.509.731-3.128 1.924-4.845 3.29-1.962 1.56-4.048 3.329-6.329 4.74s-4.492 2.494-6.504 3.515-3.815 2.005-5.233 3.189c-1.418 1.183-2.447 2.565-2.94 4.183-.491 1.618-.449 3.46.248 5.487s1.809 3.43 3.216 4.29c1.407.862 3.112 1.186 5.01 1.115 1.9-.071 3.992-.529 6.177-1.286 2.186-.757 4.459-1.83 6.74-3.195a112 112 0 0 0 6.372-4.09c1.94-1.35 3.668-2.663 5.002-4.094q.762-.815 1.336-1.706c.77-1.201-.47-4.002-.99-2.624-.483 1.277-1.304 2.365-2.363 3.374-1.29 1.23-2.912 2.367-4.663 3.529-1.75 1.162-3.638 2.328-5.54 3.477s-3.763 2.1-5.533 2.806c-1.77.707-3.447 1.185-4.967 1.338-1.521.152-2.889-.027-4.045-.693s-2.103-1.822-2.767-3.582-.72-3.265-.298-4.528c.42-1.264 1.32-2.282 2.548-3.145s2.785-1.57 4.505-2.344 3.596-1.631 5.498-2.811 3.663-2.792 5.332-4.325 3.25-2.968 4.722-3.844q.277-.165.547-.303c.464-.235.911-.422 1.352-.509.508-.1.329-2.127-.949-1.538-.207.096-.424.18-.64.284" style="color:#000;clip-rule:nonzero;display:inline;overflow:visible;opacity:1;isolation:auto;mix-blend-mode:normal;color-interpolation:sRGB;color-interpolation-filters:linearRGB;solid-color:#000;solid-opacity:1;fill:#394655;fill-opacity:1;fill-rule:nonzero;stroke:none;stroke-width:5.24383736;stroke-linecap:butt;stroke-linejoin:miter;stroke-miterlimit:4;stroke-dasharray:none;stroke-dashoffset:0;stroke-opacity:1;color-rendering:auto;image-rendering:auto;shape-rendering:auto;text-rendering:auto" transform="translate(-75.363 -156.811)"/><path d="M283.358 508.098c-2.531 1.004-4.225 2.247-5.27 3.693-1.044 1.445-1.456 3.093-1.606 4.91s-.066 3.806.061 5.901a97 97 0 0 0 .609 6.488c.283 2.2.745 4.237 1.371 6.048s1.402 3.403 2.317 4.656 1.974 2.162 3.22 2.568c1.244.406 2.675.304 4.33-.43 1.655-.733 2.73-1.739 3.287-2.942.558-1.203.594-2.599.318-4.126-.277-1.528-.859-3.184-1.387-4.984s-.978-3.755-1.062-5.932.384-4.526.81-6.774c.425-2.249.764-4.39.6-6.102-.162-1.711-.805-2.984-2.037-3.55s-8.093 1.579-5.561.576" style="color:#000;clip-rule:nonzero;display:inline;overflow:visible;opacity:1;isolation:auto;mix-blend-mode:normal;color-interpolation:sRGB;color-interpolation-filters:linearRGB;solid-color:#000;solid-opacity:1;fill:#e1d6b9;fill-opacity:1;fill-rule:nonzero;stroke:none;stroke-width:5.24383736;stroke-linecap:butt;stroke-linejoin:miter;stroke-miterlimit:4;stroke-dasharray:none;stroke-dashoffset:0;stroke-opacity:1;color-rendering:auto;image-rendering:auto;shape-rendering:auto;text-rendering:auto" transform="translate(-75.363 -156.811)"/><path d="M292.187 510.055c.323 1.587.259 3.533.032 5.631-.259 2.397-.703 4.982-.615 7.486s.55 4.764 1.085 6.871 1.102 4.072 1.302 5.901c.2 1.83.025 3.52-.697 4.97-.721 1.452-1.978 2.66-3.792 3.52-1.815.86-3.494 1-5.009.553-1.515-.448-2.868-1.479-4.06-2.91s-2.228-3.258-3.065-5.339c-.837-2.08-1.46-4.423-1.822-6.96a87 87 0 0 1-.712-7.26c-.132-2.283-.195-4.4.037-6.323.088-.731.226-1.435.425-2.11.4-1.362 3.313-2.289 2.604-.998-.656 1.196-.964 2.515-1.091 3.946-.155 1.745-.083 3.657.034 5.67.116 2.014.302 4.122.57 6.236s.706 4.073 1.302 5.813 1.337 3.269 2.212 4.472 1.889 2.075 3.08 2.464c1.193.389 2.561.29 4.148-.415 1.587-.706 2.62-1.673 3.16-2.828.539-1.155.58-2.495.325-3.96-.256-1.467-.803-3.057-1.302-4.787s-.926-3.61-1.007-5.703c-.082-2.094.362-4.355.772-6.516.41-2.162.746-4.217.605-5.859a7 7 0 0 0-.074-.596c-.083-.492-.202-.943-.4-1.325-.229-.441 1.476-1.63 1.79-.301.052.216-.065.715.162.657z" style="color:#000;clip-rule:nonzero;display:inline;overflow:visible;opacity:1;isolation:auto;mix-blend-mode:normal;color-interpolation:sRGB;color-interpolation-filters:linearRGB;solid-color:#000;solid-opacity:1;fill:#394655;fill-opacity:1;fill-rule:nonzero;stroke:none;stroke-width:5.24383736;stroke-linecap:butt;stroke-linejoin:miter;stroke-miterlimit:4;stroke-dasharray:none;stroke-dashoffset:0;stroke-opacity:1;color-rendering:auto;image-rendering:auto;shape-rendering:auto;text-rendering:auto" transform="translate(-75.363 -156.811)"/><path d="M436.418 491.731c.82 0 36.269.06 36.972.06s2.727.483 2.461 1.112c-.644 1.524-9.726-.12-19.863.118-3.046.07-21.969 1.136-22.2-.216s1.81-1.074 2.63-1.074" style="opacity:1;fill:#fff;fill-opacity:.50196081;stroke:none;stroke-width:4.6875;stroke-linecap:round;stroke-miterlimit:4;stroke-dasharray:none;stroke-opacity:1" transform="translate(-75.363 -156.811)"/><path d="M447.542 500.518c.694 6.306-.73 19.706-.853 22.034-.537 10.136 2.803 40.621-.642 41.266-1.423.266-2.517-1.758-2.517-2.46 0-.697.235-58.766.24-60.84z" style="opacity:1;fill:#fff;fill-opacity:.50196078;stroke:none;stroke-width:7.04882622;stroke-linecap:round;stroke-miterlimit:4;stroke-dasharray:none;stroke-opacity:1" transform="translate(-75.363 -156.811)"/></g></svg>