<svg xmlns="http://www.w3.org/2000/svg" width="449.333" height="530.695" viewBox="0 0 421.25 497.526"><g style="display:inline;opacity:1"><g style="display:inline;opacity:1"><path d="M419.84 584.573c-1.11 4.235-3.115 7.142-5.85 9.023-2.733 1.88-6.191 2.76-10.137 3.24-3.945.478-8.373.597-13.053.66s-9.607.027-14.585-.15c-4.979-.175-9.678-.662-13.95-1.444-4.27-.782-8.122-1.835-11.288-3.158-3.165-1.323-5.635-2.923-7.074-4.89-1.439-1.968-1.838-4.3-.941-7.08.896-2.779 2.647-4.652 5.058-5.712s5.478-1.298 8.97-1.047 7.402.982 11.607 1.607 8.715 1.101 13.557.957c4.842-.143 9.822-1.206 14.6-2.186 4.777-.98 9.356-1.805 13.205-1.762s6.938.923 8.725 2.848.05 13.33 1.156 9.094" style="color:#000;clip-rule:nonzero;display:inline;overflow:visible;opacity:1;isolation:auto;mix-blend-mode:normal;color-interpolation:sRGB;color-interpolation-filters:linearRGB;solid-color:#000;solid-opacity:1;fill:#e1d6b9;fill-opacity:1;fill-rule:nonzero;stroke:none;stroke-width:10;stroke-linecap:butt;stroke-linejoin:miter;stroke-miterlimit:4;stroke-dasharray:none;stroke-dashoffset:0;stroke-opacity:1;color-rendering:auto;image-rendering:auto;shape-rendering:auto;text-rendering:auto" transform="matrix(-.43779 .0924 .19694 .58654 411.708 -59.256)"/><path d="M411.667 570.505c-3.645-.32-7.912.035-12.443.673-5.179.73-10.69 1.783-16.256 1.964-5.566.18-10.757-.278-15.64-.874-4.885-.596-9.469-1.263-13.594-1.35-4.126-.089-7.779.412-10.667 1.77-2.888 1.357-5.006 3.55-6.114 6.605-1.107 3.054-.683 5.795.966 8.195s4.516 4.463 8.197 6.211 8.163 3.194 13.122 4.283 10.401 1.796 16.157 2.057c5.756.262 11.242.3 16.338.22 5.097-.08 9.799-.251 13.94-.875a34 34 0 0 0 4.471-.962c2.833-.826 3.606-5.67 1.067-4.353-2.352 1.219-5.13 1.888-8.234 2.279-3.784.476-8.035.605-12.53.676-4.496.071-9.23.04-14.014-.121-4.784-.162-9.297-.62-13.4-1.363-4.101-.743-7.798-1.746-10.836-3.01-3.037-1.264-5.405-2.797-6.784-4.68s-1.759-4.116-.894-6.78 2.549-4.465 4.863-5.49c2.315-1.023 5.253-1.264 8.6-1.039 3.349.226 7.097.91 11.134 1.495s8.371 1.037 13.029.899 9.454-1.15 14.045-2.094c4.592-.944 8.982-1.753 12.668-1.736q.691.002 1.348.044c1.122.07 2.17.205 3.1.477 1.074.314 2.955-2.604-.117-2.943-.499-.055-1.55.198-1.522-.178" style="color:#000;clip-rule:nonzero;display:inline;overflow:visible;opacity:1;isolation:auto;mix-blend-mode:normal;color-interpolation:sRGB;color-interpolation-filters:linearRGB;solid-color:#000;solid-opacity:1;fill:#394655;fill-opacity:1;fill-rule:nonzero;stroke:none;stroke-width:10;stroke-linecap:butt;stroke-linejoin:miter;stroke-miterlimit:4;stroke-dasharray:none;stroke-dashoffset:0;stroke-opacity:1;color-rendering:auto;image-rendering:auto;shape-rendering:auto;text-rendering:auto" transform="matrix(-.43779 .0924 .19694 .58654 411.708 -59.256)"/></g><g style="display:inline;opacity:1"><path d="M767.3 387.327c11.123 7.965 31.777 11.3 44.73 15.545 12.954 4.245 18.15 9.36 22.13 13.373s5.944 7.144 4.718 9.527-5.543 3.994-14 4.811c-8.459.818-15.91.121-23.024-1.725s-13.807-4.867-21.706-8.603c-7.899-3.737-17.327-8.05-25.811-14.185-8.484-6.133-17.623-13.9-23.143-24.133-5.519-10.234-5.782-21.344-5.371-30.883s1.51-17.554 2.716-23.75c1.204-6.195 2.715-10.673 4.77-13.669 2.057-2.995 4.652-4.526 7.72-4.526s5.703 1.83 7.625 5.499 3.048 9.244 3.287 16.76-.672 17.08.34 27.198c1.011 10.118 3.895 20.795 15.018 28.76" style="color:#000;clip-rule:nonzero;display:inline;overflow:visible;opacity:1;isolation:auto;mix-blend-mode:normal;color-interpolation:sRGB;color-interpolation-filters:linearRGB;solid-color:#000;solid-opacity:1;fill:#394655;fill-opacity:1;fill-rule:nonzero;stroke:none;stroke-width:10;stroke-linecap:butt;stroke-linejoin:miter;stroke-miterlimit:4;stroke-dasharray:none;stroke-dashoffset:0;stroke-opacity:1;color-rendering:auto;image-rendering:auto;shape-rendering:auto;text-rendering:auto" transform="matrix(-.20409 .3611 .80609 .48598 101.325 -40.237)"/><path d="M760.817 387.615c8.354 7.229 23.405 11.344 36.929 14.854s21.763 7.51 26.414 11.295 7.043 6.961 6.893 9.28c-.151 2.32-3.073 3.852-9.995 4.538-6.922.685-13.124-.18-19.188-2.159s-12.013-5.066-19.623-8.647-16.945-7.618-24.99-13.216-15.823-12.654-20.902-21.246-6.013-17.8-5.992-25.918c.022-8.118.935-15.149 1.866-20.67.932-5.52 2.018-9.597 3.383-12.305 1.366-2.707 3.035-4.069 5.02-4.013 1.985.055 3.577 1.847 4.614 5.275 1.038 3.428 1.448 8.544 1.474 15.152.026 6.609-.436 14.761.913 23.275 1.35 8.514 4.83 17.275 13.184 24.505" style="color:#000;clip-rule:nonzero;display:inline;overflow:visible;opacity:1;isolation:auto;mix-blend-mode:normal;color-interpolation:sRGB;color-interpolation-filters:linearRGB;solid-color:#000;solid-opacity:1;fill:#e1d6b9;fill-opacity:1;fill-rule:nonzero;stroke:none;stroke-width:10;stroke-linecap:butt;stroke-linejoin:miter;stroke-miterlimit:4;stroke-dasharray:none;stroke-dashoffset:0;stroke-opacity:1;color-rendering:auto;image-rendering:auto;shape-rendering:auto;text-rendering:auto" transform="matrix(-.20409 .3611 .80609 .48598 101.325 -40.237)"/></g><g style="display:inline;opacity:1"><path d="M767.3 387.327c11.123 7.965 31.777 11.3 44.73 15.545 12.954 4.245 18.15 9.36 22.13 13.373s5.944 7.144 4.718 9.527-5.543 3.994-14 4.811c-8.459.818-15.91.121-23.024-1.725s-13.807-4.867-21.706-8.603c-7.899-3.737-17.327-8.05-25.811-14.185-8.484-6.133-17.623-13.9-23.143-24.133-5.519-10.234-5.782-21.344-5.371-30.883s1.51-17.554 2.716-23.75c1.204-6.195 2.715-10.673 4.77-13.669 2.057-2.995 4.652-4.526 7.72-4.526s5.703 1.83 7.625 5.499 3.048 9.244 3.287 16.76-.672 17.08.34 27.198c1.011 10.118 3.895 20.795 15.018 28.76" style="color:#000;clip-rule:nonzero;display:inline;overflow:visible;opacity:1;isolation:auto;mix-blend-mode:normal;color-interpolation:sRGB;color-interpolation-filters:linearRGB;solid-color:#000;solid-opacity:1;fill:#394655;fill-opacity:1;fill-rule:nonzero;stroke:none;stroke-width:10;stroke-linecap:butt;stroke-linejoin:miter;stroke-miterlimit:4;stroke-dasharray:none;stroke-dashoffset:0;stroke-opacity:1;color-rendering:auto;image-rendering:auto;shape-rendering:auto;text-rendering:auto" transform="matrix(-.13664 -.29657 -.88137 .09664 542.794 524.04)"/><path d="M760.817 387.615c8.354 7.229 23.405 11.344 36.929 14.854s21.763 7.51 26.414 11.295 7.043 6.961 6.893 9.28c-.151 2.32-3.073 3.852-9.995 4.538-6.922.685-13.124-.18-19.188-2.159s-12.013-5.066-19.623-8.647-16.945-7.618-24.99-13.216-15.823-12.654-20.902-21.246-6.013-17.8-5.992-25.918c.022-8.118.935-15.149 1.866-20.67.932-5.52 2.018-9.597 3.383-12.305 1.366-2.707 3.035-4.069 5.02-4.013 1.985.055 3.577 1.847 4.614 5.275 1.038 3.428 1.448 8.544 1.474 15.152.026 6.609-.436 14.761.913 23.275 1.35 8.514 4.83 17.275 13.184 24.505" style="color:#000;clip-rule:nonzero;display:inline;overflow:visible;opacity:1;isolation:auto;mix-blend-mode:normal;color-interpolation:sRGB;color-interpolation-filters:linearRGB;solid-color:#000;solid-opacity:1;fill:#e1d6b9;fill-opacity:1;fill-rule:nonzero;stroke:none;stroke-width:10;stroke-linecap:butt;stroke-linejoin:miter;stroke-miterlimit:4;stroke-dasharray:none;stroke-dashoffset:0;stroke-opacity:1;color-rendering:auto;image-rendering:auto;shape-rendering:auto;text-rendering:auto" transform="matrix(-.13664 -.29657 -.88137 .09664 542.794 524.04)"/></g><g style="opacity:1"><path d="M-626.547 402.353c2.228 10.863.345 21.826-3.867 31.425-4.213 9.6-10.552 17.861-17.721 24.3s-15.255 11.106-24.572 13.614c-9.317 2.507-20.95 4.469-31.639 1.984s-18.069-9.229-24.094-15.893-12.359-14.476-22.965-22.068-20.865-15.599-25.161-23.378c-4.297-7.78-7.008-15.67-7.816-23.39-.807-7.722.36-14.56 3.123-20.545s7.126-11.121 12.786-15.41 12.617-7.736 20.642-10.242 17.112-4.076 27.14-4.415c10.026-.34 20.065.594 29.76 2.875s19.056 5.92 27.478 11.023 15.893 11.692 21.605 19.629c5.711 7.936 13.074 19.628 15.301 30.49" style="color:#000;clip-rule:nonzero;display:inline;overflow:visible;opacity:1;isolation:auto;mix-blend-mode:normal;color-interpolation:sRGB;color-interpolation-filters:linearRGB;solid-color:#000;solid-opacity:1;fill:#96d6ff;fill-opacity:1;fill-rule:nonzero;stroke:none;stroke-width:10;stroke-linecap:butt;stroke-linejoin:miter;stroke-miterlimit:4;stroke-dasharray:none;stroke-dashoffset:0;stroke-opacity:1;color-rendering:auto;image-rendering:auto;shape-rendering:auto;text-rendering:auto" transform="matrix(-.3288 .17362 .20143 .28339 -41.634 53.115)"/><path d="M-784.214 457.34a8 8 0 0 0-1.556.335 5.6 5.6 0 0 0-1.635.827c-.451.342-.802.747-1.028 1.22a3.1 3.1 0 0 0-.274 1.62c.052.609.252 1.233.58 1.849.326.616.989 1.252 1.835 1.841.845.59 1.356 1.206 1.825 1.729.467.521 1.135.854 2.024.927.103.008.124-.305.035-.329-.781-.203-1.259-.72-1.719-1.11-.425-.467-.872-1.015-1.621-1.547s-1.473-1.093-1.777-1.639-.497-1.1-.555-1.642a2.7 2.7 0 0 1 .22-1.443c.194-.421.502-.784.901-1.087.4-.302.89-.545 1.458-.723a7 7 0 0 1 .907-.215q.48-.08 1.012-.102a8 8 0 0 1 2.1.2 6.7 6.7 0 0 1 1.939.772c.593.359 1.119.82 1.52 1.377.403.557.922 1.375 1.08 2.137.13.625.073 1.258-.133 1.834-.038.107.498.294.628-.012.243-.57.234-1.24.103-1.874-.179-.856-.69-1.769-1.137-2.4a5.7 5.7 0 0 0-1.689-1.553 7.1 7.1 0 0 0-2.143-.85 8.6 8.6 0 0 0-2.9-.143z" style="color:#000;clip-rule:nonzero;display:inline;overflow:visible;opacity:1;isolation:auto;mix-blend-mode:normal;color-interpolation:sRGB;color-interpolation-filters:linearRGB;solid-color:#000;solid-opacity:1;fill:#394655;fill-opacity:1;fill-rule:nonzero;stroke:none;stroke-width:10;stroke-linecap:butt;stroke-linejoin:miter;stroke-miterlimit:4;stroke-dasharray:none;stroke-dashoffset:0;stroke-opacity:1;color-rendering:auto;image-rendering:auto;shape-rendering:auto;text-rendering:auto" transform="matrix(-4.55414 2.40477 2.79007 3.92523 -4582.282 111.619)"/><path d="M-753.772 413.022c-.136-2.619 2.18-4.948 7.22-6.2 7.654-1.903 20.038 1.845 27.938 5.67 4.333 2.1 8.89 3.892 12.666 7.195 1.282 1.121 2.518 2.283 3.368 4.409-1.658.577-4.104-.922-5.872-2.13-6.968-4.766-14.695-8.09-22.677-9.127-6.716-.872-8.87-3.11-14.756-2.562-3.726.347-4.906 2.139-7.887 2.745" style="color:#000;clip-rule:nonzero;display:inline;overflow:visible;opacity:1;isolation:auto;mix-blend-mode:normal;color-interpolation:sRGB;color-interpolation-filters:linearRGB;solid-color:#000;solid-opacity:1;fill:#394655;fill-opacity:1;fill-rule:nonzero;stroke:none;stroke-width:10;stroke-linecap:butt;stroke-linejoin:miter;stroke-miterlimit:4;stroke-dasharray:none;stroke-dashoffset:0;stroke-opacity:1;color-rendering:auto;image-rendering:auto;shape-rendering:auto;text-rendering:auto" transform="matrix(-.3288 .17362 .20143 .28339 -41.634 53.115)"/><path d="M-720.17 411.684c.285-2.325.87 3.903-.319 5.46-4.46 5.84-8.203 12.32-12.42 18.365-1.374 1.968-3.295.041-2.428-2.1.881-2.173 2.06-3.998 3.35-5.814 1.207-1.702 2.813-3.058 3.888-4.86 2.066-3.463 2.395-6.629 4.254-10.24.637-1.237 3.522.426 3.674-.808z" style="color:#000;clip-rule:nonzero;display:inline;overflow:visible;opacity:1;isolation:auto;mix-blend-mode:normal;color-interpolation:sRGB;color-interpolation-filters:linearRGB;solid-color:#000;solid-opacity:1;fill:#394655;fill-opacity:1;fill-rule:nonzero;stroke:none;stroke-width:10;stroke-linecap:butt;stroke-linejoin:miter;stroke-miterlimit:4;stroke-dasharray:none;stroke-dashoffset:0;stroke-opacity:1;color-rendering:auto;image-rendering:auto;shape-rendering:auto;text-rendering:auto" transform="matrix(-.3288 .17362 .20143 .28339 -41.634 53.115)"/></g><g style="display:inline;opacity:1"><path d="M-140.717 398.664c-9.314 71.697-25.761 141.32-83.877 188.864-73.317 59.98-208.092 67.906-303.428 10.996-27.57-16.458-49.524-62.176-53.041-91.74-7.352-61.799 19.827-103.65 13.479-160.679-5.053-45.392-29.638-82.955-27.308-137.001 1.563-36.267 11.065-78.465 40.507-100.884 38.57-29.37 83.605-46.189 134.68-45.031 72.738 1.649 151.18 6.327 212.188 49.94 43.544 31.127 68.503 82.536 72.904 135.3 4.52 54.197-.16 104.485-6.104 150.235" style="color:#000;clip-rule:nonzero;display:inline;overflow:visible;opacity:1;isolation:auto;mix-blend-mode:normal;color-interpolation:sRGB;color-interpolation-filters:linearRGB;solid-color:#000;solid-opacity:1;fill:#394655;fill-opacity:1;fill-rule:nonzero;stroke:none;stroke-width:2;stroke-linecap:butt;stroke-linejoin:miter;stroke-miterlimit:4;stroke-dasharray:none;stroke-dashoffset:0;stroke-opacity:1;color-rendering:auto;image-rendering:auto;shape-rendering:auto;text-rendering:auto" transform="matrix(.69027 0 0 .73815 457.422 -6.828)"/><path d="M-158.937 464.93c-15.561 65.936-58.423 127.392-134.422 151.72-70.615 22.605-163.492 17.3-232.185-25.547-26.146-16.309-46.091-61.462-48.959-89.476-6.035-58.964 19.048-102.174 13.303-156.595-4.795-45.426-28.021-78.346-27.296-132.223.474-35.21 8.99-76.957 37.821-98.8 36.525-27.67 78.353-45.238 126.457-45.012 76.22.358 162.162 5.533 222.843 56.659 55.48 46.742 63.384 129.048 60.81 193.305-2.122 52.998-7.672 100.63-18.372 145.969" style="color:#000;clip-rule:nonzero;display:inline;overflow:visible;opacity:1;isolation:auto;mix-blend-mode:normal;color-interpolation:sRGB;color-interpolation-filters:linearRGB;solid-color:#000;solid-opacity:1;fill:#96d6ff;fill-opacity:1;fill-rule:nonzero;stroke:none;stroke-width:2;stroke-linecap:butt;stroke-linejoin:miter;stroke-miterlimit:4;stroke-dasharray:none;stroke-dashoffset:0;stroke-opacity:1;color-rendering:auto;image-rendering:auto;shape-rendering:auto;text-rendering:auto" transform="matrix(.69027 0 0 .73815 457.422 -6.828)"/></g><g style="opacity:1"><path d="M-626.573 401.696c2.247 11.35.367 22.39-3.843 32.038-4.21 9.649-10.55 17.905-17.72 24.344s-15.254 11.11-24.57 13.61c-9.318 2.501-20.95 4.473-31.646 1.829s-18.092-9.812-24.148-17.25c-6.056-7.44-12.443-16.568-23.097-25.36-10.654-8.793-20.952-17.788-25.3-26.873-4.35-9.086-7.116-18.361-7.98-27.522s.246-17.364 2.961-24.584 7.032-13.455 12.66-18.537 12.567-9.01 20.593-11.49c8.026-2.478 17.135-3.505 27.21-2.666 10.073.838 20.18 3.472 29.951 7.653s19.215 9.908 27.712 16.897 16.035 15.24 21.796 24.415c5.76 9.176 13.174 22.145 15.421 33.496" style="color:#000;clip-rule:nonzero;display:inline;overflow:visible;opacity:1;isolation:auto;mix-blend-mode:normal;color-interpolation:sRGB;color-interpolation-filters:linearRGB;solid-color:#000;solid-opacity:1;fill:#96d6ff;fill-opacity:1;fill-rule:nonzero;stroke:none;stroke-width:10;stroke-linecap:butt;stroke-linejoin:miter;stroke-miterlimit:4;stroke-dasharray:none;stroke-dashoffset:0;stroke-opacity:1;color-rendering:auto;image-rendering:auto;shape-rendering:auto;text-rendering:auto" transform="rotate(-18.859 -410.197 -953.076)scale(.42416)"/><path d="M-784.271 455.904a5.5 5.5 0 0 0-1.56.262 4.5 4.5 0 0 0-1.63.935 3.9 3.9 0 0 0-1.018 1.475 4.35 4.35 0 0 0-.261 1.937 6.3 6.3 0 0 0 .592 2.157c.33.71.996 1.419 1.845 2.083.848.664 1.363 1.37 1.833 1.94.47.567 1.137.91 2.027.989.103.009.123-.313.034-.34-.781-.217-1.26-.775-1.723-1.214-.428-.524-.878-1.166-1.63-1.785-.753-.619-1.48-1.252-1.787-1.892a5.8 5.8 0 0 1-.567-1.938 3.8 3.8 0 0 1 .208-1.73c.191-.508.495-.949.893-1.307a3.85 3.85 0 0 1 1.454-.81q.427-.132.908-.182t1.016-.008a6.8 6.8 0 0 1 2.114.538 8.1 8.1 0 0 1 1.955 1.19 7.2 7.2 0 0 1 1.535 1.719c.406.646.928 1.559 1.088 2.358a3.53 3.53 0 0 1-.131 1.88c-.039.108.498.304.628-.002.243-.57.234-1.244.102-1.897-.18-.883-.695-1.871-1.144-2.587a7.9 7.9 0 0 0-1.703-1.899 8.8 8.8 0 0 0-2.16-1.296 7.4 7.4 0 0 0-2.34-.564 6 6 0 0 0-.578-.012" style="color:#000;clip-rule:nonzero;display:inline;overflow:visible;opacity:1;isolation:auto;mix-blend-mode:normal;color-interpolation:sRGB;color-interpolation-filters:linearRGB;solid-color:#000;solid-opacity:1;fill:#394655;fill-opacity:1;fill-rule:nonzero;stroke:none;stroke-width:10;stroke-linecap:butt;stroke-linejoin:miter;stroke-miterlimit:4;stroke-dasharray:none;stroke-dashoffset:0;stroke-opacity:1;color-rendering:auto;image-rendering:auto;shape-rendering:auto;text-rendering:auto" transform="rotate(-18.859 -10223.226 -12620.255)scale(5.87505)"/><path d="M-730.273 382.913c1.807-2.764 6.313-3.63 13.246-1.617 10.53 3.057 22.434 14.977 28.948 24.047 3.574 4.975 7.643 9.782 9.648 15.624.68 1.983 1.276 3.978.69 6.704-2.407-.494-4.188-3.623-5.38-6.013-4.7-9.42-11.386-17.865-20.096-24.139-7.328-5.278-8.205-8.972-15.615-12.257-4.69-2.08-7.441-1.02-11.44-2.35" style="color:#000;clip-rule:nonzero;display:inline;overflow:visible;opacity:1;isolation:auto;mix-blend-mode:normal;color-interpolation:sRGB;color-interpolation-filters:linearRGB;solid-color:#000;solid-opacity:1;fill:#394655;fill-opacity:1;fill-rule:nonzero;stroke:none;stroke-width:10;stroke-linecap:butt;stroke-linejoin:miter;stroke-miterlimit:4;stroke-dasharray:none;stroke-dashoffset:0;stroke-opacity:1;color-rendering:auto;image-rendering:auto;shape-rendering:auto;text-rendering:auto" transform="rotate(-18.859 -410.197 -953.076)scale(.42416)"/><path d="M-689.32 403.5c2.089-2.189-1.901 4.556-4.484 5.369-9.695 3.051-19.018 7.226-28.579 10.645-3.113 1.112-3.947-2.11-1.307-3.73 2.683-1.645 5.457-2.739 8.355-3.752 2.716-.95 5.644-1.286 8.277-2.424 5.061-2.187 7.834-5.206 12.759-7.68 1.689-.848 3.868 2.736 4.976 1.574z" style="color:#000;clip-rule:nonzero;display:inline;overflow:visible;opacity:1;isolation:auto;mix-blend-mode:normal;color-interpolation:sRGB;color-interpolation-filters:linearRGB;solid-color:#000;solid-opacity:1;fill:#394655;fill-opacity:1;fill-rule:nonzero;stroke:none;stroke-width:10;stroke-linecap:butt;stroke-linejoin:miter;stroke-miterlimit:4;stroke-dasharray:none;stroke-dashoffset:0;stroke-opacity:1;color-rendering:auto;image-rendering:auto;shape-rendering:auto;text-rendering:auto" transform="rotate(-18.859 -410.197 -953.076)scale(.42416)"/></g><g style="display:inline;opacity:1"><path d="M423.503 581.835c-.004 4.4-1.198 7.589-3.375 9.829s-5.331 3.551-9.146 4.443c-3.815.89-8.283 1.395-13.057 1.838s-9.851.79-14.95 1.1c-5.098.308-9.945.347-14.402.085-4.457-.26-8.524-.799-11.993-1.712s-6.337-2.213-8.356-4.092c-2.019-1.88-3.187-4.345-3.255-7.511-.067-3.166.999-5.486 2.926-7.084s4.712-2.464 8.1-2.847 7.372-.283 11.77-.16 9.21.234 14.332-.122c5.12-.357 10.271-1.474 15.16-2.541 4.888-1.068 9.504-2.052 13.438-2.272s7.178.324 9.398 2.046c2.221 1.723 3.415 4.6 3.41 9" style="color:#000;clip-rule:nonzero;display:inline;overflow:visible;opacity:1;isolation:auto;mix-blend-mode:normal;color-interpolation:sRGB;color-interpolation-filters:linearRGB;solid-color:#000;solid-opacity:1;fill:#e1d6b9;fill-opacity:1;fill-rule:nonzero;stroke:none;stroke-width:10;stroke-linecap:butt;stroke-linejoin:miter;stroke-miterlimit:4;stroke-dasharray:none;stroke-dashoffset:0;stroke-opacity:1;color-rendering:auto;image-rendering:auto;shape-rendering:auto;text-rendering:auto" transform="matrix(.13059 -.42795 -.6087 -.11093 447.388 689.74)"/><path d="M411.914 568.549c-3.75-.027-8.087.54-12.762 1.287-5.342.854-11.107 1.92-17.01 2.326-5.902.406-11.41.383-16.447.414s-9.604.16-13.508.86c-3.903.698-7.135 1.967-9.408 3.968s-3.585 4.717-3.652 8.176 1.218 6.307 3.543 8.58 5.688 3.98 9.762 5.25c4.073 1.27 8.852 2.12 14.056 2.598 5.205.479 10.834.561 16.703.222 5.87-.338 11.472-.786 16.606-1.35 5.134-.562 9.793-1.223 13.707-2.343a27.6 27.6 0 0 0 4.127-1.52c2.545-1.193 2.05-6.172-.1-4.54-1.991 1.511-4.143 1.681-7.157 2.35-3.673.815-8.181.991-12.55 1.343s-8.78 1.784-13.313 2.077c-4.535.293-8.868.328-12.932.07-4.064-.257-7.857-.78-11.125-1.642-3.268-.863-5.997-2.08-7.885-3.814s-2.925-3.988-2.978-6.801.901-4.82 2.669-6.106c1.767-1.286 5.617-.585 8.691-.714 3.075-.13 6.907-.545 10.788-.417 3.882.127 6.546-.481 11.049-1.214s9.152-2.344 13.887-3.721 9.225-2.343 13.009-2.554q.71-.04 1.388-.045c1.16-.007 2.25.044 3.25.236 1.153.222 2.316-2.861-.838-2.927-.511-.011-1.034-.045-1.57-.05" style="color:#000;clip-rule:nonzero;display:inline;overflow:visible;opacity:1;isolation:auto;mix-blend-mode:normal;color-interpolation:sRGB;color-interpolation-filters:linearRGB;solid-color:#000;solid-opacity:1;fill:#394655;fill-opacity:1;fill-rule:nonzero;stroke:none;stroke-width:10;stroke-linecap:butt;stroke-linejoin:miter;stroke-miterlimit:4;stroke-dasharray:none;stroke-dashoffset:0;stroke-opacity:1;color-rendering:auto;image-rendering:auto;shape-rendering:auto;text-rendering:auto" transform="matrix(.13059 -.42795 -.6087 -.11093 447.388 689.74)"/></g></g><g style="opacity:.06000001" transform="translate(-136.354 -236.93)"><path d="M305.742 277.027c3.588.042 7.174.204 10.744.482 19.234.592 38.595 2.141 57.676 5.283-65.39-.975-128.368 55.788-129.174 117.467-.905 69.28 18.303 92.543 18.47 132.041.203 47.795-18.13 83.088 6.985 116.86 18.86 25.36 37.78 41.444 56.037 50.92-13.168-.261-26.335-1.752-39.271-4.344-4.716 6.547-3.49 18.063-12.508 20.691-7.301 1.614-11.434-6.792-9.396-12.934.685-4.529 2.441-8.558 4.226-12.728-20.949-8.024-43.957-16.401-56.703-36.227-15.3-21.374-22.527-48.128-20.443-74.19.186-4.944.55-9.798 1.004-14.704-4.105-1.83-9.173-8.983-4.043-12.195 3.195.41 7.954-.856 7.052-5.041 5.872-28.159 9.763-57.902 1.377-85.995-7.369-26.81-16.095-53.801-14.06-82.002.52-13.431 3.39-26.667 7.27-39.435.278-4.985-6.693-5.432-9.991-7.776-9.951-3.927-20.082-9.758-24.26-20.17-5.627-11.958.438-27.437 12.756-32.283 18.326-8.355 41.412-2.026 54.235 13.168 2.742 4.383 5.947 4.523 9.667 1.186 21.93-12.782 47.232-18.367 72.35-18.074m-106.488 31.388a2 2 0 0 0-.512.03c-6.15 1.215 1.93 8.272 2.512 2.398.107-1.201-.833-2.338-2-2.428m-6.735 246.758c-3.364.133-3.567 7.092.68 6.266 2.09-.657 1.944-7.03.465-6.073a3 3 0 0 0-1.145-.193m225.55 145.74c-.968 2.124-2.537 3.94-4.934 5.211-2.075.374-3.84-.085-5.38-1.017 3.56-1.27 7-2.682 10.313-4.194" style="color:#000;clip-rule:nonzero;display:inline;overflow:visible;opacity:1;isolation:auto;mix-blend-mode:normal;color-interpolation:sRGB;color-interpolation-filters:linearRGB;solid-color:#000;solid-opacity:1;fill:#000;fill-opacity:1;fill-rule:nonzero;stroke:none;stroke-width:2;stroke-linecap:round;stroke-linejoin:miter;stroke-miterlimit:4;stroke-dasharray:none;stroke-dashoffset:0;stroke-opacity:1;color-rendering:auto;image-rendering:auto;shape-rendering:auto;text-rendering:auto"/><ellipse cx="-420.634" cy="448.334" rx="22.451" ry="16.011" style="color:#000;clip-rule:nonzero;display:inline;overflow:visible;opacity:1;isolation:auto;mix-blend-mode:normal;color-interpolation:sRGB;color-interpolation-filters:linearRGB;solid-color:#000;solid-opacity:1;fill:#000;fill-opacity:1;fill-rule:nonzero;stroke:none;stroke-width:1.7597003;stroke-linecap:round;stroke-linejoin:miter;stroke-miterlimit:4;stroke-dasharray:none;stroke-dashoffset:0;stroke-opacity:1;color-rendering:auto;image-rendering:auto;shape-rendering:auto;text-rendering:auto" transform="scale(-1 1)"/></g><g style="display:inline" transform="translate(-136.354 -236.93)"><ellipse cx="-198.127" cy="318.247" rx="6.764" ry="7.628" style="display:inline;opacity:1;fill:#a50000;fill-opacity:1;stroke:none;stroke-width:3.22262621;stroke-linecap:round;stroke-miterlimit:4;stroke-dasharray:none;stroke-opacity:1" transform="scale(-1 1)"/><path d="M201.868 318.214c-7.278 9.747-10.4 21.949-11.172 33.932-.806 12.503-.394 25.185 2.208 37.4 3.841 18.029 12.83 34.342 21.732 50.288 7.335 13.14 12.616 27.268 19.488 40.724 9.54 18.677 19.044 37.72 23.517 58.355 3.018 13.92 5.278 29.432-.882 42.377-2.47 5.189-6.902 9.606-12.388 11.521-3.905 1.364-8.31.373-11.215-2.563" style="display:inline;opacity:1;fill:none;fill-opacity:1;stroke:#a50000;stroke-width:4.6875;stroke-linecap:round;stroke-miterlimit:4;stroke-dasharray:none;stroke-opacity:1"/><path d="M424.58 294.53c9.585 7.007 19.63 13.372 29.043 20.624 14.037 10.815 27.672 22.844 36.934 38.14 4.386 7.243 6.877 15.446 8.165 23.85 4.049 26.404 7.408 53.25 4.595 79.963-1.29 12.265-3.242 24.546-6.985 36.309-8.246 25.912-26.922 47.695-49.674 62.17-16.32 10.381-34.829 17.811-54.104 19.87-24.747 2.644-48.965-5.114-73.645-5.305-14.43-.112-28.542 3.98-41.644 9.851-13.052 5.85-25.318 14.298-39.764 16.33" style="display:inline;opacity:1;fill:none;fill-opacity:1;stroke:#a50000;stroke-width:4.6875;stroke-linecap:round;stroke-miterlimit:4;stroke-dasharray:none;stroke-opacity:1"/><ellipse cx="-420.81" cy="287.605" rx="7.203" ry="7.718" style="display:inline;opacity:1;fill:#a50000;fill-opacity:1;stroke:none;stroke-width:3.34528589;stroke-linecap:round;stroke-miterlimit:4;stroke-dasharray:none;stroke-opacity:1" transform="scale(-1 1)"/><ellipse cx="-191.224" cy="319.461" rx="5.531" ry="4.84" style="display:inline;opacity:1;fill:#a50000;fill-opacity:1;stroke:none;stroke-width:5.99627066;stroke-linecap:round;stroke-miterlimit:4;stroke-dasharray:none;stroke-opacity:1" transform="scale(-1 1)"/><ellipse cx="-429.001" cy="286.069" rx="4.794" ry="4.194" style="display:inline;opacity:1;fill:#a50000;fill-opacity:1;stroke:none;stroke-width:5.19676733;stroke-linecap:round;stroke-miterlimit:4;stroke-dasharray:none;stroke-opacity:1" transform="scale(-1 1)"/><rect width="27.855" height="38.094" x="-526.126" y="271.121" ry="6.079" style="display:inline;opacity:1;fill:#cacaca;fill-opacity:1;stroke:#a50000;stroke-width:1.76848841;stroke-linecap:round;stroke-miterlimit:4;stroke-dasharray:none;stroke-opacity:1" transform="matrix(-.73103 -.68234 -.49544 .86864 0 0)"/><rect width="20.508" height="9.28" x="-531.065" y="292.558" ry="2.048" style="opacity:1;fill:#fff;fill-opacity:1;stroke:#364250;stroke-width:.87762207;stroke-linecap:round;stroke-miterlimit:4;stroke-dasharray:none;stroke-opacity:1" transform="rotate(32.066)scale(-.9878 1)skewY(-8.85)"/></g><g style="display:inline" transform="translate(-136.354 -236.93)"><path d="M238.943 396.175c.289 9.692 2.709 19.044 6.817 27.722s9.902 16.683 16.93 23.618 15.29 12.799 24.353 17.117 18.93 7.088 29.198 7.783 19.972-.76 28.75-4.047c8.776-3.286 16.625-8.403 23.16-14.962s11.755-14.559 15.265-23.559 5.309-19 5.014-29.512-2.654-20.532-6.655-29.576c-4-9.045-9.642-17.113-16.513-23.789a73.2 73.2 0 0 0-23.923-15.524c-8.949-3.563-18.746-5.408-29.019-5.266a79.6 79.6 0 0 0-28.94 5.867c-8.89 3.618-16.889 8.75-23.571 15.034s-12.048 13.722-15.666 22.001-5.489 17.401-5.2 27.093" style="color:#000;clip-rule:nonzero;display:inline;overflow:visible;opacity:1;isolation:auto;mix-blend-mode:normal;color-interpolation:sRGB;color-interpolation-filters:linearRGB;solid-color:#000;solid-opacity:1;fill:#394655;fill-opacity:1;fill-rule:nonzero;stroke:none;stroke-width:1.31220281;stroke-linecap:butt;stroke-linejoin:miter;stroke-miterlimit:4;stroke-dasharray:none;stroke-dashoffset:0;stroke-opacity:1;color-rendering:auto;image-rendering:auto;shape-rendering:auto;text-rendering:auto"/><path d="M243.998 393.96c0 9.12 1.979 18.069 5.586 26.476s8.845 16.275 15.337 23.13c6.493 6.854 14.241 12.69 22.823 16.979s17.994 7.028 27.804 7.72 19.087-.73 27.464-3.892 15.857-8.061 22.088-14.297c6.23-6.235 11.212-13.806 14.586-22.277s5.14-17.843 4.936-27.646c-.203-9.802-2.355-19.098-6.055-27.463a69.5 69.5 0 0 0-15.35-21.96 69.4 69.4 0 0 0-22.31-14.397c-8.35-3.348-17.493-5.162-27.088-5.211s-18.738 1.661-27.071 4.753-15.856 7.567-22.186 13.146c-6.33 5.578-11.468 12.262-15.026 19.822s-5.537 15.998-5.538 25.118" style="color:#000;clip-rule:nonzero;display:inline;overflow:visible;opacity:1;isolation:auto;mix-blend-mode:normal;color-interpolation:sRGB;color-interpolation-filters:linearRGB;solid-color:#000;solid-opacity:1;fill:#fff;fill-opacity:1;fill-rule:nonzero;stroke:none;stroke-width:1.31220281;stroke-linecap:butt;stroke-linejoin:miter;stroke-miterlimit:4;stroke-dasharray:none;stroke-dashoffset:0;stroke-opacity:1;color-rendering:auto;image-rendering:auto;shape-rendering:auto;text-rendering:auto"/><circle cx="-297.568" cy="394.843" r="20.214" style="color:#000;clip-rule:nonzero;display:inline;overflow:visible;opacity:1;isolation:auto;mix-blend-mode:normal;color-interpolation:sRGB;color-interpolation-filters:linearRGB;solid-color:#000;solid-opacity:1;fill:#394455;fill-opacity:1;fill-rule:nonzero;stroke:none;stroke-width:1.31220281;stroke-linecap:butt;stroke-linejoin:miter;stroke-miterlimit:4;stroke-dasharray:none;stroke-dashoffset:0;stroke-opacity:1;color-rendering:auto;image-rendering:auto;shape-rendering:auto;text-rendering:auto" transform="scale(-1 1)"/><circle cx="-306.515" cy="385.564" r="9.941" style="color:#000;clip-rule:nonzero;display:inline;overflow:visible;opacity:1;isolation:auto;mix-blend-mode:normal;color-interpolation:sRGB;color-interpolation-filters:linearRGB;solid-color:#000;solid-opacity:1;fill:#fff;fill-opacity:1;fill-rule:nonzero;stroke:none;stroke-width:1.31220281;stroke-linecap:butt;stroke-linejoin:miter;stroke-miterlimit:4;stroke-dasharray:none;stroke-dashoffset:0;stroke-opacity:1;color-rendering:auto;image-rendering:auto;shape-rendering:auto;text-rendering:auto" transform="scale(-1 1)"/><path d="M438.551 352.117c-.192 7.671 1.372 15.96 3.708 24.526s5.371 17.422 8.44 25.886c3.07 8.465 6.182 16.499 9.557 23.364s7.068 12.562 11.624 16.649c4.557 4.086 9.594 6.205 15.03 6.666 5.435.46 12.241 1.4 18.063-1.247 5.821-2.646 11.564-6.768 16.679-12.233s9.601-12.277 12.893-20.284 5.07-16.445 5.313-24.825c.244-8.38-1.049-16.697-3.797-24.485s-8.976-17.392-14.427-23.703c-5.452-6.312-12.157-11.68-19.773-15.704s-15.407-6.326-22.785-7.063c-7.377-.737-14.342.094-20.334 2.365-5.993 2.272-11.01 5.983-14.52 11.022-3.512 5.039-5.479 11.395-5.671 19.066" style="color:#000;clip-rule:nonzero;display:inline;overflow:visible;opacity:1;isolation:auto;mix-blend-mode:normal;color-interpolation:sRGB;color-interpolation-filters:linearRGB;solid-color:#000;solid-opacity:1;fill:#394655;fill-opacity:1;fill-rule:nonzero;stroke:none;stroke-width:1.12027979;stroke-linecap:butt;stroke-linejoin:miter;stroke-miterlimit:4;stroke-dasharray:none;stroke-dashoffset:0;stroke-opacity:1;color-rendering:auto;image-rendering:auto;shape-rendering:auto;text-rendering:auto"/><path d="M441.915 353.022c-.398 7.12.701 14.909 2.636 23.021s4.682 16.553 7.724 24.61c3.043 8.056 6.366 15.688 9.923 22.186s7.378 11.864 11.828 15.704 9.165 5.82 14.152 6.246c4.988.426 11.313 1.435 16.532-1.054 5.22-2.489 10.347-6.356 14.903-11.471s8.539-11.484 11.431-18.955a67.1 67.1 0 0 0 4.533-23.138c.123-7.802-1.15-15.542-3.746-22.794s-8.567-16.407-13.628-22.301a64.6 64.6 0 0 0-18.262-14.71c-7.006-3.79-14.145-5.985-20.874-6.739s-13.047-.063-18.472 1.95c-5.424 2.015-9.951 5.35-13.17 9.93-3.22 4.579-5.111 10.395-5.51 17.515" style="color:#000;clip-rule:nonzero;display:inline;overflow:visible;opacity:1;isolation:auto;mix-blend-mode:normal;color-interpolation:sRGB;color-interpolation-filters:linearRGB;solid-color:#000;solid-opacity:1;fill:#fff;fill-opacity:1;fill-rule:nonzero;stroke:none;stroke-width:1.12027979;stroke-linecap:butt;stroke-linejoin:miter;stroke-miterlimit:4;stroke-dasharray:none;stroke-dashoffset:0;stroke-opacity:1;color-rendering:auto;image-rendering:auto;shape-rendering:auto;text-rendering:auto"/><circle cx="-611.28" cy="204.982" r="15.528" style="color:#000;clip-rule:nonzero;display:inline;overflow:visible;opacity:1;isolation:auto;mix-blend-mode:normal;color-interpolation:sRGB;color-interpolation-filters:linearRGB;solid-color:#000;solid-opacity:1;fill:#394455;fill-opacity:1;fill-rule:nonzero;stroke:none;stroke-width:1.12027979;stroke-linecap:butt;stroke-linejoin:miter;stroke-miterlimit:4;stroke-dasharray:none;stroke-dashoffset:0;stroke-opacity:1;color-rendering:auto;image-rendering:auto;shape-rendering:auto;text-rendering:auto" transform="rotate(17.736)scale(-1 1)"/><circle cx="-615.458" cy="197.503" r="7.637" style="color:#000;clip-rule:nonzero;display:inline;overflow:visible;opacity:1;isolation:auto;mix-blend-mode:normal;color-interpolation:sRGB;color-interpolation-filters:linearRGB;solid-color:#000;solid-opacity:1;fill:#fff;fill-opacity:1;fill-rule:nonzero;stroke:none;stroke-width:1.12027979;stroke-linecap:butt;stroke-linejoin:miter;stroke-miterlimit:4;stroke-dasharray:none;stroke-dashoffset:0;stroke-opacity:1;color-rendering:auto;image-rendering:auto;shape-rendering:auto;text-rendering:auto" transform="rotate(17.736)scale(-1 1)"/></g><g style="opacity:.06"><path d="M175.664 101.611a72 72 0 0 0-9.666 2.21c-8.859 2.543-17.276 6.734-24.7 12.19-15.058 11.058-25.489 28.81-26.16 47.647-1.362 19.572 6.674 38.97 19.317 53.649 14.303 16.647 35.093 27.916 57.115 29.441 8.186.398 16.521-.377 24.39-2.725 11.652-3.645 22.436-10.261 30.487-19.496l.139-.158c-18.764 12.868-41.121 19.995-64.498 9.266-32.118-14.741-67.235-55.444-41.096-100.192 6.112-10.463 17.757-22.165 34.672-31.832m169.726-6.746c-5.846 2.277-11.022 6.08-14.285 11.555-5.585 9.04-5.709 20.137-4.525 30.367 2.917 18.531 9.314 36.356 17.004 53.402 4.813 9.951 10.244 20.303 19.418 26.92 5.378 3.945 12.169 4.886 18.66 5.028 5.276.457 10.684-.668 15.06-3.739 5.586-3.426 10.368-7.864 14.368-12.945-7.612 4.233-15.859 7.481-24.328 8.621-34.088 4.589-45.231-60.308-50.803-85.219-3.405-15.223-1.895-23.962 9.432-33.99" style="opacity:1;fill:#000;fill-opacity:1;stroke:none;stroke-width:.32776499;stroke-linecap:round;stroke-miterlimit:4;stroke-dasharray:none;stroke-opacity:1" transform="scale(.9375)"/></g><g style="display:inline"><path d="m426.415 448.173-6.367.091-3.712-.09c-1.183-.029-2.238.589-3.006 1.498-.769.91-1.147 2.17-1.326 3.545l-1.013 7.782-1.407 7.81c-.253 1.408.084 2.648.705 3.55.621.903 1.574 1.417 2.697 1.446l3.745.098 7.406-.19c1.42-.036 2.74-.642 3.708-1.574.968-.93 1.54-2.197 1.656-3.58l.647-7.75.525-7.738c.094-1.377-.466-2.611-1.253-3.495s-1.858-1.41-3.005-1.402z" style="color:#000;clip-rule:nonzero;display:inline;overflow:visible;opacity:1;isolation:auto;mix-blend-mode:normal;color-interpolation:sRGB;color-interpolation-filters:linearRGB;solid-color:#000;solid-opacity:1;fill:#8dc9f0;fill-opacity:1;fill-rule:nonzero;stroke:none;stroke-width:10.48037052;stroke-linecap:butt;stroke-linejoin:miter;stroke-miterlimit:4;stroke-dasharray:none;stroke-dashoffset:0;stroke-opacity:1;color-rendering:auto;image-rendering:auto;shape-rendering:auto;text-rendering:auto" transform="translate(-136.354 -236.93)"/><path d="m429.18 448.173-6.367.083-3.711-.082c-1.184-.026-2.238.536-3.007 1.364-.768.828-1.146 1.975-1.325 3.227l-1.013 7.085-1.407 7.111c-.254 1.281.084 2.41.705 3.232.62.821 1.573 1.29 2.697 1.316l3.744.09 7.407-.173a5.88 5.88 0 0 0 3.708-1.433 4.9 4.9 0 0 0 1.655-3.26l.648-7.056.525-7.045c.093-1.254-.467-2.377-1.254-3.181a4.17 4.17 0 0 0-3.004-1.278" style="color:#000;clip-rule:nonzero;display:inline;overflow:visible;opacity:1;isolation:auto;mix-blend-mode:normal;color-interpolation:sRGB;color-interpolation-filters:linearRGB;solid-color:#000;solid-opacity:1;fill:#2e3436;fill-opacity:1;fill-rule:nonzero;stroke:none;stroke-width:10;stroke-linecap:butt;stroke-linejoin:miter;stroke-miterlimit:4;stroke-dasharray:none;stroke-dashoffset:0;stroke-opacity:1;color-rendering:auto;image-rendering:auto;shape-rendering:auto;text-rendering:auto" transform="translate(-136.354 -236.93)"/><path d="m428.018 450.318-5.197.07-2.475-.101c-.94-.039-1.808.435-2.46 1.113-.654.678-1.035 1.618-1.213 2.644l-1.002 5.793-1.255 5.808c-.224 1.037.002 1.971.49 2.642.487.671 1.266 1.034 2.198 1.071l2.542.101 5.885-.127a4.75 4.75 0 0 0 2.974-1.165 4.23 4.23 0 0 0 1.44-2.665l.73-5.77.63-5.763c.112-1.026-.286-1.947-.892-2.606a3.18 3.18 0 0 0-2.395-1.045" style="color:#000;clip-rule:nonzero;display:inline;overflow:visible;opacity:1;isolation:auto;mix-blend-mode:normal;color-interpolation:sRGB;color-interpolation-filters:linearRGB;solid-color:#000;solid-opacity:1;fill:#fff;fill-opacity:1;fill-rule:nonzero;stroke:none;stroke-width:10;stroke-linecap:butt;stroke-linejoin:miter;stroke-miterlimit:4;stroke-dasharray:none;stroke-dashoffset:0;stroke-opacity:1;color-rendering:auto;image-rendering:auto;shape-rendering:auto;text-rendering:auto" transform="translate(-136.354 -236.93)"/><path d="M399.04 442.165c.177 2.272 1.576 4.327 3.565 6.177s4.735 3.49 7.917 4.834a44.2 44.2 0 0 0 10.404 2.929c3.635.552 7.318.613 10.938.177a41 41 0 0 0 9.675-2.379c2.814-1.073 5.179-2.346 7.041-3.759s3.24-2.977 4.109-4.723c.869-1.747 1.23-3.68.914-5.763s-1.292-4.115-2.8-5.982-3.534-3.565-5.916-4.98c-2.381-1.413-5.113-2.541-8.128-3.28-3.015-.74-6.318-1.092-9.931-.973s-7.219.695-10.642 1.646c-3.423.95-6.65 2.283-9.339 3.91s-4.899 3.503-6.189 5.62c-1.321 2.168-1.77 4.611-1.619 6.546" style="color:#000;clip-rule:nonzero;display:inline;overflow:visible;opacity:1;isolation:auto;mix-blend-mode:normal;color-interpolation:sRGB;color-interpolation-filters:linearRGB;solid-color:#000;solid-opacity:1;fill:#394655;fill-opacity:1;fill-rule:nonzero;stroke:none;stroke-width:10;stroke-linecap:butt;stroke-linejoin:miter;stroke-miterlimit:4;stroke-dasharray:none;stroke-dashoffset:0;stroke-opacity:1;color-rendering:auto;image-rendering:auto;shape-rendering:auto;text-rendering:auto" transform="translate(-136.354 -236.93)"/><path d="M406.689 441.655c.31 1.805 1.365 3.49 2.986 5s3.805 2.847 6.287 3.914a32.7 32.7 0 0 0 8.071 2.27c2.822.415 5.701.453 8.532.108s5.36-1.03 7.553-1.905c2.194-.875 4.045-1.938 5.497-3.125s2.51-2.502 3.132-3.934a7.67 7.67 0 0 0 .49-4.63c-.324-1.646-1.139-3.226-2.341-4.668s-2.79-2.744-4.66-3.82c-1.869-1.078-4.019-1.93-6.389-2.482-2.37-.551-4.962-.802-7.767-.685a34.8 34.8 0 0 0-8.188 1.341c-2.614.755-5.07 1.798-7.146 3.062s-3.76 2.75-4.833 4.373c-1.073 1.622-1.535 3.377-1.224 5.181" style="color:#000;clip-rule:nonzero;display:inline;overflow:visible;opacity:1;isolation:auto;mix-blend-mode:normal;color-interpolation:sRGB;color-interpolation-filters:linearRGB;solid-color:#000;solid-opacity:1;fill:#e1d0cb;fill-opacity:1;fill-rule:nonzero;stroke:none;stroke-width:10;stroke-linecap:butt;stroke-linejoin:miter;stroke-miterlimit:4;stroke-dasharray:none;stroke-dashoffset:0;stroke-opacity:1;color-rendering:auto;image-rendering:auto;shape-rendering:auto;text-rendering:auto" transform="translate(-136.354 -236.93)"/><path d="M416.727 430.644c.452 1.293 1.436 2.441 2.796 3.41 1.361.97 3.094 1.76 4.974 2.368s3.9 1.032 5.875 1.257c1.976.226 3.909.253 5.72.052 1.811-.2 3.34-.607 4.633-1.174s2.352-1.293 3.187-2.149c.834-.855 1.444-1.84 1.799-2.931a7.1 7.1 0 0 0 .212-3.558c-.24-1.267-.801-2.481-1.65-3.579s-1.983-2.077-3.355-2.872-2.98-1.405-4.767-1.767-3.752-.476-5.823-.29a22.2 22.2 0 0 0-5.846 1.33c-1.792.678-3.394 1.568-4.691 2.601s-2.29 2.21-2.845 3.453c-.555 1.244-.671 2.556-.22 3.849" style="color:#000;clip-rule:nonzero;display:inline;overflow:visible;opacity:1;isolation:auto;mix-blend-mode:normal;color-interpolation:sRGB;color-interpolation-filters:linearRGB;solid-color:#000;solid-opacity:1;fill:#394655;fill-opacity:1;fill-rule:nonzero;stroke:none;stroke-width:10;stroke-linecap:butt;stroke-linejoin:miter;stroke-miterlimit:4;stroke-dasharray:none;stroke-dashoffset:0;stroke-opacity:1;color-rendering:auto;image-rendering:auto;shape-rendering:auto;text-rendering:auto" transform="translate(-136.354 -236.93)"/></g><g style="display:inline"><path d="M423.503 581.835c-.004 4.4-1.198 7.589-3.375 9.829s-5.331 3.551-9.146 4.443c-3.815.89-8.283 1.395-13.057 1.838s-9.851.79-14.95 1.1c-5.098.308-9.945.347-14.402.085-4.457-.26-8.524-.799-11.993-1.712s-6.337-2.213-8.356-4.092c-2.019-1.88-3.187-4.345-3.255-7.511-.067-3.166.999-5.486 2.926-7.084s4.712-2.464 8.1-2.847 7.372-.283 11.77-.16 9.21.234 14.332-.122c5.12-.357 10.271-1.474 15.16-2.541 4.888-1.068 9.504-2.052 13.438-2.272s7.178.324 9.398 2.046c2.221 1.723 3.415 4.6 3.41 9" style="color:#000;clip-rule:nonzero;display:inline;overflow:visible;opacity:1;isolation:auto;mix-blend-mode:normal;color-interpolation:sRGB;color-interpolation-filters:linearRGB;solid-color:#000;solid-opacity:1;fill:#e1d6b9;fill-opacity:1;fill-rule:nonzero;stroke:none;stroke-width:10;stroke-linecap:butt;stroke-linejoin:miter;stroke-miterlimit:4;stroke-dasharray:none;stroke-dashoffset:0;stroke-opacity:1;color-rendering:auto;image-rendering:auto;shape-rendering:auto;text-rendering:auto" transform="matrix(-.43504 -.10457 -.07406 .61427 362.813 -3.47)"/><path d="M411.914 568.549c-3.75-.027-8.087.54-12.762 1.287-5.342.854-11.107 1.92-17.01 2.326-5.902.406-11.41.383-16.447.414s-9.604.16-13.508.86c-3.903.698-7.135 1.967-9.408 3.968s-3.585 4.717-3.652 8.176 1.218 6.307 3.543 8.58 5.688 3.98 9.762 5.25c4.073 1.27 8.852 2.12 14.056 2.598 5.205.479 10.834.561 16.703.222 5.87-.338 11.472-.786 16.606-1.35 5.134-.562 9.793-1.223 13.707-2.343a27.6 27.6 0 0 0 4.127-1.52c2.545-1.193 2.05-6.172-.1-4.54-1.991 1.511-4.56 2.503-7.57 3.207-3.669.857-7.967 1.341-12.559 1.767s-9.475.76-14.379 1.057c-4.903.297-9.565.335-13.851.084s-8.199-.769-11.535-1.647-6.096-2.13-8.037-3.937c-1.942-1.808-3.066-4.178-3.131-7.223s.96-5.277 2.814-6.814 4.531-2.37 7.79-2.739c3.257-.368 7.092-.272 11.322-.154s8.857.226 13.783-.117c4.925-.343 9.88-1.417 14.582-2.443s9.14-1.973 12.924-2.184q.71-.04 1.388-.045c1.16-.007 2.25.044 3.25.236 1.153.222 2.316-2.861-.838-2.927-.511-.011-1.034-.045-1.57-.05" style="color:#000;clip-rule:nonzero;display:inline;overflow:visible;opacity:1;isolation:auto;mix-blend-mode:normal;color-interpolation:sRGB;color-interpolation-filters:linearRGB;solid-color:#000;solid-opacity:1;fill:#394655;fill-opacity:1;fill-rule:nonzero;stroke:none;stroke-width:10;stroke-linecap:butt;stroke-linejoin:miter;stroke-miterlimit:4;stroke-dasharray:none;stroke-dashoffset:0;stroke-opacity:1;color-rendering:auto;image-rendering:auto;shape-rendering:auto;text-rendering:auto" transform="matrix(-.43504 -.10457 -.07406 .61427 362.813 -3.47)"/></g></svg>