<svg xmlns="http://www.w3.org/2000/svg" xmlns:xlink="http://www.w3.org/1999/xlink" width="508.006" height="695.967"><defs><linearGradient id="a"><stop offset="0" style="stop-color:#fff;stop-opacity:1"/><stop offset="1" style="stop-color:#fff;stop-opacity:0"/></linearGradient><linearGradient xlink:href="#a" id="b" x1="541.668" x2="476.223" y1="440.416" y2="118.178" gradientTransform="translate(125.301 157.101)" gradientUnits="userSpaceOnUse"/></defs><g style="display:inline"><path stroke-miterlimit="79.84" d="M578.242 515.822c15.827-2.197 24.776 22.613 29.376 37.916 2.198 7.322 3.849 17.65-1.708 22.887-5.215 4.919-14.745 2.675-21.52.341-9.405-3.245-20.734-9.154-23.227-18.787-3.815-14.734 2.004-40.273 17.079-42.357z" style="font-size:16px;font-family:&quot;Times New Roman&quot;;fill:#8fd4fe;stroke:#000;stroke-width:5.69310093;stroke-linecap:round;stroke-linejoin:miter;stroke-miterlimit:79.84031677;marker-start:none;marker-end:none" transform="translate(-121.311 -148.06)"/><path stroke-miterlimit="79.84" d="M499.978 703.35c13.31 1.993 20.564 18.23 26.985 30.06 4.156 7.662 7.379 16.578 6.832 25.277-.353 5.647-.98 14.415-6.49 15.713-18.765 4.44-29.934-24.446-43.723-37.916-4.84-4.726-14.643-8.335-13.664-15.03 1.686-11.568 18.503-19.835 30.06-18.104z" style="font-size:16px;font-family:&quot;Times New Roman&quot;;fill:#8fd4fe;stroke:#000;stroke-width:5.69310093;stroke-linecap:round;stroke-linejoin:miter;stroke-miterlimit:79.84031677;marker-start:none;marker-end:none" transform="translate(-121.311 -148.06)"/><path stroke-miterlimit="79.84" d="M428.171 195.387c-1.662-10.372 5.94-22.378 12.11-28.777 7.151-7.413 16.796-12.252 25.665-10.863 4.828.752 10.066 4.372 12.616 10.054 2.938 6.593 2.084 15.61.99 23.182-1.047 7.22-4.292 13.539-7.002 19.858-2.436 5.648-3.598 14.79-8.277 16.077-14.13 3.883-33.005-10.208-36.102-29.53" style="font-size:16px;font-family:&quot;Times New Roman&quot;;fill:#8fd4fe;stroke:#000;stroke-width:4.88468075;stroke-linecap:round;stroke-linejoin:round;stroke-miterlimit:79.84031677;marker-start:none;marker-end:none" transform="translate(-121.311 -148.06)"/><g stroke-miterlimit="79.84"><path d="M584.173 245.277c-16.59-25.824-51.033-33.328-76.857-16.738s-33.328 51.033-16.738 76.857 51.033 33.327 76.857 16.737 33.327-51.033 16.738-76.856" style="font-size:16px;font-family:&quot;Times New Roman&quot;;fill:#fff;stroke:#000;stroke-width:5;stroke-linecap:round;stroke-linejoin:round;stroke-miterlimit:79.84031677;stroke-dasharray:none;marker-start:none;marker-end:none" transform="translate(-121.311 -148.06)"/><path d="M589.289 247.673c-4.267-6.856-8.468-6.54-9.345.713-.865 7.251 1.884 18.718 6.151 25.585 4.267 6.855 8.468 6.54 9.345-.713.865-7.252-1.884-18.718-6.151-25.585" style="font-size:16px;font-family:&quot;Times New Roman&quot;;fill:#000;stroke:#000;stroke-width:5.69310093;stroke-linecap:round;stroke-linejoin:round;stroke-miterlimit:79.84031677;marker-start:none;marker-end:none" transform="translate(-121.311 -148.06)"/></g><path stroke-miterlimit="79.84" d="M586.085 421.239c-4.041 58.958 4.068 120.956-13.606 176.77-19.525 61.658-58.297 126.628-116.89 159.692-69.638 39.296-162.55 50.966-236.185 20.495-29.217-12.09-50.254-43.429-64.047-73.44-7.26-15.796-8.315-34.5-8.005-52.093.68-38.621 17.467-75.205 21.611-113.577 6.263-57.99-11.71-119.417 4.805-175.063 11.392-38.381 36.634-71.388 62.442-100.768 13.28-15.117 29.947-26.63 46.445-37.574 10.624-7.047 21.862-13.343 33.623-17.933 19.073-7.445 39.089-12.605 59.242-15.372 30.185-4.144 61.679-9.231 91.272-1.708 26.12 6.64 51.454 20.792 71.255 40.137 15.223 14.87 26.252 34.934 33.624 55.507 12.247 34.183 14.452 71.904 16.02 108.454.379 8.824-1.001 17.66-1.606 26.473" style="font-size:16px;font-family:&quot;Times New Roman&quot;;fill:#8fd4fe;stroke:none;stroke-width:5.69310093;stroke-miterlimit:79.84031677;marker-start:none;marker-end:none" transform="translate(-121.311 -148.06)"/><path d="M431.171 184.254c-19.854-.448-38.725 1.207-57.561 3.793-20.375 2.798-39.881 8.712-58.713 16.694-11.727 4.97-23.06 11.445-33.803 18.572-16.529 10.963-33.445 22.596-47.031 38.062-25.9 29.483-51.44 62.79-63.032 101.844-16.839 56.734 1.271 118.364-4.906 175.562-4.077 37.748-20.93 74.43-21.625 113.844-.313 17.741.71 36.838 8.281 53.313 13.938 30.326 35.154 62.304 65.531 74.875C292.966 811.705 386.63 799.897 457 760.188c59.516-33.585 98.51-99.17 118.188-161.313 17.933-56.632 7.841-118.875 11.855-177.437.593-8.648 1.989-17.58 1.594-26.782-1.57-36.58-1.858-74.605-14.293-109.312-7.477-20.87-18.666-41.278-34.313-56.563-20.173-19.707-45.902-34.105-72.531-40.875-11.384-2.894-24.416-3.383-36.329-3.652m1.225 4.954c11.557.254 23.14.723 33.95 3.472 25.61 6.51 50.287 21.183 69.717 40.164C550.86 247.3 561.735 267.004 569 287.28c12.06 33.66 14.277 71.075 15.844 107.594.362 8.447-.979 17.178-1.594 26.156-4.069 59.353 3.915 121.128-13.5 176.125-19.37 61.172-57.89 125.519-115.562 158.063-68.904 38.881-161.073 50.393-233.688 20.343-28.058-11.61-48.913-42.302-62.562-72-6.948-15.115-8.058-33.4-7.75-50.843.666-37.83 17.382-74.317 21.593-113.313 6.349-58.781-11.474-120.004 4.719-174.562 11.192-37.709 36.125-70.442 61.844-99.719 12.973-14.769 29.407-26.14 45.875-37.062 10.504-6.968 21.495-13.25 32.732-18.019 18.408-7.812 37.522-13.62 57.455-16.357 18.894-2.594 38.727-4.903 57.99-4.479" style="color:#000;font-style:normal;font-variant:normal;font-weight:400;font-stretch:normal;font-size:16px;line-height:normal;font-family:&quot;Times New Roman&quot;;-inkscape-font-specification:Sans;text-indent:0;text-align:start;text-decoration:none;text-decoration-line:none;letter-spacing:normal;word-spacing:normal;text-transform:none;direction:ltr;block-progression:tb;writing-mode:lr-tb;baseline-shift:baseline;text-anchor:start;display:inline;overflow:visible;visibility:visible;fill:#000;fill-opacity:1;fill-rule:nonzero;stroke:none;stroke-width:5.69310093;marker:none" transform="translate(-121.311 -148.06)"/><path stroke-miterlimit="79.84" d="M296.279 775.481c-.07 10.054-5.443 22.012-9.018 35.356-2.095 7.834-2.368 18.218-9.223 22.545-6.843 4.315-17.546 3.154-24.252-1.367-5.955-4.007-8.517-12.33-9.223-19.47-1.492-15.144.335-29.849 7.161-41.994" style="font-size:16px;font-family:&quot;Times New Roman&quot;;fill:#8fd4fe;stroke:#000;stroke-width:5.69310093;stroke-linecap:round;stroke-linejoin:round;stroke-miterlimit:79.84031677;marker-start:none;marker-end:none" transform="translate(-121.311 -148.06)"/><g stroke-miterlimit="79.84"><path d="M515.491 243.466c-30.162-40.717-87.72-49.29-128.436-19.129-40.717 30.162-49.291 87.72-19.13 128.437 30.163 40.717 87.72 49.29 128.437 19.129 40.717-30.163 49.291-87.72 19.129-128.437" style="font-size:16px;font-family:&quot;Times New Roman&quot;;fill:#fff;stroke:#000;stroke-width:6;stroke-linecap:round;stroke-linejoin:round;stroke-miterlimit:79.84031677;stroke-dasharray:none;marker-start:none;marker-end:none" transform="translate(-121.311 -148.06)"/><path d="M478.065 282.043c-5.842-12.434-20.7-17.797-33.134-11.956s-17.797 20.7-11.956 33.134 20.7 17.797 33.134 11.955c12.434-5.84 17.797-20.7 11.956-33.133" style="font-size:16px;font-family:&quot;Times New Roman&quot;;fill:#000;stroke:#000;stroke-width:5.69310093;stroke-linecap:round;stroke-linejoin:round;stroke-miterlimit:79.84031677;marker-start:none;marker-end:none" transform="translate(-121.311 -148.06)"/></g><path stroke-miterlimit="79.84" d="M299.028 229.12c.592-12.366-14.187-21.634-25.186-27.327-12.741-6.593-28.921-9.553-42.699-5.557-7.469 2.164-15.03 7.731-17.933 14.95-3.359 8.358-.239 18.48 2.983 26.895 3.063 8.004 9.417 14.392 14.95 20.927 4.942 5.83 8.586 16.01 16.226 16.226" style="font-size:16px;font-family:&quot;Times New Roman&quot;;fill:#8fd4fe;stroke:#000;stroke-width:5.69310093;stroke-linecap:round;stroke-linejoin:round;stroke-miterlimit:79.84031677;marker-start:none;marker-end:none" transform="translate(-121.311 -148.06)"/><path stroke-miterlimit="79.84" d="M272.495 244.647c-5.09-13.47-21.6-28.75-35.434-24.765-2.812.809-3.985 5.238-3.416 8.107 1.959 9.77 13.687 14.574 21.35 20.928 4.395 3.644 8.744 11.842 14.084 9.815 4.51-1.708 5.124-9.576 3.416-14.085" style="font-size:16px;font-family:&quot;Times New Roman&quot;;fill:#333;stroke:#000;stroke-width:5.69310093;stroke-linecap:round;stroke-linejoin:round;stroke-miterlimit:79.84031677;marker-start:none;marker-end:none" transform="translate(-121.311 -148.06)"/></g><g style="display:inline"><path d="M327.35 796.946c-57.44.179-111.052-4.335-152.994-46.97-23.68-24.074-41.431-56.256-44.818-89.91-2.696-26.787 4.515-53.567 10.315-79.61 7.49-33.632 15.873-67.018 12.191-102.093-3.024-28.808-11.325-61.314 3.381-86.99 13.42-23.43 37.46-.351 57.396 5.955 39.785 12.585 77.026 34.688 118.35 41.585 45.187 7.541 87.827 25.527 128.985 44.804 19.384 9.078 42.618 18.277 52.47 37.613 13.211 25.93-.623 56.088-1.99 84.02-1.881 38.452-11.23 76.865-6.49 115.425 1.182 9.613-2.565 31.952-2.565 31.952s-26.734 17.525-42.496 23.34c-41.933 15.47-87.316 20.74-131.736 20.88z" style="font-size:16px;font-family:&quot;Times New Roman&quot;;fill:#fff;stroke:#000;stroke-width:5;stroke-linecap:round;stroke-linejoin:miter;stroke-miterlimit:79.84031677;stroke-dasharray:none;marker-start:none;marker-end:none" transform="translate(-121.311 -148.06)"/><path d="M523.367 740.088s.795-43.518 3.776-76.194c-.1-22.965 3.524-72.958 7.202-98.919 2.497-25.875 6.735-37.191 15.03-57.432 4.985-12.262 32.733-60.13 41.676-41.397 4.17 8.733.789 45.982-5.111 80.29-5.74 26.77-6.067 56.728-6.506 84.124-.322 20.106-6.677 69.599-6.677 69.599-13.219 21.422-29.439 35.338-49.39 39.93z" style="font-size:16px;font-family:&quot;Times New Roman&quot;;fill:#fff;stroke:#000;stroke-width:5.69310093;stroke-linecap:round;stroke-linejoin:miter;stroke-miterlimit:79.84031677;marker-start:none;marker-end:none" transform="translate(-121.311 -148.06)"/><path d="M154.553 367.479c-9.088 6.74-19.19 16-24.748 30.81 2.942.267 90.08 41.091 132.33 66.164 55.58 32.985 119.196 17.41 173.24 23.234 53.705 5.788 64.145 17.678 82.328 50.002 0 0 2.02-35.86-13.637-52.022-15.657-16.163-48.992-28.79-66.67-31.315s-48.992-5.556-77.277-14.142c-28.284-8.587-90.526-45.531-143.946-64.145-42.083-14.663-61.62-8.586-61.62-8.586zm383.661 171.669s6.072-37.143 15.357-48.929c9.286-11.785 21.291-24.981 26.072-32.678 6.077-9.784 7.143-17.679 7.143-17.679 9.497 1.908 16.765 14.776 18.214 26.429 0 0-17.61 3.709-36.071 25-11.393 13.138-30.715 47.857-30.715 47.857z" style="fill:#fff;fill-opacity:1;stroke:#000;stroke-width:5;stroke-linecap:butt;stroke-linejoin:miter;stroke-miterlimit:4;stroke-dasharray:none;stroke-opacity:1" transform="translate(-121.311 -148.06)"/></g><g style="display:inline"><path stroke-miterlimit="79.84" d="M396.107 589.402c6.99-10.134 23.922-17.968 34.841-12.297 9.747 5.067 10.27 20.87 8.882 31.767-1.537 12.138-6.342 29.969-18.446 31.768-11.067 1.64-20.005-12.685-24.594-22.887-3.871-8.619-6.046-20.574-.683-28.351z" style="font-size:16px;font-family:&quot;Times New Roman&quot;;fill:#8fd4fe;stroke:#000;stroke-width:5.69310093;stroke-linecap:round;stroke-linejoin:miter;stroke-miterlimit:79.84031677;marker-start:none;marker-end:none" transform="translate(-121.311 -148.06)"/></g><g style="display:inline"><path d="M512.658 198.751c25.102.09 50.231 2.607 74.53 9 11.768 12.499 17.723 29.15 22.063 45.469 9.58 34.031 8.284 71.04-3.375 104.344-1.618 9.784-12.822 14.947-21.906 13.062-15.51-4.312-23.648-19.923-32.906-31.656-11.851 6.993-15.47 21.344-21.344 32.812-5.07 11.874-15.298 21.133-27.781 24.813-27.775 10.096-57.782 1.373-85.813-3.438-54.609-14.278-111.595-22.28-162.875-46.781-15.453-8.625-32.313-14.63-48.093-22.594-4.625-2.863-13.226-5.97-11.844-12.906 9.344-14.902 17.695-31.403 31.687-42.5 6.272-5.462 14.774-1.747 21.407.781 21.594 5.793 41.977-7.072 60.78-15.843 34.19-14.008 67.728-30.202 102.907-41.75 31.124-10.78 64.683-12.295 97.531-12.782 1.673-.015 3.358-.037 5.032-.03" style="fill:url(#b);fill-opacity:1;stroke:none" transform="translate(-121.311 -148.06)"/><path d="M507.634 198.771c-32.848.487-66.406 2.016-97.53 12.796-35.178 11.549-68.718 27.728-102.907 41.735-18.804 8.772-39.187 21.636-60.781 15.844-6.633-2.529-15.135-6.243-21.407-.781-13.992 11.097-22.343 27.598-31.687 42.5-1.382 6.935 7.22 10.043 11.844 12.906 15.78 7.963 32.64 13.969 48.093 22.594 51.28 24.502 108.266 32.503 162.875 46.781 28.031 4.81 58.045 13.548 85.82 3.452 12.483-3.68 22.704-12.954 27.774-24.827 5.874-11.468 9.493-25.819 21.344-32.812 9.258 11.733 17.396 27.344 32.906 31.656 9.084 1.885 20.288-3.278 21.906-13.063 11.659-33.303 12.95-70.31 3.37-104.342-4.34-16.319-10.29-32.972-22.057-45.47-25.92-6.82-52.797-9.209-79.563-8.969zm-3.875 7.156c27.135.269 55.55.283 80.782 10.532 21.33 32.262 28.234 72.99 22.53 110.843-1.813 11.094-7.199 25.456-19.874 26.875-6.061 1.142-11.88-1.528-15.281-6.468-7.173-6.818-12.357-18.73-23.344-19.72-9.984 1.132-13.342 12.569-17.33 20.157-7.483 16.137-14.892 36.218-33.639 41.781-11.77 2.173-24.589 4.35-36.219.625-26.071-12.055-38.103-40.806-44.062-67.156-7.87-34.563-6.974-72.868 9.187-104.812 17.517-8.1 37.63-10.496 56.935-12.007 6.763-.438 13.54-.614 20.315-.65zm-90.906 15.47c-17.81 40.874-15.648 89.307.865 130.355 5.853 13.777 14.44 26.7 26.323 35.925-33.91-5.728-66.635-17.727-100.313-24.152-43.316-11.007-81.788-35.778-124-49.941-3.081-1.685-8.967-3.238-8.937-6.97 5.14-10.995 12.608-21.075 21.468-29.405 14.318 5.595 31.193 8.572 46.094 3.25 46.12-19.906 89.942-45.889 138.563-59.188z" style="color:#000;font-style:normal;font-variant:normal;font-weight:400;font-stretch:normal;font-size:16px;line-height:normal;font-family:&quot;Times New Roman&quot;;-inkscape-font-specification:Sans;text-indent:0;text-align:start;text-decoration:none;text-decoration-line:none;letter-spacing:normal;word-spacing:normal;text-transform:none;direction:ltr;block-progression:tb;writing-mode:lr-tb;baseline-shift:baseline;text-anchor:start;display:inline;overflow:visible;visibility:visible;fill:#fff;fill-opacity:1;fill-rule:nonzero;stroke:#000;stroke-width:5;stroke-miterlimit:4;stroke-dasharray:none;stroke-opacity:.51851849;marker:none" transform="translate(-121.311 -148.06)"/></g><g style="display:inline"><path d="M594.158 372.7c4.788 10.73-.076 22.353-2.402 33.048-3.342 8.126-13.63 9.03-20.852 6.099-7.036-1.964-9.999-9.744-8.883-16.447 1.382-9.604 1.091-19.952 6.229-28.546 7.525-5.733 18.129-1.588 24.39 4.098a16 16 0 0 1 1.518 1.748" style="font-size:16px;font-family:&quot;Times New Roman&quot;;fill:#fff;stroke:none;stroke-width:5.69310093;marker-start:none;marker-end:none" transform="rotate(-3.476 -1925.57 2288.956)"/><path d="M573.75 361.313c-7.593.2-10.758 8.024-11.874 14.466-1.819 10.494-4.704 21.733-1.315 31.926 1.946 5.852 9.784 6.604 15.27 7.948 6.403 1.569 12.393-1.051 15.117-7.764 3.58-8.825 7.695-17.518 8.143-27.063.412-8.765-6.577-15.529-14.357-17.932-3.54-1.094-7.258-1.68-10.984-1.581m3.75 5.75c6.864.723 16.743 4.388 17.027 12.434.323 9.166-4.332 19.636-7.954 27.908-2.498 5.705-9.763 3.772-14.823 2.66-5.742-1.262-7.139-4.331-6.815-10.165.513-9.238 1.56-19.964 4.177-28.865 1.155-3.93 5.051-4.324 8.388-3.972" style="color:#000;font-style:normal;font-variant:normal;font-weight:400;font-stretch:normal;font-size:16px;line-height:normal;font-family:&quot;Times New Roman&quot;;-inkscape-font-specification:Sans;text-indent:0;text-align:start;text-decoration:none;text-decoration-line:none;letter-spacing:normal;word-spacing:normal;text-transform:none;direction:ltr;block-progression:tb;writing-mode:lr-tb;baseline-shift:baseline;text-anchor:start;display:inline;overflow:visible;visibility:visible;fill:#000;fill-opacity:1;fill-rule:nonzero;stroke:none;stroke-width:5.69310093;marker:none" transform="rotate(-3.476 -1925.57 2288.956)"/><path d="M533.97 339.816c21.362-21.642 71.881-26.026 86.552 3.958 3.04 37.922-46.654 42.434-73.27 31.673-15.593-4.254-27.833-22.395-13.281-35.63" style="font-size:16px;font-family:&quot;Times New Roman&quot;;fill:#f6d2a2;stroke:none;stroke-width:5.69310093;marker-start:none;marker-end:none" transform="rotate(-3.476 -1925.57 2288.956)"/><path d="M571.906 320.656c-20.743-1.018-43.057 12.511-47.896 33.374-.452 14.69 14.356 23.766 27.369 25.58 16.325 2.952 33.764 4.094 49.753-1.074 14.183-4.468 27.824-18.887 23.149-34.678-4.293-15.327-21.023-24.384-36.364-22.356-5.34.2-10.783.512-16.01-.846m-6.625 5.75c15.965 1.432 34.13-1.44 47.602 9.19 9.854 8.99 6.724 25.744-4.093 32.549-15.791 11.525-36.814 8.885-54.9 5.902-11.818-1.756-28.261-10.977-22.146-25.248 5.175-13.75 19.882-20.476 33.537-22.393" style="color:#000;font-style:normal;font-variant:normal;font-weight:400;font-stretch:normal;font-size:16px;line-height:normal;font-family:&quot;Times New Roman&quot;;-inkscape-font-specification:Sans;text-indent:0;text-align:start;text-decoration:none;text-decoration-line:none;letter-spacing:normal;word-spacing:normal;text-transform:none;direction:ltr;block-progression:tb;writing-mode:lr-tb;baseline-shift:baseline;text-anchor:start;display:inline;overflow:visible;visibility:visible;fill:#000;fill-opacity:1;fill-rule:nonzero;stroke:none;stroke-width:5.69310093;marker:none" transform="rotate(-3.476 -1925.57 2288.956)"/><path stroke-miterlimit="79.84" d="M602.968 320.898c-4.862-5.591-18.389-8.267-30.15-5.955-11.763 2.311-17.365 8.744-12.503 14.335 4.862 5.59 18.389 8.266 30.15 5.955 11.763-2.312 17.365-8.745 12.503-14.335" style="font-size:16px;font-family:&quot;Times New Roman&quot;;fill:#000;stroke:#000;stroke-width:3.60942602;stroke-linecap:round;stroke-linejoin:round;stroke-miterlimit:79.84031677;marker-start:none;marker-end:none" transform="rotate(-3.476 -1925.57 2288.956)"/></g></svg>