<svg xmlns="http://www.w3.org/2000/svg" xmlns:xlink="http://www.w3.org/1999/xlink" width="544.9" height="490.038" viewBox="0 0 510.844 459.41"><defs><linearGradient id="a"><stop offset="0" style="stop-color:#8aa5c2;stop-opacity:1"/><stop offset=".273" style="stop-color:#ccd8e5;stop-opacity:1"/><stop offset="1" style="stop-color:#8aa5c2;stop-opacity:1"/></linearGradient><linearGradient id="b"><stop offset="0" style="stop-color:#8aa5c2;stop-opacity:1"/><stop offset=".835" style="stop-color:#c6d2e1;stop-opacity:1"/><stop offset="1" style="stop-color:#8aa5c2;stop-opacity:1"/></linearGradient><linearGradient xlink:href="#a" id="e" x1="279.252" x2="283.644" y1="430.912" y2="438.079" gradientTransform="translate(-29.168)" gradientUnits="userSpaceOnUse"/><radialGradient xlink:href="#b" id="d" cx="296.813" cy="439.147" r="23.659" fx="296.813" fy="439.147" gradientTransform="rotate(-8.7 2197.573 2469.568)scale(2.0144 .37708)" gradientUnits="userSpaceOnUse"/></defs><g style="display:inline;opacity:1"><g style="display:inline;opacity:1"><path d="M423.503 581.835c-.004 4.4-1.198 7.589-3.375 9.829s-5.331 3.551-9.146 4.443c-3.815.89-8.283 1.395-13.057 1.838s-9.851.79-14.95 1.1c-5.098.308-9.945.347-14.402.085-4.457-.26-8.524-.799-11.993-1.712s-6.337-2.213-8.356-4.092c-2.019-1.88-3.187-4.345-3.255-7.511-.067-3.166.999-5.486 2.926-7.084s4.712-2.464 8.1-2.847 7.372-.283 11.77-.16 9.21.234 14.332-.122c5.12-.357 10.271-1.474 15.16-2.541 4.888-1.068 9.504-2.052 13.438-2.272s7.178.324 9.398 2.046c2.221 1.723 3.415 4.6 3.41 9" style="color:#000;clip-rule:nonzero;display:inline;overflow:visible;opacity:1;isolation:auto;mix-blend-mode:normal;color-interpolation:sRGB;color-interpolation-filters:linearRGB;solid-color:#000;solid-opacity:1;fill:#e1d6b9;fill-opacity:1;fill-rule:nonzero;stroke:none;stroke-width:10;stroke-linecap:butt;stroke-linejoin:miter;stroke-miterlimit:4;stroke-dasharray:none;stroke-dashoffset:0;stroke-opacity:1;color-rendering:auto;image-rendering:auto;shape-rendering:auto;text-rendering:auto" transform="matrix(.13059 -.42795 -.6087 -.11093 458.193 647.646)"/><path d="M411.914 568.549c-3.75-.027-8.087.54-12.762 1.287-5.342.854-11.107 1.92-17.01 2.326-5.902.406-11.41.383-16.447.414s-9.604.16-13.508.86c-3.903.698-7.135 1.967-9.408 3.968s-3.585 4.717-3.652 8.176 1.218 6.307 3.543 8.58 5.688 3.98 9.762 5.25c4.073 1.27 8.852 2.12 14.056 2.598 5.205.479 10.834.561 16.703.222 5.87-.338 11.472-.786 16.606-1.35 5.134-.562 9.793-1.223 13.707-2.343a27.6 27.6 0 0 0 4.127-1.52c2.545-1.193 2.05-6.172-.1-4.54-1.991 1.511-4.143 1.681-7.157 2.35-3.673.815-8.181.991-12.55 1.343s-8.78 1.784-13.313 2.077c-4.535.293-8.868.328-12.932.07-4.064-.257-7.857-.78-11.125-1.642-3.268-.863-5.997-2.08-7.885-3.814s-2.925-3.988-2.978-6.801.901-4.82 2.669-6.106c1.767-1.286 5.617-.585 8.691-.714 3.075-.13 6.907-.545 10.788-.417 3.882.127 6.546-.481 11.049-1.214s9.152-2.344 13.887-3.721 9.225-2.343 13.009-2.554q.71-.04 1.388-.045c1.16-.007 2.25.044 3.25.236 1.153.222 2.316-2.861-.838-2.927-.511-.011-1.034-.045-1.57-.05" style="color:#000;clip-rule:nonzero;display:inline;overflow:visible;opacity:1;isolation:auto;mix-blend-mode:normal;color-interpolation:sRGB;color-interpolation-filters:linearRGB;solid-color:#000;solid-opacity:1;fill:#394655;fill-opacity:1;fill-rule:nonzero;stroke:none;stroke-width:10;stroke-linecap:butt;stroke-linejoin:miter;stroke-miterlimit:4;stroke-dasharray:none;stroke-dashoffset:0;stroke-opacity:1;color-rendering:auto;image-rendering:auto;shape-rendering:auto;text-rendering:auto" transform="matrix(.13059 -.42795 -.6087 -.11093 458.193 647.646)"/></g><g style="display:inline;opacity:1"><path d="M423.503 581.835c-.004 4.4-1.198 7.589-3.375 9.829s-5.331 3.551-9.146 4.443c-3.815.89-8.283 1.395-13.057 1.838s-9.851.79-14.95 1.1c-5.098.308-9.945.347-14.402.085-4.457-.26-8.524-.799-11.993-1.712s-6.337-2.213-8.356-4.092c-2.019-1.88-3.187-4.345-3.255-7.511-.067-3.166.999-5.486 2.926-7.084s4.712-2.464 8.1-2.847 7.372-.283 11.77-.16 9.21.234 14.332-.122c5.12-.357 10.271-1.474 15.16-2.541 4.888-1.068 9.504-2.052 13.438-2.272s7.178.324 9.398 2.046c2.221 1.723 3.415 4.6 3.41 9" style="color:#000;clip-rule:nonzero;display:inline;overflow:visible;opacity:1;isolation:auto;mix-blend-mode:normal;color-interpolation:sRGB;color-interpolation-filters:linearRGB;solid-color:#000;solid-opacity:1;fill:#e1d6b9;fill-opacity:1;fill-rule:nonzero;stroke:none;stroke-width:10;stroke-linecap:butt;stroke-linejoin:miter;stroke-miterlimit:4;stroke-dasharray:none;stroke-dashoffset:0;stroke-opacity:1;color-rendering:auto;image-rendering:auto;shape-rendering:auto;text-rendering:auto" transform="matrix(-.13059 -.42795 .6087 -.11093 -13.341 641.562)"/><path d="M411.914 568.549c-3.75-.027-8.087.54-12.762 1.287-5.342.854-11.107 1.92-17.01 2.326-5.902.406-11.41.383-16.447.414s-9.604.16-13.508.86c-3.903.698-7.135 1.967-9.408 3.968s-3.585 4.717-3.652 8.176 1.218 6.307 3.543 8.58 5.688 3.98 9.762 5.25c4.073 1.27 8.852 2.12 14.056 2.598 5.205.479 10.834.561 16.703.222 5.87-.338 11.472-.786 16.606-1.35 5.134-.562 9.793-1.223 13.707-2.343a27.6 27.6 0 0 0 4.127-1.52c2.545-1.193 2.05-6.172-.1-4.54-1.991 1.511-4.143 1.681-7.157 2.35-3.673.815-8.181.991-12.55 1.343s-8.78 1.784-13.313 2.077c-4.535.293-8.868.328-12.932.07-4.064-.257-7.857-.78-11.125-1.642-3.268-.863-5.997-2.08-7.885-3.814s-2.925-3.988-2.978-6.801.901-4.82 2.669-6.106c1.767-1.286 5.617-.585 8.691-.714 3.075-.13 6.907-.545 10.788-.417 3.882.127 6.546-.481 11.049-1.214s9.152-2.344 13.887-3.721 9.225-2.343 13.009-2.554q.71-.04 1.388-.045c1.16-.007 2.25.044 3.25.236 1.153.222 2.316-2.861-.838-2.927-.511-.011-1.034-.045-1.57-.05" style="color:#000;clip-rule:nonzero;display:inline;overflow:visible;opacity:1;isolation:auto;mix-blend-mode:normal;color-interpolation:sRGB;color-interpolation-filters:linearRGB;solid-color:#000;solid-opacity:1;fill:#394655;fill-opacity:1;fill-rule:nonzero;stroke:none;stroke-width:10;stroke-linecap:butt;stroke-linejoin:miter;stroke-miterlimit:4;stroke-dasharray:none;stroke-dashoffset:0;stroke-opacity:1;color-rendering:auto;image-rendering:auto;shape-rendering:auto;text-rendering:auto" transform="matrix(-.13059 -.42795 .6087 -.11093 -13.341 641.562)"/></g><g style="display:inline;opacity:1"><path d="M-178.014 420.232c-.806 14.583-1.221 29.071-2.027 43.263-.807 14.192-2.006 28.087-4.395 41.475-2.389 13.387-5.969 26.266-11.525 38.419-5.557 12.153-13.09 23.579-23.362 34.073-12.959 13.239-30.593 23.93-51.53 31.83-20.936 7.901-45.177 13.014-71.358 15.062-26.18 2.048-54.308 1.03-82.95-3.4-28.64-4.43-57.798-12.275-85.888-23.941-8.123-3.374-16.317-8.43-24.118-14.532s-15.208-13.25-21.763-20.812c-6.554-7.562-12.255-15.538-16.642-23.296-4.388-7.76-7.462-15.301-8.769-21.997-2.731-13.997-3.532-26.663-3.32-38.59.211-11.928 1.434-23.117 2.759-34.157s2.752-21.932 3.39-33.272.491-23.126-1.327-35.974c-1.448-10.226-3.08-20.126-4.606-30.052-1.527-9.926-2.947-19.878-3.965-30.206s-1.635-21.03-1.551-32.46c.084-11.427.868-23.58 2.655-36.81a215 215 0 0 1 5.728-28.121c2.667-9.681 6.14-19.482 10.563-28.828 4.422-9.346 9.794-18.238 16.25-26.094 6.458-7.857 14.002-14.678 22.757-19.883 11.469-6.819 22.265-12.62 32.843-17.419 10.577-4.799 20.938-8.596 31.521-11.405 10.583-2.81 21.39-4.632 32.846-5.483 11.457-.852 23.562-.732 36.728.34 18.749 1.524 37.374 3.083 55.52 5.254s35.815 4.955 52.62 8.927c16.807 3.972 32.75 9.132 47.42 16.047 14.668 6.915 28.059 15.586 39.757 26.558 8.35 7.83 15.247 16.83 20.814 26.655s9.805 20.475 12.853 31.616 4.906 22.77 5.718 34.564.577 23.752-.575 35.563a1805 1805 0 0 1-2.63 25.028c-.907 8.128-1.832 16.05-2.738 23.782-.907 7.732-1.797 15.275-2.636 22.647a1612 1612 0 0 0-2.333 21.617 1036 1036 0 0 0-.838 8.73 844 844 0 0 0-.743 8.574q-.345 4.25-.635 8.425a598 598 0 0 0-.518 8.283" style="color:#000;clip-rule:nonzero;display:inline;overflow:visible;opacity:1;isolation:auto;mix-blend-mode:normal;color-interpolation:sRGB;color-interpolation-filters:linearRGB;solid-color:#000;solid-opacity:1;fill:#394655;fill-opacity:1;fill-rule:nonzero;stroke:none;stroke-width:2;stroke-linecap:butt;stroke-linejoin:miter;stroke-miterlimit:4;stroke-dasharray:none;stroke-dashoffset:0;stroke-opacity:1;color-rendering:auto;image-rendering:auto;shape-rendering:auto;text-rendering:auto" transform="matrix(-.69027 0 0 .73815 -47.422 -42.275)"/><path d="M-186.766 474.182c-.752 13.432-2.616 26.81-6 39.687s-8.29 25.253-15.13 36.672-15.614 21.878-26.713 30.923-24.521 16.67-40.64 22.437c-14.977 5.358-32.001 9.338-50.4 11.765s-38.177 3.303-58.643 2.427a369.4 369.4 0 0 1-62.742-8.111c-21.117-4.608-42.192-11.196-62.43-20.005-7.702-3.353-15.45-8.352-22.801-14.357s-14.303-13.015-20.417-20.395-11.39-15.128-15.39-22.61c-4-7.484-6.724-14.701-7.739-21.02-2.136-13.299-2.68-25.513-2.405-37.116s1.369-22.594 2.516-33.447 2.347-21.568 2.854-32.622c.506-11.055.319-22.449-1.307-34.674-1.357-10.205-2.834-19.806-4.205-29.291s-2.636-18.854-3.565-28.592-1.52-19.845-1.54-30.809c-.018-10.964.535-22.785 1.9-35.956a195.6 195.6 0 0 1 4.842-27.403c2.385-9.47 5.59-19.081 9.757-28.253 4.168-9.172 9.299-17.903 15.53-25.604 6.232-7.701 13.565-14.371 22.123-19.42 10.841-6.395 20.943-11.94 30.786-16.61s19.428-8.465 29.222-11.36c9.794-2.897 19.797-4.893 30.461-5.966 10.665-1.073 21.991-1.223 34.415-.428 19.686 1.26 39.429 2.665 58.688 4.869 19.26 2.203 38.037 5.204 55.763 9.648 17.727 4.444 34.4 10.332 49.422 18.297s28.385 18.008 39.496 30.733c10.159 11.635 16.97 25.182 21.378 39.77 4.409 14.59 6.42 30.218 7.01 46.055s-.235 31.884-1.562 47.351c-1.328 15.468-3.157 30.36-4.698 43.904a864 864 0 0 0-1.684 16.142 930 930 0 0 0-1.352 15.588 1171 1171 0 0 0-1.57 23.063c-.442 7.525-.818 14.9-1.166 22.165s-.668 14.417-1 21.497-.674 14.085-1.064 21.056" style="color:#000;clip-rule:nonzero;display:inline;overflow:visible;opacity:1;isolation:auto;mix-blend-mode:normal;color-interpolation:sRGB;color-interpolation-filters:linearRGB;solid-color:#000;solid-opacity:1;fill:#96d6ff;fill-opacity:1;fill-rule:nonzero;stroke:none;stroke-width:2;stroke-linecap:butt;stroke-linejoin:miter;stroke-miterlimit:4;stroke-dasharray:none;stroke-dashoffset:0;stroke-opacity:1;color-rendering:auto;image-rendering:auto;shape-rendering:auto;text-rendering:auto" transform="matrix(-.69027 0 0 .73815 -47.422 -42.275)"/></g><g style="opacity:1"><path d="M-626.573 401.696c2.247 11.35.367 22.39-3.843 32.038-4.21 9.649-10.55 17.905-17.72 24.344s-15.254 11.11-24.57 13.61c-9.318 2.501-20.95 4.473-31.646 1.829s-18.092-9.812-24.148-17.25c-6.056-7.44-12.443-16.568-23.097-25.36-10.654-8.793-20.952-17.788-25.3-26.873-4.35-9.086-7.116-18.361-7.98-27.522s.246-17.364 2.961-24.584 7.032-13.455 12.66-18.537 12.567-9.01 20.593-11.49c8.026-2.478 17.135-3.505 27.21-2.666 10.073.838 20.18 3.472 29.951 7.653s19.215 9.908 27.712 16.897 16.035 15.24 21.796 24.415c5.76 9.176 13.174 22.145 15.421 33.496" style="color:#000;clip-rule:nonzero;display:inline;overflow:visible;opacity:1;isolation:auto;mix-blend-mode:normal;color-interpolation:sRGB;color-interpolation-filters:linearRGB;solid-color:#000;solid-opacity:1;fill:#96d6ff;fill-opacity:1;fill-rule:nonzero;stroke:none;stroke-width:10;stroke-linecap:butt;stroke-linejoin:miter;stroke-miterlimit:4;stroke-dasharray:none;stroke-dashoffset:0;stroke-opacity:1;color-rendering:auto;image-rendering:auto;shape-rendering:auto;text-rendering:auto" transform="matrix(-.33648 -.02693 -.01064 .3062 77.625 -95.161)"/><path d="M-784.271 455.904a5.5 5.5 0 0 0-1.56.262 4.5 4.5 0 0 0-1.63.935 3.9 3.9 0 0 0-1.018 1.475 4.35 4.35 0 0 0-.261 1.937 6.3 6.3 0 0 0 .592 2.157c.33.71.996 1.419 1.845 2.083.848.664 1.363 1.37 1.833 1.94.47.567.284.424 1.174.503.102.009.123-.313.034-.339-.782-.217-.407-.29-.87-.73-.428-.523-.878-1.165-1.63-1.784-.753-.619-1.48-1.252-1.787-1.892a5.8 5.8 0 0 1-.567-1.938 3.8 3.8 0 0 1 .208-1.73c.191-.508.495-.949.893-1.307a3.85 3.85 0 0 1 1.454-.81q.427-.132.909-.182.481-.05 1.015-.008a6.8 6.8 0 0 1 2.114.538 8.1 8.1 0 0 1 1.955 1.19 7.2 7.2 0 0 1 1.535 1.719c.406.646.928 1.559 1.088 2.358.13.656.308.675.066 1.355-.046.126.559.14.689-.165.242-.57-.014-.582-.156-1.21-.192-.85-.695-1.87-1.144-2.586a7.9 7.9 0 0 0-1.703-1.899 8.8 8.8 0 0 0-2.16-1.296 7.4 7.4 0 0 0-2.34-.564 6 6 0 0 0-.578-.012" style="color:#000;clip-rule:nonzero;display:inline;overflow:visible;opacity:1;isolation:auto;mix-blend-mode:normal;color-interpolation:sRGB;color-interpolation-filters:linearRGB;solid-color:#000;solid-opacity:1;fill:#394655;fill-opacity:1;fill-rule:nonzero;stroke:none;stroke-width:10;stroke-linecap:butt;stroke-linejoin:miter;stroke-miterlimit:4;stroke-dasharray:none;stroke-dashoffset:0;stroke-opacity:1;color-rendering:auto;image-rendering:auto;shape-rendering:auto;text-rendering:auto" transform="matrix(-4.66056 -.37303 -.14733 4.24118 -3268.122 -2205.748)"/><path d="M-727.646 369.779c-4.026 1.297-7.733 4.27-10.163 9.893-1.755 4.064-2.12 9.158-1.252 15.494.577 4.211 1.699 8.971 3.32 14.341.577 1.91 4.39 6.052 6.877 8.077 3.986 3.246 8.987 6.977 9.564 6.218.403-.53-6.217-3.846-9.61-8.108-2.83-3.554-4.024-7.347-4.914-13.253-1.33-8.83-.466-14.348 1.337-18.52 2.635-6.098 6.834-8.544 11.427-9.073 4.592-.529 9.467.99 12.974 2.587 7.478 3.405 17.39 9.05 28.018 21.619 1.97 2.33 3.382 1.183 1.388-1.088-11.15-12.698-20.92-21.475-29.713-25.544-4.057-1.877-9.65-3.795-15.157-3.415a17.2 17.2 0 0 0-4.096.772" style="color:#000;font-style:normal;font-variant:normal;font-weight:400;font-stretch:normal;font-size:medium;line-height:normal;font-family:sans-serif;font-variant-ligatures:normal;font-variant-position:normal;font-variant-caps:normal;font-variant-numeric:normal;font-variant-alternates:normal;font-feature-settings:normal;text-indent:0;text-align:start;text-decoration:none;text-decoration-line:none;text-decoration-style:solid;text-decoration-color:#000;letter-spacing:normal;word-spacing:normal;text-transform:none;writing-mode:lr-tb;direction:ltr;text-orientation:mixed;dominant-baseline:auto;baseline-shift:baseline;text-anchor:start;white-space:normal;shape-padding:0;clip-rule:nonzero;display:inline;overflow:visible;opacity:1;isolation:auto;mix-blend-mode:normal;color-interpolation:sRGB;color-interpolation-filters:linearRGB;solid-color:#000;solid-opacity:1;vector-effect:none;fill:#394655;fill-opacity:1;fill-rule:evenodd;stroke:none;stroke-width:4.24172354;stroke-linecap:round;stroke-linejoin:miter;stroke-miterlimit:4;stroke-dasharray:none;stroke-dashoffset:0;stroke-opacity:1;color-rendering:auto;image-rendering:auto;shape-rendering:auto;text-rendering:auto" transform="matrix(-.33648 -.02693 -.01064 .3062 77.625 -95.161)"/></g><g style="opacity:1"><path d="M-626.573 401.696c2.247 11.35.367 22.39-3.843 32.038-4.21 9.649-10.55 17.905-17.72 24.344s-15.254 11.11-24.57 13.61c-9.318 2.501-20.95 4.473-31.646 1.829s-18.092-9.812-24.148-17.25c-6.056-7.44-12.443-16.568-23.097-25.36-10.654-8.793-20.952-17.788-25.3-26.873-4.35-9.086-7.116-18.361-7.98-27.522s.246-17.364 2.961-24.584 7.032-13.455 12.66-18.537 12.567-9.01 20.593-11.49c8.026-2.478 17.135-3.505 27.21-2.666 10.073.838 20.18 3.472 29.951 7.653s19.215 9.908 27.712 16.897 16.035 15.24 21.796 24.415c5.76 9.176 13.174 22.145 15.421 33.496" style="color:#000;clip-rule:nonzero;display:inline;overflow:visible;opacity:1;isolation:auto;mix-blend-mode:normal;color-interpolation:sRGB;color-interpolation-filters:linearRGB;solid-color:#000;solid-opacity:1;fill:#96d6ff;fill-opacity:1;fill-rule:nonzero;stroke:none;stroke-width:10;stroke-linecap:butt;stroke-linejoin:miter;stroke-miterlimit:4;stroke-dasharray:none;stroke-dashoffset:0;stroke-opacity:1;color-rendering:auto;image-rendering:auto;shape-rendering:auto;text-rendering:auto" transform="matrix(.33317 .05422 -.06281 .29987 391.359 -36.335)"/><path d="M-784.271 455.904a5.5 5.5 0 0 0-1.56.262 4.5 4.5 0 0 0-1.63.935 3.9 3.9 0 0 0-1.018 1.475 4.35 4.35 0 0 0-.261 1.937 6.3 6.3 0 0 0 .592 2.157c.33.71.996 1.419 1.845 2.083.848.664 1.363 1.37 1.833 1.94.47.567.284.424 1.174.503.102.009.123-.313.034-.339-.782-.217-.407-.29-.87-.73-.428-.523-.878-1.165-1.63-1.784-.753-.619-1.48-1.252-1.787-1.892a5.8 5.8 0 0 1-.567-1.938 3.8 3.8 0 0 1 .208-1.73c.191-.508.495-.949.893-1.307a3.85 3.85 0 0 1 1.454-.81q.427-.132.909-.182.481-.05 1.015-.008a6.8 6.8 0 0 1 2.114.538 8.1 8.1 0 0 1 1.955 1.19 7.2 7.2 0 0 1 1.535 1.719c.406.646.928 1.559 1.088 2.358.13.656.308.675.066 1.355-.046.126.559.14.689-.165.242-.57-.014-.582-.156-1.21-.192-.85-.695-1.87-1.144-2.586a7.9 7.9 0 0 0-1.703-1.899 8.8 8.8 0 0 0-2.16-1.296 7.4 7.4 0 0 0-2.34-.564 6 6 0 0 0-.578-.012" style="color:#000;clip-rule:nonzero;display:inline;overflow:visible;opacity:1;isolation:auto;mix-blend-mode:normal;color-interpolation:sRGB;color-interpolation-filters:linearRGB;solid-color:#000;solid-opacity:1;fill:#394655;fill-opacity:1;fill-rule:nonzero;stroke:none;stroke-width:10;stroke-linecap:butt;stroke-linejoin:miter;stroke-miterlimit:4;stroke-dasharray:none;stroke-dashoffset:0;stroke-opacity:1;color-rendering:auto;image-rendering:auto;shape-rendering:auto;text-rendering:auto" transform="matrix(4.61475 .75103 -.87003 4.1536 4144.408 -1286.623)"/><path d="M-727.646 369.779c-4.026 1.297-7.733 4.27-10.163 9.893-1.755 4.064-2.12 9.158-1.252 15.494.577 4.211 1.699 8.971 3.32 14.341.577 1.91 4.39 6.052 6.877 8.077 3.986 3.246 8.987 6.977 9.564 6.218.403-.53-6.217-3.846-9.61-8.108-2.83-3.554-4.024-7.347-4.914-13.253-1.33-8.83-.466-14.348 1.337-18.52 2.635-6.098 6.834-8.544 11.427-9.073 4.592-.529 9.467.99 12.974 2.587 7.478 3.405 17.39 9.05 28.018 21.619 1.97 2.33 3.382 1.183 1.388-1.088-11.15-12.698-20.92-21.475-29.713-25.544-4.057-1.877-9.65-3.795-15.157-3.415a17.2 17.2 0 0 0-4.096.772" style="color:#000;font-style:normal;font-variant:normal;font-weight:400;font-stretch:normal;font-size:medium;line-height:normal;font-family:sans-serif;font-variant-ligatures:normal;font-variant-position:normal;font-variant-caps:normal;font-variant-numeric:normal;font-variant-alternates:normal;font-feature-settings:normal;text-indent:0;text-align:start;text-decoration:none;text-decoration-line:none;text-decoration-style:solid;text-decoration-color:#000;letter-spacing:normal;word-spacing:normal;text-transform:none;writing-mode:lr-tb;direction:ltr;text-orientation:mixed;dominant-baseline:auto;baseline-shift:baseline;text-anchor:start;white-space:normal;shape-padding:0;clip-rule:nonzero;display:inline;overflow:visible;opacity:1;isolation:auto;mix-blend-mode:normal;color-interpolation:sRGB;color-interpolation-filters:linearRGB;solid-color:#000;solid-opacity:1;vector-effect:none;fill:#394655;fill-opacity:1;fill-rule:evenodd;stroke:none;stroke-width:4.24172354;stroke-linecap:round;stroke-linejoin:miter;stroke-miterlimit:4;stroke-dasharray:none;stroke-dashoffset:0;stroke-opacity:1;color-rendering:auto;image-rendering:auto;shape-rendering:auto;text-rendering:auto" transform="matrix(.33317 .05422 -.06281 .29987 391.359 -36.335)"/></g></g><g style="display:inline"><g transform="translate(33.063 -50.358)scale(.61836)"><path d="M547.428 318.165c-.44 14.771-4.13 29.026-10.39 42.252s-15.092 25.427-25.805 35.997-23.304 19.508-37.118 26.09-28.851 10.803-44.502 11.862c-15.65 1.059-30.44-1.159-43.818-6.168s-25.34-12.807-35.3-22.804c-9.961-9.997-17.917-22.19-23.266-35.908-5.35-13.718-8.092-28.96-7.642-44.981s4.044-31.294 10.142-45.079 14.696-26.082 25.17-36.257c10.473-10.176 22.822-18.23 36.461-23.662 13.64-5.43 28.572-8.243 44.23-8.025a121.4 121.4 0 0 1 44.11 8.941c13.548 5.515 25.74 13.338 35.925 22.915s18.362 20.914 23.877 33.533 8.366 26.522 7.926 41.294" style="color:#000;clip-rule:nonzero;display:inline;overflow:visible;opacity:1;isolation:auto;mix-blend-mode:normal;color-interpolation:sRGB;color-interpolation-filters:linearRGB;solid-color:#000;solid-opacity:1;fill:#394655;fill-opacity:1;fill-rule:nonzero;stroke:none;stroke-width:2;stroke-linecap:butt;stroke-linejoin:miter;stroke-miterlimit:4;stroke-dasharray:none;stroke-dashoffset:0;stroke-opacity:1;color-rendering:auto;image-rendering:auto;shape-rendering:auto;text-rendering:auto"/><path d="M539.722 314.79c.001 13.9-3.015 27.538-8.513 40.353-5.498 12.814-13.48 24.805-23.377 35.252s-21.705 19.342-34.785 25.879-27.425 10.712-42.377 11.767-29.091-1.113-41.86-5.931c-12.767-4.819-24.168-12.288-33.665-21.791s-17.09-21.043-22.232-33.955c-5.143-12.912-7.833-27.195-7.523-42.136.31-14.94 3.59-29.108 9.23-41.858a105.9 105.9 0 0 1 23.396-33.471c9.759-9.39 21.278-16.839 34.003-21.942s26.66-7.868 41.286-7.943c14.624-.075 28.559 2.532 41.26 7.244 12.702 4.712 24.168 11.534 33.816 20.036s17.479 18.69 22.901 30.213 8.439 24.383 8.44 38.283" style="color:#000;clip-rule:nonzero;display:inline;overflow:visible;opacity:1;isolation:auto;mix-blend-mode:normal;color-interpolation:sRGB;color-interpolation-filters:linearRGB;solid-color:#000;solid-opacity:1;fill:#fff;fill-opacity:1;fill-rule:nonzero;stroke:none;stroke-width:2;stroke-linecap:butt;stroke-linejoin:miter;stroke-miterlimit:4;stroke-dasharray:none;stroke-dashoffset:0;stroke-opacity:1;color-rendering:auto;image-rendering:auto;shape-rendering:auto;text-rendering:auto"/><circle cx="461.305" cy="310.038" r="30.81" style="color:#000;clip-rule:nonzero;display:inline;overflow:visible;opacity:1;isolation:auto;mix-blend-mode:normal;color-interpolation:sRGB;color-interpolation-filters:linearRGB;solid-color:#000;solid-opacity:1;fill:#394455;fill-opacity:1;fill-rule:nonzero;stroke:none;stroke-width:2;stroke-linecap:butt;stroke-linejoin:miter;stroke-miterlimit:4;stroke-dasharray:none;stroke-dashoffset:0;stroke-opacity:1;color-rendering:auto;image-rendering:auto;shape-rendering:auto;text-rendering:auto"/><circle cx="447.668" cy="295.896" r="15.152" style="color:#000;clip-rule:nonzero;display:inline;overflow:visible;opacity:1;isolation:auto;mix-blend-mode:normal;color-interpolation:sRGB;color-interpolation-filters:linearRGB;solid-color:#000;solid-opacity:1;fill:#fff;fill-opacity:1;fill-rule:nonzero;stroke:none;stroke-width:2;stroke-linecap:butt;stroke-linejoin:miter;stroke-miterlimit:4;stroke-dasharray:none;stroke-dashoffset:0;stroke-opacity:1;color-rendering:auto;image-rendering:auto;shape-rendering:auto;text-rendering:auto"/></g><g transform="translate(-156.352 -52.282)scale(.61836)"><path d="M547.428 318.165c-.44 14.771-4.13 29.026-10.39 42.252s-15.092 25.427-25.805 35.997-23.304 19.508-37.118 26.09-28.851 10.803-44.502 11.862c-15.65 1.059-30.44-1.159-43.818-6.168s-25.34-12.807-35.3-22.804c-9.961-9.997-17.917-22.19-23.266-35.908-5.35-13.718-8.092-28.96-7.642-44.981s4.044-31.294 10.142-45.079 14.696-26.082 25.17-36.257c10.473-10.176 22.822-18.23 36.461-23.662 13.64-5.43 28.572-8.243 44.23-8.025a121.4 121.4 0 0 1 44.11 8.941c13.548 5.515 25.74 13.338 35.925 22.915s18.362 20.914 23.877 33.533 8.366 26.522 7.926 41.294" style="color:#000;clip-rule:nonzero;display:inline;overflow:visible;opacity:1;isolation:auto;mix-blend-mode:normal;color-interpolation:sRGB;color-interpolation-filters:linearRGB;solid-color:#000;solid-opacity:1;fill:#394655;fill-opacity:1;fill-rule:nonzero;stroke:none;stroke-width:2;stroke-linecap:butt;stroke-linejoin:miter;stroke-miterlimit:4;stroke-dasharray:none;stroke-dashoffset:0;stroke-opacity:1;color-rendering:auto;image-rendering:auto;shape-rendering:auto;text-rendering:auto"/><path d="M539.722 314.79c.001 13.9-3.015 27.538-8.513 40.353-5.498 12.814-13.48 24.805-23.377 35.252s-21.705 19.342-34.785 25.879-27.425 10.712-42.377 11.767-29.091-1.113-41.86-5.931c-12.767-4.819-24.168-12.288-33.665-21.791s-17.09-21.043-22.232-33.955c-5.143-12.912-7.833-27.195-7.523-42.136.31-14.94 3.59-29.108 9.23-41.858a105.9 105.9 0 0 1 23.396-33.471c9.759-9.39 21.278-16.839 34.003-21.942s26.66-7.868 41.286-7.943c14.624-.075 28.559 2.532 41.26 7.244 12.702 4.712 24.168 11.534 33.816 20.036s17.479 18.69 22.901 30.213 8.439 24.383 8.44 38.283" style="color:#000;clip-rule:nonzero;display:inline;overflow:visible;opacity:1;isolation:auto;mix-blend-mode:normal;color-interpolation:sRGB;color-interpolation-filters:linearRGB;solid-color:#000;solid-opacity:1;fill:#fff;fill-opacity:1;fill-rule:nonzero;stroke:none;stroke-width:2;stroke-linecap:butt;stroke-linejoin:miter;stroke-miterlimit:4;stroke-dasharray:none;stroke-dashoffset:0;stroke-opacity:1;color-rendering:auto;image-rendering:auto;shape-rendering:auto;text-rendering:auto"/><circle cx="394.801" cy="314.253" r="30.81" style="color:#000;clip-rule:nonzero;display:inline;overflow:visible;opacity:1;isolation:auto;mix-blend-mode:normal;color-interpolation:sRGB;color-interpolation-filters:linearRGB;solid-color:#000;solid-opacity:1;fill:#394455;fill-opacity:1;fill-rule:nonzero;stroke:none;stroke-width:2;stroke-linecap:butt;stroke-linejoin:miter;stroke-miterlimit:4;stroke-dasharray:none;stroke-dashoffset:0;stroke-opacity:1;color-rendering:auto;image-rendering:auto;shape-rendering:auto;text-rendering:auto"/><circle cx="381.163" cy="300.111" r="15.152" style="color:#000;clip-rule:nonzero;display:inline;overflow:visible;opacity:1;isolation:auto;mix-blend-mode:normal;color-interpolation:sRGB;color-interpolation-filters:linearRGB;solid-color:#000;solid-opacity:1;fill:#fff;fill-opacity:1;fill-rule:nonzero;stroke:none;stroke-width:2;stroke-linecap:butt;stroke-linejoin:miter;stroke-miterlimit:4;stroke-dasharray:none;stroke-dashoffset:0;stroke-opacity:1;color-rendering:auto;image-rendering:auto;shape-rendering:auto;text-rendering:auto"/></g></g><g style="display:inline"><path d="m781.207 487.687 6.356.083 3.722-.082c1.188-.026 2.161.536 2.81 1.364.65.828.862 1.975.86 3.227l-.009 7.085.381 7.111c.069 1.281-.432 2.41-1.171 3.232a3.96 3.96 0 0 1-2.887 1.316l-3.757.09-7.382-.173c-1.416-.033-2.656-.585-3.501-1.433s-1.251-2.001-1.185-3.26l.37-7.056.492-7.045c.087-1.254.81-2.377 1.712-3.181.903-.805 2.043-1.285 3.19-1.278z" style="color:#000;clip-rule:nonzero;display:inline;overflow:visible;opacity:1;isolation:auto;mix-blend-mode:normal;color-interpolation:sRGB;color-interpolation-filters:linearRGB;solid-color:#000;solid-opacity:1;fill:#2e3436;fill-opacity:1;fill-rule:nonzero;stroke:none;stroke-width:10;stroke-linecap:butt;stroke-linejoin:miter;stroke-miterlimit:4;stroke-dasharray:none;stroke-dashoffset:0;stroke-opacity:1;color-rendering:auto;image-rendering:auto;shape-rendering:auto;text-rendering:auto" transform="translate(-577.052 -266.225)"/><path d="m782.06 489.832 5.187.07 2.49-.101c.945-.039 1.745.435 2.3 1.113s.8 1.618.83 2.644l.167 5.793.417 5.808a3.62 3.62 0 0 1-.87 2.642c-.586.671-1.417 1.034-2.354 1.071l-2.557.101-5.867-.127a4.1 4.1 0 0 1-2.805-1.165c-.698-.692-1.073-1.635-1.055-2.665l.102-5.77.202-5.763c.035-1.026.566-1.947 1.268-2.606.7-.659 1.609-1.057 2.545-1.045" style="color:#000;clip-rule:nonzero;display:inline;overflow:visible;opacity:1;isolation:auto;mix-blend-mode:normal;color-interpolation:sRGB;color-interpolation-filters:linearRGB;solid-color:#000;solid-opacity:1;fill:#fff;fill-opacity:1;fill-rule:nonzero;stroke:none;stroke-width:10;stroke-linecap:butt;stroke-linejoin:miter;stroke-miterlimit:4;stroke-dasharray:none;stroke-dashoffset:0;stroke-opacity:1;color-rendering:auto;image-rendering:auto;shape-rendering:auto;text-rendering:auto" transform="translate(-577.052 -266.225)"/><path d="M814.652 484.752c-.178 2.272-1.577 4.327-3.566 6.177s-4.735 3.49-7.917 4.834a44.2 44.2 0 0 1-10.405 2.929 40.6 40.6 0 0 1-10.937.177 41 41 0 0 1-9.675-2.379c-2.815-1.073-5.179-2.346-7.041-3.759s-3.24-2.977-4.109-4.724c-.87-1.746-1.23-3.68-.914-5.762.315-2.084 1.292-4.115 2.799-5.982 1.508-1.866 3.535-3.565 5.916-4.98 2.382-1.414 5.113-2.542 8.129-3.281s6.318-1.091 9.93-.972c3.614.12 7.22.695 10.643 1.645s6.65 2.284 9.338 3.911c2.69 1.627 4.9 3.503 6.19 5.62 1.32 2.167 1.77 4.61 1.619 6.546" style="color:#000;clip-rule:nonzero;display:inline;overflow:visible;opacity:1;isolation:auto;mix-blend-mode:normal;color-interpolation:sRGB;color-interpolation-filters:linearRGB;solid-color:#000;solid-opacity:1;fill:#394655;fill-opacity:1;fill-rule:nonzero;stroke:none;stroke-width:10;stroke-linecap:butt;stroke-linejoin:miter;stroke-miterlimit:4;stroke-dasharray:none;stroke-dashoffset:0;stroke-opacity:1;color-rendering:auto;image-rendering:auto;shape-rendering:auto;text-rendering:auto" transform="translate(-577.052 -266.225)"/><path d="M807.002 484.242c-.31 1.804-1.366 3.49-2.986 5s-3.805 2.846-6.287 3.914a32.7 32.7 0 0 1-8.072 2.27 32 32 0 0 1-8.531.107 30.3 30.3 0 0 1-7.553-1.904c-2.194-.875-4.045-1.939-5.497-3.125-1.452-1.187-2.51-2.502-3.132-3.934a7.67 7.67 0 0 1-.49-4.63c.324-1.646 1.139-3.226 2.341-4.668s2.79-2.744 4.66-3.821c1.869-1.077 4.018-1.93 6.389-2.481 2.37-.551 4.962-.802 7.767-.686 2.806.117 5.573.587 8.187 1.342 2.615.755 5.072 1.798 7.147 3.062s3.76 2.75 4.832 4.372c1.073 1.623 1.535 3.378 1.225 5.182" style="color:#000;clip-rule:nonzero;display:inline;overflow:visible;opacity:1;isolation:auto;mix-blend-mode:normal;color-interpolation:sRGB;color-interpolation-filters:linearRGB;solid-color:#000;solid-opacity:1;fill:#e1d0cb;fill-opacity:1;fill-rule:nonzero;stroke:none;stroke-width:10;stroke-linecap:butt;stroke-linejoin:miter;stroke-miterlimit:4;stroke-dasharray:none;stroke-dashoffset:0;stroke-opacity:1;color-rendering:auto;image-rendering:auto;shape-rendering:auto;text-rendering:auto" transform="translate(-577.052 -266.225)"/><path d="M800.728 472.616c-.452 1.293-1.436 2.441-2.797 3.41-1.36.97-3.093 1.761-4.973 2.368s-3.9 1.032-5.875 1.258-3.909.252-5.72.052-3.34-.608-4.633-1.175-2.353-1.293-3.187-2.148-1.444-1.84-1.799-2.932a7.1 7.1 0 0 1-.212-3.558c.24-1.267.801-2.481 1.65-3.579.848-1.097 1.983-2.077 3.355-2.872s2.98-1.404 4.767-1.766 3.752-.477 5.823-.291c2.072.185 4.054.65 5.846 1.33 1.792.678 3.394 1.568 4.691 2.601s2.29 2.21 2.845 3.453c.555 1.244.671 2.556.22 3.85" style="color:#000;clip-rule:nonzero;display:inline;overflow:visible;opacity:1;isolation:auto;mix-blend-mode:normal;color-interpolation:sRGB;color-interpolation-filters:linearRGB;solid-color:#000;solid-opacity:1;fill:#394655;fill-opacity:1;fill-rule:nonzero;stroke:none;stroke-width:10;stroke-linecap:butt;stroke-linejoin:miter;stroke-miterlimit:4;stroke-dasharray:none;stroke-dashoffset:0;stroke-opacity:1;color-rendering:auto;image-rendering:auto;shape-rendering:auto;text-rendering:auto" transform="translate(-577.052 -266.225)"/></g><g style="display:inline" transform="translate(-25.172 -139.699)"><path d="m502.489 543.437 2.403 11.186-15.413.249 2.237-10.69zm-63.227 0-2.403 11.186 15.413.249-2.237-10.69z" style="fill:#9ba4ae;fill-opacity:1;fill-rule:evenodd;stroke:#642424;stroke-width:.9375px;stroke-linecap:butt;stroke-linejoin:miter;stroke-opacity:1"/><path d="m246.808 434.475-7.148 7.266 9.844-3.75z" style="fill:#b3c3d7;fill-opacity:1;fill-rule:evenodd;stroke:#394655;stroke-width:.9375px;stroke-linecap:butt;stroke-linejoin:miter;stroke-opacity:1"/><path d="M472.793 458.743a21.462 19.887 0 0 0-21.462 19.889 21.462 19.887 0 0 0 5.336 13.084 18.1 18.1 0 0 1-1.855-7.948 18.064 18.064 0 0 1 18.064-18.064 18.064 18.064 0 0 1 18.065 18.064 18.1 18.1 0 0 1-1.74 7.683 21.462 19.887 0 0 0 5.054-12.82 21.462 19.887 0 0 0-21.462-19.888z" style="fill:#c96969;fill-opacity:1;stroke:#642424;stroke-width:1.875;stroke-linecap:round;stroke-miterlimit:4;stroke-dasharray:none;stroke-opacity:1"/><path d="M429.318 475.052c28.876-3.074 58.186-3.114 87.946 0-3.795 44.75-.59 39.221 0 72.808-30.534 3.413-59.617 2.76-87.946 0 1.154-37.399 2.687-43.093 0-72.808z" style="fill:#ccd8e5;fill-opacity:1;stroke:#642424;stroke-width:1.91986775;stroke-linecap:round;stroke-miterlimit:4;stroke-dasharray:none;stroke-opacity:1"/><path d="M543.293 506.795c-29.524 54.053-82.606 67.98-84.362 74.4-.028.883-.057 1.565-.086 2.483 30.219 2.944 59.427 3.574 91.997-.067-.63-35.826-4.173-28.375-.125-76.11a472 472 0 0 0-7.424-.706" style="fill:#c1cbd6;fill-opacity:1;fill-rule:evenodd;stroke:none;stroke-width:1px;stroke-linecap:butt;stroke-linejoin:miter;stroke-opacity:1" transform="scale(.9375)"/><circle cx="449.579" cy="532.42" r="6.509" style="fill:#8aa5c2;fill-opacity:1;stroke:#4b555f;stroke-width:1.37000775;stroke-linecap:round;stroke-miterlimit:4;stroke-dasharray:none;stroke-opacity:1"/><path d="M353.566 449.24c30.92 15.724 38.962 29.103 42.188 57.423 1.406 12.349-4.497 49.758.608 56.758 11.062 15.167 37.038 16.06 40.981 5.433 5.413-14.59-2.043-35.522 10.442-35.941" style="fill:none;fill-rule:evenodd;stroke:#8aa5c2;stroke-width:9.375;stroke-linecap:round;stroke-linejoin:miter;stroke-miterlimit:4;stroke-dasharray:none;stroke-opacity:1"/><path d="M301.356 427.699c-.829 0-25.324-2.91-36.957-1.492-3.766.46-9.115 3.315-9.115 3.315l3.149 4.806s4.574-2.716 7.954-3.149c10.64-1.363 33.975 1.492 33.975 1.492z" style="fill:url(#d);fill-opacity:1;fill-rule:evenodd;stroke:#394655;stroke-width:.9375px;stroke-linecap:butt;stroke-linejoin:miter;stroke-opacity:1"/><path d="M289.196 422.998c-1.498 3.477-2.493 7.267-.498 12.927 23.546 2.714 44.562 11.611 64.137 24.03 5.448-3.509 10.348-7.787 11.435-17.4 0 0-23.825-14.383-37.123-17.734-12.281-3.094-37.951-1.823-37.951-1.823z" style="fill:#8aa5c2;fill-opacity:1;fill-rule:evenodd;stroke:#394655;stroke-width:.9375px;stroke-linecap:butt;stroke-linejoin:miter;stroke-opacity:1"/><path d="m254.836 426.858 5.156 8.848-9.727 4.277-4.511-7.266z" style="fill:url(#e);fill-opacity:1;fill-rule:evenodd;stroke:#394655;stroke-width:.9375px;stroke-linecap:butt;stroke-linejoin:miter;stroke-opacity:1"/><path d="M455.752 484.732a16.82 16.82 0 0 0-16.822 16.821 17 17 0 0 0 .332 3.241 44.027 16.267 0 0 1 16.49-1.195 44.027 16.267 0 0 1 16.502 1.197 17 17 0 0 0 .32-3.243 16.82 16.82 0 0 0-16.822-16.821z" style="fill:#eee;fill-opacity:1;stroke:#642424;stroke-width:1.875;stroke-linecap:round;stroke-miterlimit:4;stroke-dasharray:none;stroke-opacity:1"/><path d="m455.344 500.276-8.497-6.68" style="fill:none;fill-rule:evenodd;stroke:#642424;stroke-width:.9375px;stroke-linecap:butt;stroke-linejoin:miter;stroke-opacity:1"/><circle cx="455.38" cy="499.979" r="1.864" style="fill:#642424;fill-opacity:1;stroke:none;stroke-width:1.875;stroke-linecap:round;stroke-miterlimit:4;stroke-dasharray:none;stroke-opacity:1"/><path d="M449.479 509.319c-.222 1.375-.215 4.782-.389 6.128-.173 1.347-.326 1.328-.581 1.615s-.988.97-1.185 1.165c-.198.194 2.009 2.758 2.444 2.382l2.611-2.258c.435-.376-.946-.557-1.666-2.012-.721-1.455-.613-6.411-.676-6.916-.062-.504-.337-1.479-.558-.104zm6.211 10.623c-.222-1.375-.215-4.782-.389-6.129-.173-1.347-.326-1.327-.581-1.614-.256-.287-.988-.971-1.186-1.165s2.01-2.759 2.445-2.383l2.611 2.258c.435.376-.946.558-1.667 2.013-.72 1.455-.613 6.41-.675 6.915s-.337 1.48-.558.105zm6.328-10.623c-.222 1.375-.215 4.782-.389 6.128-.173 1.347-.326 1.328-.581 1.615s-.988.97-1.185 1.165c-.198.194 2.009 2.758 2.444 2.382l2.611-2.258c.435-.376-.946-.557-1.666-2.012-.721-1.455-.613-6.411-.675-6.916-.063-.504-.337-1.479-.56-.104zm6.562 10.623c-.222-1.375-.215-4.782-.388-6.129s-.327-1.327-.582-1.614-.987-.971-1.185-1.165c-.197-.195 2.01-2.759 2.445-2.383l2.61 2.258c.436.376-.945.558-1.666 2.013-.72 1.455-.613 6.41-.675 6.915s-.337 1.48-.559.105zm-26.133-10.623c-.221 1.375-.214 4.782-.388 6.128-.173 1.347-.326 1.328-.582 1.615s-.987.97-1.185 1.165c-.197.194 2.01 2.758 2.445 2.382s2.176-1.881 2.61-2.258c.436-.376-.945-.557-1.666-2.012-.72-1.455-.613-6.411-.675-6.916-.062-.504-.337-1.479-.559-.104z" style="fill:#c96969;fill-opacity:1;fill-rule:evenodd;stroke:#642424;stroke-width:.46875;stroke-linecap:butt;stroke-linejoin:miter;stroke-miterlimit:4;stroke-dasharray:none;stroke-opacity:1"/><ellipse cx="496.197" cy="503.091" rx="9.052" ry="9.798" style="fill:#c96969;fill-opacity:1;stroke:#642424;stroke-width:.43053195;stroke-linecap:round;stroke-miterlimit:4;stroke-dasharray:none;stroke-opacity:1"/><path d="m495.523 491.44-.992 5.747c.444 2.772-.991 8.425 1.547 7.986 2.566.73.811-5.023.876-8.046z" style="fill:#642424;fill-opacity:1;fill-rule:evenodd;stroke:#642424;stroke-width:.67242765px;stroke-linecap:butt;stroke-linejoin:miter;stroke-opacity:1"/><path d="m486.526 499.074-4.415-1.873m4.522-5.538 2.695 2.812m3.164-5.918 1.055 3.399m7.148-3.867c0 .351-1.289 3.574-1.289 3.574m7.5.176-3.223 2.52m6.27 3.281-3.574 1.23" style="fill:none;fill-rule:evenodd;stroke:#642424;stroke-width:.9375px;stroke-linecap:butt;stroke-linejoin:miter;stroke-opacity:1"/><path d="M479.203 527.656h1.409v12.761h-1.409zm5.635 0h1.409v12.761h-1.409zm5.634 0h1.409v12.761h-1.409zm5.801 0h1.409v12.761h-1.409zm5.718 0h1.409v12.761h-1.409zm5.634 0h1.409v12.761h-1.409zm-39.857 0h1.409v12.761h-1.409zm5.634 0h1.409v12.761h-1.409z" style="fill:#642424;fill-opacity:1;stroke:#642424;stroke-width:.46875;stroke-linecap:round;stroke-miterlimit:4;stroke-dasharray:none;stroke-opacity:1"/></g><g style="display:inline"><path d="M423.503 581.835c-.004 4.4-1.198 7.589-3.375 9.829s-5.331 3.551-9.146 4.443c-3.815.89-8.283 1.395-13.057 1.838s-9.851.79-14.95 1.1c-5.098.308-9.945.347-14.402.085-4.457-.26-8.524-.799-11.993-1.712s-6.337-2.213-8.356-4.092c-2.019-1.88-3.187-4.345-3.255-7.511-.067-3.166.999-5.486 2.926-7.084s4.712-2.464 8.1-2.847 7.372-.283 11.77-.16 9.21.234 14.332-.122c5.12-.357 10.271-1.474 15.16-2.541 4.888-1.068 9.504-2.052 13.438-2.272s7.178.324 9.398 2.046c2.221 1.723 3.415 4.6 3.41 9" style="color:#000;clip-rule:nonzero;display:inline;overflow:visible;opacity:1;isolation:auto;mix-blend-mode:normal;color-interpolation:sRGB;color-interpolation-filters:linearRGB;solid-color:#000;solid-opacity:1;fill:#e1d6b9;fill-opacity:1;fill-rule:nonzero;stroke:none;stroke-width:10;stroke-linecap:butt;stroke-linejoin:miter;stroke-miterlimit:4;stroke-dasharray:none;stroke-dashoffset:0;stroke-opacity:1;color-rendering:auto;image-rendering:auto;shape-rendering:auto;text-rendering:auto" transform="matrix(.24568 -.37395 .47434 .39726 -57.081 204.195)"/><path d="M411.914 568.549c-3.75-.027-8.087.54-12.762 1.287-5.342.854-11.107 1.92-17.01 2.326-5.902.406-11.41.383-16.447.414s-9.604.16-13.508.86c-3.903.698-7.135 1.967-9.408 3.968s-3.585 4.717-3.652 8.176 1.218 6.307 3.543 8.58 5.688 3.98 9.762 5.25c4.073 1.27 8.852 2.12 14.056 2.598 5.205.479 10.834.561 16.703.222 5.87-.338 11.472-.786 16.606-1.35 5.134-.562 9.793-1.223 13.707-2.343a27.6 27.6 0 0 0 4.127-1.52c2.545-1.193 2.05-6.172-.1-4.54-1.991 1.511-4.56 2.503-7.57 3.207-3.669.857-7.967 1.341-12.559 1.767s-9.475.76-14.379 1.057c-4.903.297-9.565.335-13.851.084s-8.199-.769-11.535-1.647-6.096-2.13-8.037-3.937c-1.942-1.808-3.066-4.178-3.131-7.223s.96-5.277 2.814-6.814 4.531-2.37 7.79-2.739c3.257-.368 7.092-.272 11.322-.154s8.857.226 13.783-.117c4.925-.343 9.88-1.417 14.582-2.443s9.14-1.973 12.924-2.184q.71-.04 1.388-.045c1.16-.007 2.25.044 3.25.236 1.153.222 2.316-2.861-.838-2.927-.511-.011-1.034-.045-1.57-.05" style="color:#000;clip-rule:nonzero;display:inline;overflow:visible;opacity:1;isolation:auto;mix-blend-mode:normal;color-interpolation:sRGB;color-interpolation-filters:linearRGB;solid-color:#000;solid-opacity:1;fill:#394655;fill-opacity:1;fill-rule:nonzero;stroke:none;stroke-width:10;stroke-linecap:butt;stroke-linejoin:miter;stroke-miterlimit:4;stroke-dasharray:none;stroke-dashoffset:0;stroke-opacity:1;color-rendering:auto;image-rendering:auto;shape-rendering:auto;text-rendering:auto" transform="matrix(.24568 -.37395 .47434 .39726 -57.081 204.195)"/><path d="M423.503 581.835c-.004 4.4-1.198 7.589-3.375 9.829s-5.331 3.551-9.146 4.443c-3.815.89-8.283 1.395-13.057 1.838s-9.851.79-14.95 1.1c-5.098.308-9.945.347-14.402.085-4.457-.26-8.524-.799-11.993-1.712s-6.337-2.213-8.356-4.092c-2.019-1.88-3.187-4.345-3.255-7.511-.067-3.166.999-5.486 2.926-7.084s4.712-2.464 8.1-2.847 7.372-.283 11.77-.16 9.21.234 14.332-.122c5.12-.357 10.271-1.474 15.16-2.541 4.888-1.068 9.504-2.052 13.438-2.272s7.178.324 9.398 2.046c2.221 1.723 3.415 4.6 3.41 9" style="color:#000;clip-rule:nonzero;display:inline;overflow:visible;opacity:1;isolation:auto;mix-blend-mode:normal;color-interpolation:sRGB;color-interpolation-filters:linearRGB;solid-color:#000;solid-opacity:1;fill:#e1d6b9;fill-opacity:1;fill-rule:nonzero;stroke:none;stroke-width:10;stroke-linecap:butt;stroke-linejoin:miter;stroke-miterlimit:4;stroke-dasharray:none;stroke-dashoffset:0;stroke-opacity:1;color-rendering:auto;image-rendering:auto;shape-rendering:auto;text-rendering:auto" transform="matrix(-.24568 -.37395 -.47434 .39726 467.598 217.231)"/><path d="M411.914 568.549c-3.75-.027-8.087.54-12.762 1.287-5.342.854-11.107 1.92-17.01 2.326-5.902.406-11.41.383-16.447.414s-9.604.16-13.508.86c-3.903.698-7.135 1.967-9.408 3.968s-3.585 4.717-3.652 8.176 1.218 6.307 3.543 8.58 5.688 3.98 9.762 5.25c4.073 1.27 8.852 2.12 14.056 2.598 5.205.479 10.834.561 16.703.222 5.87-.338 11.472-.786 16.606-1.35 5.134-.562 9.793-1.223 13.707-2.343a27.6 27.6 0 0 0 4.127-1.52c2.545-1.193 2.05-6.172-.1-4.54-1.991 1.511-4.56 2.503-7.57 3.207-3.669.857-7.967 1.341-12.559 1.767s-9.475.76-14.379 1.057c-4.903.297-9.565.335-13.851.084s-8.199-.769-11.535-1.647-6.096-2.13-8.037-3.937c-1.942-1.808-3.066-4.178-3.131-7.223s.96-5.277 2.814-6.814 4.531-2.37 7.79-2.739c3.257-.368 7.092-.272 11.322-.154s8.857.226 13.783-.117c4.925-.343 9.88-1.417 14.582-2.443s9.14-1.973 12.924-2.184q.71-.04 1.388-.045c1.16-.007 2.25.044 3.25.236 1.153.222 2.316-2.861-.838-2.927-.511-.011-1.034-.045-1.57-.05" style="color:#000;clip-rule:nonzero;display:inline;overflow:visible;opacity:1;isolation:auto;mix-blend-mode:normal;color-interpolation:sRGB;color-interpolation-filters:linearRGB;solid-color:#000;solid-opacity:1;fill:#394655;fill-opacity:1;fill-rule:nonzero;stroke:none;stroke-width:10;stroke-linecap:butt;stroke-linejoin:miter;stroke-miterlimit:4;stroke-dasharray:none;stroke-dashoffset:0;stroke-opacity:1;color-rendering:auto;image-rendering:auto;shape-rendering:auto;text-rendering:auto" transform="matrix(-.24568 -.37395 -.47434 .39726 467.598 217.231)"/></g><path d="M131.422 203.574c-4.141 1.16-8.547 3.128-11.6 9.778.67 1.26 2.816 2.808 4.143 2.645 81.67-10.04 212.16-11.144 245.94 14.26-.719-1.023 4.863-3.216 4.13-4.52-3.738-6.66-13.869-16.904-21.034-19.677-93.05-7.992-154.829-5.947-221.579-2.486" style="fill:#394655;fill-opacity:1;fill-rule:evenodd;stroke:none;stroke-width:.9375px;stroke-linecap:butt;stroke-linejoin:miter;stroke-opacity:1" transform="translate(-25.172 -139.699)"/><path d="M261.926 204.788c-26.59 6.436-56.044 10.235-59.766 37.734l11.719 24.844c-3.504-27.07 9.782-49.124 60.468-60zM72.55 227.99s-5.12-14.108-2.109-20.155c2.969-5.961 10.452-10.465 17.11-10.313 6.477.148 16.171 10.781 16.171 10.781" style="fill:#394655;fill-opacity:1;fill-rule:evenodd;stroke:none;stroke-width:.9375px;stroke-linecap:butt;stroke-linejoin:miter;stroke-opacity:1" transform="translate(-25.172 -139.699)"/><g style="display:inline" transform="translate(-25.172 -139.699)"><circle cx="132.042" cy="292.082" r="85.872" style="fill:#eaedea;fill-opacity:.69191918;stroke:#394655;stroke-width:6.5625;stroke-linecap:round;stroke-miterlimit:4;stroke-dasharray:none;stroke-opacity:1"/><path d="M273.358 45.143h7.955v70.269h-7.955z" style="fill:#fff;fill-opacity:.69191918;stroke:none;stroke-width:9.375;stroke-linecap:round;stroke-miterlimit:4;stroke-dasharray:none;stroke-opacity:1" transform="rotate(43.44)"/><path d="M296.381 58.157h5.504v48.559h-5.504zm-39.439 2.205h5.504v48.559h-5.504z" style="fill:#fff;fill-opacity:.69191918;stroke:none;stroke-width:6.48285723;stroke-linecap:round;stroke-miterlimit:4;stroke-dasharray:none;stroke-opacity:1" transform="matrix(.73427 .67886 -.69625 .7178 0 0)"/><circle cx="83.84" cy="211.305" r="5.635" style="opacity:1;fill:#bcc8ff;fill-opacity:1;stroke:none;stroke-width:4.6875;stroke-linecap:round;stroke-miterlimit:4;stroke-dasharray:none;stroke-opacity:1"/></g></svg>