<svg xmlns="http://www.w3.org/2000/svg" width="327.282" height="524.928" viewBox="0 0 306.827 492.12"><g style="display:inline;opacity:1"><g style="display:inline;opacity:1;stroke-width:1.2449708"><path d="M423.492 581.667c-.017 4.204-1.233 7.085-3.437 8.921-2.204 1.837-5.394 2.625-9.25 2.91-3.856.284-8.37.1-13.181.004-4.811-.097-9.913-.114-15.014.168s-9.926.634-14.352.825c-4.426.192-8.453.232-11.888-.168-3.434-.4-6.272-1.254-8.267-2.79-1.996-1.534-3.147-3.751-3.2-6.697s1.02-5.178 2.947-6.772c1.927-1.593 4.707-2.542 8.084-3.078 3.377-.535 7.346-.669 11.731-.734 4.385-.066 9.19-.074 14.32-.305s10.308-.925 15.22-1.642 9.545-1.46 13.485-1.592c3.94-.131 7.183.396 9.403 2.118s3.386 13.037 3.399 8.832" style="color:#000;clip-rule:nonzero;display:inline;overflow:visible;opacity:1;isolation:auto;mix-blend-mode:normal;color-interpolation:sRGB;color-interpolation-filters:linearRGB;solid-color:#000;solid-opacity:1;fill:#e1d6b9;fill-opacity:1;fill-rule:nonzero;stroke:none;stroke-width:12.44970798;stroke-linecap:butt;stroke-linejoin:miter;stroke-miterlimit:4;stroke-dasharray:none;stroke-dashoffset:0;stroke-opacity:1;color-rendering:auto;image-rendering:auto;shape-rendering:auto;text-rendering:auto" transform="matrix(-.10698 -.3166 -.49184 .20277 540.72 458.84)"/><path d="M411.914 568.546c-3.751-.043-8.095.428-12.783.97-5.359.618-11.148 1.316-17.06 1.595s-11.412.359-16.438.55-9.58.512-13.476 1.326c-3.895.814-7.123 2.137-9.397 4.14s-3.588 4.67-3.665 7.984 1.195 5.968 3.498 7.915 5.634 3.184 9.667 3.86c4.034.677 8.764.808 13.928.697 5.164-.11 10.764-.464 16.634-.802 5.869-.339 11.501-.344 16.677-.295 5.175.048 9.885.134 13.841-.362 1.505-.188 2.898-.468 4.172-.855 2.573-.781 2.098-5.469-.078-4.23-2.017 1.146-4.19 1.01-7.236 1.203-3.712.235-8.264-.236-12.666-.378s-8.842.86-13.382 1.066-8.862.427-12.903.507c-4.04.08-7.8.04-11.037-.358s-5.936-1.175-7.8-2.555-2.882-3.361-2.918-5.925.876-4.537 2.515-6.019 5.127-1.654 7.905-2.385 6.294-1.734 10.166-1.752c3.871-.018 6.738-.279 11.691-.17 4.954.108 10.082-.31 14.845-1.276 4.764-.966 9.27-1.68 13.061-1.784q.713-.02 1.391-.009c1.163.02 2.253.087 3.254.289 1.154.233 2.318-2.829-.836-2.895-.511-.01-1.493.334-1.57-.052" style="color:#000;clip-rule:nonzero;display:inline;overflow:visible;opacity:1;isolation:auto;mix-blend-mode:normal;color-interpolation:sRGB;color-interpolation-filters:linearRGB;solid-color:#000;solid-opacity:1;fill:#394655;fill-opacity:1;fill-rule:nonzero;stroke:none;stroke-width:12.44970798;stroke-linecap:butt;stroke-linejoin:miter;stroke-miterlimit:4;stroke-dasharray:none;stroke-dashoffset:0;stroke-opacity:1;color-rendering:auto;image-rendering:auto;shape-rendering:auto;text-rendering:auto" transform="matrix(-.10698 -.3166 -.49184 .20277 540.72 458.84)"/></g><g style="display:inline;opacity:1;stroke-width:1.34214115"><path d="M419.84 584.573c-1.11 4.235-3.115 7.142-5.85 9.023-2.733 1.88-6.191 2.76-10.137 3.24-3.945.478-8.373.597-13.053.66s-9.607.027-14.585-.15c-4.979-.175-9.678-.662-13.95-1.444-4.27-.782-8.122-1.835-11.288-3.158-3.165-1.323-5.635-2.923-7.074-4.89-1.439-1.968-1.838-4.3-.941-7.08.896-2.779 2.647-4.652 5.058-5.712s5.478-1.298 8.97-1.047 7.402.982 11.607 1.607 8.715 1.101 13.557.957c4.842-.143 9.822-1.206 14.6-2.186 4.777-.98 9.356-1.805 13.205-1.762s6.938.923 8.725 2.848.05 13.33 1.156 9.094" style="color:#000;clip-rule:nonzero;display:inline;overflow:visible;opacity:1;isolation:auto;mix-blend-mode:normal;color-interpolation:sRGB;color-interpolation-filters:linearRGB;solid-color:#000;solid-opacity:1;fill:#e1d6b9;fill-opacity:1;fill-rule:nonzero;stroke:none;stroke-width:13.42141056;stroke-linecap:butt;stroke-linejoin:miter;stroke-miterlimit:4;stroke-dasharray:none;stroke-dashoffset:0;stroke-opacity:1;color-rendering:auto;image-rendering:auto;shape-rendering:auto;text-rendering:auto" transform="matrix(-.25946 -.20932 -.24602 .38986 496.011 219.977)"/><path d="M411.667 570.505c-3.645-.32-7.912.035-12.443.673-5.179.73-10.69 1.783-16.256 1.964-5.566.18-10.757-.278-15.64-.874-4.885-.596-9.469-1.263-13.594-1.35-4.126-.089-7.779.412-10.667 1.77-2.888 1.357-5.006 3.55-6.114 6.605-1.107 3.054-.683 5.795.966 8.195s4.516 4.463 8.197 6.211 8.163 3.194 13.122 4.283 10.401 1.796 16.157 2.057c5.756.262 11.242.3 16.338.22 5.097-.08 9.799-.251 13.94-.875a34 34 0 0 0 4.471-.962c2.833-.826 3.606-5.67 1.067-4.353-2.352 1.219-5.13 1.888-8.234 2.279-3.784.476-8.035.605-12.53.676-4.496.071-9.23.04-14.014-.121-4.784-.162-9.297-.62-13.4-1.363-4.101-.743-7.798-1.746-10.836-3.01-3.037-1.264-5.405-2.797-6.784-4.68s-1.759-4.116-.894-6.78 2.549-4.465 4.863-5.49c2.315-1.023 5.253-1.264 8.6-1.039 3.349.226 7.097.91 11.134 1.495s8.371 1.037 13.029.899 9.454-1.15 14.045-2.094c4.592-.944 8.982-1.753 12.668-1.736q.691.002 1.348.044c1.122.07 2.17.205 3.1.477 1.074.314 2.955-2.604-.117-2.943-.499-.055-1.55.198-1.522-.178" style="color:#000;clip-rule:nonzero;display:inline;overflow:visible;opacity:1;isolation:auto;mix-blend-mode:normal;color-interpolation:sRGB;color-interpolation-filters:linearRGB;solid-color:#000;solid-opacity:1;fill:#394655;fill-opacity:1;fill-rule:nonzero;stroke:none;stroke-width:13.42141056;stroke-linecap:butt;stroke-linejoin:miter;stroke-miterlimit:4;stroke-dasharray:none;stroke-dashoffset:0;stroke-opacity:1;color-rendering:auto;image-rendering:auto;shape-rendering:auto;text-rendering:auto" transform="matrix(-.25946 -.20932 -.24602 .38986 496.011 219.977)"/></g><g style="display:inline;opacity:1;stroke-width:1.34214115"><path d="M767.3 387.327c11.123 7.965 31.777 11.3 44.73 15.545 12.954 4.245 18.15 9.36 22.13 13.373s5.944 7.144 4.718 9.527-5.543 3.994-14 4.811c-8.459.818-15.91.121-23.024-1.725s-13.807-4.867-21.706-8.603c-7.899-3.737-17.327-8.05-25.811-14.185-8.484-6.133-17.623-13.9-23.143-24.133-5.519-10.234-5.782-21.344-5.371-30.883s1.51-17.554 2.716-23.75c1.204-6.195 2.715-10.673 4.77-13.669 2.057-2.995 4.652-4.526 7.72-4.526s5.703 1.83 7.625 5.499 3.048 9.244 3.287 16.76-.672 17.08.34 27.198c1.011 10.118 3.895 20.795 15.018 28.76" style="color:#000;clip-rule:nonzero;display:inline;overflow:visible;opacity:1;isolation:auto;mix-blend-mode:normal;color-interpolation:sRGB;color-interpolation-filters:linearRGB;solid-color:#000;solid-opacity:1;fill:#394655;fill-opacity:1;fill-rule:nonzero;stroke:none;stroke-width:13.42141056;stroke-linecap:butt;stroke-linejoin:miter;stroke-miterlimit:4;stroke-dasharray:none;stroke-dashoffset:0;stroke-opacity:1;color-rendering:auto;image-rendering:auto;shape-rendering:auto;text-rendering:auto" transform="matrix(-.0668 -.23394 -.65997 -.02932 395.93 576.344)"/><path d="M760.817 387.615c8.354 7.229 23.405 11.344 36.929 14.854s21.763 7.51 26.414 11.295 7.043 6.961 6.893 9.28c-.151 2.32-3.073 3.852-9.995 4.538-6.922.685-13.124-.18-19.188-2.159s-12.013-5.066-19.623-8.647-16.945-7.618-24.99-13.216-15.823-12.654-20.902-21.246-6.013-17.8-5.992-25.918c.022-8.118.935-15.149 1.866-20.67.932-5.52 2.018-9.597 3.383-12.305 1.366-2.707 3.035-4.069 5.02-4.013 1.985.055 3.577 1.847 4.614 5.275 1.038 3.428 1.448 8.544 1.474 15.152.026 6.609-.436 14.761.913 23.275 1.35 8.514 4.83 17.275 13.184 24.505" style="color:#000;clip-rule:nonzero;display:inline;overflow:visible;opacity:1;isolation:auto;mix-blend-mode:normal;color-interpolation:sRGB;color-interpolation-filters:linearRGB;solid-color:#000;solid-opacity:1;fill:#e1d6b9;fill-opacity:1;fill-rule:nonzero;stroke:none;stroke-width:13.42141056;stroke-linecap:butt;stroke-linejoin:miter;stroke-miterlimit:4;stroke-dasharray:none;stroke-dashoffset:0;stroke-opacity:1;color-rendering:auto;image-rendering:auto;shape-rendering:auto;text-rendering:auto" transform="matrix(-.0668 -.23394 -.65997 -.02932 395.93 576.344)"/></g><path d="M424.56 686.118c-1.887 7.351-4.766 13.284-8.555 18.165-3.788 4.882-8.49 8.705-13.94 11.77-5.449 3.063-11.636 5.356-18.337 7.192s-13.915 3.226-21.322 4.341-15.565 1.818-22.814 2.465c-7.249.648-11.693.251-19.541.295-7.85.043-15.277-.278-22.222-1.08-6.945-.8-13.414-2.097-19.295-4.025-5.88-1.928-11.165-4.483-15.734-7.86-4.568-3.378-8.412-7.578-11.495-12.692-3.082-5.115-5.398-11.132-7.09-18.135s-2.721-15.084-3.346-24.644c-.626-9.559-.21-17.22-.51-28.951-.298-11.731-.5-24.132-.625-37.053-.126-12.921-.226-30.34.188-44.426.413-14.084 1.166-27.686 2.407-40.228 1.24-12.542 2.972-24.04 5.298-34.327s5.246-19.375 8.789-27.268c3.542-7.892 7.706-14.592 12.44-20.138 4.733-5.545 10.036-9.939 15.8-13.215 5.765-3.277 16.348-7.883 23.603-9.228s14.899-1.614 22.741-.797a89.2 89.2 0 0 1 22.793 5.478c7.284 2.803 14.186 6.552 20.49 11.308a77.2 77.2 0 0 1 16.877 17.479c4.868 6.96 8.885 15.13 11.873 24.723 2.988 9.594 4.912 20.647 6.002 33.082a791 791 0 0 0 4.257 38.093c1.78 13.04 3.9 26.477 6.053 40.543s4.718 27.925 5.632 43.067c.79 13.092 2.292 28.505 2.392 39.037s-.922 19.678-2.81 27.03" style="opacity:1;fill:#394655;fill-opacity:1;stroke:none;stroke-width:1.87500012;stroke-linecap:round;stroke-miterlimit:4;stroke-dasharray:none;stroke-opacity:1" transform="translate(-173.723 -273.911)"/><path d="M398.162 711.266c-5.215 2.989-11.136 5.269-17.51 7.078s-13.232 3.193-20.277 4.303-14.931 1.793-21.805 2.443c-6.873.65-10.834.241-18.29.29-7.458.048-14.514-.27-21.1-1.06-6.587-.792-12.705-2.057-18.263-3.953-5.557-1.896-10.539-4.385-14.844-7.635-4.306-3.25-7.929-7.263-10.846-12.132-2.918-4.87-5.128-10.586-6.764-17.254s-2.697-14.295-3.362-23.402-.3-16.534-.641-27.872c-.34-11.337-.563-23.414-.702-35.94-.14-12.527-.233-29.572.179-43.298.412-13.725 1.158-27 2.364-39.26s2.874-23.519 5.098-33.601 5.004-19.003 8.367-26.752c3.362-7.75 7.307-14.334 11.79-19.788s9.503-9.78 14.964-13.008c5.46-3.23 16.08-8.033 22.995-9.365 6.914-1.332 14.195-1.6 21.662-.788a81.4 81.4 0 0 1 21.684 5.457c6.921 2.797 13.47 6.543 19.433 11.295 5.963 4.753 11.337 10.514 15.893 17.459 4.556 6.944 8.281 15.084 11.026 24.605s4.396 20.519 5.477 32.678 2.629 24.345 4.386 37.03c1.757 12.687 3.74 25.663 5.87 39.29s3.412 26.595 4.843 40.163c1.43 13.567 2.44 36.755 2.681 42.547s-.376 14.04-3.21 23.987c-1.26 4.42-4.1 10.415-7.739 15.105-3.638 4.69-8.145 8.39-13.36 11.378" style="opacity:1;fill:#96d6ff;fill-opacity:1;stroke:none;stroke-width:1.875;stroke-linecap:round;stroke-miterlimit:4;stroke-dasharray:none;stroke-opacity:1" transform="translate(-173.723 -273.911)"/><g style="display:inline;opacity:1;stroke-width:1.2449708"><path d="M423.492 581.667c-.017 4.204-1.233 7.085-3.437 8.921-2.204 1.837-5.394 2.625-9.25 2.91-3.856.284-8.37.1-13.181.004-4.811-.097-9.913-.114-15.014.168s-9.926.634-14.352.825c-4.426.192-8.453.232-11.888-.168-3.434-.4-6.272-1.254-8.267-2.79-1.996-1.534-3.147-3.751-3.2-6.697s1.02-5.178 2.947-6.772c1.927-1.593 4.707-2.542 8.084-3.078 3.377-.535 7.346-.669 11.731-.734 4.385-.066 9.19-.074 14.32-.305s10.308-.925 15.22-1.642 9.545-1.46 13.485-1.592c3.94-.131 7.183.396 9.403 2.118s3.386 13.037 3.399 8.832" style="color:#000;clip-rule:nonzero;display:inline;overflow:visible;opacity:1;isolation:auto;mix-blend-mode:normal;color-interpolation:sRGB;color-interpolation-filters:linearRGB;solid-color:#000;solid-opacity:1;fill:#e1d6b9;fill-opacity:1;fill-rule:nonzero;stroke:none;stroke-width:12.44970798;stroke-linecap:butt;stroke-linejoin:miter;stroke-miterlimit:4;stroke-dasharray:none;stroke-dashoffset:0;stroke-opacity:1;color-rendering:auto;image-rendering:auto;shape-rendering:auto;text-rendering:auto" transform="matrix(.00737 -.3341 -.5315 .02293 442.84 574.263)"/><path d="M411.914 568.546c-3.751-.043-8.095.428-12.783.97-5.359.618-11.148 1.316-17.06 1.595s-11.412.359-16.438.55-9.58.512-13.476 1.326c-3.895.814-7.123 2.137-9.397 4.14s-3.588 4.67-3.665 7.984 1.195 5.968 3.498 7.915 5.634 3.184 9.667 3.86c4.034.677 8.764.808 13.928.697 5.164-.11 10.764-.464 16.634-.802 5.869-.339 11.501-.344 16.677-.295 5.175.048 9.885.134 13.841-.362 1.505-.188 2.898-.468 4.172-.855 2.573-.781 2.098-5.469-.078-4.23-2.017 1.146-4.19 1.01-7.236 1.203-3.712.235-8.264-.236-12.666-.378s-8.842.86-13.382 1.066-8.862.427-12.903.507c-4.04.08-7.8.04-11.037-.358s-5.936-1.175-7.8-2.555-2.882-3.361-2.918-5.925.876-4.537 2.515-6.019 5.127-1.654 7.905-2.385 6.294-1.734 10.166-1.752c3.871-.018 6.738-.279 11.691-.17 4.954.108 10.082-.31 14.845-1.276 4.764-.966 9.27-1.68 13.061-1.784q.713-.02 1.391-.009c1.163.02 2.253.087 3.254.289 1.154.233 2.318-2.829-.836-2.895-.511-.01-1.493.334-1.57-.052" style="color:#000;clip-rule:nonzero;display:inline;overflow:visible;opacity:1;isolation:auto;mix-blend-mode:normal;color-interpolation:sRGB;color-interpolation-filters:linearRGB;solid-color:#000;solid-opacity:1;fill:#394655;fill-opacity:1;fill-rule:nonzero;stroke:none;stroke-width:12.44970798;stroke-linecap:butt;stroke-linejoin:miter;stroke-miterlimit:4;stroke-dasharray:none;stroke-dashoffset:0;stroke-opacity:1;color-rendering:auto;image-rendering:auto;shape-rendering:auto;text-rendering:auto" transform="matrix(.00737 -.3341 -.5315 .02293 442.84 574.263)"/></g></g><g style="display:inline;opacity:.06000001"><path d="M244.595 225.288c-.416-2.501-3.472-16.836-4.34-17.96-.388-.502-.756-1.22-1.308-1.74-3.831-3.609-11.262-3.827-22.956-4.01-39.221-.617-106.275 3.546-111.33 4.16-6.216.217-11.962 3.062-16.477 7.235-3.699 2.646-7.395 6.047-7.756 10.884-8.27 43.926-7.4 88.891-6.989 133.407.512 22.401.085 44.886 2.403 67.2 1.983 16.295 7.171 33.583 20.42 44.288 11.323 9.179 26.065 12.785 40.293 14.158 1.949.103 2.718-1.798 3.133-3.293 3.064-1.738 7.106-2.398 10.322-.847 2.037.836 1.03 2.486 1.467 4.2 2.46 2.044 6.15.462 9.117.96 20.553-.098 41.207-2.43 61.066-7.82 12.587-3.518 25.362-9.6 33.504-20.051-8.24 3.187-20.897 8.332-29.657 9.305-41.718 4.636-83.601-3.336-102.7-30.371-14.32-20.271-14.11-134.343-8.773-192.66.243-2.655.41-6.121 1.358-8.387 1.257-3.002 11.584-7.696 17.53-9.118 17.372-4.151 47.435-5.96 80.046-5.578 13.17.155 23.29 2.34 29.114 4.731 1.723.707 2.36 3.711 2.928 4.15 0 0-.25-1.86-.415-2.843" style="opacity:1;fill:#0f151a;fill-opacity:1;stroke:none;stroke-width:1.99999988;stroke-linecap:round;stroke-miterlimit:4;stroke-dasharray:none;stroke-opacity:1" transform="scale(.9375)"/><path d="m90.898 328.26-8.59 2.69c1.02 4.21 2.023 9.127 1.436 10.3 2.294-.574 5.408 3.605 5.408 3.605s9.586 18.848 11.307 27.698c-.082-4.425 1.803-4.752 1.803-4.752s14.176 3.277 15.078 6.719c2.622-1.885 9.014-1.967 9.014-1.967 4.015-1.557 28.68 4.998 34.416 8.685-1.99-3.155-.692-3.97-.483-4.204l.377.066c.833.486 11.434 7.095 14.2 11.677-.492-3.032 1.474-2.295 1.474-2.295s22.287 10.488 24.09 15.569c.655-3.606 3.441-3.278 3.441-3.278l23.272 2.46c-.164-3.196 4.59-3.934 4.59-3.934s6.062.738 8.193 2.295c.082-4.261 6.883-10.326 6.883-10.326s10.489-9.668 12.947-9.668c-.712-2.137 1.487-6.428 3.035-9.067l-.662-5.812-4.027-13.524c-1.044 1.898-1.77 4.679-1.623 9.883-5.375-1.316-15.617 4.131-15.897-4.26-2.375 4.668-3.17 15.13-8.043 10.64 1.744 9.285-7.967 9.405-11.951 14.106-1.375-8.853-17.023-11.775-16.225-20.322-6.216 6.36-17.202 17.866-27.8 3.203-20.806 6.485-20.929-5.222-30.87-9.922-2.497 8.991-16.667 4.802-28.187 3.606-10.632-5.09-5.665-14.34-8.031-21.633-1.518 3.663-2.342 8.444-7.702 5.9-6.07-4.421-9.139-9.2-10.873-14.138" style="display:inline;opacity:1;fill:#0f151a;fill-opacity:1;stroke:none;stroke-width:2;stroke-linecap:round;stroke-miterlimit:4;stroke-dasharray:none;stroke-opacity:1" transform="scale(.9375)"/><path d="M359.704 569.45c-1.306 3.072 1.71 8.82 6.039 9.889 4.36 1.075 7.15 1.536 7.15 1.536s-2.316 8.413-1.154 9.489c2.006 1.858 7.927.823 10.358.595 2.088-.196 3.073-.807 3.764-3.111.692-2.305-.326-8.066-.326-8.066s.96.073 4.57-1.71c3.035-1.498 4.784-3.3 5.167-4.244 1.336-3.293.46-4.916.46-4.916l-20.356-4.38z" style="opacity:1;fill:#000;fill-opacity:1;stroke:none;stroke-width:1.875;stroke-linecap:round;stroke-miterlimit:4;stroke-dasharray:none;stroke-opacity:1" transform="translate(-173.723 -273.911)"/><path d="M296.39 639.832c-.646 1.297 1.846 15.662 2.662 17.736 1.362 3.466 4.715 5.765 6.639 5.844 2.702.111 7.195-3.15 7.867-4.552.673-1.403-.465-1.6-1.781-4.487-1.317-2.887-6.416-13.277-7.134-14.008-.718-.732-8.252-.533-8.252-.533m-26.028-83.519c8.296 14.135 26.887 29.96 47.935 28.73 21.049-1.228 33.647-14.749 33.647-14.749s-34.722-22.277-35.337-22.585c-.614-.307-48.243-8.143-48.243-8.143zm118.955-53.889c-4.762 9.68-4.926 19.342-2.43 31.18 1.461 6.928 3.128 18.393 8.15 28.314 3.742 7.394 8.6 11.698 13.323 12.616 11.062 2.151 10.624.602 10.624.602s-4.662-17.44-6.505-24.815c-1.844-7.375-6.453-33.493-6.3-38.41s-16.862-9.487-16.862-9.487" style="opacity:1;fill:#0f151a;fill-opacity:1;stroke:none;stroke-width:1.875;stroke-linecap:round;stroke-miterlimit:4;stroke-dasharray:none;stroke-opacity:1" transform="translate(-173.723 -273.911)"/></g><g style="display:inline"><path d="m205.197 204.7 6.922-1.419s-3.6 37.002-2.413 55.472c.52 8.098.856 16.574 4.16 23.985 5.288 11.856 13.593 22.968 24.098 30.594 13.016 9.448 29.674 12.789 45.288 16.643 13.06 3.225 26.566 4.733 40.006 5.308 8.81.376 17.92 1.097 26.426-1.23 4.538-1.24 8.827-3.633 12.469-6.61 3.133-2.562 6.11-5.664 7.706-9.383 1.43-3.334 1.335-10.799 1.335-10.799l3.38-7.93 5.183-.723 3.466 22.031-3.17 21.867-7.705 17.008-19.007 15.153-34.894 1.245-35.393-17.85-57.51-10.18-18.767-39.916-19.03-28.608z" style="opacity:1;fill:#242d36;fill-opacity:1;stroke:none;stroke-width:1.875;stroke-linecap:round;stroke-miterlimit:4;stroke-dasharray:none;stroke-opacity:1" transform="translate(-130.59 -7.432)"/><path d="M209.715 225.305c.614 5.377 4.455 10.448 4.455 10.448s-3.09-1.301-3.588.099c-.868 2.438-.879 11.838-.665 17.642.111 3.034.735 3.795 2.256 4.23 0 0-2.431.213-1.594 6.643.618 4.739 2.373 3.135 2.373 3.135s-1.754 7.809.141 11.6c1.997 3.993 8.18 8.147 8.18 8.147-3.998-.268-5.611 3.982.486 3.448-.123 1.426.34 1.768 3.137 6.975 1.325 2.468 8.127 3.43 8.127 3.43-4.543 3.413 5.807 12.47 5.807 12.47s7.392 4.319 15.305 4.587c-1.029.904 7.227 2.882 7.74 4.938.96 3.838 22.622 5.91 26.228 1.789 1.175 2.74 6.004 8.53 15.793 8.582 10.367.055 10.601-3.995 10.601-3.995s7.221 7.682 20.28 5.224 9.22-6.607 9.22-6.607 16.414.44 19.665-3.38c2.066-2.427 4.274-6.65 4.066-9.862 3.598-.7 3.835-7.236 2.81-8.075 3.297 6.679 1.995 17.875 2.65 27.002l-32.111 15.671s-56.232-4.763-57.308-5.224c-1.075-.46-52.084-15.364-52.084-15.364l-24.582-37.488s-6.914-29.96-6.914-33.032c0-3.073 5.992-32.265 5.992-32.265z" style="opacity:1;fill:#242d36;fill-opacity:1;stroke:none;stroke-width:1.875;stroke-linecap:round;stroke-miterlimit:4;stroke-dasharray:none;stroke-opacity:1" transform="translate(-130.59 -7.432)"/><path d="M203.723 213.628c-2.957 5.492-4.026 12.683-8.911 16.44 1.231.441 1.89 2.744 2.304 5.838 0 0-1.766 15.518-5.684 12.445 1.152 5.915-.461 12.291-.461 12.291s-1.844-.077-3.841-1.997c1.536 2.458 1.536 10.908 1.536 10.908l-5.838 12.599c2.842-2.382 4.148-1.383 4.148-1.383 2.766.922 6.376 14.75 5.378 15.979 2.996-.999 5.53 1.229 5.53 1.229s3.15 9.218 2.305 12.29c2.305-2.688 5.992-1.843 5.992-1.843s3.918 13.674 2.92 15.672c2.15-.538 5.07 3.38 5.07 3.38s8.987 17.668 10.6 25.965c-.076-4.149 1.69-4.456 1.69-4.456s13.29 3.073 14.135 6.3c2.459-1.767 8.45-1.844 8.45-1.844 3.765-1.46 26.888 4.686 32.265 8.143-2.228-3.534-1.152-4.149-1.152-4.149s11.676 6.76 14.365 11.216c-.46-2.842 1.383-2.15 1.383-2.15s20.895 9.832 22.585 14.595c.614-3.38 3.226-3.073 3.226-3.073l21.817 2.305c-.153-2.996 4.302-3.688 4.302-3.688s5.685.692 7.682 2.151c.077-3.994 6.453-9.679 6.453-9.679s9.833-9.065 12.137-9.065c-.998-2.996 4.149-10.6 4.149-10.6.384-4.61 4.455-8.451 5.838-8.297-1.383-1.844-1.997-7.068-1.997-7.068s1.229-10.678 2.765-13.06c-3.15-3.226-3.994-18.129-3.994-18.129l-2.305 5.992.768 22.278-8.296 23.66-19.666 16.44-42.558-6.607-32.572-18.283-48.704-5.07-16.132-35.03-17.515-25.043 5.685-28.884 4.762-37.335z" style="opacity:1;fill:#242d36;fill-opacity:1;stroke:none;stroke-width:1.875;stroke-linecap:round;stroke-miterlimit:4;stroke-dasharray:none;stroke-opacity:1" transform="translate(-130.59 -7.432)"/><path d="m206.182 204.871-1.34 1.346-2.331 9.98c-2.143 5.004-3.546 10.677-7.7 13.871 1.231.442 1.89 2.743 2.305 5.838 0 0-1.766 15.518-5.683 12.445 1.152 5.915-.462 12.292-.462 12.292s-1.844-.077-3.841-1.998c1.536 2.459 1.536 10.908 1.536 10.908l-5.837 12.6c2.842-2.382 4.147-1.385 4.147-1.385 2.765.922 6.376 14.75 5.378 15.98 2.996-.999 5.531 1.229 5.531 1.229s3.149 9.219 2.304 12.291c2.304-2.688 5.993-1.843 5.993-1.843s3.917 13.672 2.918 15.67c2.151-.538 5.07 3.38 5.07 3.38s8.987 17.67 10.6 25.966c-.076-4.148 1.69-4.455 1.69-4.455s13.291 3.072 14.136 6.299c2.459-1.767 8.45-1.844 8.45-1.844 3.765-1.46 26.888 4.686 32.266 8.143-1.865-2.958-1.436-3.832-1.24-4.05l.354.062c.78.455 11.506 6.76 14.099 11.056-.461-2.843 1.382-2.152 1.382-2.152s20.894 9.833 22.584 14.595c.615-3.38 3.227-3.072 3.227-3.072l21.817 2.305c-.154-2.996 4.303-3.688 4.303-3.688s5.684.692 7.68 2.152c.078-3.995 6.454-9.68 6.454-9.68s9.833-9.065 12.138-9.065c-.999-2.996 4.147-10.601 4.147-10.601.384-4.61 4.456-8.45 5.84-8.297-1.384-1.844-1.998-7.068-1.998-7.068s1.228-10.677 2.764-13.059c-1.19-1.219-2.048-4.105-2.658-7.223-.65 5.832 1.55 16.106-5.33 13.524-2.016 4.927-6.159 3.944-5.838 15.362-5.038-1.233-14.64 3.873-14.903-3.993-2.226 4.375-2.972 14.185-7.54 9.975 1.635 8.705-7.47 8.816-11.204 13.224-1.29-8.3-15.959-11.04-15.21-19.052-5.829 5.963-16.128 16.75-26.064 3.003-19.505 6.08-19.62-4.896-28.94-9.302-2.34 8.43-15.626 4.502-26.426 3.38-9.968-4.77-5.31-13.443-7.529-20.28-1.423 3.434-2.195 7.916-7.22 5.531-13.823-10.067-11.165-22.097-13.828-33.493-2.872 5.092-4.372 1.96-6.145.461-5.03-7.063-1.544-9.018-2.305-13.52-5.671-.015-4.302-12.702-6.453-19.053 1.843-3.151 2.34-9.402 6.299-7.68-5.932-3.266-1.68-9.755-2.15-14.75-6.567-6.84 3.175-21.51 4.763-32.265" style="opacity:1;fill:#363c42;fill-opacity:1;stroke:none;stroke-width:1.875;stroke-linecap:round;stroke-miterlimit:4;stroke-dasharray:none;stroke-opacity:1" transform="translate(-130.59 -7.432)"/></g><g style="display:inline"><g style="stroke-width:1.54843807" transform="matrix(-.3066 -.19898 -.21 .29052 448.002 250.401)"><path d="M544.26 323.966c-5.953 12.338-15.2 24.223-25.898 35.92-10.698 11.696-22.743 23.281-34.524 34.218s-23.276 21.155-34.237 29.303-21.473 14.18-32.043 16.952c-10.57 2.77-20.297 2.025-29.304-1.678s-20.58-7.765-27.665-16.717-12.84-20.183-16.504-33.034c-3.663-12.851-5.229-27.33-3.924-42.729s5.367-30.25 11.818-43.754c6.451-13.505 15.29-25.659 26.008-35.783s28.443-20.293 42.249-25.867 28.833-8.628 44.21-8.804c15.376-.176 29.627 2.526 41.943 7.375s22.698 11.85 30.36 20.347 12.601 18.483 14.065 29.349-.6 22.565-6.553 34.902" style="color:#000;clip-rule:nonzero;display:inline;overflow:visible;opacity:1;isolation:auto;mix-blend-mode:normal;color-interpolation:sRGB;color-interpolation-filters:linearRGB;solid-color:#000;solid-opacity:1;fill:#394655;fill-opacity:1;fill-rule:nonzero;stroke:none;stroke-width:3.09687614;stroke-linecap:butt;stroke-linejoin:miter;stroke-miterlimit:4;stroke-dasharray:none;stroke-dashoffset:0;stroke-opacity:1;color-rendering:auto;image-rendering:auto;shape-rendering:auto;text-rendering:auto"/><path d="M538.18 322.659c-5.177 11.632-13.277 23.1-22.969 34.404-9.691 11.303-20.938 22.465-32.344 32.775-11.405 10.31-22.908 19.719-33.859 27.134-10.95 7.415-21.396 12.82-31.595 15.287-10.2 2.467-19.302 1.763-27.568-1.63s-19.134-6.95-25.392-15.161-11.243-18.535-14.304-30.376c-3.06-11.84-4.19-25.202-2.686-39.425 1.503-14.224 5.508-27.949 11.68-40.439 6.17-12.49 14.507-23.74 24.547-33.139 10.04-9.398 26.99-19.062 39.836-24.293a115.4 115.4 0 0 1 41-8.458c14.218-.3 27.344 2.037 38.644 6.33s20.77 10.545 27.74 18.17c6.971 7.624 11.438 16.612 12.814 26.511s-.366 20.678-5.544 32.31" style="color:#000;clip-rule:nonzero;display:inline;overflow:visible;opacity:1;isolation:auto;mix-blend-mode:normal;color-interpolation:sRGB;color-interpolation-filters:linearRGB;solid-color:#000;solid-opacity:1;fill:#fff;fill-opacity:1;fill-rule:nonzero;stroke:none;stroke-width:3.09687614;stroke-linecap:butt;stroke-linejoin:miter;stroke-miterlimit:4;stroke-dasharray:none;stroke-dashoffset:0;stroke-opacity:1;color-rendering:auto;image-rendering:auto;shape-rendering:auto;text-rendering:auto"/><circle cx="449.76" cy="210.016" r="27.721" style="color:#000;clip-rule:nonzero;display:inline;overflow:visible;opacity:1;isolation:auto;mix-blend-mode:normal;color-interpolation:sRGB;color-interpolation-filters:linearRGB;solid-color:#000;solid-opacity:1;fill:#394455;fill-opacity:1;fill-rule:nonzero;stroke:none;stroke-width:3.09687614;stroke-linecap:butt;stroke-linejoin:miter;stroke-miterlimit:4;stroke-dasharray:none;stroke-dashoffset:0;stroke-opacity:1;color-rendering:auto;image-rendering:auto;shape-rendering:auto;text-rendering:auto" transform="rotate(9.459)"/><circle cx="442.301" cy="196.664" r="13.633" style="color:#000;clip-rule:nonzero;display:inline;overflow:visible;opacity:1;isolation:auto;mix-blend-mode:normal;color-interpolation:sRGB;color-interpolation-filters:linearRGB;solid-color:#000;solid-opacity:1;fill:#fff;fill-opacity:1;fill-rule:nonzero;stroke:none;stroke-width:3.09687614;stroke-linecap:butt;stroke-linejoin:miter;stroke-miterlimit:4;stroke-dasharray:none;stroke-dashoffset:0;stroke-opacity:1;color-rendering:auto;image-rendering:auto;shape-rendering:auto;text-rendering:auto" transform="rotate(9.459)"/></g><g style="stroke-width:1.54933548" transform="matrix(-.42347 0 0 .42347 325.52 125.008)"><path d="M547.428 318.165c-.44 14.771-4.13 29.026-10.39 42.252s-15.092 25.427-25.805 35.997-23.304 19.508-37.118 26.09-28.851 10.803-44.502 11.862c-15.65 1.059-30.44-1.159-43.818-6.168s-25.34-12.807-35.3-22.804c-9.961-9.997-17.917-22.19-23.266-35.908-5.35-13.718-8.092-28.96-7.642-44.981s4.044-31.294 10.142-45.079 14.696-26.082 25.17-36.257c10.473-10.176 22.822-18.23 36.461-23.662 13.64-5.43 28.572-8.243 44.23-8.025a121.4 121.4 0 0 1 44.11 8.941c13.548 5.515 25.74 13.338 35.925 22.915s18.362 20.914 23.877 33.533 8.366 26.522 7.926 41.294" style="color:#000;clip-rule:nonzero;display:inline;overflow:visible;opacity:1;isolation:auto;mix-blend-mode:normal;color-interpolation:sRGB;color-interpolation-filters:linearRGB;solid-color:#000;solid-opacity:1;fill:#394655;fill-opacity:1;fill-rule:nonzero;stroke:none;stroke-width:3.09867096;stroke-linecap:butt;stroke-linejoin:miter;stroke-miterlimit:4;stroke-dasharray:none;stroke-dashoffset:0;stroke-opacity:1;color-rendering:auto;image-rendering:auto;shape-rendering:auto;text-rendering:auto"/><path d="M539.722 314.79c.001 13.9-3.015 27.538-8.513 40.353-5.498 12.814-13.48 24.805-23.377 35.252s-21.705 19.342-34.785 25.879-27.425 10.712-42.377 11.767-29.091-1.113-41.86-5.931c-12.767-4.819-24.168-12.288-33.665-21.791s-17.09-21.043-22.232-33.955c-5.143-12.912-7.833-27.195-7.523-42.136.31-14.94 3.59-29.108 9.23-41.858a105.9 105.9 0 0 1 23.396-33.471c9.759-9.39 21.278-16.839 34.003-21.942s26.66-7.868 41.286-7.943c14.624-.075 28.559 2.532 41.26 7.244 12.702 4.712 24.168 11.534 33.816 20.036s17.479 18.69 22.901 30.213 8.439 24.383 8.44 38.283" style="color:#000;clip-rule:nonzero;display:inline;overflow:visible;opacity:1;isolation:auto;mix-blend-mode:normal;color-interpolation:sRGB;color-interpolation-filters:linearRGB;solid-color:#000;solid-opacity:1;fill:#fff;fill-opacity:1;fill-rule:nonzero;stroke:none;stroke-width:3.09867096;stroke-linecap:butt;stroke-linejoin:miter;stroke-miterlimit:4;stroke-dasharray:none;stroke-dashoffset:0;stroke-opacity:1;color-rendering:auto;image-rendering:auto;shape-rendering:auto;text-rendering:auto"/><circle cx="406.67" cy="299.744" r="30.81" style="color:#000;clip-rule:nonzero;display:inline;overflow:visible;opacity:1;isolation:auto;mix-blend-mode:normal;color-interpolation:sRGB;color-interpolation-filters:linearRGB;solid-color:#000;solid-opacity:1;fill:#394455;fill-opacity:1;fill-rule:nonzero;stroke:none;stroke-width:3.09867096;stroke-linecap:butt;stroke-linejoin:miter;stroke-miterlimit:4;stroke-dasharray:none;stroke-dashoffset:0;stroke-opacity:1;color-rendering:auto;image-rendering:auto;shape-rendering:auto;text-rendering:auto"/><circle cx="393.033" cy="285.602" r="15.152" style="color:#000;clip-rule:nonzero;display:inline;overflow:visible;opacity:1;isolation:auto;mix-blend-mode:normal;color-interpolation:sRGB;color-interpolation-filters:linearRGB;solid-color:#000;solid-opacity:1;fill:#fff;fill-opacity:1;fill-rule:nonzero;stroke:none;stroke-width:3.09867096;stroke-linecap:butt;stroke-linejoin:miter;stroke-miterlimit:4;stroke-dasharray:none;stroke-dashoffset:0;stroke-opacity:1;color-rendering:auto;image-rendering:auto;shape-rendering:auto;text-rendering:auto"/></g></g><g style="opacity:.06"><path d="M119.996 240.236a46.5 46.5 0 0 0-8.19 7.518c-6.828 7.898-10.607 18.352-10.275 28.799.347 14.666 7.814 28.609 18.774 38.146 10.22 8.986 23.755 14.542 37.465 13.998 7.412-.326 14.792-2.277 21.175-6.115a39 39 0 0 0 5.045-3.4c-3.75.706-8.816 2.465-12.85 2.823-13.411 1.191-20.951 1.133-38.815-7.553s-25.31-33.872-25.31-46.655c0-7.112 6.776-22.57 12.981-27.56m124.676-5.907c-4.728 1.093-9.143 3.524-12.184 7.367-4.53 5.54-5.595 12.984-5.455 19.926.252 10.794 2.804 21.382 5.828 31.695 2.29 7.226 4.995 14.64 10.203 20.315 2.804 3.088 6.555 5.317 10.678 6.06 2.74.648 5.512 1.313 8.35 1.096 2.394.152 4.724-.5 6.879-1.496a39.2 39.2 0 0 0 8.832-5.314c-.652.15-1.192.284-1.907.443-14.749 3.278-21.53 2.703-27.814-2.555-10.542-8.82-16.533-42.101-16.598-51.691-.078-11.593 3.944-15.74 13.188-25.846" style="opacity:1;fill:#0f151a;fill-opacity:1;stroke:none;stroke-width:2;stroke-linecap:round;stroke-miterlimit:4;stroke-dasharray:none;stroke-opacity:1" transform="scale(.9375)"/></g><g style="display:inline"><path d="m384.049 574.755-4.224.136-2.463-.007c-.786-.003-1.479.383-1.978.942-.5.56-.736 1.325-.839 2.158l-.582 4.714-.844 4.736c-.152.853.086 1.597.509 2.135.422.537 1.06.836 1.806.84l2.485.011 4.912-.208a3.9 3.9 0 0 0 2.442-.998 3.24 3.24 0 0 0 1.057-2.183l.34-4.69.26-4.68c.047-.834-.34-1.572-.872-2.096a2.77 2.77 0 0 0-2.01-.81z" style="color:#000;clip-rule:nonzero;display:inline;overflow:visible;opacity:1;isolation:auto;mix-blend-mode:normal;color-interpolation:sRGB;color-interpolation-filters:linearRGB;solid-color:#000;solid-opacity:1;fill:#2e3436;fill-opacity:1;fill-rule:nonzero;stroke:none;stroke-width:10;stroke-linecap:butt;stroke-linejoin:miter;stroke-miterlimit:4;stroke-dasharray:none;stroke-dashoffset:0;stroke-opacity:1;color-rendering:auto;image-rendering:auto;shape-rendering:auto;text-rendering:auto" transform="translate(-173.723 -273.911)"/><path d="m383.304 576.193-3.447.112-1.643-.036c-.624-.014-1.194.312-1.619.77s-.666 1.086-.77 1.769l-.593 3.856-.759 3.87c-.135.69.027 1.307.358 1.746.332.44.854.67 1.473.683l1.688.035 3.903-.159a3.15 3.15 0 0 0 1.958-.81c.52-.47.848-1.101.921-1.786l.412-3.838.345-3.831c.062-.683-.214-1.289-.625-1.718a2.1 2.1 0 0 0-1.602-.663" style="color:#000;clip-rule:nonzero;display:inline;overflow:visible;opacity:1;isolation:auto;mix-blend-mode:normal;color-interpolation:sRGB;color-interpolation-filters:linearRGB;solid-color:#000;solid-opacity:1;fill:#fff;fill-opacity:1;fill-rule:nonzero;stroke:none;stroke-width:10;stroke-linecap:butt;stroke-linejoin:miter;stroke-miterlimit:4;stroke-dasharray:none;stroke-dashoffset:0;stroke-opacity:1;color-rendering:auto;image-rendering:auto;shape-rendering:auto;text-rendering:auto" transform="translate(-173.723 -273.911)"/><path d="M359.68 570.573c.118 1.507 1.046 2.871 2.366 4.099s3.142 2.316 5.254 3.208a29.3 29.3 0 0 0 6.904 1.943c2.412.367 4.856.407 7.258.118a27 27 0 0 0 6.42-1.579c1.868-.712 3.437-1.557 4.673-2.494s2.15-1.976 2.727-3.135a6.3 6.3 0 0 0 .606-3.824c-.209-1.382-.857-2.73-1.857-3.97-1-1.238-2.346-2.365-3.926-3.304a19.8 19.8 0 0 0-5.394-2.177c-2.001-.491-4.193-.724-6.59-.645s-4.79.46-7.062 1.091-4.413 1.516-6.198 2.596c-1.784 1.08-3.25 2.324-4.107 3.728-.876 1.44-1.174 3.06-1.074 4.345" style="color:#000;clip-rule:nonzero;display:inline;overflow:visible;opacity:1;isolation:auto;mix-blend-mode:normal;color-interpolation:sRGB;color-interpolation-filters:linearRGB;solid-color:#000;solid-opacity:1;fill:#394655;fill-opacity:1;fill-rule:nonzero;stroke:none;stroke-width:10;stroke-linecap:butt;stroke-linejoin:miter;stroke-miterlimit:4;stroke-dasharray:none;stroke-dashoffset:0;stroke-opacity:1;color-rendering:auto;image-rendering:auto;shape-rendering:auto;text-rendering:auto" transform="translate(-173.723 -273.911)"/><path d="M364.756 570.235c.206 1.197.906 2.315 1.982 3.317s2.525 1.89 4.172 2.598a21.7 21.7 0 0 0 5.356 1.506c1.873.275 3.783.3 5.662.071a20 20 0 0 0 5.012-1.263c1.456-.58 2.684-1.287 3.648-2.074.963-.788 1.665-1.66 2.078-2.611a5.1 5.1 0 0 0 .325-3.073c-.215-1.092-.756-2.14-1.554-3.097-.797-.957-1.85-1.82-3.091-2.536a15.5 15.5 0 0 0-4.24-1.646c-1.573-.366-3.293-.532-5.155-.455a23 23 0 0 0-5.433.89c-1.735.502-3.365 1.193-4.742 2.032s-2.495 1.825-3.207 2.902c-.712 1.076-1.019 2.241-.813 3.438" style="color:#000;clip-rule:nonzero;display:inline;overflow:visible;opacity:1;isolation:auto;mix-blend-mode:normal;color-interpolation:sRGB;color-interpolation-filters:linearRGB;solid-color:#000;solid-opacity:1;fill:#e1d0cb;fill-opacity:1;fill-rule:nonzero;stroke:none;stroke-width:10;stroke-linecap:butt;stroke-linejoin:miter;stroke-miterlimit:4;stroke-dasharray:none;stroke-dashoffset:0;stroke-opacity:1;color-rendering:auto;image-rendering:auto;shape-rendering:auto;text-rendering:auto" transform="translate(-173.723 -273.911)"/><path d="M371.417 562.927c.3.858.953 1.62 1.856 2.263s2.053 1.169 3.3 1.572c1.248.403 2.588.684 3.9.834 1.31.15 2.593.168 3.795.035s2.216-.404 3.075-.78c.858-.376 1.56-.858 2.114-1.426a5 5 0 0 0 1.194-1.945c.235-.725.3-1.52.14-2.36a5.6 5.6 0 0 0-1.094-2.376c-.563-.728-1.316-1.379-2.226-1.906a10.5 10.5 0 0 0-3.164-1.172 13.5 13.5 0 0 0-3.864-.193c-1.375.123-2.69.432-3.88.882-1.188.45-2.252 1.041-3.112 1.727-.861.685-1.52 1.466-1.888 2.291-.369.826-.446 1.696-.146 2.554" style="color:#000;clip-rule:nonzero;display:inline;overflow:visible;opacity:1;isolation:auto;mix-blend-mode:normal;color-interpolation:sRGB;color-interpolation-filters:linearRGB;solid-color:#000;solid-opacity:1;fill:#394655;fill-opacity:1;fill-rule:nonzero;stroke:none;stroke-width:10;stroke-linecap:butt;stroke-linejoin:miter;stroke-miterlimit:4;stroke-dasharray:none;stroke-dashoffset:0;stroke-opacity:1;color-rendering:auto;image-rendering:auto;shape-rendering:auto;text-rendering:auto" transform="translate(-173.723 -273.911)"/></g><g style="display:inline"><g style="stroke-width:1.34214115"><path d="M423.503 581.835c-.004 4.4-1.198 7.589-3.375 9.829s-5.331 3.551-9.146 4.443c-3.815.89-8.283 1.395-13.057 1.838s-9.851.79-14.95 1.1c-5.098.308-9.945.347-14.402.085-4.457-.26-8.524-.799-11.993-1.712s-6.337-2.213-8.356-4.092c-2.019-1.88-3.187-4.345-3.255-7.511-.067-3.166.999-5.486 2.926-7.084s4.712-2.464 8.1-2.847 7.372-.283 11.77-.16 9.21.234 14.332-.122c5.12-.357 10.271-1.474 15.16-2.541 4.888-1.068 9.504-2.052 13.438-2.272s7.178.324 9.398 2.046c2.221 1.723 3.415 4.6 3.41 9" style="color:#000;clip-rule:nonzero;display:inline;overflow:visible;opacity:1;isolation:auto;mix-blend-mode:normal;color-interpolation:sRGB;color-interpolation-filters:linearRGB;solid-color:#000;solid-opacity:1;fill:#e1d6b9;fill-opacity:1;fill-rule:nonzero;stroke:none;stroke-width:13.42141056;stroke-linecap:butt;stroke-linejoin:miter;stroke-miterlimit:4;stroke-dasharray:none;stroke-dashoffset:0;stroke-opacity:1;color-rendering:auto;image-rendering:auto;shape-rendering:auto;text-rendering:auto" transform="matrix(-.14625 -.29958 -.3881 .2488 415.519 342.18)"/><path d="M411.914 568.549c-3.75-.027-8.087.54-12.762 1.287-5.342.854-11.107 1.92-17.01 2.326-5.902.406-11.41.383-16.447.414s-9.604.16-13.508.86c-3.903.698-7.135 1.967-9.408 3.968s-3.585 4.717-3.652 8.176 1.218 6.307 3.543 8.58 5.688 3.98 9.762 5.25c4.073 1.27 8.852 2.12 14.056 2.598 5.205.479 10.834.561 16.703.222 5.87-.338 11.472-.786 16.606-1.35 5.134-.562 9.793-1.223 13.707-2.343a27.6 27.6 0 0 0 4.127-1.52c2.545-1.193 2.05-6.172-.1-4.54-1.991 1.511-4.56 2.503-7.57 3.207-3.669.857-7.967 1.341-12.559 1.767s-9.475.76-14.379 1.057c-4.903.297-9.565.335-13.851.084s-8.199-.769-11.535-1.647-6.096-2.13-8.037-3.937c-1.942-1.808-3.066-4.178-3.131-7.223s.96-5.277 2.814-6.814 4.531-2.37 7.79-2.739c3.257-.368 7.092-.272 11.322-.154s8.857.226 13.783-.117c4.925-.343 9.88-1.417 14.582-2.443s9.14-1.973 12.924-2.184q.71-.04 1.388-.045c1.16-.007 2.25.044 3.25.236 1.153.222 2.316-2.861-.838-2.927-.511-.011-1.034-.045-1.57-.05" style="color:#000;clip-rule:nonzero;display:inline;overflow:visible;opacity:1;isolation:auto;mix-blend-mode:normal;color-interpolation:sRGB;color-interpolation-filters:linearRGB;solid-color:#000;solid-opacity:1;fill:#394655;fill-opacity:1;fill-rule:nonzero;stroke:none;stroke-width:13.42141056;stroke-linecap:butt;stroke-linejoin:miter;stroke-miterlimit:4;stroke-dasharray:none;stroke-dashoffset:0;stroke-opacity:1;color-rendering:auto;image-rendering:auto;shape-rendering:auto;text-rendering:auto" transform="matrix(-.14625 -.29958 -.3881 .2488 415.519 342.18)"/></g></g><path d="M317.63 171.967c-11.92.032-25.277.493-39.17 1.128-10.1.461-20.494 1.033-30.815 1.583-18.276.975-36.35 1.919-52.334 2.337-18.83.492-46.985 9.003-46.985 19.08s1.178 5.961 1.178 5.961l131.649-2.655 138.483-2.792c0-.759-.046-1.767-.046-1.767 0-2.628-4.841-7.803-13.444-11.446-1.632-.691-3.164-1.432-5.081-1.976-13.95-3.958-24.754-4.297-52.903-8.016-8.136-1.075-18.614-1.47-30.533-1.437" style="opacity:1;fill:#363c42;fill-opacity:1;stroke:none;stroke-width:1.87499988;stroke-linecap:round;stroke-miterlimit:4;stroke-dasharray:none;stroke-opacity:1" transform="translate(-130.59 -7.432)"/><path d="M203.294 197.578c-3.995-50.007-1.744-88.45-17.197-141.037C207.03 17.932 344.7 12.3 364.086 54.499c-13.863 17.647-12.325 85.343-9.55 136.299Z" style="opacity:1;fill:#242d36;fill-opacity:1;stroke:none;stroke-width:1.875;stroke-linecap:round;stroke-miterlimit:4;stroke-dasharray:none;stroke-opacity:1" transform="translate(-130.59 -7.432)"/><path d="M298.582 35.955c-5.168 48.04-3.733 114.935-.373 155.718l34.134-1.864c-5.583-36.058-.943-109.073 6.32-144.642-10.285-5.459-27.188-10.371-40.08-9.212" style="opacity:1;fill:#363c42;fill-opacity:1;stroke:none;stroke-width:1.875;stroke-linecap:round;stroke-miterlimit:4;stroke-dasharray:none;stroke-opacity:1" transform="translate(-130.59 -7.432)"/><path d="M247.645 174.678c-18.276.975-36.35 1.919-52.334 2.337-18.83.492-46.985 9.003-46.985 19.08s1.178 5.961 1.178 5.961l131.649-2.655 138.483-2.792c0-.759-.046-1.767-.046-1.767 0-2.628-4.841-7.803-13.444-11.446l-.536 12.997-157.636-1.536z" style="opacity:1;fill:#363c42;fill-opacity:1;stroke:none;stroke-width:1.87499988;stroke-linecap:round;stroke-miterlimit:4;stroke-dasharray:none;stroke-opacity:1" transform="translate(-130.59 -7.432)"/><path d="m247.645 174.678.33 20.179 157.635 1.536.536-12.997c-1.632-.691-3.164-1.432-5.08-1.976-13.95-3.958-24.755-4.297-52.904-8.016-8.136-1.075-18.614-1.47-30.533-1.437-11.918.032-25.276.493-39.17 1.128-10.1.461-20.493 1.033-30.814 1.583" style="opacity:1;fill:#4b5055;fill-opacity:1;stroke:none;stroke-width:1.87499988;stroke-linecap:round;stroke-miterlimit:4;stroke-dasharray:none;stroke-opacity:1" transform="translate(-130.59 -7.432)"/><path d="M205.11 215.093c-35.03-6.327-56.803-4.794-56.803-14.87s28.155-18.587 46.987-19.08c49.847-1.303 120.07-7.404 152.85-4.145 33.879 3.368 50.025 4.805 56.785 8.086 6.76 3.28 22.062 11.39 10.693 16.076-11.37 4.687-53.02 8.909-53.02 8.909s-2.45-7.363-10.458-8.207c-32.802-3.457-103.662-3.486-128.137.821-4.234.745-8.736 4.746-12.138 7.85-2.884 2.632-6.76 4.56-6.76 4.56" style="opacity:1;fill:#242d36;fill-opacity:1;stroke:none;stroke-width:1.87499988;stroke-linecap:round;stroke-miterlimit:4;stroke-dasharray:none;stroke-opacity:1" transform="translate(-130.59 -7.432)"/><path d="m187.947 56.845.522 2.566c33.4-42.146 155.154-36.477 172.59-2.66l1.363-2.079C343.253 18.43 220.68 15.518 187.947 56.845" style="opacity:1;fill:#4b5055;fill-opacity:1;stroke:none;stroke-width:1.875;stroke-linecap:round;stroke-miterlimit:4;stroke-dasharray:none;stroke-opacity:1" transform="translate(-130.59 -7.432)"/><g style="display:inline"><path d="M779.605 21.967h40.789v40.789h-40.789z" style="color:#000;clip-rule:nonzero;display:inline;overflow:visible;opacity:1;isolation:auto;mix-blend-mode:normal;color-interpolation:sRGB;color-interpolation-filters:linearRGB;solid-color:#000;solid-opacity:1;fill:#394655;fill-opacity:1;fill-rule:nonzero;stroke:#000;stroke-width:9.21052647;stroke-linecap:butt;stroke-linejoin:miter;stroke-miterlimit:4;stroke-dasharray:none;stroke-dashoffset:0;stroke-opacity:1;color-rendering:auto;image-rendering:auto;shape-rendering:auto;text-rendering:auto" transform="translate(-173.723 -273.911)"/><path d="M824.605 21.967h40.789v40.789h-40.789z" style="color:#000;clip-rule:nonzero;display:inline;overflow:visible;opacity:1;isolation:auto;mix-blend-mode:normal;color-interpolation:sRGB;color-interpolation-filters:linearRGB;solid-color:#000;solid-opacity:1;fill:#fff;fill-opacity:1;fill-rule:nonzero;stroke:#000;stroke-width:9.21052742;stroke-linecap:butt;stroke-linejoin:miter;stroke-miterlimit:4;stroke-dasharray:none;stroke-dashoffset:0;stroke-opacity:1;color-rendering:auto;image-rendering:auto;shape-rendering:auto;text-rendering:auto" transform="translate(-173.723 -273.911)"/><path d="M779.605 86.967h40.789v40.789h-40.789z" style="color:#000;clip-rule:nonzero;display:inline;overflow:visible;opacity:1;isolation:auto;mix-blend-mode:normal;color-interpolation:sRGB;color-interpolation-filters:linearRGB;solid-color:#000;solid-opacity:1;fill:#bce8ff;fill-opacity:1;fill-rule:nonzero;stroke:#000;stroke-width:9.21052647;stroke-linecap:butt;stroke-linejoin:miter;stroke-miterlimit:4;stroke-dasharray:none;stroke-dashoffset:0;stroke-opacity:1;color-rendering:auto;image-rendering:auto;shape-rendering:auto;text-rendering:auto" transform="translate(-173.723 -273.911)"/><path d="M824.605-127.757h40.789v40.789h-40.789z" style="color:#000;clip-rule:nonzero;display:inline;overflow:visible;opacity:1;isolation:auto;mix-blend-mode:normal;color-interpolation:sRGB;color-interpolation-filters:linearRGB;solid-color:#000;solid-opacity:1;fill:#abccd9;fill-opacity:1;fill-rule:nonzero;stroke:#000;stroke-width:9.21052647;stroke-linecap:butt;stroke-linejoin:miter;stroke-miterlimit:4;stroke-dasharray:none;stroke-dashoffset:0;stroke-opacity:1;color-rendering:auto;image-rendering:auto;shape-rendering:auto;text-rendering:auto" transform="matrix(1 0 0 -1 -173.723 -273.911)"/><path d="M779.605 131.967h40.789v40.789h-40.789z" style="color:#000;clip-rule:nonzero;display:inline;overflow:visible;opacity:1;isolation:auto;mix-blend-mode:normal;color-interpolation:sRGB;color-interpolation-filters:linearRGB;solid-color:#000;solid-opacity:1;fill:#c3b0cb;fill-opacity:1;fill-rule:nonzero;stroke:#000;stroke-width:9.21052647;stroke-linecap:butt;stroke-linejoin:miter;stroke-miterlimit:4;stroke-dasharray:none;stroke-dashoffset:0;stroke-opacity:1;color-rendering:auto;image-rendering:auto;shape-rendering:auto;text-rendering:auto" transform="translate(-173.723 -273.911)"/><path d="M824.605 131.967h40.789v40.789h-40.789z" style="color:#000;clip-rule:nonzero;display:inline;overflow:visible;opacity:1;isolation:auto;mix-blend-mode:normal;color-interpolation:sRGB;color-interpolation-filters:linearRGB;solid-color:#000;solid-opacity:1;fill:#e1d0cb;fill-opacity:1;fill-rule:nonzero;stroke:#000;stroke-width:9.21052647;stroke-linecap:butt;stroke-linejoin:miter;stroke-miterlimit:4;stroke-dasharray:none;stroke-dashoffset:0;stroke-opacity:1;color-rendering:auto;image-rendering:auto;shape-rendering:auto;text-rendering:auto" transform="translate(-173.723 -273.911)"/><path d="M869.605 131.967h40.789v40.789h-40.789z" style="color:#000;clip-rule:nonzero;display:inline;overflow:visible;opacity:1;isolation:auto;mix-blend-mode:normal;color-interpolation:sRGB;color-interpolation-filters:linearRGB;solid-color:#000;solid-opacity:1;fill:#f5c3d2;fill-opacity:1;fill-rule:nonzero;stroke:#000;stroke-width:9.21052647;stroke-linecap:butt;stroke-linejoin:miter;stroke-miterlimit:4;stroke-dasharray:none;stroke-dashoffset:0;stroke-opacity:1;color-rendering:auto;image-rendering:auto;shape-rendering:auto;text-rendering:auto" transform="translate(-173.723 -273.911)"/><path d="M779.605 176.967h40.789v40.789h-40.789z" style="color:#000;clip-rule:nonzero;display:inline;overflow:visible;opacity:1;isolation:auto;mix-blend-mode:normal;color-interpolation:sRGB;color-interpolation-filters:linearRGB;solid-color:#000;solid-opacity:1;fill:#cec4ad;fill-opacity:1;fill-rule:nonzero;stroke:#000;stroke-width:9.21052647;stroke-linecap:butt;stroke-linejoin:miter;stroke-miterlimit:4;stroke-dasharray:none;stroke-dashoffset:0;stroke-opacity:1;color-rendering:auto;image-rendering:auto;shape-rendering:auto;text-rendering:auto" transform="translate(-173.723 -273.911)"/><path d="M869.605-127.757h40.789v40.789h-40.789z" style="color:#000;clip-rule:nonzero;display:inline;overflow:visible;opacity:1;isolation:auto;mix-blend-mode:normal;color-interpolation:sRGB;color-interpolation-filters:linearRGB;solid-color:#000;solid-opacity:1;fill:#96d6ff;fill-opacity:1;fill-rule:nonzero;stroke:#000;stroke-width:9.21052647;stroke-linecap:butt;stroke-linejoin:miter;stroke-miterlimit:4;stroke-dasharray:none;stroke-dashoffset:0;stroke-opacity:1;color-rendering:auto;image-rendering:auto;shape-rendering:auto;text-rendering:auto" transform="matrix(1 0 0 -1 -173.723 -273.911)"/><path d="M824.605 176.967h40.789v40.789h-40.789z" style="color:#000;clip-rule:nonzero;display:inline;overflow:visible;opacity:1;isolation:auto;mix-blend-mode:normal;color-interpolation:sRGB;color-interpolation-filters:linearRGB;solid-color:#000;solid-opacity:1;fill:#f2f2ce;fill-opacity:1;fill-rule:nonzero;stroke:#000;stroke-width:9.21052647;stroke-linecap:butt;stroke-linejoin:miter;stroke-miterlimit:4;stroke-dasharray:none;stroke-dashoffset:0;stroke-opacity:1;color-rendering:auto;image-rendering:auto;shape-rendering:auto;text-rendering:auto" transform="translate(-173.723 -273.911)"/><path d="M779.605-327.757h40.789v40.789h-40.789z" style="color:#000;clip-rule:nonzero;display:inline;overflow:visible;opacity:1;isolation:auto;mix-blend-mode:normal;color-interpolation:sRGB;color-interpolation-filters:linearRGB;solid-color:#000;solid-opacity:1;fill:#24b8eb;fill-opacity:1;fill-rule:nonzero;stroke:#000;stroke-width:9.21052647;stroke-linecap:butt;stroke-linejoin:miter;stroke-miterlimit:4;stroke-dasharray:none;stroke-dashoffset:0;stroke-opacity:1;color-rendering:auto;image-rendering:auto;shape-rendering:auto;text-rendering:auto" transform="matrix(1 0 0 -1 -173.723 -273.911)"/><path d="M824.605 286.967h40.789v40.789h-40.789z" style="color:#000;clip-rule:nonzero;display:inline;overflow:visible;opacity:1;isolation:auto;mix-blend-mode:normal;color-interpolation:sRGB;color-interpolation-filters:linearRGB;solid-color:#000;solid-opacity:1;fill:#8aa9ff;fill-opacity:1;fill-rule:nonzero;stroke:#000;stroke-width:9.21052647;stroke-linecap:butt;stroke-linejoin:miter;stroke-miterlimit:4;stroke-dasharray:none;stroke-dashoffset:0;stroke-opacity:1;color-rendering:auto;image-rendering:auto;shape-rendering:auto;text-rendering:auto" transform="translate(-173.723 -273.911)"/><path d="M779.605 331.967h40.789v40.789h-40.789z" style="color:#000;clip-rule:nonzero;display:inline;overflow:visible;opacity:1;isolation:auto;mix-blend-mode:normal;color-interpolation:sRGB;color-interpolation-filters:linearRGB;solid-color:#000;solid-opacity:1;fill:#d4edf1;fill-opacity:1;fill-rule:nonzero;stroke:#000;stroke-width:9.21052647;stroke-linecap:butt;stroke-linejoin:miter;stroke-miterlimit:4;stroke-dasharray:none;stroke-dashoffset:0;stroke-opacity:1;color-rendering:auto;image-rendering:auto;shape-rendering:auto;text-rendering:auto" transform="translate(-173.723 -273.911)"/><path d="M779.605 241.967h40.789v40.789h-40.789z" style="color:#000;clip-rule:nonzero;display:inline;overflow:visible;opacity:1;isolation:auto;mix-blend-mode:normal;color-interpolation:sRGB;color-interpolation-filters:linearRGB;solid-color:#000;solid-opacity:1;fill:#394d54;fill-opacity:1;fill-rule:nonzero;stroke:#000;stroke-width:9.21052647;stroke-linecap:butt;stroke-linejoin:miter;stroke-miterlimit:4;stroke-dasharray:none;stroke-dashoffset:0;stroke-opacity:1;color-rendering:auto;image-rendering:auto;shape-rendering:auto;text-rendering:auto" transform="translate(-173.723 -273.911)"/><path d="M824.605 331.967h40.789v40.789h-40.789z" style="color:#000;clip-rule:nonzero;display:inline;overflow:visible;opacity:1;isolation:auto;mix-blend-mode:normal;color-interpolation:sRGB;color-interpolation-filters:linearRGB;solid-color:#000;solid-opacity:1;fill:#d6e2ff;fill-opacity:1;fill-rule:nonzero;stroke:#000;stroke-width:9.21052647;stroke-linecap:butt;stroke-linejoin:miter;stroke-miterlimit:4;stroke-dasharray:none;stroke-dashoffset:0;stroke-opacity:1;color-rendering:auto;image-rendering:auto;shape-rendering:auto;text-rendering:auto" transform="translate(-173.723 -273.911)"/></g></svg>