<svg xmlns="http://www.w3.org/2000/svg" width="740.53" height="508.813" viewBox="0 0 694.247 477.012"><g style="display:inline"><g style="display:inline;opacity:1"><path d="M419.84 584.573c-1.11 4.235-3.115 7.142-5.85 9.023-2.733 1.88-6.191 2.76-10.137 3.24-3.945.478-8.373.597-13.053.66s-9.607.027-14.585-.15c-4.979-.175-9.678-.662-13.95-1.444-4.27-.782-8.122-1.835-11.288-3.158-3.165-1.323-5.635-2.923-7.074-4.89-1.439-1.968-1.838-4.3-.941-7.08.896-2.779 2.647-4.652 5.058-5.712s5.478-1.298 8.97-1.047 7.402.982 11.607 1.607 8.715 1.101 13.557.957c4.842-.143 9.822-1.206 14.6-2.186 4.777-.98 9.356-1.805 13.205-1.762s6.938.923 8.725 2.848.05 13.33 1.156 9.094" style="color:#000;clip-rule:nonzero;display:inline;overflow:visible;opacity:1;isolation:auto;mix-blend-mode:normal;color-interpolation:sRGB;color-interpolation-filters:linearRGB;solid-color:#000;solid-opacity:1;fill:#e1d6b9;fill-opacity:1;fill-rule:nonzero;stroke:none;stroke-width:10;stroke-linecap:butt;stroke-linejoin:miter;stroke-miterlimit:4;stroke-dasharray:none;stroke-dashoffset:0;stroke-opacity:1;color-rendering:auto;image-rendering:auto;shape-rendering:auto;text-rendering:auto" transform="matrix(-.36423 .10065 .1965 .4842 479.104 -65.181)"/><path d="M411.667 570.505c-3.645-.32-7.912.035-12.443.673-5.179.73-10.69 1.783-16.256 1.964-5.566.18-10.757-.278-15.64-.874-4.885-.596-9.469-1.263-13.594-1.35-4.126-.089-7.779.412-10.667 1.77-2.888 1.357-5.006 3.55-6.114 6.605-1.107 3.054-.683 5.795.966 8.195s4.516 4.463 8.197 6.211 8.163 3.194 13.122 4.283 10.401 1.796 16.157 2.057c5.756.262 11.242.3 16.338.22 5.097-.08 9.799-.251 13.94-.875a34 34 0 0 0 4.471-.962c2.833-.826 3.606-5.67 1.067-4.353-2.352 1.219-5.13 1.888-8.234 2.279-3.784.476-8.035.605-12.53.676-4.496.071-9.23.04-14.014-.121-4.784-.162-9.297-.62-13.4-1.363-4.101-.743-7.798-1.746-10.836-3.01-3.037-1.264-5.405-2.797-6.784-4.68s-1.759-4.116-.894-6.78 2.549-4.465 4.863-5.49c2.315-1.023 5.253-1.264 8.6-1.039 3.349.226 7.097.91 11.134 1.495s8.371 1.037 13.029.899 9.454-1.15 14.045-2.094c4.592-.944 8.982-1.753 12.668-1.736q.691.002 1.348.044c1.122.07 2.17.205 3.1.477 1.074.314 2.955-2.604-.117-2.943-.499-.055-1.55.198-1.522-.178" style="color:#000;clip-rule:nonzero;display:inline;overflow:visible;opacity:1;isolation:auto;mix-blend-mode:normal;color-interpolation:sRGB;color-interpolation-filters:linearRGB;solid-color:#000;solid-opacity:1;fill:#394655;fill-opacity:1;fill-rule:nonzero;stroke:none;stroke-width:10;stroke-linecap:butt;stroke-linejoin:miter;stroke-miterlimit:4;stroke-dasharray:none;stroke-dashoffset:0;stroke-opacity:1;color-rendering:auto;image-rendering:auto;shape-rendering:auto;text-rendering:auto" transform="matrix(-.36423 .10065 .1965 .4842 479.104 -65.181)"/></g><g style="display:inline;opacity:1"><path d="M390.548 587.64c.446 4.164.248 6.978-1.396 8.828s-4.63 2.692-7.964 3.011c-3.334.32-6.787.208-10.431.047s-7.771-.433-13.73-.626c-5.96-.194-6.765-.274-13.458-1.012-6.692-.738-12.46-1.67-17.238-2.847-4.777-1.176-8.608-2.627-11.427-4.609s-4.676-4.515-4.743-7.659c-.066-3.144 1.695-5.355 4.427-6.762s6.468-1.993 11.128-1.95 10.288.74 17.002 1.523 9.992 1.447 14.33 2.069 6.59.584 9.377.341c2.785-.242 6.98-.86 11.076-1.038 4.097-.179 7.398.264 9.511 1.946s4.139 14.295 3.536 8.738" style="color:#000;clip-rule:nonzero;display:inline;overflow:visible;opacity:1;isolation:auto;mix-blend-mode:normal;color-interpolation:sRGB;color-interpolation-filters:linearRGB;solid-color:#000;solid-opacity:1;fill:#e1d6b9;fill-opacity:1;fill-rule:nonzero;stroke:none;stroke-width:10;stroke-linecap:butt;stroke-linejoin:miter;stroke-miterlimit:4;stroke-dasharray:none;stroke-dashoffset:0;stroke-opacity:1;color-rendering:auto;image-rendering:auto;shape-rendering:auto;text-rendering:auto" transform="matrix(-.35203 -.26102 .41482 -.44179 330.25 723.954)"/><path d="M379.748 574.62c-3.725-.01-8.156.463-11.346.636-3.645.198-5.723.082-10.257-.667-4.533-.75-9.24-1.514-16.798-2.219-7.56-.705-13.863-1.22-19.092-.951-5.23.268-9.43 1.288-12.484 3.139s-4.984 4.506-4.995 7.97 1.942 6.369 5.02 8.712 7.333 4.146 12.72 5.635c5.386 1.489 11.957 2.703 19.582 3.658 7.626.955 9.521 1.19 16.452 1.345 6.93.155 11.399.366 15.513.436 4.114.069 8.19.044 11.84-.532 1.388-.219 2.676-.53 3.822-.945 2.313-.84-1.803-5.031-3.509-3.79-1.58 1.152-3.952 1.08-6.511 1.286-3.119.251-6.638-.158-9.882-.368s-6.338.546-11.29.352c-4.953-.193-4.503-.186-10.814-.89-6.312-.703-11.98-1.653-16.738-2.827s-8.627-2.598-11.397-4.463c-2.771-1.866-4.471-4.189-4.51-6.962-.037-2.774 1.593-4.641 4.168-5.707s7.344.016 11.773.33c4.429.315 10.408.568 16.58 1.264 6.173.695 5.517.345 9.477.5s6.261-.41 8.907-.915 6.413-1.031 10.262-1.153c.481-.015.959-.024 1.425-.021 1.198.006 2.342.053 3.355.238 1.169.214 3.423-3.027.28-3.054-.51-.004-1.685.346-1.553-.037" style="color:#000;clip-rule:nonzero;display:inline;overflow:visible;opacity:1;isolation:auto;mix-blend-mode:normal;color-interpolation:sRGB;color-interpolation-filters:linearRGB;solid-color:#000;solid-opacity:1;fill:#394655;fill-opacity:1;fill-rule:nonzero;stroke:none;stroke-width:10;stroke-linecap:butt;stroke-linejoin:miter;stroke-miterlimit:4;stroke-dasharray:none;stroke-dashoffset:0;stroke-opacity:1;color-rendering:auto;image-rendering:auto;shape-rendering:auto;text-rendering:auto" transform="matrix(-.35203 -.26102 .41482 -.44179 330.25 723.954)"/></g></g><g style="display:inline;opacity:1;stroke-width:2;stroke-miterlimit:4;stroke-dasharray:none"><path d="M263.928 669.817c3.53 10.347 31.277-3.034 24.748-10.253-6.765-7.48-10.741-11.656-11.49-25.632l-21.567 3.889c2.192 12.077 4.992 22.277 8.309 31.996" style="display:inline;fill:#70321c;fill-opacity:1;fill-rule:evenodd;stroke:none;stroke-width:2;stroke-linecap:butt;stroke-linejoin:miter;stroke-miterlimit:4;stroke-dasharray:none;stroke-opacity:1" transform="rotate(-81.152 129.149 365.258)"/><path d="M255.522 636.312c4.335 10.653 6.728 23.823 11.819 33.913 5.498.85 15.29.043 19.556-8.712-3.957-4.288-8.357-8.733-9.717-14.72-.96-4.225-1.563-12.611-.819-16.943z" style="display:inline;fill:#f9c683;fill-opacity:1;fill-rule:evenodd;stroke:none;stroke-width:2;stroke-linecap:butt;stroke-linejoin:miter;stroke-miterlimit:4;stroke-dasharray:none;stroke-opacity:1" transform="rotate(-81.152 129.149 365.258)"/></g><path d="m474.78 548.209 203.688-24.972a6.03 6.03 0 0 1 6.76 5.358 6.23 6.23 0 0 1-5.43 6.853l-203.69 24.972a6.03 6.03 0 0 1-6.76-5.358 6.23 6.23 0 0 1 5.43-6.853" style="color:#000;clip-rule:nonzero;display:inline;overflow:visible;opacity:1;isolation:auto;mix-blend-mode:normal;color-interpolation:sRGB;color-interpolation-filters:linearRGB;solid-color:#000;solid-opacity:1;fill:#70321c;fill-opacity:1;fill-rule:nonzero;stroke:none;stroke-width:10;stroke-linecap:round;stroke-linejoin:miter;stroke-miterlimit:4;stroke-dasharray:none;stroke-dashoffset:0;stroke-opacity:1;color-rendering:auto;image-rendering:auto;shape-rendering:auto;text-rendering:auto" transform="translate(-8.736 -301.708)"/><path d="M628.167 532.132c-51.431 6.401-102.953 12.417-154.325 19.083-3.625 1.88-.977 8.426 3.124 6.281 67.936-8.233 135.919-16.397 203.777-25.077 3.55-1.697 1.07-8.153-2.86-6.358z" style="color:#000;clip-rule:nonzero;display:inline;overflow:visible;opacity:1;isolation:auto;mix-blend-mode:normal;color-interpolation:sRGB;color-interpolation-filters:linearRGB;solid-color:#000;solid-opacity:1;fill:#f9c683;fill-opacity:1;fill-rule:nonzero;stroke:none;stroke-width:10;stroke-linecap:round;stroke-linejoin:miter;stroke-miterlimit:4;stroke-dasharray:none;stroke-dashoffset:0;stroke-opacity:1;color-rendering:auto;image-rendering:auto;shape-rendering:auto;text-rendering:auto" transform="translate(-8.736 -301.708)"/><path d="M554.828 403.174s14.296 21.159 15.961 33.564c1.594 11.87-6.065 37.585-6.065 37.585s14.296 21.158 15.961 33.563c1.594 11.87-6.064 37.586-6.064 37.586s14.295 21.158 15.96 33.563c1.594 11.87-6.064 37.585-6.064 37.585s14.295 21.159 15.96 33.564c1.594 11.87-6.064 37.585-6.064 37.585s94.72-42.433 77.685-158.279-117.27-126.316-117.27-126.316" style="fill:#70321c;fill-opacity:1;fill-rule:evenodd;stroke:none;stroke-width:1px;stroke-linecap:butt;stroke-linejoin:miter;stroke-opacity:1" transform="translate(-8.736 -301.708)"/><path d="M562.158 409.061c7.18 11.63 14.139 25 11.507 39.128-1.06 8.77-3.508 17.286-5.31 25.916 8.198 13.407 18.081 28.256 15.259 44.795-1.018 8.925-3.542 17.579-5.363 26.353 8.112 13.317 17.967 28.005 15.298 44.422-.982 9.056-3.558 17.83-5.401 26.726 8.012 13.202 17.826 27.706 15.32 43.967-.714 7.173-2.366 14.21-4.116 21.189 39.823-22.74 68.277-65.688 71.012-111.641 2.734-36.666-5.339-74.807-25.48-106-19.158-28.633-49.822-49.245-83.642-56.41z" style="fill:#f9c683;fill-opacity:1;fill-rule:evenodd;stroke:none;stroke-width:1px;stroke-linecap:butt;stroke-linejoin:miter;stroke-opacity:1" transform="translate(-8.736 -301.708)"/><path d="M577.734 470.025c-3.79.359-7.723.894-11.806 1.621l.696 3.907c42.476-7.57 67.28 6.004 81.815 21.373 11.788 12.465 16.621 25.965 18.05 30.682-2.11.624-5.426 1.53-9.615 2.544-6.38 1.544-14.74 3.403-23.949 5.227-18.417 3.647-40.262 7.15-56.374 7.76l.149 3.964c16.548-.626 38.467-4.163 56.995-7.832 9.263-1.835 17.67-3.704 24.113-5.263 4.008-.97 7.043-1.752 9.296-2.412-.737 4.831-3.385 17.9-12.066 32.748-10.947 18.721-31.315 39.894-69.648 49.792l.992 3.841c39.335-10.156 60.704-32.174 72.08-51.63s12.877-36.499 12.877-36.499l-1.359-.12-.371-.856 1.28-.301s-4.27-18.194-19.569-34.37c-13.386-14.155-35.376-26.75-69.845-24.477q-1.846.12-3.741.3" style="color:#000;font-style:normal;font-variant:normal;font-weight:400;font-stretch:normal;font-size:medium;line-height:normal;font-family:sans-serif;text-indent:0;text-align:start;text-decoration:none;text-decoration-line:none;text-decoration-style:solid;text-decoration-color:#000;letter-spacing:normal;word-spacing:normal;text-transform:none;direction:ltr;block-progression:tb;writing-mode:lr-tb;baseline-shift:baseline;text-anchor:start;white-space:normal;clip-rule:nonzero;display:inline;overflow:visible;opacity:1;isolation:auto;mix-blend-mode:normal;color-interpolation:sRGB;color-interpolation-filters:linearRGB;solid-color:#000;solid-opacity:1;fill:#70321c;fill-opacity:1;fill-rule:evenodd;stroke:none;stroke-width:5;stroke-linecap:butt;stroke-linejoin:miter;stroke-miterlimit:4;stroke-dasharray:none;stroke-dashoffset:0;stroke-opacity:1;color-rendering:auto;image-rendering:auto;shape-rendering:auto;text-rendering:auto" transform="translate(-8.736 -301.708)"/><g style="display:inline;opacity:1"><g style="display:inline;opacity:1"><path d="M764.985 385.252c10.847 7.719 31.362 10.927 44.315 15.173 12.954 4.245 18.242 9.442 22.316 13.54s6.135 7.315 4.967 9.75c-1.167 2.435-5.465 4.065-13.924 4.88-8.459.817-15.938.096-23.095-1.789s-13.911-4.96-21.83-8.715c-7.92-3.754-17.322-8.045-25.71-14.092-8.386-6.048-17.328-13.637-22.536-23.592s-5.1-20.733-4.398-30.01c.701-9.277 1.997-17.118 3.305-23.221 1.307-6.104 2.842-10.56 4.908-13.546s4.658-4.521 7.726-4.521 5.709 1.835 7.598 5.474 2.94 9.148 2.978 16.484-1.216 16.593-.59 26.366c.627 9.772 3.122 20.101 13.97 27.82" style="color:#000;clip-rule:nonzero;display:inline;overflow:visible;opacity:1;isolation:auto;mix-blend-mode:normal;color-interpolation:sRGB;color-interpolation-filters:linearRGB;solid-color:#000;solid-opacity:1;fill:#394655;fill-opacity:1;fill-rule:nonzero;stroke:none;stroke-width:10;stroke-linecap:butt;stroke-linejoin:miter;stroke-miterlimit:4;stroke-dasharray:none;stroke-dashoffset:0;stroke-opacity:1;color-rendering:auto;image-rendering:auto;shape-rendering:auto;text-rendering:auto" transform="matrix(-.16723 -.30781 -.7089 .3597 638.865 479.898)"/><path d="M758.571 385.602c8.116 7.016 23 10.982 36.471 14.444s21.766 7.513 26.488 11.361c4.721 3.848 7.201 7.103 7.109 9.474s-2.986 3.93-9.905 4.618-13.15-.202-19.255-2.218c-6.106-2.017-12.111-5.154-19.73-8.743-7.617-3.588-16.907-7.584-24.846-13.088-7.94-5.503-15.533-12.393-20.344-20.745-4.81-8.351-5.436-17.283-5.149-25.163s1.41-14.723 2.476-20.124 2.218-9.416 3.621-12.09c1.403-2.675 3.082-4.028 5.062-3.977s3.55 1.824 4.52 5.191 1.26 8.376 1.077 14.797-.947 14.303.087 22.534c1.034 8.232 4.203 16.713 12.318 23.729" style="color:#000;clip-rule:nonzero;display:inline;overflow:visible;opacity:1;isolation:auto;mix-blend-mode:normal;color-interpolation:sRGB;color-interpolation-filters:linearRGB;solid-color:#000;solid-opacity:1;fill:#e1d6b9;fill-opacity:1;fill-rule:nonzero;stroke:none;stroke-width:10;stroke-linecap:butt;stroke-linejoin:miter;stroke-miterlimit:4;stroke-dasharray:none;stroke-dashoffset:0;stroke-opacity:1;color-rendering:auto;image-rendering:auto;shape-rendering:auto;text-rendering:auto" transform="matrix(-.16723 -.30781 -.7089 .3597 638.865 479.898)"/></g><g style="opacity:1"><path d="M-626.547 402.353c2.228 10.863.345 21.826-3.867 31.425-4.213 9.6-10.552 17.861-17.721 24.3s-15.255 11.106-24.572 13.614c-9.317 2.507-20.95 4.469-31.639 1.984s-18.069-9.229-24.094-15.893-12.359-14.476-22.965-22.068-20.865-15.599-25.161-23.378c-4.297-7.78-7.008-15.67-7.816-23.39-.807-7.722.36-14.56 3.123-20.545s7.126-11.121 12.786-15.41 12.617-7.736 20.642-10.242 17.112-4.076 27.14-4.415c10.026-.34 20.065.594 29.76 2.875s19.056 5.92 27.478 11.023 15.893 11.692 21.605 19.629c5.711 7.936 13.074 19.628 15.301 30.49" style="color:#000;clip-rule:nonzero;display:inline;overflow:visible;opacity:1;isolation:auto;mix-blend-mode:normal;color-interpolation:sRGB;color-interpolation-filters:linearRGB;solid-color:#000;solid-opacity:1;fill:#96d6ff;fill-opacity:1;fill-rule:nonzero;stroke:none;stroke-width:10;stroke-linecap:butt;stroke-linejoin:miter;stroke-miterlimit:4;stroke-dasharray:none;stroke-dashoffset:0;stroke-opacity:1;color-rendering:auto;image-rendering:auto;shape-rendering:auto;text-rendering:auto" transform="matrix(-.26814 .16344 .18453 .22842 47.229 96.688)"/><path d="M-784.214 457.34a8 8 0 0 0-1.556.335 5.6 5.6 0 0 0-1.635.827c-.451.342-.802.747-1.028 1.22a3.1 3.1 0 0 0-.274 1.62c.052.609.252 1.233.58 1.849.326.616.989 1.252 1.835 1.841.845.59 1.356 1.206 1.825 1.729.467.521 1.135.854 2.024.927.103.008.124-.305.035-.329-.781-.203-1.259-.72-1.719-1.11-.425-.467-.872-1.015-1.621-1.547s-1.473-1.093-1.777-1.639-.497-1.1-.555-1.642a2.7 2.7 0 0 1 .22-1.443c.194-.421.502-.784.901-1.087.4-.302.89-.545 1.458-.723a7 7 0 0 1 .907-.215q.48-.08 1.012-.102a8 8 0 0 1 2.1.2 6.7 6.7 0 0 1 1.939.772c.593.359 1.119.82 1.52 1.377.403.557.922 1.375 1.08 2.137.13.625.073 1.258-.133 1.834-.038.107.498.294.628-.012.243-.57.234-1.24.103-1.874-.179-.856-.69-1.769-1.137-2.4a5.7 5.7 0 0 0-1.689-1.553 7.1 7.1 0 0 0-2.143-.85 8.6 8.6 0 0 0-2.9-.143z" style="color:#000;clip-rule:nonzero;display:inline;overflow:visible;opacity:1;isolation:auto;mix-blend-mode:normal;color-interpolation:sRGB;color-interpolation-filters:linearRGB;solid-color:#000;solid-opacity:1;fill:#394655;fill-opacity:1;fill-rule:nonzero;stroke:none;stroke-width:10;stroke-linecap:butt;stroke-linejoin:miter;stroke-miterlimit:4;stroke-dasharray:none;stroke-dashoffset:0;stroke-opacity:1;color-rendering:auto;image-rendering:auto;shape-rendering:auto;text-rendering:auto" transform="matrix(-3.71397 2.26385 2.55595 3.1638 -3777.33 382.021)"/><path d="M-753.772 413.022c-.136-2.619 2.18-4.948 7.22-6.2 7.654-1.903 20.038 1.845 27.938 5.67 4.333 2.1 8.89 3.892 12.666 7.195 1.282 1.121 2.518 2.283 3.368 4.409-1.658.577-4.104-.922-5.872-2.13-6.968-4.766-14.695-8.09-22.677-9.127-6.716-.872-8.87-3.11-14.756-2.562-3.726.347-4.906 2.139-7.887 2.745" style="color:#000;clip-rule:nonzero;display:inline;overflow:visible;opacity:1;isolation:auto;mix-blend-mode:normal;color-interpolation:sRGB;color-interpolation-filters:linearRGB;solid-color:#000;solid-opacity:1;fill:#394655;fill-opacity:1;fill-rule:nonzero;stroke:none;stroke-width:10;stroke-linecap:butt;stroke-linejoin:miter;stroke-miterlimit:4;stroke-dasharray:none;stroke-dashoffset:0;stroke-opacity:1;color-rendering:auto;image-rendering:auto;shape-rendering:auto;text-rendering:auto" transform="matrix(-.26814 .16344 .18453 .22842 47.229 96.688)"/><path d="M-720.17 411.684c.285-2.325.87 3.903-.319 5.46-4.46 5.84-8.203 12.32-12.42 18.365-1.374 1.968-3.295.041-2.428-2.1.881-2.173 2.06-3.998 3.35-5.814 1.207-1.702 2.813-3.058 3.888-4.86 2.066-3.463 2.395-6.629 4.254-10.24.637-1.237 3.522.426 3.674-.808z" style="color:#000;clip-rule:nonzero;display:inline;overflow:visible;opacity:1;isolation:auto;mix-blend-mode:normal;color-interpolation:sRGB;color-interpolation-filters:linearRGB;solid-color:#000;solid-opacity:1;fill:#394655;fill-opacity:1;fill-rule:nonzero;stroke:none;stroke-width:10;stroke-linecap:butt;stroke-linejoin:miter;stroke-miterlimit:4;stroke-dasharray:none;stroke-dashoffset:0;stroke-opacity:1;color-rendering:auto;image-rendering:auto;shape-rendering:auto;text-rendering:auto" transform="matrix(-.26814 .16344 .18453 .22842 47.229 96.688)"/></g><path d="M185.632 425.096c37.53-25.54 85.463-49.77 129.944-42.17 38.878 6.644 69.93 39.12 90.473 69.582 39.185 58.1 69.499 132.505 53.323 204.996-4.367 19.57-21.667 35.508-38.701 46.633-34.304 22.404-77.135 35.874-117.757 36.294-25.302.262-55.15-3.47-71.608-22.162-19.028-21.61-2.955-60.651-15.467-85.117-15.445-30.202-58.45-40.63-71.057-72.232-10.438-26.165-9.554-58.698.553-86.504 7.147-19.662 22.597-37.276 40.297-49.32" style="display:inline;fill:#394655;fill-rule:evenodd;stroke:none;stroke-width:1px;stroke-linecap:butt;stroke-linejoin:miter;stroke-opacity:1" transform="translate(-8.736 -301.708)"/><path d="M289.842 386.242c-38.675 3.667-73.953 23.35-105.126 45.284-21.321 15.001-36.107 38.29-40.613 63.001-4.505 24.702-4.533 51.252 8.175 71.924 15.5 25.213 48.348 33.762 64.313 58.895 9.483 14.928 7.909 34.45 7.805 52.852-.08 14.036 2.031 29.957 13.195 39.427 16.107 13.662 38.42 16.675 59.074 17.232 45.095 1.217 91.469-13.403 128.273-39.976 14.065-10.155 26.448-24.123 29.832-41.573 9.06-46.71.106-92.528-16.848-133.044-11.919-28.482-27.145-55.473-46.406-80.329-16.511-21.306-37.916-41.291-65.594-50.136-11.515-3.68-23.863-4.716-36.08-3.557" style="display:inline;fill:#96d6ff;fill-rule:evenodd;stroke:none;stroke-width:1px;stroke-linecap:butt;stroke-linejoin:miter;stroke-opacity:1" transform="translate(-8.736 -301.708)"/><g style="display:inline;opacity:1"><path d="M381.043 586.683c.382 4.157.195 6.972-1.274 8.84s-4.127 2.742-7.094 3.099c-2.966.356-6.037.283-9.278.162-3.24-.12-6.91-.346-12.21-.473-5.299-.126-6.015-.198-11.965-.86-5.95-.664-11.077-1.532-15.321-2.655-4.245-1.122-7.646-2.53-10.146-4.48s-4.143-4.46-4.19-7.603 1.526-5.372 3.961-6.81c2.435-1.436 5.76-2.063 9.905-2.071s9.147.624 15.116 1.332 8.881 1.335 12.737 1.908 5.86.51 8.34.237c2.478-.273 6.21-.937 9.855-1.161 3.644-.224 6.579.182 8.452 1.84 1.873 1.657 3.628 14.242 3.112 8.695" style="color:#000;clip-rule:nonzero;display:inline;overflow:visible;opacity:1;isolation:auto;mix-blend-mode:normal;color-interpolation:sRGB;color-interpolation-filters:linearRGB;solid-color:#000;solid-opacity:1;fill:#e1d6b9;fill-opacity:1;fill-rule:nonzero;stroke:none;stroke-width:10;stroke-linecap:butt;stroke-linejoin:miter;stroke-miterlimit:4;stroke-dasharray:none;stroke-dashoffset:0;stroke-opacity:1;color-rendering:auto;image-rendering:auto;shape-rendering:auto;text-rendering:auto" transform="matrix(-.06103 -.43397 .60584 -.01442 -30.753 599.957)"/><path d="M371.486 573.787c-3.314.031-7.256.555-10.094.763-3.243.239-5.09.146-9.12-.553-4.03-.698-8.212-1.41-14.933-2.03-6.72-.621-12.325-1.066-16.977-.74s-8.391 1.394-11.115 3.278-4.449 4.56-4.471 8.023 1.703 6.345 4.432 8.653 6.507 4.063 11.293 5.491 10.624 2.57 17.403 3.439c6.78.87 8.464 1.083 14.628 1.16 6.163.079 10.137.24 13.795.263 3.66.024 7.285-.046 10.533-.662 1.235-.235 2.383-.56 3.403-.988 2.06-.866-1.586-5.01-3.107-3.749-1.41 1.169-3.52 1.123-5.796 1.357-2.774.286-5.903-.083-8.788-.257-2.884-.174-5.638.616-10.042.478-4.405-.139-4.005-.136-9.615-.769s-10.649-1.52-14.876-2.64-7.664-2.501-10.121-4.335-3.962-4.137-3.985-6.91c-.023-2.771 1.434-4.656 3.728-5.75s6.531-.067 10.47.199c3.937.265 9.254.452 14.741 1.078 5.488.626 4.905.284 8.427.395 3.523.11 5.57-.48 7.926-1.014 2.355-.535 5.707-1.102 9.13-1.267q.645-.031 1.268-.037c1.066-.007 2.083.026 2.984.2 1.038.201 3.055-3.064.26-3.056-.454.002-1.5.365-1.381-.02" style="color:#000;clip-rule:nonzero;display:inline;overflow:visible;opacity:1;isolation:auto;mix-blend-mode:normal;color-interpolation:sRGB;color-interpolation-filters:linearRGB;solid-color:#000;solid-opacity:1;fill:#394655;fill-opacity:1;fill-rule:nonzero;stroke:none;stroke-width:10;stroke-linecap:butt;stroke-linejoin:miter;stroke-miterlimit:4;stroke-dasharray:none;stroke-dashoffset:0;stroke-opacity:1;color-rendering:auto;image-rendering:auto;shape-rendering:auto;text-rendering:auto" transform="matrix(-.06103 -.43397 .60584 -.01442 -30.753 599.957)"/></g></g><g style="display:inline"><g transform="rotate(165.709 226.768 12.418)scale(.55412 -.55412)"><path d="M547.428 318.165c-.44 14.771-4.13 29.026-10.39 42.252s-15.092 25.427-25.805 35.997-23.304 19.508-37.118 26.09-28.851 10.803-44.502 11.862c-15.65 1.059-30.44-1.159-43.818-6.168s-25.34-12.807-35.3-22.804c-9.961-9.997-17.917-22.19-23.266-35.908-5.35-13.718-8.092-28.96-7.642-44.981s4.044-31.294 10.142-45.079 14.696-26.082 25.17-36.257c10.473-10.176 22.822-18.23 36.461-23.662 13.64-5.43 28.572-8.243 44.23-8.025a121.4 121.4 0 0 1 44.11 8.941c13.548 5.515 25.74 13.338 35.925 22.915s18.362 20.914 23.877 33.533 8.366 26.522 7.926 41.294" style="color:#000;clip-rule:nonzero;display:inline;overflow:visible;opacity:1;isolation:auto;mix-blend-mode:normal;color-interpolation:sRGB;color-interpolation-filters:linearRGB;solid-color:#000;solid-opacity:1;fill:#394655;fill-opacity:1;fill-rule:nonzero;stroke:none;stroke-width:2;stroke-linecap:butt;stroke-linejoin:miter;stroke-miterlimit:4;stroke-dasharray:none;stroke-dashoffset:0;stroke-opacity:1;color-rendering:auto;image-rendering:auto;shape-rendering:auto;text-rendering:auto"/><path d="M539.722 314.79c.001 13.9-3.015 27.538-8.513 40.353-5.498 12.814-13.48 24.805-23.377 35.252s-21.705 19.342-34.785 25.879-27.425 10.712-42.377 11.767-29.091-1.113-41.86-5.931c-12.767-4.819-24.168-12.288-33.665-21.791s-17.09-21.043-22.232-33.955c-5.143-12.912-7.833-27.195-7.523-42.136.31-14.94 3.59-29.108 9.23-41.858a105.9 105.9 0 0 1 23.396-33.471c9.759-9.39 21.278-16.839 34.003-21.942s26.66-7.868 41.286-7.943c14.624-.075 28.559 2.532 41.26 7.244 12.702 4.712 24.168 11.534 33.816 20.036s17.479 18.69 22.901 30.213 8.439 24.383 8.44 38.283" style="color:#000;clip-rule:nonzero;display:inline;overflow:visible;opacity:1;isolation:auto;mix-blend-mode:normal;color-interpolation:sRGB;color-interpolation-filters:linearRGB;solid-color:#000;solid-opacity:1;fill:#fff;fill-opacity:1;fill-rule:nonzero;stroke:none;stroke-width:2;stroke-linecap:butt;stroke-linejoin:miter;stroke-miterlimit:4;stroke-dasharray:none;stroke-dashoffset:0;stroke-opacity:1;color-rendering:auto;image-rendering:auto;shape-rendering:auto;text-rendering:auto"/><circle cx="379.891" cy="316.663" r="30.81" style="color:#000;clip-rule:nonzero;display:inline;overflow:visible;opacity:1;isolation:auto;mix-blend-mode:normal;color-interpolation:sRGB;color-interpolation-filters:linearRGB;solid-color:#000;solid-opacity:1;fill:#394655;fill-opacity:1;fill-rule:nonzero;stroke:none;stroke-width:2;stroke-linecap:butt;stroke-linejoin:miter;stroke-miterlimit:4;stroke-dasharray:none;stroke-dashoffset:0;stroke-opacity:1;color-rendering:auto;image-rendering:auto;shape-rendering:auto;text-rendering:auto"/><circle cx="366.254" cy="302.521" r="15.152" style="color:#000;clip-rule:nonzero;display:inline;overflow:visible;opacity:1;isolation:auto;mix-blend-mode:normal;color-interpolation:sRGB;color-interpolation-filters:linearRGB;solid-color:#000;solid-opacity:1;fill:#fff;fill-opacity:1;fill-rule:nonzero;stroke:none;stroke-width:2;stroke-linecap:butt;stroke-linejoin:miter;stroke-miterlimit:4;stroke-dasharray:none;stroke-dashoffset:0;stroke-opacity:1;color-rendering:auto;image-rendering:auto;shape-rendering:auto;text-rendering:auto"/></g><g transform="rotate(23.693 90.197 1559.051)scale(-.473 .473)"><path d="M538.929 321.352c-5.655 11.56-14.403 22.145-24.434 32.102-10.03 9.956-21.254 19.398-32.29 28.403-11.038 9.005-21.887 17.56-32.389 24.53-10.5 6.97-20.721 12.264-31.097 14.545-10.375 2.28-20.012 1.309-29.008-2.423s-20.694-7.481-27.985-15.91c-7.29-8.43-13.376-18.823-17.484-30.53-4.107-11.706-6.232-24.736-5.54-38.532.691-13.797 4.15-27.062 10.077-39.192s14.32-23.115 24.686-32.323 27.755-18.518 41.38-23.63c13.623-5.11 28.545-7.905 43.863-7.936s29.558 2.694 41.87 7.55c12.314 4.857 22.697 11.854 30.359 20.35s12.596 18.495 14.105 29.242-.458 22.195-6.113 33.754" style="color:#000;clip-rule:nonzero;display:inline;overflow:visible;opacity:1;isolation:auto;mix-blend-mode:normal;color-interpolation:sRGB;color-interpolation-filters:linearRGB;solid-color:#000;solid-opacity:1;fill:#394655;fill-opacity:1;fill-rule:nonzero;stroke:none;stroke-width:2;stroke-linecap:butt;stroke-linejoin:miter;stroke-miterlimit:4;stroke-dasharray:none;stroke-dashoffset:0;stroke-opacity:1;color-rendering:auto;image-rendering:auto;shape-rendering:auto;text-rendering:auto"/><path d="M532.964 319.748c-4.872 10.838-12.494 21.06-21.554 30.717s-19.53 18.79-30.207 27.212c-10.678 8.422-21.524 16.137-31.994 22.32-10.471 6.183-20.6 10.784-30.596 12.74-9.997 1.955-19.02 1.048-27.285-2.345-8.267-3.393-19.253-6.653-25.715-14.345s-11.763-17.214-15.243-27.974-5.133-22.763-4.21-35.467a94.7 94.7 0 0 1 10.009-36.062c5.66-11.148 13.55-21.232 23.228-29.687s26.261-17.174 38.9-21.88c12.64-4.706 26.447-7.303 40.58-7.394s27.228 2.322 38.511 6.654 20.752 10.588 27.729 18.196c6.976 7.608 11.455 16.566 12.897 26.29 1.443 9.726-.177 20.187-5.05 31.025" style="color:#000;clip-rule:nonzero;display:inline;overflow:visible;opacity:1;isolation:auto;mix-blend-mode:normal;color-interpolation:sRGB;color-interpolation-filters:linearRGB;solid-color:#000;solid-opacity:1;fill:#fff;fill-opacity:1;fill-rule:nonzero;stroke:none;stroke-width:2;stroke-linecap:butt;stroke-linejoin:miter;stroke-miterlimit:4;stroke-dasharray:none;stroke-dashoffset:0;stroke-opacity:1;color-rendering:auto;image-rendering:auto;shape-rendering:auto;text-rendering:auto"/><ellipse cx="483.642" cy="112.72" rx="21.856" ry="27.178" style="color:#000;clip-rule:nonzero;display:inline;overflow:visible;opacity:1;isolation:auto;mix-blend-mode:normal;color-interpolation:sRGB;color-interpolation-filters:linearRGB;solid-color:#000;solid-opacity:1;fill:#394655;fill-opacity:1;fill-rule:nonzero;stroke:none;stroke-width:2;stroke-linecap:butt;stroke-linejoin:miter;stroke-miterlimit:4;stroke-dasharray:none;stroke-dashoffset:0;stroke-opacity:1;color-rendering:auto;image-rendering:auto;shape-rendering:auto;text-rendering:auto" transform="matrix(.93072 .36573 -.50716 .86185 0 0)"/><ellipse cx="477.761" cy="99.629" rx="10.749" ry="13.366" style="color:#000;clip-rule:nonzero;display:inline;overflow:visible;opacity:1;isolation:auto;mix-blend-mode:normal;color-interpolation:sRGB;color-interpolation-filters:linearRGB;solid-color:#000;solid-opacity:1;fill:#fff;fill-opacity:1;fill-rule:nonzero;stroke:none;stroke-width:2;stroke-linecap:butt;stroke-linejoin:miter;stroke-miterlimit:4;stroke-dasharray:none;stroke-dashoffset:0;stroke-opacity:1;color-rendering:auto;image-rendering:auto;shape-rendering:auto;text-rendering:auto" transform="matrix(.93072 .36573 -.50716 .86185 0 0)"/></g><path d="m508.86 380.245-9.638 1.137-5.639.465c-1.798.148-3.308 1.167-4.34 2.545-1.034 1.377-1.425 3.176-1.498 5.102l-.41 10.901-1.003 11.003c-.18 1.982.51 3.64 1.583 4.786 1.072 1.147 2.59 1.706 4.297 1.568l5.69-.46 11.2-1.438a8.95 8.95 0 0 0 5.393-2.762 7.45 7.45 0 0 0 1.991-5.203l-.139-10.8-.323-10.762c-.057-1.916-1.085-3.53-2.406-4.624-1.32-1.094-3.02-1.651-4.757-1.458" style="color:#000;clip-rule:nonzero;display:inline;overflow:visible;opacity:1;isolation:auto;mix-blend-mode:normal;color-interpolation:sRGB;color-interpolation-filters:linearRGB;solid-color:#000;solid-opacity:1;fill:#2e3436;fill-opacity:1;fill-rule:nonzero;stroke:none;stroke-width:10;stroke-linecap:butt;stroke-linejoin:miter;stroke-miterlimit:4;stroke-dasharray:none;stroke-dashoffset:0;stroke-opacity:1;color-rendering:auto;image-rendering:auto;shape-rendering:auto;text-rendering:auto" transform="rotate(-24.95 337.324 32.46)scale(.55412)"/><path d="m507.44 383.68-7.867.932-3.768.24c-1.431.09-2.672.947-3.554 2.079-.882 1.131-1.31 2.616-1.417 4.2l-.6 8.94-.979 9.004c-.175 1.608.315 2.987 1.162 3.927.846.94 2.084 1.366 3.503 1.274l3.87-.25 8.9-1.129c1.686-.214 3.223-1.061 4.322-2.237a6.44 6.44 0 0 0 1.759-4.269l.19-8.862.04-8.836c.007-1.574-.742-2.907-1.766-3.81-1.023-.901-2.376-1.37-3.796-1.202" style="color:#000;clip-rule:nonzero;display:inline;overflow:visible;opacity:1;isolation:auto;mix-blend-mode:normal;color-interpolation:sRGB;color-interpolation-filters:linearRGB;solid-color:#000;solid-opacity:1;fill:#fff;fill-opacity:1;fill-rule:nonzero;stroke:none;stroke-width:10;stroke-linecap:butt;stroke-linejoin:miter;stroke-miterlimit:4;stroke-dasharray:none;stroke-dashoffset:0;stroke-opacity:1;color-rendering:auto;image-rendering:auto;shape-rendering:auto;text-rendering:auto" transform="rotate(-24.95 337.324 32.46)scale(.55412)"/><path d="M455.673 370.082c.27 3.462 2.403 6.594 5.434 9.414s7.218 5.32 12.067 7.368a67.3 67.3 0 0 0 15.858 4.464 61.8 61.8 0 0 0 16.67.27 62.3 62.3 0 0 0 14.748-3.626c4.289-1.636 7.892-3.576 10.73-5.73 2.84-2.152 4.938-4.537 6.263-7.199s1.874-5.608 1.394-8.783-1.97-6.272-4.267-9.117-5.388-5.434-9.017-7.59c-3.63-2.155-7.793-3.874-12.39-5.001-4.595-1.127-9.629-1.663-15.136-1.481s-11.002 1.058-16.22 2.507-10.135 3.48-14.233 5.96-7.467 5.339-9.433 8.565c-2.014 3.305-2.698 7.029-2.468 9.979" style="color:#000;clip-rule:nonzero;display:inline;overflow:visible;opacity:1;isolation:auto;mix-blend-mode:normal;color-interpolation:sRGB;color-interpolation-filters:linearRGB;solid-color:#000;solid-opacity:1;fill:#394655;fill-opacity:1;fill-rule:nonzero;stroke:none;stroke-width:10;stroke-linecap:butt;stroke-linejoin:miter;stroke-miterlimit:4;stroke-dasharray:none;stroke-dashoffset:0;stroke-opacity:1;color-rendering:auto;image-rendering:auto;shape-rendering:auto;text-rendering:auto" transform="rotate(-24.95 337.324 32.46)scale(.55412)"/><path d="M467.332 369.304c.473 2.75 2.081 5.319 4.552 7.62 2.47 2.3 5.8 4.34 9.582 5.966s8.001 2.829 12.302 3.46c4.3.632 8.689.69 13.004.164 4.314-.527 8.168-1.57 11.512-2.903 3.343-1.333 6.164-2.954 8.378-4.763 2.213-1.81 3.824-3.813 4.774-5.996s1.241-4.55.746-7.058c-.494-2.507-1.736-4.916-3.568-7.114s-4.252-4.181-7.101-5.823-6.127-2.942-9.74-3.782c-3.612-.84-7.562-1.222-11.838-1.045a53 53 0 0 0-12.479 2.045c-3.984 1.151-7.729 2.74-10.892 4.667s-5.73 4.192-7.365 6.664c-1.636 2.473-2.34 5.148-1.867 7.898" style="color:#000;clip-rule:nonzero;display:inline;overflow:visible;opacity:1;isolation:auto;mix-blend-mode:normal;color-interpolation:sRGB;color-interpolation-filters:linearRGB;solid-color:#000;solid-opacity:1;fill:#e1d0cb;fill-opacity:1;fill-rule:nonzero;stroke:none;stroke-width:10;stroke-linecap:butt;stroke-linejoin:miter;stroke-miterlimit:4;stroke-dasharray:none;stroke-dashoffset:0;stroke-opacity:1;color-rendering:auto;image-rendering:auto;shape-rendering:auto;text-rendering:auto" transform="rotate(-24.95 337.324 32.46)scale(.55412)"/><path d="M482.632 352.521c.689 1.97 2.188 3.72 4.262 5.198 2.074 1.477 4.715 2.684 7.58 3.609a47 47 0 0 0 8.955 1.916c3.012.345 5.958.385 8.718.08 2.76-.306 5.09-.926 7.062-1.79s3.585-1.972 4.856-3.275c1.272-1.304 2.202-2.805 2.743-4.469.54-1.663.689-3.49.322-5.422s-1.22-3.782-2.513-5.455-3.023-3.166-5.114-4.378c-2.09-1.211-4.542-2.14-7.266-2.692-2.723-.552-5.718-.726-8.875-.444a33.8 33.8 0 0 0-8.91 2.027c-2.731 1.034-5.173 2.392-7.15 3.966s-3.49 3.367-4.336 5.263-1.024 3.896-.334 5.866" style="color:#000;clip-rule:nonzero;display:inline;overflow:visible;opacity:1;isolation:auto;mix-blend-mode:normal;color-interpolation:sRGB;color-interpolation-filters:linearRGB;solid-color:#000;solid-opacity:1;fill:#394655;fill-opacity:1;fill-rule:nonzero;stroke:none;stroke-width:10;stroke-linecap:butt;stroke-linejoin:miter;stroke-miterlimit:4;stroke-dasharray:none;stroke-dashoffset:0;stroke-opacity:1;color-rendering:auto;image-rendering:auto;shape-rendering:auto;text-rendering:auto" transform="rotate(-24.95 337.324 32.46)scale(.55412)"/><g style="display:inline;opacity:1"><path d="M-626.573 401.696c2.247 11.35.367 22.39-3.843 32.038-4.21 9.649-10.55 17.905-17.72 24.344s-15.254 11.11-24.57 13.61c-9.318 2.501-20.95 4.473-31.646 1.829s-18.092-9.812-24.148-17.25c-6.056-7.44-12.443-16.568-23.097-25.36-10.654-8.793-20.952-17.788-25.3-26.873-4.35-9.086-7.116-18.361-7.98-27.522s.246-17.364 2.961-24.584 7.032-13.455 12.66-18.537 12.567-9.01 20.593-11.49c8.026-2.478 17.135-3.505 27.21-2.666 10.073.838 20.18 3.472 29.951 7.653s19.215 9.908 27.712 16.897 16.035 15.24 21.796 24.415c5.76 9.176 13.174 22.145 15.421 33.496" style="color:#000;clip-rule:nonzero;display:inline;overflow:visible;opacity:1;isolation:auto;mix-blend-mode:normal;color-interpolation:sRGB;color-interpolation-filters:linearRGB;solid-color:#000;solid-opacity:1;fill:#96d6ff;fill-opacity:1;fill-rule:nonzero;stroke:none;stroke-width:10;stroke-linecap:butt;stroke-linejoin:miter;stroke-miterlimit:4;stroke-dasharray:none;stroke-dashoffset:0;stroke-opacity:1;color-rendering:auto;image-rendering:auto;shape-rendering:auto;text-rendering:auto" transform="rotate(-56.905 -29.825 -197.548)scale(.35823)"/><path d="M-784.271 455.904a5.5 5.5 0 0 0-1.56.262 4.5 4.5 0 0 0-1.63.935 3.9 3.9 0 0 0-1.018 1.475 4.35 4.35 0 0 0-.261 1.937 6.3 6.3 0 0 0 .592 2.157c.33.71.996 1.419 1.845 2.083.848.664 1.363 1.37 1.833 1.94.47.567 1.137.91 2.027.989.103.009.123-.313.034-.34-.781-.217-1.26-.775-1.723-1.214-.428-.524-.878-1.166-1.63-1.785-.753-.619-1.48-1.252-1.787-1.892a5.8 5.8 0 0 1-.567-1.938 3.8 3.8 0 0 1 .208-1.73c.191-.508.495-.949.893-1.307a3.85 3.85 0 0 1 1.454-.81q.427-.132.908-.182t1.016-.008a6.8 6.8 0 0 1 2.114.538 8.1 8.1 0 0 1 1.955 1.19 7.2 7.2 0 0 1 1.535 1.719c.406.646.928 1.559 1.088 2.358a3.53 3.53 0 0 1-.131 1.88c-.039.108.498.304.628-.002.243-.57.234-1.244.102-1.897-.18-.883-.695-1.871-1.144-2.587a7.9 7.9 0 0 0-1.703-1.899 8.8 8.8 0 0 0-2.16-1.296 7.4 7.4 0 0 0-2.34-.564 6 6 0 0 0-.578-.012" style="color:#000;clip-rule:nonzero;display:inline;overflow:visible;opacity:1;isolation:auto;mix-blend-mode:normal;color-interpolation:sRGB;color-interpolation-filters:linearRGB;solid-color:#000;solid-opacity:1;fill:#394655;fill-opacity:1;fill-rule:nonzero;stroke:none;stroke-width:10;stroke-linecap:butt;stroke-linejoin:miter;stroke-miterlimit:4;stroke-dasharray:none;stroke-dashoffset:0;stroke-opacity:1;color-rendering:auto;image-rendering:auto;shape-rendering:auto;text-rendering:auto" transform="rotate(-56.905 -3828.591 -2471.989)scale(4.96186)"/><path d="M-730.273 382.913c1.807-2.764 6.313-3.63 13.246-1.617 10.53 3.057 22.434 14.977 28.948 24.047 3.574 4.975 7.643 9.782 9.648 15.624.68 1.983 1.276 3.978.69 6.704-2.407-.494-4.188-3.623-5.38-6.013-4.7-9.42-11.386-17.865-20.096-24.139-7.328-5.278-8.205-8.972-15.615-12.257-4.69-2.08-7.441-1.02-11.44-2.35" style="color:#000;clip-rule:nonzero;display:inline;overflow:visible;opacity:1;isolation:auto;mix-blend-mode:normal;color-interpolation:sRGB;color-interpolation-filters:linearRGB;solid-color:#000;solid-opacity:1;fill:#394655;fill-opacity:1;fill-rule:nonzero;stroke:none;stroke-width:10;stroke-linecap:butt;stroke-linejoin:miter;stroke-miterlimit:4;stroke-dasharray:none;stroke-dashoffset:0;stroke-opacity:1;color-rendering:auto;image-rendering:auto;shape-rendering:auto;text-rendering:auto" transform="rotate(-56.905 -29.825 -197.548)scale(.35823)"/><path d="M-689.32 403.5c2.089-2.189-1.901 4.556-4.484 5.369-9.695 3.051-19.018 7.226-28.579 10.645-3.113 1.112-3.947-2.11-1.307-3.73 2.683-1.645 5.457-2.739 8.355-3.752 2.716-.95 5.644-1.286 8.277-2.424 5.061-2.187 7.834-5.206 12.759-7.68 1.689-.848 3.868 2.736 4.976 1.574z" style="color:#000;clip-rule:nonzero;display:inline;overflow:visible;opacity:1;isolation:auto;mix-blend-mode:normal;color-interpolation:sRGB;color-interpolation-filters:linearRGB;solid-color:#000;solid-opacity:1;fill:#394655;fill-opacity:1;fill-rule:nonzero;stroke:none;stroke-width:10;stroke-linecap:butt;stroke-linejoin:miter;stroke-miterlimit:4;stroke-dasharray:none;stroke-dashoffset:0;stroke-opacity:1;color-rendering:auto;image-rendering:auto;shape-rendering:auto;text-rendering:auto" transform="rotate(-56.905 -29.825 -197.548)scale(.35823)"/></g></g><g style="display:inline"><path d="M210.94 631.738c3.65 13.755-1.312 56.737 5.384 70.083 0 0 25.057 20.401 52.116 23.708 25.07 3.063 69.414-1.202 92.943-9.273 24.243-8.316 40.731-23.057 40.731-23.057s-14.657-30.9-23.692-39.554c-9.035-8.652-45.262-44.675-45.262-44.675s-96.385 10.903-99.165 11.782c-2.78.88-23.055 10.986-23.055 10.986" style="fill:#f9c683;fill-opacity:1;fill-rule:evenodd;stroke:none;stroke-width:3;stroke-linecap:butt;stroke-linejoin:miter;stroke-miterlimit:4;stroke-dasharray:none;stroke-opacity:1" transform="translate(-8.736 -301.708)"/><path d="m333.707 607.398-.715.081s-24.098 2.727-48.545 5.563a6760 6760 0 0 0-33.966 4.008 1255 1255 0 0 0-11.624 1.457c-1.455.192-2.638.354-3.511.484s-1.248.155-1.804.33c-.982.312-2.652 1.082-4.957 2.16a581 581 0 0 0-7.817 3.746c-5.424 2.64-10.497 5.169-10.497 5.169l-1.095.545.313 1.182c1.683 6.34 1.449 20.656 1.501 34.816.027 7.08.146 14.164.687 20.365.54 6.201 1.454 11.5 3.306 15.19l.145.287.25.204s25.194 20.65 52.88 24.033c25.447 3.11 69.69-1.137 93.612-9.343 24.56-8.425 41.244-23.358 41.244-23.358l.836-.747-.48-1.013s-3.68-7.758-8.496-16.606-10.645-18.726-15.514-23.389c-8.98-8.6-45.242-44.655-45.242-44.655zm-1.09 3.143c.806.801 35.78 35.582 44.768 44.188 4.165 3.99 10.182 13.889 14.953 22.654 4.472 8.215 7.472 14.543 7.892 15.425-2.234 1.925-17.22 14.443-39.334 22.029-23.135 7.936-67.582 12.221-92.274 9.204-25.95-3.171-50.153-22.44-51.037-23.149-1.441-3.006-2.406-7.938-2.92-13.848-.527-6.042-.65-13.063-.675-20.116-.05-13.452.27-26.686-1.401-34.33.822-.41 4.59-2.288 9.492-4.674a580 580 0 0 1 7.774-3.725c2.279-1.066 4.186-1.889 4.593-2.017-.208.065.497-.098 1.34-.224s2.016-.287 3.462-.478c2.892-.38 6.882-.878 11.593-1.45 9.422-1.145 21.73-2.592 33.95-4.01 24.083-2.793 47.134-5.4 47.824-5.479" style="color:#000;font-style:normal;font-variant:normal;font-weight:400;font-stretch:normal;font-size:medium;line-height:normal;font-family:sans-serif;text-indent:0;text-align:start;text-decoration:none;text-decoration-line:none;text-decoration-style:solid;text-decoration-color:#000;letter-spacing:normal;word-spacing:normal;text-transform:none;direction:ltr;block-progression:tb;writing-mode:lr-tb;baseline-shift:baseline;text-anchor:start;white-space:normal;clip-rule:nonzero;display:inline;overflow:visible;opacity:1;isolation:auto;mix-blend-mode:normal;color-interpolation:sRGB;color-interpolation-filters:linearRGB;solid-color:#000;solid-opacity:1;fill:#70321c;fill-opacity:1;fill-rule:evenodd;stroke:none;stroke-width:3;stroke-linecap:butt;stroke-linejoin:miter;stroke-miterlimit:4;stroke-dasharray:none;stroke-dashoffset:0;stroke-opacity:1;color-rendering:auto;image-rendering:auto;shape-rendering:auto;text-rendering:auto" transform="translate(-8.736 -301.708)"/><path d="M199.665 615.737c2.124 8.378 3.559 16.058.245 27.587 22.192-1.22 42.605-23.578 134.517-30.447 39.623 45.857 48.102 44.31 68.017 87.717l5.305-3.333c-24.894-94.44-44.122-60.77-70.552-92.674-42.796 2.608-58.63-4.592-137.532 11.15" style="fill:#f9c683;fill-opacity:1;fill-rule:evenodd;stroke:none;stroke-width:3;stroke-linecap:butt;stroke-linejoin:miter;stroke-miterlimit:4;stroke-dasharray:none;stroke-opacity:1" transform="translate(-8.736 -301.708)"/><path d="M266.445 604.485c-16.653 1.184-37.439 3.87-67.074 9.782l-1.548.308.388 1.53c2.109 8.323 3.49 15.556.257 26.805l-.583 2.028 2.106-.116c23.078-1.27 42.82-23.455 133.824-30.376 19.51 22.526 31.495 33.621 40.89 44.204 9.486 10.686 16.18 16.516 26.94 41.594l.715 1.555 6.314-4.743-.281-1.067c-12.483-47.354-23.348-61.031-34.984-68.678-5.818-3.824-13.94-6.673-19.73-9.422-5.789-2.75-8.86-6.45-15.328-14.258l-.484-.587-.76.045c-26.63 1.623-42.906-.576-70.662 1.396m-.683 2.203c27.307-1.936 44.4.974 70.807-.576 6.552 7.722 12.79 11.702 18.657 14.489 6.028 2.862 11.595 4.573 17 8.125 10.72 7.046 21.488 21.681 33.773 67.86l-2.942 1.85c-9.59-20.638-16.728-31.21-26.11-41.778-9.637-10.856-21.614-21.88-41.385-44.762l-.494-.572-.753.058c-84.764 4.442-127.506 34.445-132.697 30.999 2.39-9.854.442-19.06-1.333-26.378 28.66-5.665 49.245-8.165 65.477-9.315" style="color:#000;font-style:normal;font-variant:normal;font-weight:400;font-stretch:normal;font-size:medium;line-height:normal;font-family:sans-serif;text-indent:0;text-align:start;text-decoration:none;text-decoration-line:none;text-decoration-style:solid;text-decoration-color:#000;letter-spacing:normal;word-spacing:normal;text-transform:none;direction:ltr;block-progression:tb;writing-mode:lr-tb;baseline-shift:baseline;text-anchor:start;white-space:normal;clip-rule:nonzero;display:inline;overflow:visible;opacity:1;isolation:auto;mix-blend-mode:normal;color-interpolation:sRGB;color-interpolation-filters:linearRGB;solid-color:#000;solid-opacity:1;fill:#70321c;fill-opacity:1;fill-rule:evenodd;stroke:none;stroke-width:3;stroke-linecap:butt;stroke-linejoin:miter;stroke-miterlimit:4;stroke-dasharray:none;stroke-dashoffset:0;stroke-opacity:1;color-rendering:auto;image-rendering:auto;shape-rendering:auto;text-rendering:auto" transform="translate(-8.736 -301.708)"/></g><g style="display:inline"><path d="M423.438 582.27c.004 4.349-1.201 7.517-3.603 9.801-2.402 2.285-6.023 3.71-10.869 4.797-4.846 1.088-10.944 1.883-17.855 2.526s-14.605 1.054-22.28 1.166a201 201 0 0 1-21.43-.835c-6.496-.603-12.228-1.43-17.038-2.525s-8.729-2.483-11.581-4.408-4.673-4.408-4.725-7.521c-.05-3.113 1.693-5.318 4.45-6.69 2.755-1.373 6.548-1.896 11.198-1.796s10.188.835 16.628 1.577c6.44.741 13.818 1.433 21.832 1.213s16.248-1.706 23.478-3.342 13.375-3.278 18.068-3.931 8.027-.358 10.279 1.217 3.456 13.1 3.448 8.75" style="color:#000;clip-rule:nonzero;display:inline;overflow:visible;opacity:1;isolation:auto;mix-blend-mode:normal;color-interpolation:sRGB;color-interpolation-filters:linearRGB;solid-color:#000;solid-opacity:1;fill:#e1d6b9;fill-opacity:1;fill-rule:nonzero;stroke:none;stroke-width:10;stroke-linecap:butt;stroke-linejoin:miter;stroke-miterlimit:4;stroke-dasharray:none;stroke-dashoffset:0;stroke-opacity:1;color-rendering:auto;image-rendering:auto;shape-rendering:auto;text-rendering:auto" transform="matrix(-.1578 -.34336 -.44639 .27165 594.753 328.936)"/><path d="M411.324 569.865c-4.266.35-9.704 1.482-16.28 2.816-7.514 1.525-16.5 3.2-25.624 3.539s-17.507-.37-24.792-1.068c-7.284-.699-13.536-1.304-18.81-1.12s-9.6 1.132-12.748 2.955c-3.148 1.822-5.132 4.49-5.198 7.942s1.876 6.32 5.046 8.61 7.61 4.026 13.116 5.422c5.507 1.396 12.116 2.487 19.584 3.285 7.468.797 15.786 1.26 24.453 1.106s16.959-.693 24.155-1.443 13.274-1.645 18.009-2.906c1.802-.48 3.411-1.025 4.845-1.65 2.897-1.261 2.298-6.045-.186-4.349-2.3 1.572-5.38 2.674-9.264 3.54-4.733 1.055-10.66 1.825-17.348 2.441s-14.107 1.005-21.512 1.11a194 194 0 0 1-20.695-.815c-6.284-.59-11.845-1.402-16.518-2.472-4.672-1.07-8.485-2.422-11.25-4.282s-4.516-4.245-4.55-7.225c-.036-2.98 1.664-5.08 4.35-6.379s6.383-1.778 10.905-1.67c4.522.11 9.898.82 16.121 1.525 6.224.705 13.33 1.353 21.046 1.144 7.716-.208 15.643-1.61 22.646-3.167 7.002-1.557 13.004-3.138 17.617-3.78q.865-.123 1.67-.2c1.376-.133 2.623-.191 3.736-.092 1.283.115 2.726-3.151-.764-2.92-.566.037-1.716.5-1.76.103" style="color:#000;clip-rule:nonzero;display:inline;overflow:visible;opacity:1;isolation:auto;mix-blend-mode:normal;color-interpolation:sRGB;color-interpolation-filters:linearRGB;solid-color:#000;solid-opacity:1;fill:#394655;fill-opacity:1;fill-rule:nonzero;stroke:none;stroke-width:10;stroke-linecap:butt;stroke-linejoin:miter;stroke-miterlimit:4;stroke-dasharray:none;stroke-dashoffset:0;stroke-opacity:1;color-rendering:auto;image-rendering:auto;shape-rendering:auto;text-rendering:auto" transform="matrix(-.1578 -.34336 -.44639 .27165 594.753 328.936)"/></g><path d="M263.928 669.817c3.53 10.347 31.277-3.034 24.748-10.253-6.765-7.48-10.741-11.656-11.49-25.632l-21.567 3.889c2.192 12.077 4.992 22.277 8.309 31.996" style="display:inline;fill:#70321c;fill-opacity:1;fill-rule:evenodd;stroke:none;stroke-width:1px;stroke-linecap:butt;stroke-linejoin:miter;stroke-opacity:1" transform="rotate(-3.528 -4543.042 522.612)"/><path d="M255.522 636.312c4.335 10.653 6.728 23.823 11.819 33.913 5.498.85 15.29.043 19.556-8.712-3.957-4.288-8.357-8.733-9.717-14.72-.96-4.225-1.563-12.611-.819-16.943z" style="display:inline;fill:#f9c683;fill-opacity:1;fill-rule:evenodd;stroke:none;stroke-width:1px;stroke-linecap:butt;stroke-linejoin:miter;stroke-opacity:1" transform="rotate(-3.528 -4543.042 522.612)"/><path d="M453.781 549.558c6.016 30.404 17.798 65.903 17.89 91.071-3.44 5.744-7.886 8.307-12.983 8.816l-9.81-92.07z" style="fill:#f9c683;fill-opacity:1;fill-rule:evenodd;stroke:#70321c;stroke-width:2;stroke-linecap:butt;stroke-linejoin:miter;stroke-miterlimit:4;stroke-dasharray:none;stroke-opacity:1" transform="translate(-8.736 -301.708)"/><path d="M449.436 534.32c10.569-.316 12.799 6.89 15.946 13.01-3.629 4.024-4.605 8.325-13.441 11.809 6.874 32.36 8.242 64.528 9.548 94.52l-4.732.824c-2.874-34.678-5.85-69.132-11.983-96.673 1.208-7.24 7.025-16.894 4.662-23.49z" style="fill:#f9c683;fill-opacity:1;fill-rule:evenodd;stroke:#70321c;stroke-width:2;stroke-linecap:butt;stroke-linejoin:miter;stroke-miterlimit:4;stroke-dasharray:none;stroke-opacity:1" transform="translate(-8.736 -301.708)"/><path d="M278.182 358.265c10.75 12.931 3.518 36.449-14.166 65.398-12.99 21.262-31.616 45.455-52.897 70.534-14.265 16.812-24.533 33.21-37.907 45.484-33.741 30.968-66.439 43.472-79.793 27.409-18.647-22.43 6.975-88.624 57.228-147.85 23.455-27.642 48.735-47.65 70.923-58.848 25.352-12.795 46.667-14.089 56.612-2.127" style="color:#000;clip-rule:nonzero;display:inline;overflow:visible;opacity:1;isolation:auto;mix-blend-mode:normal;color-interpolation:sRGB;color-interpolation-filters:linearRGB;solid-color:#000;solid-opacity:1;fill:#3f414f;fill-opacity:1;fill-rule:nonzero;stroke:none;stroke-width:5.55802393;stroke-linecap:round;stroke-linejoin:miter;stroke-miterlimit:4;stroke-dasharray:none;stroke-dashoffset:0;stroke-opacity:1;color-rendering:auto;image-rendering:auto;shape-rendering:auto;text-rendering:auto" transform="translate(-8.736 -301.708)"/><path d="M274.176 362.985c10.133 12.188 2.866 33.78-14.117 60.545-12.895 20.323-31.391 43.627-52.125 68.063-14.49 17.076-24.79 33.69-38.019 45.954-30.632 28.399-60.04 39.798-72.49 24.823-17.827-21.443 6.667-84.724 54.709-141.342 23.536-27.738 49.024-47.375 70.999-57.67 22.88-10.72 41.95-11.31 51.043-.373" style="color:#000;clip-rule:nonzero;display:inline;overflow:visible;opacity:1;isolation:auto;mix-blend-mode:normal;color-interpolation:sRGB;color-interpolation-filters:linearRGB;solid-color:#000;solid-opacity:1;fill:#7d819c;fill-opacity:1;fill-rule:nonzero;stroke:none;stroke-width:5.55802393;stroke-linecap:round;stroke-linejoin:miter;stroke-miterlimit:4;stroke-dasharray:none;stroke-dashoffset:0;stroke-opacity:1;color-rendering:auto;image-rendering:auto;shape-rendering:auto;text-rendering:auto" transform="translate(-8.736 -301.708)"/><path d="M132.915 510.286c-5.535-11.42-9.032-31.106-99.354-60.726-34.015-23.05 63.04-141.172 101.082-129.3 29.315 33.854 52.11 63.239 88.354 76.864 26.468 9.125-54.625 133.682-90.082 113.162" style="fill:#3e4150;fill-opacity:1;fill-rule:evenodd;stroke:none;stroke-width:1px;stroke-linecap:butt;stroke-linejoin:miter;stroke-opacity:1" transform="translate(-8.736 -301.708)"/><path d="M35.345 447.349c43.288 15.325 78.163 22.185 99.752 61.014 10.898 4.781 20.32-2.408 29.145-8.608 23.264-17.273 41.087-41.5 53.832-67.476 3.98-8.707 10.79-23.791 7.556-31.369-3.273-3.259-7.382-2.988-12.008-5.516-35.964-19.658-44.776-30.751-71.034-61.865-3.417-3.551-6.344-8.068-10.201-10.914-35.058-11.493-126.46 104.97-97.042 124.734" style="fill:#7e829d;fill-opacity:1;fill-rule:evenodd;stroke:none;stroke-width:1px;stroke-linecap:butt;stroke-linejoin:miter;stroke-opacity:1" transform="translate(-8.736 -301.708)"/><path d="m133.387 320.717-1.804 2.02c2.537 2.268 3.68 5.93 3.503 10.904s-1.716 11.143-4.354 17.965c-5.276 13.644-14.916 29.907-26.391 45.1-11.476 15.192-24.8 29.328-37.369 38.796s-24.282 14.052-32.388 11.086l-.93 2.541c9.68 3.541 22.081-1.77 34.95-11.463 12.867-9.693 26.301-23.977 37.897-39.328s21.343-31.754 26.757-45.755c2.707-7.001 4.34-13.4 4.534-18.846s-1.088-10.055-4.405-13.02" style="color:#000;font-style:normal;font-variant:normal;font-weight:400;font-stretch:normal;font-size:medium;line-height:normal;font-family:sans-serif;text-indent:0;text-align:start;text-decoration:none;text-decoration-line:none;text-decoration-style:solid;text-decoration-color:#000;letter-spacing:normal;word-spacing:normal;text-transform:none;direction:ltr;block-progression:tb;writing-mode:lr-tb;baseline-shift:baseline;text-anchor:start;white-space:normal;clip-rule:nonzero;display:inline;overflow:visible;opacity:1;isolation:auto;mix-blend-mode:normal;color-interpolation:sRGB;color-interpolation-filters:linearRGB;solid-color:#000;solid-opacity:1;fill:#3e4150;fill-opacity:1;fill-rule:evenodd;stroke:none;stroke-width:2.70783758;stroke-linecap:butt;stroke-linejoin:miter;stroke-miterlimit:4;stroke-dasharray:none;stroke-dashoffset:0;stroke-opacity:1;color-rendering:auto;image-rendering:auto;shape-rendering:auto;text-rendering:auto" transform="translate(-8.736 -301.708)"/><g style="display:inline" transform="matrix(.88314 -.18038 .27314 .84696 -52.155 144.79)"><path d="M435.733 214.293c11.756-10.063 24.1-26.462 39.077-24.887 16.015 1.683 6.592 27.518 10.627 39.912 4.154 12.76-15.376 23.45-27.047 13.65-8.363-7.023-32.22-7.056-25.489-23.426.753-1.83 1.313-3.949 2.832-5.25m-36.189 5.758c-13.356-9.297-27.379-25.684-44.394-21.175-18.194 4.822 5.632 28.479-5.822 44.274-9.372 12.923 11.218 26.848 24.476 13.593 9.502-9.497 36.604-13.869 28.957-31.243-.855-1.943-1.491-4.248-3.217-5.45" style="display:inline;fill:#844d7b;fill-opacity:1;fill-rule:evenodd;stroke:none;stroke-width:1px;stroke-linecap:butt;stroke-linejoin:miter;stroke-opacity:1"/><path d="M471.586 191.438c-14.687 1.764-23.196 16.856-33.33 26.148-3.844 3.524-3.284 10.92 2.482 13.012 8.438 3.06 16.374 7.284 24.291 11.617 7.245 3.964 20.79-4.292 17.73-13.594-3.673-11.168 2.996-24.115-3.712-34.326-1.097-1.67-5.562-3.086-7.461-2.857m-112.559 8.925c-5.064.071-10.393 5.256-8.68 10.302 3.71 10.937 8.187 23.504.87 34.306-5.018 7.407 8.706 16.188 15.238 11.898 6.243-4.1 15.57-11.176 22.645-13.936 9.025-3.521 15.069-7.51 10.675-16.076-3.828-7.464-11.322-9.38-16.964-14.636-6.386-5.95-14.655-11.985-23.784-11.858" style="display:inline;fill:#d5a8e3;fill-opacity:1;fill-rule:evenodd;stroke:none;stroke-width:1px;stroke-linecap:butt;stroke-linejoin:miter;stroke-opacity:1"/><rect width="42.969" height="41.13" x="338.988" y="289.749" ry="16.249" style="color:#000;clip-rule:nonzero;display:inline;overflow:visible;opacity:1;isolation:auto;mix-blend-mode:normal;color-interpolation:sRGB;color-interpolation-filters:linearRGB;solid-color:#000;solid-opacity:1;fill:#844d7b;fill-opacity:1;fill-rule:nonzero;stroke:none;stroke-width:10;stroke-linecap:round;stroke-linejoin:miter;stroke-miterlimit:4;stroke-dasharray:none;stroke-dashoffset:0;stroke-opacity:1;color-rendering:auto;image-rendering:auto;shape-rendering:auto;text-rendering:auto" transform="rotate(-12.061)scale(1 .99998)skewX(.32)"/><path d="M423.549 208.793c-5.709 0-13.911 1.106-18.608 5.73-6.313 6.217-3.379 16.334.082 23.227 3.298 6.567 11.438 6.218 17.961 4.973 7.675-1.465 16.308-6.276 14.825-15.399-1.32-8.121-5.242-18.531-14.26-18.531" style="color:#000;clip-rule:nonzero;display:inline;overflow:visible;opacity:1;isolation:auto;mix-blend-mode:normal;color-interpolation:sRGB;color-interpolation-filters:linearRGB;solid-color:#000;solid-opacity:1;fill:#d5a8e3;fill-opacity:1;fill-rule:nonzero;stroke:none;stroke-width:10;stroke-linecap:round;stroke-linejoin:miter;stroke-miterlimit:4;stroke-dasharray:none;stroke-dashoffset:0;stroke-opacity:1;color-rendering:auto;image-rendering:auto;shape-rendering:auto;text-rendering:auto"/></g><g style="display:inline"><path d="M779.605 21.967h40.789v40.789h-40.789z" style="color:#000;clip-rule:nonzero;display:inline;overflow:visible;opacity:1;isolation:auto;mix-blend-mode:normal;color-interpolation:sRGB;color-interpolation-filters:linearRGB;solid-color:#000;solid-opacity:1;fill:#394655;fill-opacity:1;fill-rule:nonzero;stroke:#000;stroke-width:9.21052647;stroke-linecap:butt;stroke-linejoin:miter;stroke-miterlimit:4;stroke-dasharray:none;stroke-dashoffset:0;stroke-opacity:1;color-rendering:auto;image-rendering:auto;shape-rendering:auto;text-rendering:auto" transform="translate(-8.736 -301.708)"/><path d="M824.605 21.967h40.789v40.789h-40.789z" style="color:#000;clip-rule:nonzero;display:inline;overflow:visible;opacity:1;isolation:auto;mix-blend-mode:normal;color-interpolation:sRGB;color-interpolation-filters:linearRGB;solid-color:#000;solid-opacity:1;fill:#fff;fill-opacity:1;fill-rule:nonzero;stroke:#000;stroke-width:9.21052742;stroke-linecap:butt;stroke-linejoin:miter;stroke-miterlimit:4;stroke-dasharray:none;stroke-dashoffset:0;stroke-opacity:1;color-rendering:auto;image-rendering:auto;shape-rendering:auto;text-rendering:auto" transform="translate(-8.736 -301.708)"/><path d="M779.605 86.967h40.789v40.789h-40.789z" style="color:#000;clip-rule:nonzero;display:inline;overflow:visible;opacity:1;isolation:auto;mix-blend-mode:normal;color-interpolation:sRGB;color-interpolation-filters:linearRGB;solid-color:#000;solid-opacity:1;fill:#bce8ff;fill-opacity:1;fill-rule:nonzero;stroke:#000;stroke-width:9.21052647;stroke-linecap:butt;stroke-linejoin:miter;stroke-miterlimit:4;stroke-dasharray:none;stroke-dashoffset:0;stroke-opacity:1;color-rendering:auto;image-rendering:auto;shape-rendering:auto;text-rendering:auto" transform="translate(-8.736 -301.708)"/><path d="M824.605-127.757h40.789v40.789h-40.789z" style="color:#000;clip-rule:nonzero;display:inline;overflow:visible;opacity:1;isolation:auto;mix-blend-mode:normal;color-interpolation:sRGB;color-interpolation-filters:linearRGB;solid-color:#000;solid-opacity:1;fill:#abccd9;fill-opacity:1;fill-rule:nonzero;stroke:#000;stroke-width:9.21052647;stroke-linecap:butt;stroke-linejoin:miter;stroke-miterlimit:4;stroke-dasharray:none;stroke-dashoffset:0;stroke-opacity:1;color-rendering:auto;image-rendering:auto;shape-rendering:auto;text-rendering:auto" transform="matrix(1 0 0 -1 -8.736 -301.708)"/><path d="M779.605 131.967h40.789v40.789h-40.789z" style="color:#000;clip-rule:nonzero;display:inline;overflow:visible;opacity:1;isolation:auto;mix-blend-mode:normal;color-interpolation:sRGB;color-interpolation-filters:linearRGB;solid-color:#000;solid-opacity:1;fill:#c3b0cb;fill-opacity:1;fill-rule:nonzero;stroke:#000;stroke-width:9.21052647;stroke-linecap:butt;stroke-linejoin:miter;stroke-miterlimit:4;stroke-dasharray:none;stroke-dashoffset:0;stroke-opacity:1;color-rendering:auto;image-rendering:auto;shape-rendering:auto;text-rendering:auto" transform="translate(-8.736 -301.708)"/><path d="M824.605 131.967h40.789v40.789h-40.789z" style="color:#000;clip-rule:nonzero;display:inline;overflow:visible;opacity:1;isolation:auto;mix-blend-mode:normal;color-interpolation:sRGB;color-interpolation-filters:linearRGB;solid-color:#000;solid-opacity:1;fill:#e1d0cb;fill-opacity:1;fill-rule:nonzero;stroke:#000;stroke-width:9.21052647;stroke-linecap:butt;stroke-linejoin:miter;stroke-miterlimit:4;stroke-dasharray:none;stroke-dashoffset:0;stroke-opacity:1;color-rendering:auto;image-rendering:auto;shape-rendering:auto;text-rendering:auto" transform="translate(-8.736 -301.708)"/><path d="M869.605 131.967h40.789v40.789h-40.789z" style="color:#000;clip-rule:nonzero;display:inline;overflow:visible;opacity:1;isolation:auto;mix-blend-mode:normal;color-interpolation:sRGB;color-interpolation-filters:linearRGB;solid-color:#000;solid-opacity:1;fill:#f5c3d2;fill-opacity:1;fill-rule:nonzero;stroke:#000;stroke-width:9.21052647;stroke-linecap:butt;stroke-linejoin:miter;stroke-miterlimit:4;stroke-dasharray:none;stroke-dashoffset:0;stroke-opacity:1;color-rendering:auto;image-rendering:auto;shape-rendering:auto;text-rendering:auto" transform="translate(-8.736 -301.708)"/><path d="M779.605 176.967h40.789v40.789h-40.789z" style="color:#000;clip-rule:nonzero;display:inline;overflow:visible;opacity:1;isolation:auto;mix-blend-mode:normal;color-interpolation:sRGB;color-interpolation-filters:linearRGB;solid-color:#000;solid-opacity:1;fill:#cec4ad;fill-opacity:1;fill-rule:nonzero;stroke:#000;stroke-width:9.21052647;stroke-linecap:butt;stroke-linejoin:miter;stroke-miterlimit:4;stroke-dasharray:none;stroke-dashoffset:0;stroke-opacity:1;color-rendering:auto;image-rendering:auto;shape-rendering:auto;text-rendering:auto" transform="translate(-8.736 -301.708)"/><path d="M869.605-127.757h40.789v40.789h-40.789z" style="color:#000;clip-rule:nonzero;display:inline;overflow:visible;opacity:1;isolation:auto;mix-blend-mode:normal;color-interpolation:sRGB;color-interpolation-filters:linearRGB;solid-color:#000;solid-opacity:1;fill:#96d6ff;fill-opacity:1;fill-rule:nonzero;stroke:#000;stroke-width:9.21052647;stroke-linecap:butt;stroke-linejoin:miter;stroke-miterlimit:4;stroke-dasharray:none;stroke-dashoffset:0;stroke-opacity:1;color-rendering:auto;image-rendering:auto;shape-rendering:auto;text-rendering:auto" transform="matrix(1 0 0 -1 -8.736 -301.708)"/><path d="M824.605 176.967h40.789v40.789h-40.789z" style="color:#000;clip-rule:nonzero;display:inline;overflow:visible;opacity:1;isolation:auto;mix-blend-mode:normal;color-interpolation:sRGB;color-interpolation-filters:linearRGB;solid-color:#000;solid-opacity:1;fill:#f2f2ce;fill-opacity:1;fill-rule:nonzero;stroke:#000;stroke-width:9.21052647;stroke-linecap:butt;stroke-linejoin:miter;stroke-miterlimit:4;stroke-dasharray:none;stroke-dashoffset:0;stroke-opacity:1;color-rendering:auto;image-rendering:auto;shape-rendering:auto;text-rendering:auto" transform="translate(-8.736 -301.708)"/></g></svg>