<svg xmlns="http://www.w3.org/2000/svg" width="628.811" height="473.937" viewBox="0 0 589.51 444.316"><g style="display:inline"><path d="m132.88 828.946 265.698-47.575 223.453 52.24 27.793-379.673-265.117-24.107-26.636.55-257.43 44.08z" style="fill:#3b4378;fill-rule:evenodd;stroke:#282d51;stroke-width:4.55491924;stroke-linecap:butt;stroke-linejoin:miter;stroke-miterlimit:4;stroke-dasharray:none;stroke-opacity:1" transform="translate(-80.465 -409.835)"/><path d="m149.589 815.123 10.656 1.901 236.724-46.196 201.467 50.37 6.58-1.732 25.877-353.497-249.057-28.072-21.232 1.213-241.032 45.967z" style="fill:#fefcee;fill-opacity:1;fill-rule:evenodd;stroke:#282d51;stroke-width:2.7329514;stroke-linecap:butt;stroke-linejoin:miter;stroke-miterlimit:4;stroke-dasharray:none;stroke-opacity:1" transform="translate(-80.465 -409.835)"/><path d="M160.423 816.985c84.51-9.754 165.075-22.819 237.682-42.56 45.594 21.226 121.764 34.242 199.892 46.732l24.862-339.639c-131.187-13.483-153.533-3.047-250.61-27.538-78.69 31.216-171.07 40.737-240.666 45.897z" style="fill:#fefcee;fill-opacity:1;fill-rule:evenodd;stroke:#282d51;stroke-width:2.7329514;stroke-linecap:butt;stroke-linejoin:miter;stroke-miterlimit:4;stroke-dasharray:none;stroke-opacity:1" transform="translate(-80.465 -409.835)"/><path d="m119.463 485.012 12.183 14.865m499.003-33.768-7.824 15.12m-251.074-35.281c.224 2.389.668 3.911.436 8.084" style="fill:none;fill-rule:evenodd;stroke:#282d51;stroke-width:2.7329514;stroke-linecap:butt;stroke-linejoin:miter;stroke-miterlimit:4;stroke-dasharray:none;stroke-opacity:1" transform="translate(-80.465 -409.835)"/><path d="m372.308 454.233 10.548 326.165" style="fill:none;fill-rule:evenodd;stroke:#282d51;stroke-width:2;stroke-linecap:butt;stroke-linejoin:miter;stroke-miterlimit:4;stroke-dasharray:none;stroke-opacity:1" transform="translate(-80.465 -409.835)"/><text xml:space="preserve" x="163.194" y="647.201" style="font-style:normal;font-weight:400;font-size:92.20251465px;line-height:125%;font-family:sans-serif;letter-spacing:0;word-spacing:0;fill:#3d457c;fill-opacity:1;stroke:none;stroke-width:1px;stroke-linecap:butt;stroke-linejoin:miter;stroke-opacity:1" transform="matrix(1 -.25205 0 1 -80.465 -409.835)"><tspan x="163.194" y="647.201" style="font-style:normal;font-variant:normal;font-weight:400;font-stretch:normal;font-size:92.20251465px;line-height:125%;font-family:&quot;Great Vibes&quot;;-inkscape-font-specification:&quot;Great Vibes, Normal&quot;;text-align:start;writing-mode:lr-tb;text-anchor:start;fill:#3d457c;fill-opacity:1">Go</tspan></text><text xml:space="preserve" x="388.358" y="464.018" style="font-style:normal;font-weight:400;font-size:23.14394569px;line-height:125%;font-family:sans-serif;letter-spacing:0;word-spacing:0;fill:#3d457c;fill-opacity:1;stroke:none;stroke-width:1px;stroke-linecap:butt;stroke-linejoin:miter;stroke-opacity:1" transform="matrix(1 .11493 0 1 -80.465 -409.835)"><tspan x="388.358" y="464.018" style="font-style:normal;font-variant:normal;font-weight:400;font-stretch:normal;font-size:23.14394569px;line-height:125%;font-family:&quot;Great Vibes&quot;;-inkscape-font-specification:&quot;Great Vibes, Normal&quot;;text-align:start;writing-mode:lr-tb;text-anchor:start;fill:#3d457c;fill-opacity:1">package main</tspan><tspan x="388.358" y="521.878" style="font-style:normal;font-variant:normal;font-weight:400;font-stretch:normal;font-size:23.14394569px;line-height:125%;font-family:&quot;Great Vibes&quot;;-inkscape-font-specification:&quot;Great Vibes, Normal&quot;;text-align:start;writing-mode:lr-tb;text-anchor:start;fill:#3d457c;fill-opacity:1">import &quot;fmt&quot;</tspan><tspan x="388.358" y="579.738" style="font-style:normal;font-variant:normal;font-weight:400;font-stretch:normal;font-size:23.14394569px;line-height:125%;font-family:&quot;Great Vibes&quot;;-inkscape-font-specification:&quot;Great Vibes, Normal&quot;;text-align:start;writing-mode:lr-tb;text-anchor:start;fill:#3d457c;fill-opacity:1">func main() {</tspan><tspan x="388.358" y="608.668" style="font-style:normal;font-variant:normal;font-weight:400;font-stretch:normal;font-size:23.14394569px;line-height:125%;font-family:&quot;Great Vibes&quot;;-inkscape-font-specification:&quot;Great Vibes, Normal&quot;;text-align:start;writing-mode:lr-tb;text-anchor:start;fill:#3d457c;fill-opacity:1">    fmt.Println(&quot;Hello&quot;);</tspan><tspan x="388.358" y="637.598" style="font-style:normal;font-variant:normal;font-weight:400;font-stretch:normal;font-size:23.14394569px;line-height:125%;font-family:&quot;Great Vibes&quot;;-inkscape-font-specification:&quot;Great Vibes, Normal&quot;;text-align:start;writing-mode:lr-tb;text-anchor:start;fill:#3d457c;fill-opacity:1">}</tspan></text><text xml:space="preserve" x="179.99" y="734.604" style="font-style:normal;font-weight:400;font-size:41.19045258px;line-height:125%;font-family:sans-serif;letter-spacing:0;word-spacing:0;fill:#3d457c;fill-opacity:1;stroke:none;stroke-width:1px;stroke-linecap:butt;stroke-linejoin:miter;stroke-opacity:1" transform="matrix(1 -.20719 0 1 -80.465 -409.835)"><tspan x="179.99" y="734.604" style="font-style:normal;font-variant:normal;font-weight:400;font-stretch:normal;font-size:41.19045258px;line-height:125%;font-family:&quot;Great Vibes&quot;;-inkscape-font-specification:&quot;Great Vibes, Normal&quot;;text-align:start;writing-mode:lr-tb;text-anchor:start;fill:#3d457c;fill-opacity:1">Chapter 1</tspan></text><path d="M523.701 473.86c47.023 5.304 48.702 45.344 48.702 45.344s47.231-36.707 47.231 6.78c3.862-38.817-66.972-50.638-95.933-52.124z" style="display:inline;fill:none;fill-rule:evenodd;stroke:#282d51;stroke-width:2.5;stroke-linecap:butt;stroke-linejoin:miter;stroke-miterlimit:4;stroke-dasharray:none;stroke-opacity:1" transform="translate(-80.465 -409.835)"/></g><g style="display:inline"><g style="display:inline"><g style="display:inline"><path d="M1182.5 106.362c-10.595 4.67-23.944-10.3-37-14-3.207-.908-7.467 2.71-8 6-1.005 6.207 5.338 12.299 10.75 15.5 11.849 7.01 30.842 15.037 40 12.75 3.733-.932 2.083-7.807 1-11.5-1.036-3.535-3.38-10.235-6.75-8.75" style="fill:#394655;fill-opacity:1;fill-rule:evenodd;stroke:none;stroke-width:1px;stroke-linecap:butt;stroke-linejoin:miter;stroke-opacity:1" transform="rotate(-61.066 799.469 873.287)scale(.86908)"/><path d="M1144.795 95.197c-6.116.17-4.992 7.923-1.342 11.403 8.673 8.27 19.509 13.611 30.85 16.784 4.44 1.242 16.639 2.539 20.26.025.454-5.204-3.342-11.88-7.086-15.638-13.626 5.47-23.989-4.058-32.133-8.616-3.017-1.689-7.06-4.055-10.549-3.958" style="fill:#e1d6b9;fill-opacity:1;fill-rule:evenodd;stroke:none;stroke-width:1px;stroke-linecap:butt;stroke-linejoin:miter;stroke-opacity:1" transform="rotate(-61.066 799.469 873.287)scale(.86908)"/></g><g style="display:inline"><path d="M1182.5 106.362c-10.595 4.67-23.944-10.3-37-14-3.207-.908-7.467 2.71-8 6-1.005 6.207 5.338 12.299 10.75 15.5 11.849 7.01 30.842 15.037 40 12.75 3.733-.932 2.083-7.807 1-11.5-1.036-3.535-3.38-10.235-6.75-8.75" style="fill:#394655;fill-opacity:1;fill-rule:evenodd;stroke:none;stroke-width:1px;stroke-linecap:butt;stroke-linejoin:miter;stroke-opacity:1" transform="rotate(2.004 -5992.314 39788.9)scale(-.86908 .86908)"/><path d="M1144.795 95.197c-6.116.17-4.992 7.923-1.342 11.403 8.673 8.27 19.562 13.427 30.85 16.784 3.918 1.165 14.91.922 18.67-1.124.453-5.204-1.576-10.907-5.32-14.666-14.13 7.732-24.09-3.832-32.309-8.439-3.016-1.69-7.06-4.055-10.549-3.958" style="fill:#e1d6b9;fill-opacity:1;fill-rule:evenodd;stroke:none;stroke-width:1px;stroke-linecap:butt;stroke-linejoin:miter;stroke-opacity:1" transform="rotate(2.004 -5992.314 39788.9)scale(-.86908 .86908)"/></g><g style="display:inline"><path d="M1182.5 106.362c-10.595 4.67-23.944-10.3-37-14-3.207-.908-7.467 2.71-8 6-1.005 6.207 5.338 12.299 10.75 15.5 11.849 7.01 30.842 15.037 40 12.75 3.733-.932 2.083-7.807 1-11.5-1.036-3.535-3.38-10.235-6.75-8.75" style="fill:#394655;fill-opacity:1;fill-rule:evenodd;stroke:none;stroke-width:1px;stroke-linecap:butt;stroke-linejoin:miter;stroke-opacity:1" transform="rotate(-45.39 1224.285 1064.19)scale(.86908 -.86908)"/><path d="M1144.795 95.197c-6.116.17-4.992 7.923-1.342 11.403 8.673 8.27 19.562 13.427 30.85 16.784 3.918 1.165 14.91.922 18.67-1.124.453-5.204-1.576-10.907-5.32-14.666-14.13 7.732-24.09-3.832-32.309-8.439-3.016-1.69-7.06-4.055-10.549-3.958" style="fill:#e1d6b9;fill-opacity:1;fill-rule:evenodd;stroke:none;stroke-width:1px;stroke-linecap:butt;stroke-linejoin:miter;stroke-opacity:1" transform="rotate(-45.39 1224.285 1064.19)scale(.86908 -.86908)"/></g><g style="display:inline"><path d="M1182.5 106.362c-10.595 4.67-23.944-10.3-37-14-3.207-.908-7.467 2.71-8 6-1.005 6.207 5.338 12.299 10.75 15.5 11.849 7.01 30.842 15.037 40 12.75 3.733-.932 2.083-7.807 1-11.5-1.036-3.535-3.38-10.235-6.75-8.75" style="fill:#394655;fill-opacity:1;fill-rule:evenodd;stroke:none;stroke-width:1px;stroke-linecap:butt;stroke-linejoin:miter;stroke-opacity:1" transform="rotate(235.388 750.365 423.359)scale(.86908)"/><path d="M1144.795 95.197c-6.116.17-4.992 7.923-1.342 11.403 8.673 8.27 19.562 13.427 30.85 16.784 3.918 1.165 14.91.922 18.67-1.124.453-5.204-1.576-10.907-5.32-14.666-14.13 7.732-24.09-3.832-32.309-8.439-3.016-1.69-7.06-4.055-10.549-3.958" style="fill:#e1d6b9;fill-opacity:1;fill-rule:evenodd;stroke:none;stroke-width:1px;stroke-linecap:butt;stroke-linejoin:miter;stroke-opacity:1" transform="rotate(235.388 750.365 423.359)scale(.86908)"/></g></g><g style="display:inline"><path d="M394.245 631.848c-.27 9.572 4.112 18.607 11.087 25.385s16.562 11.28 27.081 11.605c10.52.326 19.987-3.603 26.824-10.01 6.836-6.408 11.01-15.253 11.276-24.818.265-9.565-3.285-18.052-9.286-24.156-6.002-6.103-14.582-9.818-25.117-10.1s-21.01 2.86-28.8 8.548c-7.791 5.688-12.795 13.974-13.065 23.546" style="color:#000;clip-rule:nonzero;display:inline;overflow:visible;opacity:1;isolation:auto;mix-blend-mode:normal;color-interpolation:sRGB;color-interpolation-filters:linearRGB;solid-color:#000;solid-opacity:1;fill:#394655;fill-opacity:1;fill-rule:nonzero;stroke:none;stroke-width:2;stroke-linecap:butt;stroke-linejoin:miter;stroke-miterlimit:1;stroke-dasharray:none;stroke-dashoffset:0;stroke-opacity:1;color-rendering:auto;image-rendering:auto;shape-rendering:auto;text-rendering:auto" transform="translate(-80.465 -409.835)"/><path d="M398.82 631.131c-.351 8.73 3.544 16.995 9.835 23.206 6.29 6.211 14.99 10.35 24.555 10.707s18.192-3.15 24.456-8.939c6.265-5.788 10.146-13.821 10.493-22.545.348-8.723-2.79-16.49-8.217-22.098-5.426-5.61-13.247-9.062-22.825-9.383s-19.083 2.506-26.197 7.654c-7.113 5.147-11.748 12.669-12.1 21.398" style="color:#000;clip-rule:nonzero;display:inline;overflow:visible;opacity:1;isolation:auto;mix-blend-mode:normal;color-interpolation:sRGB;color-interpolation-filters:linearRGB;solid-color:#000;solid-opacity:1;fill:#fff;fill-opacity:1;fill-rule:nonzero;stroke:none;stroke-width:2;stroke-linecap:butt;stroke-linejoin:miter;stroke-miterlimit:1;stroke-dasharray:none;stroke-dashoffset:0;stroke-opacity:1;color-rendering:auto;image-rendering:auto;shape-rendering:auto;text-rendering:auto" transform="translate(-80.465 -409.835)"/><path d="M275.49 639.384c.182 9.797 4.695 18.29 11.766 24.36 7.071 6.072 16.704 9.726 27.236 9.674s19.972-3.806 26.713-9.956 10.766-14.693 10.578-24.484c-.188-9.79-4.51-19.057-11.36-26.01s-16.27-11.51-26.821-11.453c-10.55.058-20.21 4.711-27.15 11.733s-11.146 16.339-10.963 26.136" style="color:#000;clip-rule:nonzero;display:inline;overflow:visible;opacity:1;isolation:auto;mix-blend-mode:normal;color-interpolation:sRGB;color-interpolation-filters:linearRGB;solid-color:#000;solid-opacity:1;fill:#394655;fill-opacity:1;fill-rule:nonzero;stroke:none;stroke-width:2;stroke-linecap:butt;stroke-linejoin:miter;stroke-miterlimit:1;stroke-dasharray:none;stroke-dashoffset:0;stroke-opacity:1;color-rendering:auto;image-rendering:auto;shape-rendering:auto;text-rendering:auto" transform="translate(-80.465 -409.835)"/><path d="M277.465 637.272c.144 9.21 4.325 17.212 10.902 22.941 6.577 5.73 15.55 9.194 25.365 9.178 9.815-.015 18.617-3.512 24.911-9.27 6.295-5.759 10.07-13.78 9.926-22.987s-4.147-17.92-10.523-24.448-15.16-10.795-24.994-10.773c-9.832.021-18.833 4.321-25.31 10.87-6.478 6.547-10.42 15.279-10.277 24.489" style="color:#000;clip-rule:nonzero;display:inline;overflow:visible;opacity:1;isolation:auto;mix-blend-mode:normal;color-interpolation:sRGB;color-interpolation-filters:linearRGB;solid-color:#000;solid-opacity:1;fill:#fff;fill-opacity:1;fill-rule:nonzero;stroke:none;stroke-width:2;stroke-linecap:butt;stroke-linejoin:miter;stroke-miterlimit:1;stroke-dasharray:none;stroke-dashoffset:0;stroke-opacity:1;color-rendering:auto;image-rendering:auto;shape-rendering:auto;text-rendering:auto" transform="translate(-80.465 -409.835)"/></g><g style="display:inline"><path d="M446.232 611.758c-21.786-24.616-55.202-32.265-87.2-28.803-27.89 3.017-57.388 10.9-73.479 34.732-10.691 15.834-6.488 29.393.437 47.625 6.984 18.386 18.531 38.51 13.738 58.963-3.31 14.122-11.078 28.058-8.88 43.303 2.746 19.036 11.725 37.869 28.926 47.483 19.696 11.008 43.461 11.858 65.333 8.386 21.113-3.352 42.789-13.367 54.293-32.738 8.723-14.688 13.231-31.627 14.075-48.748.915-18.588 1.915-34.264 3.302-50.246 1.739-20.048 1.984-36.578-.512-56.355-1.032-8.179-4.422-17.263-10.033-23.602" style="fill:#394655;fill-rule:evenodd;stroke:none;stroke-width:1px;stroke-linecap:butt;stroke-linejoin:miter;stroke-opacity:1" transform="translate(-80.465 -409.835)"/><path d="M370.76 584.718c-30.712.568-67.635 11.414-83.62 36.96-9.28 14.831-3.05 25.624 3.748 44.96 4.988 14.185 12.636 34.873 13.338 49.86.677 14.45-10.968 27.79-10.365 42.245.577 13.824 4.32 28.685 13.115 39.369 8.81 10.702 22.52 18.092 36.2 20.525 25.088 4.463 54.042 1.28 75.904-12.393 12.935-8.09 21.523-22.963 26.575-37.286 6.288-17.828 5.126-37.613 6.983-56.28 1.631-16.396 3.497-32.343 2.951-48.78-.563-16.962.317-38.213-11.385-51.2-17.515-22.485-46.872-28.472-73.444-27.98" style="fill:#96d6ff;fill-rule:evenodd;stroke:none;stroke-width:1px;stroke-linecap:butt;stroke-linejoin:miter;stroke-opacity:1" transform="translate(-80.465 -409.835)"/></g><g style="display:inline"><path d="M1175.137-25.413c-6.148-9.22-13.592-14.4-24.645-15.19-4.787-.341-9.198 1.21-11.957 5.136-3.196 4.548-3.052 9.435-1.04 14.617 2.249 5.787 9.286 5.145 13.03 5.382 9.89.625 16.693-2.875 21.782-4.059 2.058-.479 4.71-3.066 2.83-5.886" style="fill:#394655;fill-rule:evenodd;stroke:none;stroke-width:1px;stroke-linecap:butt;stroke-linejoin:miter;stroke-opacity:1" transform="rotate(143.078 647.87 -6.772)scale(.86908 -.86908)"/><path d="M1176.391-24.285c-5.696-7.802-15.292-14.369-25.146-15.073-4.267-.304-8.45 1.203-10.91 4.704-2.849 4.055-2.72 8.411-.926 13.031 2.004 5.16 8.246 4.648 11.62 4.789 8.913.37 18.224-.995 22.842-2.208 1.867-.49 4.262-2.857 2.52-5.243" style="fill:#96d6ff;fill-rule:evenodd;stroke:none;stroke-width:1px;stroke-linecap:butt;stroke-linejoin:miter;stroke-opacity:1" transform="rotate(143.078 647.87 -6.772)scale(.86908 -.86908)"/><path d="M1175.137-25.413c-6.148-9.22-13.592-14.4-24.645-15.19-4.787-.341-9.198 1.21-11.957 5.136-3.196 4.548-3.052 9.435-1.04 14.617 2.249 5.787 9.286 5.145 13.03 5.382 9.89.625 16.693-2.875 21.782-4.059 2.058-.479 4.71-3.066 2.83-5.886" style="fill:#394655;fill-rule:evenodd;stroke:none;stroke-width:1px;stroke-linecap:butt;stroke-linejoin:miter;stroke-opacity:1" transform="rotate(22.097 40.215 -1939.092)scale(.86908)"/><path d="M1176.391-24.285c-5.696-7.802-15.292-14.369-25.146-15.073-4.267-.304-8.45 1.203-10.91 4.704-2.849 4.055-2.72 8.411-.926 13.031 2.004 5.16 8.246 4.648 11.62 4.789 8.913.37 18.224-.995 22.842-2.208 1.867-.49 4.262-2.857 2.52-5.243" style="fill:#96d6ff;fill-rule:evenodd;stroke:none;stroke-width:1px;stroke-linecap:butt;stroke-linejoin:miter;stroke-opacity:1" transform="rotate(22.097 40.215 -1939.092)scale(.86908)"/></g><g style="display:inline"><path d="M1182.5 106.362c-2.066.304-8.394-3.863-21.45-7.562-3.207-.91-7.467 2.71-8 6-1.004 6.207 5.907 12.298 11.319 15.5 11.849 7.009 15.86 6.323 23.881 6.312 3.848-.005 2.083-7.807 1-11.5-1.036-3.535-3.105-9.285-6.75-8.75" style="fill:#394655;fill-opacity:1;fill-rule:evenodd;stroke:none;stroke-width:1px;stroke-linecap:butt;stroke-linejoin:miter;stroke-opacity:1" transform="matrix(.4039 .00027 -.00023 .48614 -220.706 303.264)"/><path d="M1160.345 101.634c-6.116.17-4.992 7.923-1.342 11.404 8.673 8.269 9.131 7.366 20.418 10.722 3.92 1.166 9.793.546 13.552-1.5.453-5.204-1.576-10.907-5.32-14.666-4.465 1.85-13.85-.994-16.758-2.002-3.267-1.132-7.06-4.055-10.55-3.958" style="fill:#e1d6b9;fill-opacity:1;fill-rule:evenodd;stroke:none;stroke-width:1px;stroke-linecap:butt;stroke-linejoin:miter;stroke-opacity:1" transform="matrix(.4039 .00027 -.00023 .48614 -220.706 303.264)"/></g></g><g style="display:inline" transform="rotate(-6.819 -2358.763 858.925)"><ellipse cx="233.799" cy="572.399" rx="129.463" ry="58.088" style="color:#000;clip-rule:nonzero;display:inline;overflow:visible;opacity:1;isolation:auto;mix-blend-mode:normal;color-interpolation:sRGB;color-interpolation-filters:linearRGB;solid-color:#000;solid-opacity:1;fill:#282d51;fill-opacity:1;fill-rule:nonzero;stroke:none;stroke-width:10;stroke-linecap:round;stroke-linejoin:miter;stroke-miterlimit:4;stroke-dasharray:none;stroke-dashoffset:0;stroke-opacity:1;color-rendering:auto;image-rendering:auto;shape-rendering:auto;text-rendering:auto" transform="rotate(-10.559)"/><path d="M403.164 463.74c-39.652-5.612-80.498.39-118.284 13.119-23.128 8.03-45.892 19.366-62.969 37.362-7.825 8.578-14.156 20.952-9.724 32.612 4.884 12.099 17.253 18.803 28.98 23.007 28.802 10.253 60.118 9.394 90.124 5.73 35.18-4.862 70.327-15.75 99.993-35.823 11.498-8.18 22.898-18.88 26.877-32.94 2.182-9.24-1.51-19.262-8.949-25.09-12.574-11.357-29.853-15.282-46.048-17.976" style="color:#000;clip-rule:nonzero;display:inline;overflow:visible;opacity:1;isolation:auto;mix-blend-mode:normal;color-interpolation:sRGB;color-interpolation-filters:linearRGB;solid-color:#000;solid-opacity:1;fill:#3b4378;fill-opacity:1;fill-rule:nonzero;stroke:none;stroke-width:10;stroke-linecap:round;stroke-linejoin:miter;stroke-miterlimit:4;stroke-dasharray:none;stroke-dashoffset:0;stroke-opacity:1;color-rendering:auto;image-rendering:auto;shape-rendering:auto;text-rendering:auto"/><path d="M252.365 527.594s13.12-66.856 17.206-95.935c2.117-15.068 1.836-53.169 1.836-53.169 60.586 26.62 106.226 77.077 147.126 108.533-9.536 61.891-146.318 70.89-166.169 40.57" style="fill:#282d51;fill-rule:evenodd;stroke:none;stroke-width:1px;stroke-linecap:butt;stroke-linejoin:miter;stroke-opacity:1"/><path d="M268.753 461.575c-4.047 12.054-9.887 52.774-13.57 64.943 50.632 39.706 165.226-3.142 160.081-39.607-34.496-26.71-94.555-81.815-118.275-93.074-7.683-3.647-15.207-7.83-22.964-11.326 1.109 27.38 2.264 56.617-5.272 79.064" style="fill:#3b4378;fill-rule:evenodd;stroke:none;stroke-width:1px;stroke-linecap:butt;stroke-linejoin:miter;stroke-opacity:1"/><path d="M254.7 497.964c-2.626 9.01-2.94 15.882-2.961 23.226 13.509 17.41 139.65 36.053 166.354-37.319l-7.117-7.95s-1.503-.364-5.076.96c.205.13.457.414.637.516-7.282 6.139-22.06 14.989-38.203 19.951-17.996 5.533-39.241 9.808-58.7 11.65-23.824 2.256-50.156-6.744-51.606-10.99l.21-1.102c.033-.154-2.805-.15-3.537 1.058" style="fill:#5b503c;fill-opacity:1;fill-rule:evenodd;stroke:none;stroke-width:1px;stroke-linecap:butt;stroke-linejoin:miter;stroke-opacity:1"/><path d="M253.895 520.987c-.303-6.616.771-18.87 2.182-20.523 42.107 28.82 137.199-2.68 153.378-23.055 2.306 2.647 3.977 4.01 6.992 6.621-25.997 60.4-133.591 59.284-162.552 36.957" style="fill:#fddea6;fill-opacity:1;fill-rule:evenodd;stroke:none;stroke-width:1px;stroke-linecap:butt;stroke-linejoin:miter;stroke-opacity:1"/></g></svg>